<?xml version="1.0" standalone="no"?>
<!DOCTYPE svg PUBLIC "-//W3C//DTD SVG 20010904//EN"
 "http://www.w3.org/TR/2001/REC-SVG-20010904/DTD/svg10.dtd">
<svg version="1.0" xmlns="http://www.w3.org/2000/svg"
 width="2407.000000pt" height="2407.000000pt" viewBox="0 0 2407.000000 2407.000000"
 preserveAspectRatio="xMidYMid meet">
<metadata>
Created by potrace 1.14, written by Peter Selinger 2001-2017
</metadata>
<g transform="translate(0.000000,2407.000000) scale(0.100000,-0.100000)"
fill="#000000" stroke="none">
<path d="M11915 22260 c-22 -10 -101 -46 -175 -78 -74 -33 -155 -69 -180 -80
-25 -12 -148 -67 -275 -122 -126 -56 -258 -115 -293 -131 -35 -16 -65 -29 -67
-29 -2 0 -36 -15 -77 -34 -40 -18 -172 -77 -293 -131 -121 -53 -245 -108 -275
-122 -30 -14 -156 -70 -280 -125 -124 -55 -249 -111 -278 -124 -29 -13 -54
-24 -57 -24 -2 0 -39 -16 -82 -36 -43 -20 -136 -62 -208 -94 -71 -32 -160 -72
-198 -89 -37 -17 -69 -31 -72 -31 -2 0 -43 -18 -90 -40 -47 -22 -88 -40 -90
-40 -2 0 -43 -18 -90 -40 -47 -22 -88 -40 -90 -40 -2 0 -32 -13 -67 -29 -111
-51 -165 -75 -663 -296 -270 -120 -523 -233 -563 -251 -41 -19 -75 -34 -77
-34 -2 0 -43 -18 -90 -40 -47 -22 -88 -40 -90 -40 -2 0 -32 -13 -67 -29 -35
-16 -164 -74 -288 -129 -124 -55 -250 -111 -280 -125 -30 -13 -111 -49 -180
-80 -219 -96 -244 -109 -231 -116 9 -6 12 -679 12 -2961 0 -3077 -1 -2980 37
-2980 6 0 86 -34 178 -76 93 -42 223 -100 289 -129 66 -29 145 -64 175 -78 30
-14 300 -134 600 -267 300 -133 563 -250 585 -260 22 -10 83 -37 135 -60 52
-23 133 -59 180 -80 47 -21 209 -93 360 -160 292 -130 336 -149 415 -185 28
-12 169 -75 315 -140 146 -64 290 -128 320 -142 85 -39 292 -131 545 -243 127
-55 244 -107 260 -115 48 -22 526 -235 565 -252 19 -8 53 -23 75 -33 22 -10
83 -37 135 -60 123 -54 198 -88 235 -105 17 -8 93 -42 170 -76 77 -33 158 -69
179 -80 22 -10 43 -19 48 -19 4 0 9 1335 11 2968 l2 2967 3 -2967 c1 -1633 4
-2968 6 -2968 4 0 163 70 261 115 17 8 141 63 275 123 135 60 268 120 295 132
28 12 68 31 90 41 22 10 213 95 425 189 212 95 413 185 448 201 34 16 64 29
66 29 2 0 47 20 100 45 53 25 99 45 101 45 2 0 32 13 67 29 35 16 189 85 343
154 292 130 621 277 715 320 30 14 117 52 193 86 479 213 478 213 562 251 33
15 94 42 135 60 41 18 104 46 140 62 36 17 83 38 105 48 22 10 108 48 190 85
83 38 184 82 225 100 41 18 115 51 163 74 49 22 90 41 92 41 3 0 35 14 72 31
38 17 107 48 154 69 48 21 133 60 190 85 57 26 118 53 134 60 17 7 64 28 105
47 41 19 86 39 100 45 l25 10 0 2966 c1 1631 -2 2964 -6 2961 -4 -2 -9 0 -11
5 -3 9 -340 162 -1543 698 -253 113 -485 216 -515 230 -30 14 -95 43 -145 65
-49 21 -108 48 -130 58 -43 20 -76 35 -575 257 -179 80 -358 160 -398 179 -41
19 -75 34 -78 34 -2 0 -47 20 -100 45 -53 25 -98 45 -100 45 -2 0 -34 14 -71
31 -38 17 -124 56 -193 86 -69 30 -162 72 -208 94 -46 21 -86 39 -89 39 -3 0
-33 13 -67 29 -33 16 -83 39 -111 51 -27 12 -64 28 -81 35 -16 8 -61 28 -100
46 -38 17 -235 105 -439 196 -203 91 -388 173 -410 183 -22 10 -83 37 -135 60
-52 23 -120 54 -150 67 -72 33 -141 63 -143 63 -1 -1 -20 -10 -42 -20z m2560
-2077 l0 -558 -30 -53 c-85 -155 -337 -297 -720 -407 -33 -10 -64 -18 -70 -19
-5 -1 -19 -5 -30 -9 -11 -3 -31 -8 -45 -11 -14 -2 -54 -11 -90 -19 -65 -16
-194 -42 -260 -52 -19 -3 -60 -10 -90 -15 -30 -5 -77 -11 -105 -15 -62 -7
-133 -16 -160 -20 -11 -2 -56 -6 -100 -10 -44 -3 -93 -8 -110 -10 -16 -2 -82
-7 -145 -10 -63 -4 -140 -9 -170 -11 -73 -6 -698 -6 -775 0 -33 2 -109 7 -170
11 -122 8 -141 9 -235 19 -36 4 -85 9 -110 12 -58 6 -129 14 -159 19 -13 2
-45 7 -70 11 -25 3 -57 8 -71 10 -14 2 -54 9 -90 15 -36 5 -83 14 -105 19 -22
5 -53 11 -70 14 -121 21 -369 91 -510 144 -206 77 -372 175 -449 266 -85 98
-80 62 -81 674 -1 298 3 542 7 542 4 0 8 -8 8 -18 0 -25 52 -98 104 -145 144
-131 416 -248 781 -337 66 -16 134 -32 150 -35 83 -16 194 -36 224 -41 18 -3
41 -7 50 -9 9 -2 44 -6 76 -10 33 -4 69 -9 80 -11 11 -2 44 -6 73 -10 29 -3
61 -7 71 -9 9 -2 57 -6 106 -10 49 -4 105 -9 125 -11 145 -13 347 -19 665 -19
326 0 461 4 650 20 130 10 188 16 218 20 18 2 57 7 88 10 31 3 67 8 79 10 12
2 41 6 64 9 78 9 221 35 346 61 159 33 147 31 200 45 345 89 611 209 753 339
33 31 84 110 93 146 3 14 7 25 8 25 1 0 2 -251 1 -557z"/>
<path d="M5790 12890 c-13 -9 -71 -35 -165 -75 -43 -19 -309 -138 -377 -169
-31 -14 -59 -26 -62 -26 -2 0 -40 -16 -83 -36 -43 -20 -136 -62 -208 -94 -71
-32 -150 -67 -175 -78 -25 -12 -169 -76 -320 -142 -328 -145 -315 -139 -413
-184 -42 -20 -79 -36 -81 -36 -2 0 -37 -15 -78 -34 -40 -19 -149 -68 -243
-109 -93 -41 -195 -86 -225 -100 -30 -14 -111 -50 -180 -80 -69 -30 -145 -63
-170 -75 -25 -11 -85 -38 -135 -60 -49 -22 -119 -53 -155 -69 -36 -17 -99 -45
-140 -63 -41 -18 -102 -45 -135 -60 -33 -15 -114 -51 -180 -80 -164 -72 -201
-88 -270 -120 -33 -15 -94 -42 -135 -60 -41 -18 -103 -45 -138 -61 -35 -16
-65 -29 -68 -29 -2 0 -47 -20 -100 -45 -52 -25 -97 -45 -99 -45 -2 0 -32 -13
-67 -29 -35 -16 -166 -75 -293 -131 -126 -56 -250 -111 -275 -122 -25 -11 -63
-29 -85 -38 -22 -10 -69 -31 -105 -47 -36 -16 -181 -81 -322 -144 -188 -83
-260 -120 -269 -137 -10 -18 -13 -655 -13 -2975 l-1 -2953 325 -144 c179 -79
367 -163 418 -187 51 -24 95 -43 98 -43 3 0 33 -13 67 -29 62 -29 125 -57 972
-433 248 -110 473 -210 500 -223 109 -49 434 -194 675 -300 213 -94 251 -111
315 -140 28 -13 273 -122 545 -243 272 -121 515 -229 540 -240 25 -12 189 -85
365 -162 176 -78 343 -152 370 -165 28 -13 83 -37 124 -55 40 -17 106 -47 147
-66 41 -19 76 -34 78 -34 3 0 33 -13 68 -29 35 -16 93 -43 131 -59 l67 -31 0
30 c0 16 4 29 8 29 5 0 7 -14 4 -30 -5 -37 -47 -53 383 140 187 84 360 161
385 172 25 11 70 32 100 45 30 14 161 73 290 130 129 58 253 113 275 123 22
10 81 36 130 58 50 22 115 51 145 65 30 14 138 62 240 107 102 46 218 98 258
116 41 19 75 34 77 34 2 0 32 13 67 29 35 16 104 47 153 69 96 42 182 81 255
114 25 11 104 46 175 78 120 53 166 74 300 135 28 13 127 57 220 98 294 130
608 270 695 310 30 14 188 85 350 157 362 162 343 153 410 183 94 42 153 68
206 93 28 13 53 24 56 24 4 0 44 18 90 39 45 22 175 80 288 130 113 50 211 94
219 99 11 6 14 458 13 2947 0 1617 -1 2951 -1 2965 -1 18 -10 29 -33 39 -86
38 -275 122 -293 131 -11 5 -47 21 -80 36 -132 58 -632 282 -820 366 -110 50
-234 105 -275 123 -41 18 -100 44 -130 58 -69 32 -519 233 -580 259 -25 11
-63 28 -85 38 -22 10 -103 46 -180 80 -210 93 -246 110 -290 130 -139 64 -193
88 -215 95 -14 4 -29 11 -35 15 -5 4 -109 51 -230 105 -121 53 -247 110 -280
125 -33 15 -139 62 -235 105 -96 42 -208 92 -248 111 -40 19 -74 34 -76 34 -3
0 -37 15 -78 34 -40 18 -131 60 -203 91 -71 32 -159 71 -195 88 -36 16 -105
47 -155 69 -49 22 -108 48 -130 58 -22 10 -168 75 -325 145 -157 70 -305 136
-330 147 -299 136 -300 136 -330 118z m-2438 -1605 c19 -36 89 -110 143 -152
198 -151 676 -304 1180 -378 22 -3 51 -8 65 -10 14 -2 46 -6 73 -10 26 -3 68
-8 95 -11 68 -9 97 -11 192 -19 47 -3 99 -8 115 -10 194 -24 1047 -24 1230 0
17 2 64 6 105 9 84 7 170 15 215 21 17 2 53 7 80 10 28 4 93 13 145 21 91 14
113 18 179 29 404 69 822 217 1004 356 68 51 139 134 152 177 3 12 9 22 13 22
4 0 7 -242 6 -538 -1 -610 2 -582 -86 -678 -176 -191 -623 -360 -1193 -450
-16 -2 -41 -6 -55 -9 -14 -2 -45 -7 -70 -10 -25 -3 -56 -8 -70 -10 -22 -3 -47
-6 -170 -20 -14 -1 -61 -6 -105 -10 -44 -4 -96 -8 -115 -10 -270 -27 -1024
-27 -1300 0 -19 2 -71 6 -115 10 -44 3 -91 8 -105 10 -14 2 -50 7 -80 10 -90
11 -93 12 -150 19 -67 9 -279 46 -350 60 -370 78 -687 191 -859 309 -65 44
-153 135 -176 182 -19 38 -20 65 -22 600 -1 308 2 549 6 535 4 -14 15 -39 23
-55z m2491 -3574 c2 -10 1 -24 -3 -30 -4 -7 -7 1 -8 18 -1 35 3 40 11 12z m7
-55 c0 -3 -4 -8 -10 -11 -5 -3 -10 -1 -10 4 0 6 5 11 10 11 6 0 10 -2 10 -4z
m0 -30 c0 -3 -4 -8 -10 -11 -5 -3 -10 -1 -10 4 0 6 5 11 10 11 6 0 10 -2 10
-4z m0 -36 c0 -5 -4 -10 -10 -10 -5 0 -10 5 -10 10 0 6 5 10 10 10 6 0 10 -4
10 -10z m-8 -66 c-6 -35 -12 -29 -10 11 1 20 4 31 8 25 4 -6 5 -22 2 -36z m2
-99 c-2 -89 -11 -93 -11 -5 0 38 2 70 6 70 3 0 5 -29 5 -65z m6 -89 c0 -3 -4
-8 -10 -11 -5 -3 -10 -1 -10 4 0 6 5 11 10 11 6 0 10 -2 10 -4z m0 -30 c0 -3
-4 -8 -10 -11 -5 -3 -10 -1 -10 4 0 6 5 11 10 11 6 0 10 -2 10 -4z m0 -30 c0
-3 -4 -8 -10 -11 -5 -3 -10 -1 -10 4 0 6 5 11 10 11 6 0 10 -2 10 -4z m0 -30
c0 -3 -4 -8 -10 -11 -5 -3 -10 -1 -10 4 0 6 5 11 10 11 6 0 10 -2 10 -4z m-6
-76 c-2 -69 -10 -73 -12 -5 0 30 2 55 6 55 4 0 6 -23 6 -50z m6 -74 c0 -3 -4
-8 -10 -11 -5 -3 -10 -1 -10 4 0 6 5 11 10 11 6 0 10 -2 10 -4z m-5 -36 c3 -5
1 -10 -4 -10 -6 0 -11 5 -11 10 0 6 2 10 4 10 3 0 8 -4 11 -10z m0 -30 c3 -5
1 -10 -4 -10 -6 0 -11 5 -11 10 0 6 2 10 4 10 3 0 8 -4 11 -10z m0 -30 c3 -5
1 -10 -4 -10 -6 0 -11 5 -11 10 0 6 2 10 4 10 3 0 8 -4 11 -10z m-1 -75 c-2
-65 -10 -65 -12 0 0 31 3 53 7 51 4 -3 6 -25 5 -51z m6 -69 c0 -3 -4 -8 -10
-11 -5 -3 -10 -1 -10 4 0 6 5 11 10 11 6 0 10 -2 10 -4z m0 -30 c0 -3 -4 -8
-10 -11 -5 -3 -10 -1 -10 4 0 6 5 11 10 11 6 0 10 -2 10 -4z m0 -30 c0 -3 -4
-8 -10 -11 -5 -3 -10 -1 -10 4 0 6 5 11 10 11 6 0 10 -2 10 -4z m0 -30 c0 -3
-4 -8 -10 -11 -5 -3 -10 -1 -10 4 0 6 5 11 10 11 6 0 10 -2 10 -4z m-6 -76
c-2 -69 -10 -73 -12 -5 0 30 2 55 6 55 4 0 6 -23 6 -50z m6 -74 c0 -3 -4 -8
-10 -11 -5 -3 -10 -1 -10 4 0 6 5 11 10 11 6 0 10 -2 10 -4z m-5 -36 c3 -5 1
-10 -4 -10 -6 0 -11 5 -11 10 0 6 2 10 4 10 3 0 8 -4 11 -10z m0 -30 c3 -5 1
-10 -4 -10 -6 0 -11 5 -11 10 0 6 2 10 4 10 3 0 8 -4 11 -10z m0 -30 c3 -5 1
-10 -4 -10 -6 0 -11 5 -11 10 0 6 2 10 4 10 3 0 8 -4 11 -10z m-1 -75 c-2 -65
-10 -65 -12 0 0 31 3 53 7 51 4 -3 6 -25 5 -51z m6 -69 c0 -3 -4 -8 -10 -11
-5 -3 -10 -1 -10 4 0 6 5 11 10 11 6 0 10 -2 10 -4z m0 -30 c0 -3 -4 -8 -10
-11 -5 -3 -10 -1 -10 4 0 6 5 11 10 11 6 0 10 -2 10 -4z m0 -30 c0 -3 -4 -8
-10 -11 -5 -3 -10 -1 -10 4 0 6 5 11 10 11 6 0 10 -2 10 -4z m0 -30 c0 -3 -4
-8 -10 -11 -5 -3 -10 -1 -10 4 0 6 5 11 10 11 6 0 10 -2 10 -4z m-6 -116 c-1
-121 -10 -125 -11 -5 -1 52 2 95 6 95 3 0 6 -41 5 -90z m6 -114 c0 -3 -4 -8
-10 -11 -5 -3 -10 -1 -10 4 0 6 5 11 10 11 6 0 10 -2 10 -4z m0 -30 c0 -3 -4
-8 -10 -11 -5 -3 -10 -1 -10 4 0 6 5 11 10 11 6 0 10 -2 10 -4z m0 -30 c0 -3
-4 -8 -10 -11 -5 -3 -10 -1 -10 4 0 6 5 11 10 11 6 0 10 -2 10 -4z m0 -30 c0
-3 -4 -8 -10 -11 -5 -3 -10 -1 -10 4 0 6 5 11 10 11 6 0 10 -2 10 -4z m-6 -76
c-2 -69 -10 -73 -12 -5 0 30 2 55 6 55 4 0 6 -23 6 -50z m6 -74 c0 -3 -4 -8
-10 -11 -5 -3 -10 -1 -10 4 0 6 5 11 10 11 6 0 10 -2 10 -4z m-5 -36 c3 -5 1
-10 -4 -10 -6 0 -11 5 -11 10 0 6 2 10 4 10 3 0 8 -4 11 -10z m0 -30 c3 -5 1
-10 -4 -10 -6 0 -11 5 -11 10 0 6 2 10 4 10 3 0 8 -4 11 -10z m0 -30 c3 -5 1
-10 -4 -10 -6 0 -11 5 -11 10 0 6 2 10 4 10 3 0 8 -4 11 -10z m-1 -75 c-2 -65
-10 -65 -12 0 0 31 3 53 7 51 4 -3 6 -25 5 -51z m6 -69 c0 -3 -4 -8 -10 -11
-5 -3 -10 -1 -10 4 0 6 5 11 10 11 6 0 10 -2 10 -4z m0 -30 c0 -3 -4 -8 -10
-11 -5 -3 -10 -1 -10 4 0 6 5 11 10 11 6 0 10 -2 10 -4z m0 -30 c0 -3 -4 -8
-10 -11 -5 -3 -10 -1 -10 4 0 6 5 11 10 11 6 0 10 -2 10 -4z m0 -30 c0 -3 -4
-8 -10 -11 -5 -3 -10 -1 -10 4 0 6 5 11 10 11 6 0 10 -2 10 -4z m-6 -76 c-2
-69 -10 -73 -12 -5 0 30 2 55 6 55 4 0 6 -23 6 -50z m6 -74 c0 -3 -4 -8 -10
-11 -5 -3 -10 -1 -10 4 0 6 5 11 10 11 6 0 10 -2 10 -4z m-5 -36 c3 -5 1 -10
-4 -10 -6 0 -11 5 -11 10 0 6 2 10 4 10 3 0 8 -4 11 -10z m0 -30 c3 -5 1 -10
-4 -10 -6 0 -11 5 -11 10 0 6 2 10 4 10 3 0 8 -4 11 -10z m0 -30 c3 -5 1 -10
-4 -10 -6 0 -11 5 -11 10 0 6 2 10 4 10 3 0 8 -4 11 -10z m-1 -75 c-2 -65 -10
-65 -12 0 0 31 3 53 7 51 4 -3 6 -25 5 -51z m6 -69 c0 -3 -4 -8 -10 -11 -5 -3
-10 -1 -10 4 0 6 5 11 10 11 6 0 10 -2 10 -4z m0 -30 c0 -3 -4 -8 -10 -11 -5
-3 -10 -1 -10 4 0 6 5 11 10 11 6 0 10 -2 10 -4z m0 -30 c0 -3 -4 -8 -10 -11
-5 -3 -10 -1 -10 4 0 6 5 11 10 11 6 0 10 -2 10 -4z m0 -30 c0 -3 -4 -8 -10
-11 -5 -3 -10 -1 -10 4 0 6 5 11 10 11 6 0 10 -2 10 -4z m-6 -116 c-1 -121
-10 -125 -11 -5 -1 52 2 95 6 95 3 0 6 -41 5 -90z m6 -114 c0 -3 -4 -8 -10
-11 -5 -3 -10 -1 -10 4 0 6 5 11 10 11 6 0 10 -2 10 -4z m0 -30 c0 -3 -4 -8
-10 -11 -5 -3 -10 -1 -10 4 0 6 5 11 10 11 6 0 10 -2 10 -4z m0 -30 c0 -3 -4
-8 -10 -11 -5 -3 -10 -1 -10 4 0 6 5 11 10 11 6 0 10 -2 10 -4z m0 -30 c0 -3
-4 -8 -10 -11 -5 -3 -10 -1 -10 4 0 6 5 11 10 11 6 0 10 -2 10 -4z m-6 -76
c-2 -69 -10 -73 -12 -5 0 30 2 55 6 55 4 0 6 -23 6 -50z m6 -74 c0 -3 -4 -8
-10 -11 -5 -3 -10 -1 -10 4 0 6 5 11 10 11 6 0 10 -2 10 -4z m-5 -36 c3 -5 1
-10 -4 -10 -6 0 -11 5 -11 10 0 6 2 10 4 10 3 0 8 -4 11 -10z m0 -30 c3 -5 1
-10 -4 -10 -6 0 -11 5 -11 10 0 6 2 10 4 10 3 0 8 -4 11 -10z m0 -30 c3 -5 1
-10 -4 -10 -6 0 -11 5 -11 10 0 6 2 10 4 10 3 0 8 -4 11 -10z m-1 -75 c-2 -65
-10 -65 -12 0 0 31 3 53 7 51 4 -3 6 -25 5 -51z m6 -69 c0 -3 -4 -8 -10 -11
-5 -3 -10 -1 -10 4 0 6 5 11 10 11 6 0 10 -2 10 -4z m0 -30 c0 -3 -4 -8 -10
-11 -5 -3 -10 -1 -10 4 0 6 5 11 10 11 6 0 10 -2 10 -4z m0 -30 c0 -3 -4 -8
-10 -11 -5 -3 -10 -1 -10 4 0 6 5 11 10 11 6 0 10 -2 10 -4z m0 -30 c0 -3 -4
-8 -10 -11 -5 -3 -10 -1 -10 4 0 6 5 11 10 11 6 0 10 -2 10 -4z m-6 -76 c-2
-69 -10 -73 -12 -5 0 30 2 55 6 55 4 0 6 -23 6 -50z m6 -74 c0 -3 -4 -8 -10
-11 -5 -3 -10 -1 -10 4 0 6 5 11 10 11 6 0 10 -2 10 -4z m-5 -36 c3 -5 1 -10
-4 -10 -6 0 -11 5 -11 10 0 6 2 10 4 10 3 0 8 -4 11 -10z m0 -30 c3 -5 1 -10
-4 -10 -6 0 -11 5 -11 10 0 6 2 10 4 10 3 0 8 -4 11 -10z m0 -30 c3 -5 1 -10
-4 -10 -6 0 -11 5 -11 10 0 6 2 10 4 10 3 0 8 -4 11 -10z m-1 -75 c-2 -65 -10
-65 -12 0 0 31 3 53 7 51 4 -3 6 -25 5 -51z m6 -69 c0 -3 -4 -8 -10 -11 -5 -3
-10 -1 -10 4 0 6 5 11 10 11 6 0 10 -2 10 -4z m0 -30 c0 -3 -4 -8 -10 -11 -5
-3 -10 -1 -10 4 0 6 5 11 10 11 6 0 10 -2 10 -4z m0 -30 c0 -3 -4 -8 -10 -11
-5 -3 -10 -1 -10 4 0 6 5 11 10 11 6 0 10 -2 10 -4z m0 -30 c0 -3 -4 -8 -10
-11 -5 -3 -10 -1 -10 4 0 6 5 11 10 11 6 0 10 -2 10 -4z m-6 -76 c-2 -69 -10
-73 -12 -5 0 30 2 55 6 55 4 0 6 -23 6 -50z m6 -74 c0 -3 -4 -8 -10 -11 -5 -3
-10 -1 -10 4 0 6 5 11 10 11 6 0 10 -2 10 -4z m-5 -36 c3 -5 1 -10 -4 -10 -6
0 -11 5 -11 10 0 6 2 10 4 10 3 0 8 -4 11 -10z m0 -30 c3 -5 1 -10 -4 -10 -6
0 -11 5 -11 10 0 6 2 10 4 10 3 0 8 -4 11 -10z m0 -30 c3 -5 1 -10 -4 -10 -6
0 -11 5 -11 10 0 6 2 10 4 10 3 0 8 -4 11 -10z m-1 -75 c-2 -65 -10 -65 -12 0
0 31 3 53 7 51 4 -3 6 -25 5 -51z m6 -69 c0 -3 -4 -8 -10 -11 -5 -3 -10 -1
-10 4 0 6 5 11 10 11 6 0 10 -2 10 -4z m0 -30 c0 -3 -4 -8 -10 -11 -5 -3 -10
-1 -10 4 0 6 5 11 10 11 6 0 10 -2 10 -4z m0 -30 c0 -3 -4 -8 -10 -11 -5 -3
-10 -1 -10 4 0 6 5 11 10 11 6 0 10 -2 10 -4z m0 -30 c0 -3 -4 -8 -10 -11 -5
-3 -10 -1 -10 4 0 6 5 11 10 11 6 0 10 -2 10 -4z m-6 -76 c-2 -69 -10 -73 -12
-5 0 30 2 55 6 55 4 0 6 -23 6 -50z m6 -74 c0 -3 -4 -8 -10 -11 -5 -3 -10 -1
-10 4 0 6 5 11 10 11 6 0 10 -2 10 -4z m-5 -36 c3 -5 1 -10 -4 -10 -6 0 -11 5
-11 10 0 6 2 10 4 10 3 0 8 -4 11 -10z m0 -30 c3 -5 1 -10 -4 -10 -6 0 -11 5
-11 10 0 6 2 10 4 10 3 0 8 -4 11 -10z m0 -30 c3 -5 1 -10 -4 -10 -6 0 -11 5
-11 10 0 6 2 10 4 10 3 0 8 -4 11 -10z m0 -29 c3 -5 1 -12 -5 -16 -5 -3 -10 1
-10 9 0 18 6 21 15 7z m5 -35 c0 -3 -4 -8 -10 -11 -5 -3 -10 -1 -10 4 0 6 5
11 10 11 6 0 10 -2 10 -4z m-5 -36 c3 -5 1 -10 -4 -10 -6 0 -11 5 -11 10 0 6
2 10 4 10 3 0 8 -4 11 -10z m0 -30 c3 -5 1 -10 -4 -10 -6 0 -11 5 -11 10 0 6
2 10 4 10 3 0 8 -4 11 -10z m0 -30 c3 -5 1 -10 -4 -10 -6 0 -11 5 -11 10 0 6
2 10 4 10 3 0 8 -4 11 -10z m-1 -75 c-2 -65 -10 -65 -12 0 0 31 3 53 7 51 4
-3 6 -25 5 -51z m6 -69 c0 -3 -4 -8 -10 -11 -5 -3 -10 -1 -10 4 0 6 5 11 10
11 6 0 10 -2 10 -4z m0 -30 c0 -3 -4 -8 -10 -11 -5 -3 -10 -1 -10 4 0 6 5 11
10 11 6 0 10 -2 10 -4z m0 -30 c0 -3 -4 -8 -10 -11 -5 -3 -10 -1 -10 4 0 6 5
11 10 11 6 0 10 -2 10 -4z m0 -30 c0 -3 -4 -8 -10 -11 -5 -3 -10 -1 -10 4 0 6
5 11 10 11 6 0 10 -2 10 -4z m-6 -76 c-2 -69 -10 -73 -12 -5 0 30 2 55 6 55 4
0 6 -23 6 -50z m6 -74 c0 -3 -4 -8 -10 -11 -5 -3 -10 -1 -10 4 0 6 5 11 10 11
6 0 10 -2 10 -4z m-5 -36 c3 -5 1 -10 -4 -10 -6 0 -11 5 -11 10 0 6 2 10 4 10
3 0 8 -4 11 -10z m0 -30 c3 -5 1 -10 -4 -10 -6 0 -11 5 -11 10 0 6 2 10 4 10
3 0 8 -4 11 -10z m0 -30 c3 -5 1 -10 -4 -10 -6 0 -11 5 -11 10 0 6 2 10 4 10
3 0 8 -4 11 -10z m-2 -50 c-7 -28 -13 -25 -13 6 0 14 4 23 9 20 5 -3 7 -15 4
-26z m7 -34 c0 -3 -4 -8 -10 -11 -5 -3 -10 -1 -10 4 0 6 5 11 10 11 6 0 10 -2
10 -4z m-5 -35 c3 -5 1 -12 -5 -16 -5 -3 -10 1 -10 9 0 18 6 21 15 7z m5 -35
c0 -3 -4 -8 -10 -11 -5 -3 -10 -1 -10 4 0 6 5 11 10 11 6 0 10 -2 10 -4z m-8
-51 c-2 -14 -6 -25 -8 -25 -2 0 -4 11 -4 25 0 14 4 25 9 25 4 0 6 -11 3 -25z
m8 -39 c0 -3 -4 -8 -10 -11 -5 -3 -10 -1 -10 4 0 6 5 11 10 11 6 0 10 -2 10
-4z m-5 -35 c3 -5 1 -12 -5 -16 -5 -3 -10 1 -10 9 0 18 6 21 15 7z m5 -35 c0
-3 -4 -8 -10 -11 -5 -3 -10 -1 -10 4 0 6 5 11 10 11 6 0 10 -2 10 -4z m-8 -51
c-2 -14 -6 -25 -8 -25 -2 0 -4 11 -4 25 0 14 4 25 9 25 4 0 6 -11 3 -25z m8
-39 c0 -3 -4 -8 -10 -11 -5 -3 -10 -1 -10 4 0 6 5 11 10 11 6 0 10 -2 10 -4z
m-5 -35 c3 -5 1 -12 -5 -16 -5 -3 -10 1 -10 9 0 18 6 21 15 7z m5 -35 c0 -3
-4 -8 -10 -11 -5 -3 -10 -1 -10 4 0 6 5 11 10 11 6 0 10 -2 10 -4z"/>
<path d="M18025 12795 c-296 -134 -318 -144 -515 -230 -147 -65 -291 -130
-448 -201 -29 -13 -54 -24 -56 -24 -2 0 -43 -18 -90 -40 -47 -22 -88 -40 -90
-40 -2 0 -37 -15 -78 -34 -40 -18 -131 -59 -203 -91 -71 -32 -158 -70 -193
-86 -35 -16 -65 -29 -67 -29 -2 0 -34 -14 -72 -32 -37 -18 -70 -33 -73 -33 -3
-1 -21 -8 -40 -17 -43 -19 -144 -65 -185 -83 -16 -7 -61 -27 -98 -44 -38 -17
-70 -31 -72 -31 -2 0 -48 -20 -101 -45 -53 -25 -97 -45 -99 -45 -2 0 -32 -13
-67 -29 -35 -16 -247 -111 -473 -211 -225 -99 -430 -191 -455 -202 -25 -11
-63 -28 -85 -38 -22 -9 -60 -26 -85 -38 -25 -11 -106 -47 -180 -80 -74 -33
-155 -69 -180 -80 -87 -39 -426 -190 -500 -222 -41 -18 -113 -50 -158 -71 -46
-22 -86 -39 -88 -39 -2 0 -38 -16 -80 -35 -41 -19 -77 -35 -79 -35 -2 0 -43
-18 -90 -40 -48 -22 -135 -61 -194 -86 -58 -26 -148 -66 -200 -90 -51 -24 -96
-44 -100 -44 -19 -1 -82 -38 -70 -42 11 -4 13 -488 14 -2962 l0 -2957 25 -14
c14 -8 54 -28 90 -44 36 -15 310 -138 610 -271 300 -134 583 -260 630 -280 83
-36 234 -103 315 -140 22 -10 285 -127 585 -260 613 -272 708 -314 765 -340
22 -11 121 -55 220 -98 99 -44 210 -94 248 -111 37 -17 69 -31 72 -31 2 0 32
-13 67 -30 35 -16 164 -74 288 -128 124 -55 250 -111 280 -125 30 -13 88 -39
129 -57 40 -17 106 -47 147 -66 41 -19 76 -34 79 -34 2 0 48 -20 101 -45 53
-25 97 -45 99 -45 2 0 32 -13 67 -29 35 -16 122 -55 193 -86 72 -32 153 -68
180 -80 28 -13 133 -60 235 -105 102 -45 203 -90 225 -100 22 -10 66 -30 98
-44 l57 -25 2 2967 3 2967 5 -2967 5 -2967 145 65 c80 36 169 76 198 89 29 14
54 25 57 25 2 0 32 13 67 29 146 67 296 134 503 226 121 54 249 111 285 128
36 16 124 55 195 87 165 72 391 173 475 212 36 17 83 37 105 46 22 8 45 18 50
22 6 4 57 28 115 53 58 25 139 61 180 80 41 19 113 51 160 72 47 20 118 53
158 71 41 19 75 34 77 34 2 0 32 13 67 29 35 16 131 59 213 96 83 37 168 75
190 85 22 10 209 93 415 185 453 202 440 196 570 255 58 26 249 112 425 190
176 78 340 151 365 162 25 11 65 29 90 40 25 11 68 30 95 43 100 46 184 84
378 170 l197 87 0 2963 c0 2358 -3 2964 -12 2972 -7 5 -58 29 -113 53 -55 24
-142 63 -193 87 -52 23 -95 43 -98 43 -3 0 -36 15 -171 76 -32 15 -96 43 -143
64 -47 21 -110 49 -140 63 -30 13 -113 50 -185 82 -71 32 -200 89 -285 127
-85 39 -173 78 -195 88 -22 10 -209 93 -415 185 -206 92 -505 226 -665 297
-159 72 -351 157 -425 190 -127 57 -163 73 -285 128 -27 12 -90 40 -140 62
-49 22 -108 48 -130 58 -99 45 -177 80 -180 80 -2 0 -36 15 -77 34 -40 19 -93
43 -118 54 -53 23 -417 186 -475 212 -22 10 -80 36 -130 58 -49 22 -125 56
-168 76 -43 20 -80 36 -82 36 -2 0 -36 15 -77 34 -40 19 -174 79 -298 134
-124 55 -250 111 -280 125 -176 80 -311 137 -322 136 -7 0 -116 -47 -243 -104z
m2746 -2577 c-22 -52 -107 -148 -159 -180 -20 -12 -39 -25 -42 -28 -10 -12
-137 -77 -220 -113 -136 -57 -357 -126 -520 -161 -165 -36 -313 -64 -375 -71
-27 -3 -61 -8 -75 -10 -53 -10 -87 -14 -145 -20 -33 -4 -71 -8 -85 -10 -14 -1
-61 -6 -105 -9 -44 -4 -99 -9 -123 -11 -270 -27 -995 -27 -1297 0 -131 12
-174 16 -210 21 -22 2 -60 6 -85 8 -43 4 -322 47 -425 66 -42 7 -206 42 -255
54 -211 52 -456 140 -589 213 -131 73 -237 170 -273 250 -20 45 -20 67 -22
590 0 298 0 543 1 543 2 0 13 -21 25 -47 56 -121 235 -245 493 -343 181 -69
531 -159 715 -185 25 -3 52 -8 60 -10 8 -2 37 -7 64 -10 27 -3 51 -7 55 -9 3
-2 42 -7 86 -11 44 -4 82 -8 85 -10 3 -1 39 -6 80 -9 41 -3 93 -8 115 -11 268
-33 1058 -39 1340 -11 22 2 76 7 120 11 83 6 321 33 365 41 14 2 47 6 75 10
27 3 52 7 55 9 3 2 26 6 50 10 233 34 565 121 765 201 86 34 223 105 284 147
89 61 176 167 183 224 2 10 4 -230 5 -533 3 -521 2 -554 -16 -596z"/>
</g>
</svg>
