<?xml version="1.0" standalone="no"?>
<!DOCTYPE svg PUBLIC "-//W3C//DTD SVG 20010904//EN"
 "http://www.w3.org/TR/2001/REC-SVG-20010904/DTD/svg10.dtd">
<svg version="1.0" xmlns="http://www.w3.org/2000/svg"
 width="700.000000pt" height="700.000000pt" viewBox="0 0 700.000000 700.000000"
 preserveAspectRatio="xMidYMid meet">
<metadata>
Created by potrace 1.14, written by Peter Selinger 2001-2017
</metadata>
<g transform="translate(0.000000,700.000000) scale(0.100000,-0.100000)"
fill="#000000" stroke="none">
<path d="M1175 4657 c-633 -281 -1156 -516 -1163 -520 -9 -6 -12 -141 -12
-612 l0 -605 48 -24 c26 -13 550 -247 1165 -521 l1119 -497 36 15 c21 8 276
121 567 252 292 131 535 238 540 238 6 0 266 -113 578 -252 l568 -253 37 15
c58 24 2213 987 2255 1008 l37 19 0 605 c0 472 -3 606 -12 612 -16 10 -2253
1011 -2290 1025 -24 9 -91 -18 -595 -243 -312 -139 -572 -252 -578 -252 -5 0
-263 113 -571 252 -309 138 -566 251 -570 251 -5 0 -527 -231 -1159 -513z
m3547 392 c51 -22 94 -41 95 -42 1 -1 -86 -2 -192 -2 -106 0 -192 1 -191 2 4
5 182 83 188 83 4 0 49 -18 100 -41z m106 -129 c104 -13 204 -44 239 -74 l27
-23 -25 -16 c-78 -52 -237 -81 -439 -81 -202 0 -361 29 -439 81 l-25 16 28 23
c32 28 136 61 227 73 94 12 312 13 407 1z m-733 -198 c0 -161 7 -177 88 -216
117 -57 290 -81 512 -73 218 8 369 45 433 108 37 37 45 78 40 213 -1 53 -2 96
-2 96 1 0 163 -72 360 -161 198 -88 372 -166 388 -173 25 -10 9 -11 -96 -8
-278 9 -528 -51 -573 -138 -11 -21 -15 -62 -15 -152 0 -104 3 -128 20 -155 99
-164 845 -182 1010 -24 l40 38 0 133 c0 102 3 131 13 127 97 -37 495 -223 489
-228 -10 -10 -2165 -972 -2177 -972 -10 0 -933 407 -1009 445 l-39 20 244 109
c133 60 246 109 250 109 4 0 9 -56 11 -124 3 -117 5 -126 28 -151 35 -38 87
-62 182 -85 249 -60 611 -40 776 44 79 40 82 49 82 212 0 127 -2 144 -20 167
-55 70 -251 118 -493 120 l-157 2 72 32 c40 18 80 37 88 41 19 12 25 39 11 56
-7 8 -252 121 -545 252 l-533 238 261 118 c144 64 261 117 261 117 0 1 0 -61
0 -137z m973 -134 c-13 -10 -51 -27 -84 -37 -107 -34 -213 -44 -407 -38 -204
5 -313 27 -374 72 -30 24 -33 30 -33 81 0 29 2 54 3 54 2 0 30 -9 63 -20 105
-36 219 -51 394 -51 181 0 305 17 399 54 l56 22 3 -59 c3 -53 0 -62 -20 -78z
m-3074 95 c212 -55 583 -44 742 22 20 8 38 15 41 15 2 0 3 -28 1 -62 -3 -61
-4 -63 -41 -84 -81 -45 -183 -59 -422 -58 -194 0 -229 3 -299 22 -44 12 -93
30 -110 40 -29 17 -31 22 -34 81 -3 58 -1 63 15 56 10 -5 58 -19 107 -32z
m4061 -278 c84 -19 159 -54 163 -76 11 -57 -311 -119 -537 -104 -184 13 -355
60 -368 102 -9 25 128 76 249 93 96 13 410 4 493 -15z m-5283 -199 c184 -77
640 -78 824 -1 20 8 38 15 41 15 2 0 3 -28 1 -62 -3 -61 -4 -63 -41 -84 -155
-87 -669 -87 -824 0 -37 21 -38 23 -41 84 -2 34 -1 62 1 62 3 0 20 -6 39 -14z
m2310 -6 c200 -70 606 -70 790 0 28 11 53 19 54 17 7 -9 12 -104 6 -114 -15
-23 -118 -62 -207 -78 -106 -19 -357 -22 -460 -5 -94 14 -173 38 -212 62 -31
19 -33 23 -33 79 0 32 1 59 3 59 1 0 28 -9 59 -20z m2290 0 c200 -70 606 -70
790 0 28 11 53 19 54 17 7 -9 12 -104 6 -114 -15 -23 -118 -62 -207 -78 -106
-19 -357 -22 -460 -5 -94 14 -173 38 -212 62 -31 19 -33 23 -33 79 0 32 1 59
3 59 1 0 28 -9 59 -20z m1498 -693 l0 -543 -1092 -488 c-601 -269 -1099 -491
-1105 -493 -10 -4 -13 108 -13 538 l0 544 1103 492 c606 271 1103 493 1105
493 1 0 2 -244 2 -543z m-2092 412 c168 -18 297 -61 290 -97 -4 -25 -80 -58
-178 -79 -119 -25 -431 -25 -545 0 -83 18 -185 60 -185 75 0 31 102 73 221 91
155 23 257 26 397 10z m-2722 -256 c66 -13 137 -17 269 -17 189 0 305 15 406
54 l49 18 0 -65 0 -64 -52 -24 c-194 -87 -686 -82 -821 9 -29 20 -32 27 -35
83 l-3 61 49 -18 c27 -10 89 -27 138 -37z m2291 0 c125 -24 425 -24 542 0 46
10 105 26 131 36 l48 18 6 -55 c8 -64 2 -72 -62 -100 -93 -40 -205 -56 -392
-56 -217 0 -360 25 -432 76 -25 17 -28 25 -28 79 l0 59 49 -20 c27 -10 89 -27
138 -37z"/>
</g>
</svg>
