<?xml version="1.0" encoding="UTF-8" standalone="no"?>
<svg
   xmlns:dc="http://purl.org/dc/elements/1.1/"
   xmlns:cc="http://creativecommons.org/ns#"
   xmlns:rdf="http://www.w3.org/1999/02/22-rdf-syntax-ns#"
   xmlns:svg="http://www.w3.org/2000/svg"
   xmlns="http://www.w3.org/2000/svg"
   xmlns:sodipodi="http://sodipodi.sourceforge.net/DTD/sodipodi-0.dtd"
   xmlns:inkscape="http://www.inkscape.org/namespaces/inkscape"
   version="1.1"
   x="0px"
   y="0px"
   width="1440"
   height="799"
   viewBox="0 0 1440 799.00002"
   xml:space="preserve"
   id="svg4739"
   sodipodi:docname="bricks_tumbling_outline.svg"
   inkscape:version="1.0.2 (e86c870879, 2021-01-15)"><metadata
   id="metadata4745"><rdf:RDF><cc:Work
       rdf:about=""><dc:format>image/svg+xml</dc:format><dc:type
         rdf:resource="http://purl.org/dc/dcmitype/StillImage" /><dc:title></dc:title></cc:Work></rdf:RDF></metadata><defs
   id="defs4743">
	
	
	
	
	
	
	
	
	
	
	
	
	
	
	
	
	
	
	
	
	
	
	
	
	
	
	
	
	
	
	
	
	
	
	
	
	
	
	
	
	
	
	
	
	
	
	
	
	
	
	
	
	
	
	
	
	
	
	
	
	
	
	
	
	
	
	
	
</defs><sodipodi:namedview
   pagecolor="#ffffff"
   bordercolor="#666666"
   borderopacity="1"
   objecttolerance="10"
   gridtolerance="10"
   guidetolerance="10"
   inkscape:pageopacity="0"
   inkscape:pageshadow="2"
   inkscape:window-width="1916"
   inkscape:window-height="1044"
   id="namedview4741"
   showgrid="false"
   fit-margin-top="0"
   fit-margin-left="0"
   fit-margin-right="0"
   fit-margin-bottom="0"
   inkscape:zoom="0.61673506"
   inkscape:cx="497.31588"
   inkscape:cy="268.05758"
   inkscape:window-x="0"
   inkscape:window-y="34"
   inkscape:window-maximized="1"
   inkscape:current-layer="svg4739" />
<style
   type="text/css"
   id="style2799">
	.st0{fill:#0095A3;}
	.st1{fill:#FFFFFF;}
	.st2{fill:#F8F8F8;}
	.st3{fill:#8E992E;}
	.st4{fill:#8EB230;}
	.st5{fill:#F2F2F2;}
	.st6{fill:#D5D7D8;}
	.st7{clip-path:url(#SVGID_2_);}
	.st8{opacity:0.06;}
	.st9{fill:#CECECE;}
	.st10{fill:#E1E1E1;}
	.st11{fill:#CFCFD0;}
	.st12{fill:#D1D1D1;}
	.st13{fill:#D7D7D6;}
	.st14{fill:#CCCCCC;}
	.st15{fill:#E8E8E8;}
	.st16{fill:#D5D5D5;}
	.st17{fill:#F0F0F0;}
	.st18{fill:#EFEEEE;}
	.st19{fill:#EBEBEB;}
	.st20{fill:#E2E2E2;}
	.st21{fill:#D4D3D3;}
	.st22{fill:#CDCDCD;}
	.st23{fill:#DEDEDD;}
	.st24{fill:#EAEAEA;}
	.st25{fill:#E9E9E9;}
	.st26{fill:#959595;}
	.st27{fill:#E4E4E3;}
	.st28{fill:#C5C5C5;}
	.st29{fill:#D6D6D6;}
	.st30{fill:#EDECEC;}
	.st31{fill:#E5E5E4;}
	.st32{fill:#E3E3E3;}
	.st33{fill:#C5C4C4;}
	.st34{fill:none;stroke:#F1F1F1;stroke-miterlimit:10;}
	.st35{fill:#B3B3B4;}
	.st36{fill:#7A7A7A;}
	.st37{fill:#D0D1D1;}
	.st38{fill:#8A8A8A;}
	.st39{fill:#686868;}
	.st40{fill:#E7E7E7;}
	.st41{fill:#ABABAB;}
	.st42{fill:#B8B8B9;}
	.st43{fill:#A2A2A2;}
	.st44{fill:#E6E6E6;}
	.st45{fill:#9A9A9A;}
	.st46{fill:#A7A6A6;}
	.st47{fill:#707171;}
	.st48{fill:#A8A8A7;}
	.st49{fill:#8C8C8C;}
	.st50{fill:#939393;}
	.st51{fill:#6B6B6B;}
	.st52{fill:#DFDFDF;}
	.st53{fill:#AAAAAA;}
	.st54{fill:#A0A0A0;}
	.st55{fill:#B4B4B5;}
	.st56{fill:#ADADAD;}
	.st57{fill:#999999;}
	.st58{fill:#B9B9B9;}
	.st59{fill:#B5B5B6;}
	.st60{fill:#7D7D7D;}
	.st61{fill:#BEBDBD;}
	.st62{fill:#BBBBBB;}
	.st63{fill:#656666;}
	.st64{fill:#9C9C9C;}
	.st65{fill:#6A6A6A;}
	.st66{fill:#919191;}
	.st67{fill:#D2D2D2;}
	.st68{fill:#DBDADA;}
	.st69{fill:#BFBFBF;}
	.st70{fill:#B1B1B1;}
	.st71{fill:#808080;}
	.st72{fill:#DAD9D9;}
	.st73{fill:#E0E0E0;}
	.st74{fill:#737374;}
	.st75{fill:#8D8D8D;}
	.st76{fill:#B8B7B8;}
	.st77{fill:#B7B6B7;}
	.st78{fill:#ADADAE;}
	.st79{fill:#D9D8D7;}
	.st80{fill:#C0C0C0;}
	.st81{fill:#807F7F;}
	.st82{fill:#CCCBCB;}
	.st83{fill:#6D6D6D;}
	.st84{fill:#898989;}
	.st85{fill:#888888;}
	.st86{fill:#B0B0B0;}
	.st87{fill:#B2B2B3;}
	.st88{fill:#989898;}
	.st89{clip-path:url(#SVGID_6_);}
	.st90{clip-path:url(#SVGID_10_);}
	.st91{clip-path:url(#SVGID_14_);}
	.st92{clip-path:url(#SVGID_18_);}
	.st93{fill:#78AC5F;}
	.st94{fill:#83C579;}
	.st95{clip-path:url(#SVGID_22_);}
	.st96{fill:none;}
	.st97{font-family:'ExoSoft-Regular';}
	.st98{font-size:17.9468px;}
	.st99{font-size:20px;}
	.st100{letter-spacing:8;}
	.st101{clip-path:url(#SVGID_26_);}
	.st102{fill:#F1F4F8;}
	.st103{fill:#005077;fill-opacity:0.1;}
	.st104{fill:none;stroke:#BFD6D8;stroke-width:4;stroke-opacity:0.8;}
	.st105{fill:none;stroke:#BFD6D8;stroke-width:4;stroke-linecap:round;stroke-linejoin:bevel;}
	
		.st106{opacity:0.9866;fill:#FFFFFF;fill-opacity:0.5;stroke:#252D5A;stroke-linecap:square;stroke-dasharray:3,6;enable-background:new    ;}
	.st107{fill-rule:evenodd;clip-rule:evenodd;fill:#629BB7;}
	.st108{fill-rule:evenodd;clip-rule:evenodd;fill:#999DB1;}
	.st109{fill:#252D5A;}
	
		.st110{opacity:0.9866;fill:#FDFEFF;fill-opacity:0.5;stroke:#252D5A;stroke-linecap:square;stroke-dasharray:3,6;enable-background:new    ;}
	.st111{clip-path:url(#SVGID_28_);}
	.st112{fill-rule:evenodd;clip-rule:evenodd;fill:#353C65;}
	.st113{opacity:0.86;fill:#F26B30;}
	.st114{font-family:'AcuminPro-Regular';}
	.st115{font-size:11px;}
	.st116{letter-spacing:4;}
	.st117{fill:#375974;}
	.st118{font-family:'AcuminPro-Bold';}
	.st119{font-size:14px;}
	.st120{letter-spacing:5;}
	.st121{opacity:0.85;}
	.st122{fill:#587F98;}
	.st123{font-size:25px;}
	.st124{letter-spacing:10;}
	.st125{font-size:18px;}
	.st126{letter-spacing:7;}
	.st127{fill:#F26B30;}
	.st128{fill:#231F20;}
	.st129{font-size:41.1457px;}
	.st130{opacity:0.4;}
	.st131{fill:none;stroke:#2D2C2C;stroke-width:1.5081;stroke-linejoin:round;stroke-miterlimit:10;}
	.st132{fill:#2D2C2C;stroke:#2D2C2C;stroke-width:1.5081;stroke-linejoin:round;stroke-miterlimit:10;}
	.st133{fill:none;stroke:#231F20;stroke-width:1.5081;stroke-linejoin:round;stroke-miterlimit:10;}
	.st134{fill:#F26B30;stroke:#231F20;stroke-width:1.5081;stroke-linejoin:round;stroke-miterlimit:10;}
	.st135{fill:#007B84;stroke:#231F20;stroke-width:1.5081;stroke-linejoin:round;stroke-miterlimit:10;}
	.st136{fill:#F6921E;stroke:#231F20;stroke-width:1.5081;stroke-linejoin:round;stroke-miterlimit:10;}
	.st137{fill:#8EB230;stroke:#231F20;stroke-width:1.5081;stroke-linejoin:round;stroke-miterlimit:10;}
	.st138{fill:#0095A3;stroke:#231F20;stroke-width:1.5081;stroke-linejoin:round;stroke-miterlimit:10;}
	.st139{fill:#6C8B23;stroke:#231F20;stroke-width:1.5081;stroke-linejoin:round;stroke-miterlimit:10;}
	.st140{fill:#C3C3C3;}
	.st141{fill:#ACACAC;}
	.st142{fill:none;stroke:#000000;stroke-miterlimit:10;}
	.st143{opacity:0.1;}
	.st144{fill:none;stroke:#FFFFFF;stroke-width:10.1966;stroke-linejoin:round;stroke-miterlimit:10;}
	.st145{fill:none;stroke:#FFFFFF;stroke-width:2.8103;stroke-linejoin:round;stroke-miterlimit:10;}
	.st146{opacity:0.1;fill:none;stroke:#FFFFFF;stroke-width:10.1966;stroke-linejoin:round;stroke-miterlimit:10;}
	.st147{opacity:0.15;}
	.st148{fill:none;stroke:#FFFFFF;stroke-width:5.0805;stroke-linejoin:round;stroke-miterlimit:10;}
	.st149{opacity:0.1;fill:none;stroke:#FFFFFF;stroke-width:5.0805;stroke-linejoin:round;stroke-miterlimit:10;}
	.st150{fill:#8EB230;stroke:#231F20;stroke-width:3.7101;stroke-linejoin:round;stroke-miterlimit:10;}
	.st151{fill:none;stroke:#231F20;stroke-width:3.7101;stroke-linejoin:round;stroke-miterlimit:10;}
	.st152{fill:#0095A3;stroke:#231F20;stroke-width:3.7101;stroke-linejoin:round;stroke-miterlimit:10;}
	.st153{fill:#6C8B23;stroke:#231F20;stroke-width:3.7101;stroke-linejoin:round;stroke-miterlimit:10;}
	.st154{fill:#AA4C23;stroke:#231F20;stroke-width:3.7101;stroke-linejoin:round;stroke-miterlimit:10;}
	.st155{fill:#007B84;stroke:#231F20;stroke-width:3.7101;stroke-linejoin:round;stroke-miterlimit:10;}
	.st156{fill:#F6921E;stroke:#231F20;stroke-width:3.7101;stroke-linejoin:round;stroke-miterlimit:10;}
	.st157{fill:#0095A3;stroke:#231F20;stroke-width:3.714;stroke-linejoin:round;stroke-miterlimit:10;}
	.st158{fill:#AA4C23;stroke:#231F20;stroke-width:3.714;stroke-linejoin:round;stroke-miterlimit:10;}
	.st159{fill:#F26B30;stroke:#231F20;stroke-width:3.714;stroke-linejoin:round;stroke-miterlimit:10;}
	.st160{fill:#F6921E;stroke:#231F20;stroke-width:3.714;stroke-linejoin:round;stroke-miterlimit:10;}
	.st161{fill:none;stroke:#231F20;stroke-width:3.714;stroke-linejoin:round;stroke-miterlimit:10;}
	.st162{fill:#00494F;stroke:#231F20;stroke-width:3.714;stroke-linejoin:round;stroke-miterlimit:10;}
	.st163{fill:#8EB230;stroke:#231F20;stroke-width:3.714;stroke-linejoin:round;stroke-miterlimit:10;}
	.st164{fill:#6C8B23;stroke:#231F20;stroke-width:3.714;stroke-linejoin:round;stroke-miterlimit:10;}
	.st165{fill:#D05D2A;stroke:#231F20;stroke-width:3.714;stroke-linejoin:round;stroke-miterlimit:10;}
	.st166{fill:#007B84;stroke:#231F20;stroke-width:3.714;stroke-linejoin:round;stroke-miterlimit:10;}
	.st167{fill:none;stroke:#EBEBEB;stroke-width:3;stroke-miterlimit:10;}
	.st168{fill:#AA4C23;}
	.st169{fill:#CACACA;}
	.st170{letter-spacing:3;}
	.st171{opacity:0.36;}
	.st172{fill:none;stroke:#000000;stroke-width:2;stroke-miterlimit:10;}
	.st173{fill:none;stroke:#000000;stroke-width:2;stroke-linejoin:round;stroke-miterlimit:10;}
	.st174{font-size:36px;}
	.st175{opacity:0.85;fill:#0095A3;}
	.st176{fill:#FFFFFF;stroke:#000000;stroke-width:1.4481;stroke-miterlimit:10;}
	.st177{fill:none;stroke:#000000;stroke-width:1.4481;stroke-miterlimit:10;}
	.st178{fill:none;stroke:#FFFFFF;stroke-width:0.6715;stroke-miterlimit:10;}
	.st179{opacity:0.21;fill:none;stroke:#FFFFFF;stroke-miterlimit:10;}
	.st180{font-size:30px;}
	.st181{fill:none;stroke:#FFFFFF;stroke-miterlimit:10;}
	.st182{opacity:0.34;}
</style>




<g
   class="st182"
   id="g4382"
   transform="translate(0,-113)">
		<g
   id="g4380">
			<g
   id="g4346">
				<polygon
   class="st181"
   points="1248.51,514.65 1248.74,514.76 1248.51,514.94 "
   id="polygon3960" />
				<polygon
   class="st181"
   points="1128.14,512.75 1188.44,486.62 1200.93,492.45 1188.27,486.79 1128.77,513.26 "
   id="polygon3962" />
				<path
   class="st181"
   d="m 1214.53,513.85 c 0,4.2 -11.74,7.6 -26.19,7.6 -14.47,0 -26.2,-3.4 -26.2,-7.6 v -11.4 c 0,2.27 3.44,4.31 8.85,5.7 4.63,1.19 10.69,1.91 17.34,1.91 6.65,0 12.72,-0.72 17.35,-1.92 5.43,-1.39 8.84,-3.42 8.84,-5.69 v 11.26 c 0.01,0.05 0.01,0.09 0.01,0.14 z"
   id="path3964" />
				<g
   id="g4054">
					<g
   id="g3990">
						<g
   id="g3972">
							<polygon
   class="st181"
   points="1021.21,838.77 1021.21,776.95 1090.7,807.86 1142.02,830.69 1142.49,830.89 1142.49,892.72 "
   id="polygon3966" />
							<polygon
   class="st181"
   points="1202.75,865.79 1142.49,892.71 1142.49,830.9 1194.05,807.86 1202.75,803.96 "
   id="polygon3968" />
							<rect
   x="1202.75"
   y="803.96002"
   class="st181"
   width="0.0099999998"
   height="61.830002"
   id="rect3970" />
						</g>
						<path
   class="st181"
   d="m 1201.98,749.58 -59.97,26.67 v 0.41 l 0.32,0.14 0.16,-0.07 60.27,-26.8 z"
   id="path3974" />
						<path
   class="st181"
   d="m 1142.49,777.15 -0.47,-0.2 0.31,-0.14 -0.32,-0.14 v -0.41 l 59.97,-26.67 -59.48,-26.6 -121.29,53.97 69.49,30.91 51.32,22.83 0.47,0.2 51.55,-23.03 8.7,-3.9 z m -26.65,-37.95 c 0,-4.2 11.72,-7.61 26.18,-7.61 14.46,0 26.2,3.41 26.2,7.61 v 11.39 c 0,4.21 -11.73,7.61 -26.2,7.61 -14.46,0 -26.18,-3.4 -26.18,-7.61 z m -7.8,37.79 c 0,4.19 -11.72,7.6 -26.2,7.6 -14.47,0 -26.18,-3.41 -26.18,-7.6 v -11.4 c 0,-4.19 11.71,-7.6 26.18,-7.6 14.46,0 26.2,3.41 26.2,7.6 z m 60.18,26.6 c 0,4.19 -11.73,7.6 -26.2,7.6 -14.46,0 -26.18,-3.41 -26.18,-7.6 v -11.41 c 0,-4.19 11.72,-7.6 26.18,-7.6 14.46,0 26.2,3.41 26.2,7.6 z"
   id="path3976" />
						<path
   class="st181"
   d="m 1168.22,792.18 c 0,2.27 -3.44,4.31 -8.86,5.7 -4.6,1.19 -10.67,1.91 -17.34,1.91 -6.65,0 -12.72,-0.72 -17.33,-1.91 -5.44,-1.4 -8.85,-3.43 -8.85,-5.7 0,-4.19 11.72,-7.6 26.18,-7.6 14.46,0 26.2,3.41 26.2,7.6 z"
   id="path3978" />
						<path
   class="st181"
   d="m 1168.22,739.2 c 0,2.27 -3.42,4.3 -8.83,5.7 -4.6,1.19 -10.69,1.91 -17.37,1.91 -6.66,0 -12.74,-0.72 -17.36,-1.91 -5.42,-1.4 -8.82,-3.43 -8.82,-5.7 0,-4.2 11.72,-7.61 26.18,-7.61 14.46,0 26.2,3.41 26.2,7.61 z"
   id="path3980" />
						<path
   class="st181"
   d="m 1108.04,765.59 c 0,2.27 -3.44,4.31 -8.85,5.7 -4.63,1.19 -10.69,1.91 -17.35,1.91 -6.66,0 -12.71,-0.72 -17.34,-1.91 -5.43,-1.39 -8.84,-3.43 -8.84,-5.7 0,-4.19 11.71,-7.6 26.18,-7.6 14.47,0 26.2,3.41 26.2,7.6 z"
   id="path3982" />
						<path
   class="st181"
   d="m 1168.22,739.2 v 11.39 c 0,4.21 -11.73,7.61 -26.2,7.61 -14.46,0 -26.18,-3.4 -26.18,-7.61 V 739.2 c 0,2.27 3.41,4.3 8.82,5.7 4.61,1.19 10.69,1.91 17.36,1.91 6.67,0 12.76,-0.72 17.37,-1.91 5.41,-1.4 8.83,-3.43 8.83,-5.7 z"
   id="path3984" />
						<path
   class="st181"
   d="m 1168.22,792.18 v 11.41 c 0,4.19 -11.73,7.6 -26.2,7.6 -14.46,0 -26.18,-3.41 -26.18,-7.6 v -11.41 c 0,2.27 3.42,4.3 8.85,5.7 4.6,1.19 10.67,1.91 17.33,1.91 6.66,0 12.73,-0.72 17.34,-1.91 5.42,-1.39 8.86,-3.43 8.86,-5.7 z"
   id="path3986" />
						<path
   class="st181"
   d="m 1108.04,765.59 v 11.4 c 0,4.19 -11.72,7.6 -26.2,7.6 -14.47,0 -26.18,-3.41 -26.18,-7.6 v -11.4 c 0,2.27 3.42,4.31 8.84,5.7 4.62,1.19 10.68,1.91 17.34,1.91 6.66,0 12.71,-0.72 17.35,-1.91 5.42,-1.39 8.85,-3.43 8.85,-5.7 z"
   id="path3988" />
					</g>
					<g
   id="g4010">
						<path
   class="st181"
   d="m 1288.41,789.58 c -0.02,-0.02 -0.03,-0.04 -0.05,-0.06 -2.75,-3.34 -13.09,-5.83 -25.45,-5.83 -14.47,0 -26.19,3.41 -26.19,7.61 0,0.23 0.03,0.45 0.11,0.67 v -0.52 c 0,-4.19 11.72,-7.6 26.2,-7.6 0.7,0 1.41,0.01 2.1,0.03 0.28,0 0.56,0.01 0.83,0.02 0.34,0.01 0.67,0.02 1,0.04 0.22,0 0.44,0.02 0.66,0.03 0.35,0.01 0.69,0.03 1.04,0.06 0.53,0.03 1.06,0.07 1.58,0.11 1.85,0.15 3.61,0.36 5.26,0.63 0.37,0.05 0.74,0.11 1.1,0.18 0.36,0.06 0.72,0.13 1.07,0.2 0.66,0.12 1.31,0.26 1.93,0.41 2.85,0.67 5.21,1.52 6.86,2.49 0.12,0.06 0.24,0.13 0.35,0.21 0.22,0.13 0.42,0.27 0.61,0.41 0.08,0.06 0.16,0.13 0.24,0.19 0.08,0.07 0.17,0.13 0.24,0.2 0.05,0.05 0.1,0.1 0.15,0.14 0.08,0.07 0.14,0.13 0.19,0.19 0.06,0.06 0.11,0.13 0.16,0.19 0.02,0.02 0.03,0.04 0.05,0.06 0.01,0.01 0.02,0.03 0.04,0.04 -0.02,-0.02 -0.05,-0.06 -0.08,-0.1 z m -25.7,-13.13 -59.91,26.77 0.02,0.01 59.91,-26.77 z"
   id="path3992" />
						<path
   class="st181"
   d="m 1383.34,775.89 -59.73,26.69 -120.42,-53.55 -0.38,0.17 60.45,27.01 -0.54,0.24 0.02,0.01 -59.91,26.77 8.72,3.89 51.71,22.98 0.1,0.05 51.55,-23.03 69.16,-30.91 z m -94.12,26.95 c 0,4.19 -11.72,7.6 -26.18,7.6 -14.48,0 -26.2,-3.41 -26.2,-7.6 v -10.87 c -0.08,-0.22 -0.11,-0.44 -0.11,-0.67 0,-4.2 11.72,-7.61 26.19,-7.61 12.35,0 22.69,2.49 25.45,5.83 0.02,0.02 0.03,0.04 0.05,0.06 0.03,0.04 0.06,0.08 0.09,0.12 0.01,0 0.01,0.01 0.01,0.01 l 0.01,0.01 c 0.01,0.01 0.01,0.02 0.02,0.03 0.04,0.03 0.07,0.07 0.08,0.1 h 0.01 c 0.01,0.01 0.01,0.02 0.02,0.03 0.02,0.03 0.04,0.07 0.06,0.1 0.07,0.08 0.12,0.16 0.15,0.24 0.03,0.05 0.06,0.09 0.08,0.13 0.05,0.09 0.09,0.18 0.12,0.28 0.1,0.27 0.15,0.54 0.15,0.81 z"
   id="path3994" />
						<path
   class="st181"
   d="m 1289.22,791.45 v 11.4 c 0,4.19 -11.72,7.6 -26.18,7.6 -14.48,0 -26.2,-3.41 -26.2,-7.6 v -11.4 c 0,0.55 0.2,1.09 0.59,1.61 0.07,0.1 0.15,0.2 0.25,0.29 1.31,1.5 4.15,2.81 8.01,3.8 4.61,1.19 10.68,1.91 17.35,1.91 6.64,0 12.7,-0.72 17.33,-1.91 5.41,-1.39 8.85,-3.44 8.85,-5.7 z"
   id="path3996" />
						<path
   class="st181"
   d="m 1288.41,789.58 c 0,0.01 0.01,0.01 0,0.02 -0.05,-0.06 -0.1,-0.13 -0.16,-0.19 -0.05,-0.06 -0.11,-0.12 -0.19,-0.19 -0.05,-0.04 -0.1,-0.09 -0.15,-0.14 -0.07,-0.07 -0.16,-0.13 -0.24,-0.2 -0.08,-0.06 -0.16,-0.13 -0.24,-0.19 -0.19,-0.14 -0.39,-0.28 -0.61,-0.41 -0.11,-0.08 -0.23,-0.15 -0.35,-0.21 -1.66,-0.97 -4.01,-1.82 -6.86,-2.49 -0.62,-0.15 -1.27,-0.29 -1.93,-0.41 -0.34,-0.07 -0.7,-0.14 -1.07,-0.2 -0.35,-0.07 -0.72,-0.13 -1.1,-0.18 -1.65,-0.27 -3.41,-0.48 -5.26,-0.63 -0.52,-0.04 -1.05,-0.08 -1.58,-0.11 -0.34,-0.03 -0.68,-0.05 -1.04,-0.06 -0.22,-0.01 -0.44,-0.03 -0.66,-0.03 -0.33,-0.02 -0.66,-0.03 -1,-0.04 -0.27,-0.01 -0.55,-0.02 -0.83,-0.02 -0.69,-0.02 -1.4,-0.03 -2.1,-0.03 -14.48,0 -26.2,3.41 -26.2,7.6 0,0.55 0.2,1.09 0.59,1.61 -0.29,-0.35 -0.49,-0.71 -0.59,-1.09 -0.08,-0.22 -0.11,-0.44 -0.11,-0.67 0,-4.2 11.72,-7.61 26.19,-7.61 12.35,0 22.69,2.49 25.45,5.83 0.01,0 0.02,0.02 0.04,0.04 z"
   id="path3998" />
						<path
   class="st181"
   d="m 1289.11,791.3 c 0,2.27 -3.42,4.3 -8.82,5.69 -4.61,1.2 -10.7,1.92 -17.37,1.92 -6.67,0 -12.75,-0.72 -17.36,-1.92 -3.73,-0.95 -6.5,-2.21 -7.88,-3.64 -0.1,-0.09 -0.18,-0.19 -0.25,-0.29 -0.39,-0.52 -0.59,-1.06 -0.59,-1.61 0,-4.19 11.72,-7.6 26.2,-7.6 0.7,0 1.41,0.01 2.1,0.03 0.28,0 0.56,0.01 0.83,0.02 0.34,0.01 0.67,0.02 1,0.04 0.22,0 0.44,0.02 0.66,0.03 0.35,0.01 0.69,0.03 1.04,0.06 0.53,0.03 1.06,0.07 1.58,0.11 1.85,0.15 3.61,0.36 5.26,0.63 0.37,0.05 0.74,0.11 1.1,0.18 0.36,0.06 0.72,0.13 1.07,0.2 0.66,0.13 1.31,0.26 1.93,0.41 2.85,0.67 5.21,1.52 6.86,2.49 0.12,0.06 0.24,0.13 0.35,0.21 0.22,0.13 0.42,0.27 0.61,0.41 0.08,0.06 0.16,0.13 0.24,0.19 0.08,0.07 0.17,0.13 0.24,0.2 0.05,0.05 0.1,0.1 0.15,0.14 0.08,0.07 0.14,0.13 0.19,0.19 0.06,0.06 0.11,0.13 0.16,0.19 0.02,0.02 0.03,0.04 0.05,0.06 0.01,0.01 0.02,0.03 0.04,0.04 0.01,0 0.01,0.01 0.01,0.01 l 0.01,0.01 c 0.01,0.01 0.01,0.02 0.02,0.03 0.04,0.03 0.07,0.07 0.08,0.1 h 0.01 c 0.01,0.01 0.01,0.02 0.02,0.03 0.02,0.03 0.04,0.07 0.06,0.1 0.27,0.45 0.4,0.88 0.4,1.34 z"
   id="path4000" />
						<path
   class="st181"
   d="m 1288.51,789.7 c -0.02,-0.01 -0.03,-0.03 -0.04,-0.04 -0.02,-0.02 -0.03,-0.04 -0.05,-0.06 -0.05,-0.06 -0.1,-0.13 -0.16,-0.19 l 0.11,0.11 c 0.02,0.02 0.03,0.04 0.05,0.06 0.02,0.04 0.05,0.08 0.09,0.12 z"
   id="path4002" />
						<path
   class="st181"
   d="m 1289.22,791.45 c 0,2.26 -3.44,4.31 -8.85,5.7 -4.62,1.19 -10.68,1.91 -17.33,1.91 -6.66,0 -12.73,-0.72 -17.35,-1.91 -3.86,-0.98 -6.7,-2.3 -8.01,-3.8 1.38,1.43 4.15,2.68 7.88,3.64 4.6,1.2 10.69,1.92 17.36,1.92 6.67,0 12.75,-0.72 17.37,-1.92 5.41,-1.39 8.82,-3.42 8.82,-5.69 0,-0.45 -0.13,-0.88 -0.39,-1.32 0.07,0.08 0.12,0.16 0.15,0.24 0.03,0.05 0.06,0.09 0.08,0.13 0.05,0.09 0.09,0.18 0.12,0.28 0.1,0.27 0.15,0.55 0.15,0.82 z"
   id="path4004" />
						<polygon
   class="st181"
   points="1202.8,865.05 1202.8,803.22 1202.82,803.24 1211.55,807.12 1263.25,830.11 1263.35,830.16 1263.35,891.97 "
   id="polygon4006" />
						<polygon
   class="st181"
   points="1263.35,830.16 1314.91,807.12 1384.07,776.21 1384.07,838.04 1263.35,891.97 "
   id="polygon4008" />
					</g>
					<g
   id="g4022">
						<line
   class="st181"
   x1="1228.53"
   y1="776.5"
   x2="1228.53"
   y2="776.35999"
   id="line4012" />
						<path
   class="st181"
   d="m 1262.71,776.45 -60.43,-27 -0.3,0.13 -59.97,26.67 v 0.41 l 0.32,0.14 59.94,26.67 h 0.01 l 0.52,-0.23 0.02,-0.01 59.91,-26.77 z m -60.36,7.65 c -14.47,0 -26.2,-3.41 -26.2,-7.61 V 765.1 c 0,-4.19 11.73,-7.6 26.19,-7.6 14.46,0 26.19,3.41 26.19,7.6 v 11.26 c 0.02,0.05 0.02,0.09 0.02,0.13 0,4.2 -11.75,7.61 -26.2,7.61 z"
   id="path4014" />
						<path
   class="st181"
   d="m 1228.53,765.11 c 0,2.26 -3.42,4.3 -8.84,5.69 -4.62,1.2 -10.69,1.91 -17.35,1.91 -6.64,0 -12.7,-0.71 -17.34,-1.9 -5.42,-1.39 -8.85,-3.44 -8.85,-5.7 0,-4.19 11.73,-7.6 26.19,-7.6 14.46,0 26.19,3.41 26.19,7.6 z"
   id="path4016" />
						<path
   class="st181"
   d="m 1228.55,776.49 c 0,4.2 -11.75,7.61 -26.2,7.61 -14.47,0 -26.2,-3.41 -26.2,-7.61 V 765.1 c 0,2.26 3.44,4.31 8.85,5.7 4.63,1.19 10.69,1.9 17.34,1.9 6.65,0 12.72,-0.71 17.35,-1.91 5.43,-1.39 8.84,-3.43 8.84,-5.69 v 11.26 c 0.02,0.05 0.02,0.09 0.02,0.13 z"
   id="path4018" />
						<rect
   x="1202.27"
   y="803.47998"
   class="st181"
   width="0.0099999998"
   height="61.830002"
   id="rect4020" />
					</g>
					<g
   id="g4052">
						<polygon
   class="st181"
   points="1323.46,740.7 1323.61,740.77 1323.61,802.58 1203.18,749.03 1202.32,748.65 1202.32,686.82 1271.81,717.73 1323.14,740.57 1323.15,740.57 1323.35,740.66 1323.35,740.75 1323.45,740.7 "
   id="polygon4024" />
						<polygon
   class="st181"
   points="1323.35,740.66 1323.45,740.7 1323.35,740.75 "
   id="polygon4026" />
						<polygon
   class="st181"
   points="1375.16,717.73 1383.87,713.83 1383.87,775.66 1383.34,775.89 1323.61,802.58 1323.61,740.77 "
   id="polygon4028" />
						<rect
   x="1383.87"
   y="713.83002"
   class="st181"
   width="0.0099999998"
   height="61.830002"
   id="rect4030" />
						<path
   class="st181"
   d="m 1349.34,649.07 v 11.38 c 0,0.1 -0.01,0.2 -0.02,0.3 0,0.01 0,0.01 0,0.02 0,0.01 0,0.02 -0.01,0.03 0,0.08 -0.02,0.16 -0.05,0.24 -0.02,0.1 -0.05,0.19 -0.09,0.28 -0.07,0.19 -0.17,0.38 -0.3,0.56 -0.05,0.09 -0.11,0.18 -0.19,0.26 0,0.01 -0.01,0.03 -0.02,0.04 -0.02,0.02 -0.04,0.05 -0.06,0.07 -0.05,0.06 -0.1,0.12 -0.16,0.18 -0.09,0.09 -0.18,0.18 -0.27,0.27 -0.13,0.12 -0.27,0.24 -0.41,0.36 -0.29,0.23 -0.62,0.45 -0.99,0.68 -0.15,0.09 -0.31,0.18 -0.48,0.27 -0.16,0.09 -0.34,0.18 -0.52,0.26 -0.14,0.07 -0.29,0.14 -0.43,0.21 -0.22,0.1 -0.46,0.21 -0.7,0.31 -0.24,0.1 -0.48,0.19 -0.74,0.29 -0.34,0.13 -0.69,0.25 -1.07,0.37 -0.18,0.07 -0.37,0.13 -0.56,0.18 -0.19,0.06 -0.38,0.12 -0.58,0.18 -0.29,0.09 -0.6,0.17 -0.9,0.25 -0.13,0.03 -0.27,0.06 -0.4,0.1 -0.33,0.08 -0.67,0.16 -1.01,0.24 -0.95,0.22 -1.97,0.42 -3.04,0.6 -0.46,0.08 -0.94,0.15 -1.43,0.22 -0.5,0.08 -1.02,0.15 -1.54,0.21 -3.13,0.38 -6.57,0.59 -10.19,0.59 h -0.01 c -0.59,0 -1.18,-0.01 -1.76,-0.02 -0.54,-0.01 -1.1,-0.02 -1.63,-0.05 -0.61,-0.02 -1.21,-0.04 -1.8,-0.08 -0.16,-0.01 -0.31,-0.02 -0.47,-0.03 -0.15,-0.01 -0.3,-0.02 -0.46,-0.03 -0.1,-0.01 -0.21,-0.01 -0.31,-0.02 -0.48,-0.04 -0.95,-0.07 -1.43,-0.12 -0.39,-0.03 -0.77,-0.07 -1.15,-0.11 -1.04,-0.1 -2.04,-0.23 -3,-0.38 -0.32,-0.05 -0.64,-0.1 -0.95,-0.15 -0.42,-0.07 -0.84,-0.14 -1.25,-0.22 -0.27,-0.05 -0.53,-0.1 -0.79,-0.16 -0.27,-0.05 -0.52,-0.1 -0.78,-0.16 -0.44,-0.1 -0.87,-0.2 -1.29,-0.3 -0.21,-0.05 -0.42,-0.1 -0.62,-0.16 -0.2,-0.05 -0.4,-0.11 -0.59,-0.16 -0.78,-0.22 -1.53,-0.46 -2.21,-0.71 -0.34,-0.12 -0.67,-0.25 -0.98,-0.38 -0.31,-0.13 -0.61,-0.26 -0.9,-0.4 -0.43,-0.21 -0.83,-0.42 -1.21,-0.64 -0.37,-0.23 -0.7,-0.45 -0.99,-0.68 -0.14,-0.12 -0.28,-0.24 -0.41,-0.36 -0.09,-0.09 -0.18,-0.18 -0.27,-0.27 -0.06,-0.06 -0.11,-0.12 -0.16,-0.18 -0.02,-0.02 -0.04,-0.05 -0.06,-0.07 -0.01,-0.01 -0.02,-0.03 -0.02,-0.04 -0.08,-0.08 -0.14,-0.17 -0.19,-0.26 -0.13,-0.18 -0.23,-0.37 -0.3,-0.56 -0.04,-0.09 -0.07,-0.18 -0.09,-0.28 -0.03,-0.08 -0.04,-0.16 -0.05,-0.24 -0.01,-0.01 -0.01,-0.02 -0.01,-0.03 0,-0.01 0,-0.01 0,-0.02 -0.01,-0.1 -0.02,-0.2 -0.02,-0.3 v -11.38 c 0,2.26 3.41,4.3 8.82,5.69 4.61,1.2 10.69,1.92 17.36,1.92 6.67,0 12.76,-0.72 17.37,-1.92 5.35,-1.38 8.77,-3.42 8.77,-5.69 z"
   id="path4032" />
						<path
   class="st181"
   d="m 1289.16,675.46 v 11.39 c 0,4.2 -11.72,7.61 -26.19,7.61 -14.47,0 -26.19,-3.41 -26.19,-7.61 v -11.39 c 0,2.26 3.42,4.31 8.84,5.7 4.62,1.19 10.68,1.9 17.34,1.9 6.64,0 12.71,-0.71 17.35,-1.9 5.41,-1.38 8.85,-3.43 8.85,-5.7 z"
   id="path4034" />
						<polygon
   class="st181"
   points="1383.51,713.67 1324.24,687.3 1324.25,686.67 1375.8,663.64 1380.5,661.29 1383.64,659.9 1383.64,713.61 "
   id="polygon4036" />
						<polygon
   class="st181"
   points="1323.35,740.66 1323.45,740.7 1323.35,740.75 "
   id="polygon4038" />
						<polygon
   class="st181"
   points="1380.5,661.29 1383.64,659.74 1383.64,659.9 "
   id="polygon4040" />
						<path
   class="st181"
   d="m 1383.51,713.67 -60.06,27.02 0.15,0.07 51.55,-23.04 8.7,-3.9 z m 0.13,-53.93 -3.15,1.56 3.15,-1.4 z m -69.51,7.86 c -1.38,-0.15 -2.7,-0.33 -3.96,-0.53 1.26,0.2 2.58,0.38 3.96,0.53 z"
   id="path4042" />
						<path
   class="st181"
   d="m 1383.88,659.8 -60.27,-26.94 -121.29,53.96 69.49,30.91 51.32,22.84 h 0.01 l 0.2,0.09 0.1,0.04 h 0.01 l 60.06,-27.02 -59.27,-26.37 -0.63,-0.28 -0.46,-0.21 0.46,-0.2 56.89,-25.32 3.15,-1.56 v 0.16 z m -94.72,27.05 c 0,4.2 -11.72,7.61 -26.19,7.61 -14.47,0 -26.19,-3.41 -26.19,-7.61 v -11.43 c 0,-0.09 0.01,-0.19 0.02,-0.28 0.01,-0.03 0.01,-0.06 0.02,-0.09 0,-0.02 0.01,-0.05 0.02,-0.07 0.01,-0.07 0.03,-0.14 0.05,-0.22 0.01,-0.03 0.03,-0.07 0.04,-0.11 0,-0.01 0,-0.01 0.01,-0.02 0,-0.01 0.01,-0.03 0.02,-0.04 0.02,-0.09 0.06,-0.19 0.12,-0.28 0.06,-0.12 0.13,-0.25 0.23,-0.37 0.08,-0.12 0.18,-0.25 0.29,-0.37 0.08,-0.1 0.17,-0.19 0.27,-0.28 0.02,-0.02 0.05,-0.04 0.07,-0.06 0.02,-0.03 0.03,-0.04 0.04,-0.04 0.02,-0.02 0.04,-0.04 0.06,-0.06 0.08,-0.07 0.16,-0.15 0.25,-0.21 0.02,-0.02 0.03,-0.03 0.05,-0.04 0.17,-0.14 0.34,-0.27 0.53,-0.39 0.15,-0.1 0.3,-0.2 0.47,-0.3 0.17,-0.1 0.34,-0.2 0.53,-0.3 0.04,-0.02 0.08,-0.04 0.12,-0.07 0.17,-0.09 0.36,-0.19 0.56,-0.28 0.21,-0.1 0.42,-0.2 0.65,-0.29 0.24,-0.11 0.49,-0.21 0.75,-0.31 0.25,-0.1 0.51,-0.19 0.77,-0.28 0.27,-0.1 0.54,-0.19 0.82,-0.28 1.13,-0.36 2.37,-0.68 3.72,-0.97 0.33,-0.08 0.67,-0.15 1.03,-0.21 0.35,-0.07 0.7,-0.14 1.07,-0.2 0.67,-0.12 1.37,-0.23 2.08,-0.33 0.1,-0.02 0.2,-0.03 0.3,-0.04 0.04,-0.01 0.07,-0.01 0.11,-0.01 0.51,-0.08 1.03,-0.14 1.55,-0.2 0.13,-0.01 0.27,-0.03 0.4,-0.04 0.35,-0.04 0.71,-0.08 1.08,-0.11 0.26,-0.03 0.53,-0.05 0.8,-0.07 0.46,-0.04 0.93,-0.08 1.42,-0.11 0.3,-0.02 0.6,-0.04 0.91,-0.06 0.73,-0.04 1.49,-0.07 2.24,-0.09 0.24,-0.01 0.48,-0.01 0.73,-0.02 0.64,-0.01 1.3,-0.02 1.95,-0.02 h 0.01 c 0.45,0 0.89,0 1.34,0.01 0.45,0.01 0.88,0.02 1.33,0.03 0.44,0.01 0.88,0.03 1.32,0.05 0.86,0.03 1.72,0.09 2.55,0.15 0.42,0.03 0.83,0.06 1.25,0.1 0.41,0.04 0.81,0.08 1.22,0.12 0.8,0.08 1.59,0.18 2.35,0.29 0.38,0.05 0.75,0.11 1.13,0.17 0.37,0.05 0.73,0.11 1.1,0.18 0.72,0.12 1.42,0.25 2.09,0.41 0.08,0.01 0.17,0.03 0.25,0.05 0.25,0.05 0.5,0.11 0.74,0.17 0.64,0.15 1.27,0.31 1.86,0.49 0.29,0.08 0.58,0.17 0.86,0.26 0.56,0.17 1.11,0.36 1.61,0.56 0.5,0.19 0.97,0.39 1.41,0.6 0.44,0.21 0.84,0.42 1.21,0.64 0.01,0 0.01,0.01 0.01,0.01 0.37,0.21 0.7,0.44 0.99,0.67 0.17,0.13 0.32,0.27 0.46,0.4 0.13,0.13 0.25,0.25 0.35,0.38 0.08,0.08 0.15,0.17 0.21,0.26 0.03,0.03 0.05,0.06 0.07,0.1 0.06,0.08 0.12,0.17 0.16,0.26 0.02,0.03 0.04,0.05 0.04,0.08 0.01,0.01 0.01,0.02 0.02,0.03 0.05,0.08 0.08,0.17 0.11,0.25 0.02,0.03 0.03,0.07 0.04,0.11 0.02,0.05 0.04,0.11 0.05,0.17 0.01,0.02 0.01,0.05 0.01,0.07 0.02,0.05 0.03,0.09 0.03,0.14 0.02,0.11 0.03,0.23 0.03,0.34 v 11.4 z m 34.96,7.62 c 14.01,0.14 25.21,3.49 25.21,7.59 v 11.4 c 0,4.14 -11.43,7.52 -25.66,7.6 h -0.53 c -14.47,0 -26.19,-3.41 -26.19,-7.6 v -11.4 c 0,-4.19 11.72,-7.6 26.19,-7.6 0.34,0 0.66,0 0.98,0.01 z m 25.22,-34.02 c 0,0.1 -0.01,0.2 -0.02,0.3 0,0.01 0,0.01 0,0.02 0,0.01 0,0.02 -0.01,0.03 0,0.08 -0.02,0.16 -0.05,0.24 -0.02,0.1 -0.05,0.19 -0.09,0.28 -0.07,0.19 -0.17,0.38 -0.3,0.56 -0.05,0.09 -0.11,0.18 -0.19,0.26 0,0.01 -0.01,0.03 -0.02,0.04 -0.02,0.02 -0.04,0.05 -0.06,0.07 -0.05,0.06 -0.1,0.12 -0.16,0.18 -0.09,0.09 -0.18,0.18 -0.27,0.27 -0.12,0.12 -0.26,0.24 -0.41,0.36 -0.29,0.23 -0.62,0.45 -0.99,0.68 -0.15,0.09 -0.31,0.18 -0.48,0.27 -0.16,0.09 -0.34,0.18 -0.52,0.26 -0.14,0.07 -0.29,0.14 -0.43,0.21 -0.22,0.1 -0.46,0.21 -0.7,0.31 -0.24,0.1 -0.48,0.19 -0.74,0.29 -0.34,0.13 -0.69,0.25 -1.07,0.37 -0.18,0.07 -0.37,0.13 -0.56,0.18 -0.19,0.06 -0.38,0.12 -0.58,0.18 -0.29,0.09 -0.6,0.17 -0.9,0.25 -0.13,0.03 -0.27,0.06 -0.4,0.1 -0.33,0.09 -0.66,0.17 -1.01,0.24 -0.95,0.22 -1.97,0.42 -3.04,0.6 -0.46,0.08 -0.94,0.15 -1.43,0.22 -0.5,0.08 -1.02,0.15 -1.54,0.21 -3.13,0.38 -6.57,0.59 -10.19,0.59 h -0.01 c -0.59,0 -1.18,-0.01 -1.76,-0.02 -0.54,-0.01 -1.1,-0.02 -1.63,-0.05 -0.61,-0.02 -1.21,-0.04 -1.8,-0.08 -0.16,-0.01 -0.31,-0.02 -0.47,-0.03 -0.15,-0.01 -0.3,-0.02 -0.46,-0.03 -0.1,-0.01 -0.21,-0.01 -0.31,-0.02 -0.48,-0.04 -0.95,-0.07 -1.43,-0.12 -0.39,-0.03 -0.77,-0.07 -1.15,-0.11 -1.04,-0.1 -2.04,-0.23 -3,-0.38 -0.32,-0.05 -0.64,-0.1 -0.95,-0.15 -0.42,-0.07 -0.84,-0.14 -1.25,-0.22 -0.27,-0.05 -0.53,-0.1 -0.79,-0.16 -0.27,-0.05 -0.52,-0.1 -0.78,-0.16 -0.44,-0.09 -0.87,-0.19 -1.29,-0.3 -0.21,-0.05 -0.42,-0.1 -0.62,-0.16 -0.2,-0.05 -0.4,-0.11 -0.59,-0.16 -0.78,-0.22 -1.53,-0.46 -2.21,-0.71 -0.34,-0.12 -0.67,-0.25 -0.98,-0.38 -0.31,-0.13 -0.61,-0.26 -0.9,-0.4 -0.43,-0.2 -0.83,-0.42 -1.21,-0.64 -0.37,-0.23 -0.7,-0.45 -0.99,-0.68 -0.15,-0.12 -0.29,-0.24 -0.41,-0.36 -0.09,-0.09 -0.18,-0.18 -0.27,-0.27 -0.06,-0.06 -0.11,-0.12 -0.16,-0.18 -0.02,-0.02 -0.04,-0.05 -0.06,-0.07 -0.01,-0.01 -0.02,-0.03 -0.02,-0.04 -0.08,-0.08 -0.14,-0.17 -0.19,-0.26 -0.13,-0.18 -0.23,-0.37 -0.3,-0.56 -0.04,-0.09 -0.07,-0.18 -0.09,-0.28 -0.03,-0.08 -0.04,-0.16 -0.05,-0.24 -0.01,-0.01 -0.01,-0.02 -0.01,-0.03 0,-0.01 0,-0.01 0,-0.02 -0.01,-0.1 -0.02,-0.2 -0.02,-0.3 v -11.38 c 0,-4.2 11.72,-7.61 26.19,-7.61 14.46,0 26.19,3.41 26.19,7.61 v 11.38 z"
   id="path4044" />
						<path
   class="st181"
   d="m 1349.34,649.07 c 0,2.26 -3.42,4.3 -8.83,5.69 -4.6,1.2 -10.69,1.92 -17.37,1.92 -6.66,0 -12.74,-0.72 -17.36,-1.92 -5.42,-1.39 -8.82,-3.43 -8.82,-5.69 0,-4.2 11.72,-7.61 26.19,-7.61 14.46,0.01 26.19,3.41 26.19,7.61 z"
   id="path4046" />
						<path
   class="st181"
   d="m 1289.16,675.45 v 0.01 c 0,2.26 -3.44,4.31 -8.85,5.7 -4.63,1.19 -10.7,1.9 -17.35,1.9 -6.65,0 -12.71,-0.71 -17.34,-1.9 -5.43,-1.39 -8.84,-3.44 -8.84,-5.7 v -0.04 c 0,-0.09 0.01,-0.19 0.02,-0.28 0.01,-0.03 0.01,-0.06 0.02,-0.09 0,-0.02 0.01,-0.05 0.02,-0.07 0.01,-0.07 0.03,-0.14 0.05,-0.22 0.01,-0.03 0.03,-0.07 0.04,-0.11 0,-0.01 0,-0.01 0.01,-0.02 0,-0.01 0.01,-0.03 0.02,-0.04 0.03,-0.1 0.07,-0.19 0.12,-0.28 0.06,-0.12 0.13,-0.25 0.23,-0.37 0.08,-0.12 0.18,-0.25 0.29,-0.37 0.08,-0.1 0.17,-0.19 0.27,-0.28 0.02,-0.02 0.05,-0.04 0.07,-0.06 0.02,-0.03 0.03,-0.04 0.04,-0.04 0.02,-0.02 0.04,-0.04 0.06,-0.06 0.08,-0.07 0.16,-0.14 0.25,-0.21 0.02,-0.02 0.03,-0.03 0.05,-0.04 0.17,-0.14 0.34,-0.27 0.53,-0.39 0.15,-0.1 0.3,-0.2 0.47,-0.3 0.17,-0.1 0.34,-0.2 0.53,-0.3 0.04,-0.02 0.08,-0.04 0.12,-0.07 0.17,-0.09 0.36,-0.19 0.56,-0.28 0.21,-0.1 0.42,-0.2 0.65,-0.29 0.24,-0.11 0.49,-0.21 0.75,-0.31 0.25,-0.1 0.51,-0.19 0.77,-0.28 0.27,-0.1 0.54,-0.19 0.82,-0.28 1.13,-0.36 2.37,-0.68 3.72,-0.97 0.33,-0.08 0.67,-0.15 1.03,-0.21 0.35,-0.07 0.7,-0.14 1.07,-0.2 0.67,-0.12 1.37,-0.23 2.08,-0.33 0.1,-0.02 0.2,-0.03 0.3,-0.04 0.04,-0.01 0.07,-0.01 0.11,-0.01 0.51,-0.08 1.03,-0.14 1.55,-0.2 0.13,-0.01 0.27,-0.03 0.4,-0.04 0.35,-0.04 0.71,-0.08 1.08,-0.11 0.26,-0.03 0.53,-0.05 0.8,-0.07 0.46,-0.04 0.93,-0.08 1.42,-0.11 0.3,-0.02 0.6,-0.04 0.91,-0.06 0.73,-0.04 1.49,-0.07 2.24,-0.09 0.24,-0.01 0.48,-0.01 0.73,-0.02 0.64,-0.01 1.3,-0.02 1.95,-0.02 h 0.01 c 0.45,0 0.89,0 1.34,0.01 0.45,0.01 0.88,0.02 1.33,0.03 0.44,0.01 0.88,0.03 1.32,0.05 0.86,0.03 1.72,0.09 2.55,0.15 0.42,0.03 0.83,0.06 1.25,0.1 0.41,0.04 0.81,0.08 1.22,0.12 0.8,0.09 1.59,0.18 2.35,0.29 0.38,0.05 0.75,0.11 1.13,0.17 0.37,0.05 0.73,0.11 1.1,0.18 0.72,0.12 1.42,0.25 2.09,0.41 0.08,0.01 0.17,0.03 0.25,0.05 0.25,0.05 0.5,0.11 0.74,0.17 0.64,0.16 1.27,0.32 1.86,0.49 0.29,0.08 0.58,0.17 0.86,0.26 0.56,0.18 1.11,0.37 1.61,0.56 0.5,0.2 0.97,0.4 1.41,0.6 0.44,0.21 0.84,0.42 1.21,0.64 0.01,0 0.01,0.01 0.01,0.01 0.37,0.21 0.7,0.44 0.99,0.67 0.17,0.13 0.32,0.27 0.46,0.4 0.13,0.13 0.25,0.25 0.35,0.38 0.08,0.08 0.15,0.17 0.21,0.26 0.03,0.03 0.05,0.06 0.07,0.1 0.06,0.08 0.11,0.17 0.16,0.26 0.02,0.03 0.04,0.05 0.04,0.08 0.01,0.01 0.01,0.02 0.02,0.03 0.04,0.08 0.08,0.16 0.11,0.25 0.02,0.03 0.03,0.07 0.04,0.11 0.02,0.05 0.04,0.11 0.05,0.17 0.01,0.02 0.01,0.05 0.01,0.07 0.02,0.05 0.03,0.09 0.03,0.14 0.04,0.11 0.05,0.23 0.05,0.34 z"
   id="path4048" />
						<path
   class="st181"
   d="m 1349.34,702.06 c 0,2.26 -3.44,4.31 -8.85,5.69 -4.44,1.16 -10.23,1.86 -16.61,1.9 -0.24,0.01 -0.48,0.01 -0.72,0.01 -6.65,0 -12.73,-0.71 -17.34,-1.9 -5.44,-1.4 -8.85,-3.44 -8.85,-5.7 0,-4.19 11.72,-7.6 26.19,-7.6 0.33,0 0.65,0 0.97,0.01 14,0.14 25.21,3.49 25.21,7.59 z"
   id="path4050" />
					</g>
				</g>
				<g
   id="g4080">
					<g
   id="g4068">
						<line
   class="st181"
   x1="1214.52"
   y1="513.84998"
   x2="1214.52"
   y2="513.70001"
   id="line4056" />
						<path
   class="st181"
   d="m 1200.97,492.47 46.71,21.8 1.04,-0.46 z M 1128,513.61 v 0.4 l 3.53,1.57 -2.76,-2.31 z"
   id="path4058" />
						<path
   class="st181"
   d="m 1200.97,492.47 -0.04,-0.02 -12.66,-5.66 -59.5,26.47 2.76,2.31 0.01,0.01 56.72,25.23 h 0.01 l 59.41,-26.55 z m -12.63,28.97 c -14.47,0 -26.2,-3.4 -26.2,-7.6 v -11.4 c 0,-4.19 11.73,-7.6 26.19,-7.6 14.46,0 26.19,3.41 26.19,7.6 v 11.26 c 0.01,0.05 0.01,0.09 0.01,0.14 0,4.21 -11.74,7.6 -26.19,7.6 z"
   id="path4060" />
						<path
   class="st181"
   d="m 1214.52,502.45 c 0,2.27 -3.42,4.3 -8.84,5.69 -4.62,1.2 -10.69,1.92 -17.35,1.92 -6.64,0 -12.7,-0.72 -17.34,-1.91 -5.42,-1.39 -8.85,-3.43 -8.85,-5.7 0,-4.19 11.73,-7.6 26.19,-7.6 14.46,0 26.19,3.41 26.19,7.6 z"
   id="path4062" />
						<path
   class="st181"
   d="m 1214.53,513.85 c 0,4.2 -11.74,7.6 -26.19,7.6 -14.47,0 -26.2,-3.4 -26.2,-7.6 v -11.4 c 0,2.27 3.44,4.31 8.85,5.7 4.63,1.19 10.69,1.91 17.34,1.91 6.65,0 12.72,-0.72 17.35,-1.92 5.43,-1.39 8.84,-3.42 8.84,-5.69 v 11.26 c 0.01,0.05 0.01,0.09 0.01,0.14 z"
   id="path4064" />
						<rect
   x="1188.26"
   y="540.82001"
   class="st181"
   width="0.0099999998"
   height="61.830002"
   id="rect4066" />
					</g>
					<polygon
   class="st181"
   points="1248.51,514.65 1248.51,576.39 1188.25,603.32 1188.25,562.84 1188.26,562.85 1188.26,602.64 1188.27,602.64 1188.27,541.49 1239.8,518.46 1248.41,514.61 "
   id="polygon4070" />
					<polygon
   class="st181"
   points="1188.26,541.5 1188.26,562.85 1188.25,562.84 1188.25,541.5 "
   id="polygon4072" />
					<polygon
   class="st181"
   points="1248.41,514.61 1248.51,514.56 1248.51,514.65 "
   id="polygon4074" />
					<polygon
   class="st181"
   points="1188.27,541.49 1188.27,602.64 1188.26,602.64 1188.26,541.5 "
   id="polygon4076" />
					<polygon
   class="st181"
   points="1127.28,576.36 1127.28,514.53 1136.02,518.43 1187.73,541.42 1187.83,541.46 1187.83,603.29 "
   id="polygon4078" />
				</g>
				<g
   id="g4118">
					<path
   class="st181"
   d="m 1044.49,653.22 c 0.28,0 0.56,0 0.83,-0.01 v 0.15 c -0.23,0.01 -0.47,0.01 -0.71,0.01 -6.65,0 -12.72,-0.71 -17.34,-1.9 -4.08,-1.05 -7.01,-2.45 -8.23,-4.06 1.28,1.54 4.15,2.89 8.09,3.9 4.62,1.2 10.71,1.91 17.36,1.91 z"
   id="path4082" />
					<polygon
   class="st181"
   points="984.78,603.29 984.84,603.32 984.78,603.35 "
   id="polygon4084" />
					<polygon
   class="st181"
   points="984.78,603.69 1044.83,630.53 984.78,657.38 "
   id="polygon4086" />
					<path
   class="st181"
   d="m 1045.32,638.03 v 0.16 c -0.23,-0.01 -0.47,-0.01 -0.71,-0.01 -14.47,0 -26.19,3.41 -26.19,7.59 0,0.55 0.2,1.09 0.59,1.6 -0.29,-0.35 -0.49,-0.71 -0.59,-1.08 -0.08,-0.22 -0.11,-0.44 -0.11,-0.66 0,-4.2 11.72,-7.61 26.18,-7.61 0.28,0 0.56,0 0.83,0.01 z"
   id="path4088" />
					<g
   id="g4116">
						<path
   class="st181"
   d="m 1045.32,638.03 c -0.27,-0.01 -0.55,-0.01 -0.83,-0.01 -14.46,0 -26.18,3.41 -26.18,7.61 0,0.22 0.03,0.44 0.11,0.66 v -0.52 c 0,-4.18 11.72,-7.59 26.19,-7.59 0.24,0 0.48,0 0.71,0.01 11.89,0.09 21.8,2.48 24.65,5.69 -2.65,-3.29 -12.62,-5.75 -24.65,-5.85 z m -60.54,19.69 v -0.34 l -0.39,0.17 z m 0,-54.03 v -0.34 l -0.39,0.17 z"
   id="path4090" />
						<path
   class="st181"
   d="m 1044.93,576.58 -60.1,26.74 -0.06,0.03 v 0.34 l 60.06,26.84 -60.06,26.84 v 0.34 l 8.35,3.73 51.71,22.99 0.1,0.05 0.39,-0.17 15.25,-6.81 35.92,-16.06 69.16,-30.91 z m 25.87,80.59 c 0,4.12 -11.34,7.49 -25.48,7.59 -0.23,0.01 -0.47,0.01 -0.71,0.01 -14.47,0 -26.19,-3.41 -26.19,-7.6 v -10.88 c -0.08,-0.22 -0.11,-0.44 -0.11,-0.66 0,-4.2 11.72,-7.61 26.18,-7.61 0.28,0 0.56,0 0.83,0.01 12.03,0.1 22,2.56 24.65,5.85 0.07,0.08 0.14,0.16 0.19,0.24 0.42,0.53 0.63,1.09 0.63,1.65 v 11.4 z m 0.64,-52.99 c 0,0.1 -0.01,0.21 -0.02,0.31 -0.01,0.09 -0.03,0.18 -0.06,0.27 -0.02,0.09 -0.05,0.19 -0.09,0.28 -0.07,0.19 -0.17,0.38 -0.3,0.56 -0.05,0.09 -0.11,0.18 -0.19,0.26 0,0.02 -0.01,0.03 -0.02,0.04 -0.07,0.08 -0.14,0.17 -0.22,0.25 -0.08,0.09 -0.17,0.18 -0.27,0.27 -0.12,0.12 -0.26,0.24 -0.41,0.36 -0.29,0.23 -0.62,0.46 -0.99,0.68 -0.37,0.22 -0.77,0.44 -1.21,0.64 -0.29,0.14 -0.59,0.27 -0.9,0.4 -0.31,0.13 -0.64,0.26 -0.98,0.38 -0.68,0.25 -1.42,0.49 -2.21,0.71 -0.39,0.11 -0.8,0.22 -1.22,0.32 -0.41,0.11 -0.84,0.21 -1.29,0.3 -2.05,0.45 -4.33,0.81 -6.79,1.08 -0.4,0.05 -0.8,0.09 -1.22,0.12 -1.42,0.13 -2.89,0.22 -4.41,0.27 -0.53,0.03 -1.07,0.04 -1.61,0.05 -0.58,0.01 -1.18,0.02 -1.77,0.02 -0.59,0 -1.19,-0.01 -1.77,-0.02 -0.54,-0.01 -1.08,-0.02 -1.61,-0.05 -1.54,-0.05 -3.03,-0.15 -4.48,-0.28 -0.39,-0.03 -0.77,-0.07 -1.15,-0.11 -2.46,-0.26 -4.74,-0.62 -6.79,-1.08 -0.44,-0.09 -0.86,-0.19 -1.28,-0.3 -0.21,-0.04 -0.42,-0.1 -0.62,-0.16 -0.2,-0.05 -0.4,-0.1 -0.59,-0.16 -0.2,-0.05 -0.39,-0.11 -0.58,-0.17 -0.57,-0.17 -1.12,-0.35 -1.63,-0.54 -0.34,-0.12 -0.67,-0.25 -0.99,-0.38 -0.31,-0.13 -0.61,-0.26 -0.9,-0.4 -0.43,-0.2 -0.83,-0.42 -1.21,-0.64 -0.37,-0.22 -0.7,-0.45 -0.99,-0.68 -0.15,-0.12 -0.29,-0.24 -0.41,-0.36 -0.1,-0.09 -0.19,-0.18 -0.27,-0.27 -0.08,-0.08 -0.15,-0.17 -0.22,-0.25 -0.01,-0.01 -0.02,-0.02 -0.02,-0.04 -0.08,-0.08 -0.14,-0.17 -0.19,-0.26 -0.13,-0.18 -0.23,-0.37 -0.3,-0.56 -0.04,-0.09 -0.07,-0.19 -0.09,-0.28 -0.03,-0.09 -0.05,-0.18 -0.06,-0.27 -0.01,-0.1 -0.02,-0.21 -0.02,-0.31 v -11.4 c 0,-4.19 11.72,-7.6 26.19,-7.6 14.46,0 26.19,3.41 26.19,7.6 v 11.4 z m 33.85,34 c -14.46,0 -26.19,-3.41 -26.19,-7.61 v -11.39 c 0,-0.1 0.01,-0.21 0.02,-0.31 0.01,-0.09 0.03,-0.18 0.06,-0.27 0.02,-0.09 0.05,-0.17 0.08,-0.26 0.1,-0.25 0.23,-0.5 0.42,-0.74 0.06,-0.09 0.12,-0.17 0.2,-0.26 0.22,-0.26 0.49,-0.51 0.8,-0.76 0.15,-0.12 0.3,-0.24 0.47,-0.34 0.47,-0.33 1.02,-0.65 1.64,-0.94 0.03,-0.01 0.06,-0.02 0.09,-0.04 0.46,-0.22 0.96,-0.44 1.51,-0.64 0.53,-0.2 1.12,-0.4 1.72,-0.59 0.68,-0.21 1.41,-0.41 2.17,-0.6 1.15,-0.29 2.37,-0.54 3.67,-0.76 0.86,-0.15 1.76,-0.29 2.69,-0.4 0.46,-0.06 0.93,-0.12 1.41,-0.17 1.28,-0.14 2.6,-0.25 3.96,-0.33 0.42,-0.02 0.85,-0.05 1.29,-0.07 1.3,-0.06 2.63,-0.09 3.99,-0.09 1.36,0 2.69,0.03 3.99,0.09 0.43,0.02 0.86,0.05 1.29,0.07 0.85,0.04 1.7,0.11 2.51,0.19 1.16,0.1 2.27,0.23 3.35,0.37 0.72,0.1 1.43,0.2 2.11,0.32 0.43,0.07 0.83,0.15 1.25,0.23 0.01,0 0.01,0 0.01,0 0.81,0.15 1.6,0.32 2.35,0.51 0.38,0.09 0.74,0.18 1.11,0.28 1.71,0.47 3.21,1.01 4.44,1.6 0.03,0.02 0.06,0.03 0.09,0.04 0.61,0.29 1.17,0.61 1.64,0.94 0.17,0.1 0.32,0.22 0.47,0.34 0.31,0.25 0.58,0.5 0.8,0.76 0.08,0.09 0.14,0.17 0.2,0.26 0.19,0.24 0.32,0.49 0.42,0.74 0.03,0.09 0.06,0.17 0.08,0.26 0.03,0.09 0.05,0.18 0.06,0.27 0.01,0.1 0.02,0.21 0.02,0.31 v 11.39 c 0,4.19 -11.72,7.6 -26.19,7.6 z"
   id="path4092" />
						<path
   class="st181"
   d="m 1071.44,592.79 v 0.01 c 0,2.26 -3.42,4.3 -8.82,5.69 -4.61,1.2 -10.7,1.91 -17.37,1.91 -6.66,0 -12.74,-0.71 -17.36,-1.91 -5.43,-1.39 -8.83,-3.43 -8.83,-5.69 v -0.01 c 0,-4.19 11.72,-7.6 26.19,-7.6 14.47,0 26.19,3.41 26.19,7.6 z"
   id="path4094" />
						<path
   class="st181"
   d="m 1019.01,647.37 c -0.29,-0.35 -0.49,-0.71 -0.59,-1.08 v -0.52 c 0,0.55 0.2,1.08 0.59,1.6 z"
   id="path4096" />
						<path
   class="st181"
   d="m 1069.98,643.88 c -2.85,-3.21 -12.76,-5.6 -24.65,-5.69 -0.23,-0.01 -0.47,-0.01 -0.71,-0.01 -14.47,0 -26.19,3.41 -26.19,7.59 0,0.55 0.2,1.09 0.59,1.6 -0.29,-0.35 -0.49,-0.71 -0.59,-1.08 -0.08,-0.22 -0.11,-0.44 -0.11,-0.66 0,-4.2 11.72,-7.61 26.18,-7.61 0.28,0 0.56,0 0.83,0.01 12.02,0.1 21.99,2.56 24.65,5.85 z"
   id="path4098" />
						<path
   class="st181"
   d="m 1131.48,619.19 c 0,2.26 -3.44,4.3 -8.85,5.7 -4.63,1.19 -10.69,1.9 -17.34,1.9 -6.65,0 -12.72,-0.71 -17.33,-1.9 -5.45,-1.39 -8.86,-3.44 -8.86,-5.7 0,-0.1 0.01,-0.21 0.02,-0.31 0.01,-0.09 0.03,-0.18 0.06,-0.27 0.02,-0.09 0.05,-0.17 0.08,-0.26 0.1,-0.25 0.23,-0.5 0.42,-0.74 0.06,-0.09 0.12,-0.17 0.2,-0.26 0.22,-0.26 0.49,-0.51 0.8,-0.76 0.15,-0.11 0.3,-0.23 0.47,-0.34 0.47,-0.32 1.02,-0.63 1.64,-0.94 0.03,-0.01 0.06,-0.02 0.09,-0.04 0.46,-0.22 0.96,-0.43 1.51,-0.64 0.53,-0.2 1.12,-0.4 1.72,-0.59 0.68,-0.21 1.41,-0.41 2.17,-0.6 1.15,-0.28 2.37,-0.53 3.67,-0.76 0.86,-0.15 1.77,-0.28 2.69,-0.4 0.46,-0.06 0.93,-0.12 1.41,-0.17 1.28,-0.14 2.6,-0.25 3.96,-0.33 0.42,-0.02 0.85,-0.05 1.29,-0.07 1.3,-0.05 2.63,-0.08 3.99,-0.08 1.36,0 2.69,0.03 3.99,0.08 0.43,0.02 0.86,0.05 1.29,0.07 0.85,0.05 1.69,0.12 2.51,0.19 1.16,0.1 2.27,0.23 3.35,0.37 0.72,0.1 1.43,0.21 2.11,0.32 0.42,0.07 0.84,0.15 1.25,0.23 0.01,0 0.01,0 0.01,0 0.82,0.16 1.61,0.33 2.35,0.51 0.38,0.09 0.74,0.18 1.11,0.28 1.71,0.47 3.21,1.01 4.44,1.6 0.03,0.02 0.06,0.03 0.09,0.04 0.62,0.31 1.17,0.62 1.64,0.94 0.17,0.11 0.32,0.23 0.47,0.34 0.31,0.25 0.58,0.5 0.8,0.76 0.08,0.09 0.14,0.17 0.2,0.26 0.19,0.24 0.32,0.49 0.42,0.74 0.03,0.09 0.06,0.17 0.08,0.26 0.03,0.09 0.05,0.18 0.06,0.27 0.01,0.09 0.02,0.2 0.02,0.3 z"
   id="path4100" />
						<path
   class="st181"
   d="m 1070.69,645.63 c 0,2.26 -3.42,4.3 -8.83,5.69 -4.41,1.15 -10.19,1.85 -16.53,1.9 -0.27,0.01 -0.55,0.01 -0.83,0.01 -6.65,0 -12.74,-0.71 -17.36,-1.91 -3.94,-1 -6.81,-2.36 -8.09,-3.9 -0.02,-0.01 -0.03,-0.03 -0.03,-0.05 -0.39,-0.51 -0.59,-1.05 -0.59,-1.6 0,-4.18 11.72,-7.59 26.19,-7.59 0.24,0 0.48,0 0.71,0.01 11.89,0.09 21.8,2.48 24.65,5.69 0.07,0.08 0.14,0.16 0.19,0.24 0.34,0.48 0.52,0.99 0.52,1.51 z"
   id="path4102" />
						<path
   class="st181"
   d="m 1070.8,645.77 c 0,2.27 -3.44,4.31 -8.85,5.71 -4.45,1.15 -10.25,1.85 -16.62,1.89 -0.23,0.01 -0.47,0.01 -0.71,0.01 -6.65,0 -12.72,-0.71 -17.34,-1.9 -4.08,-1.05 -7.01,-2.45 -8.23,-4.06 1.28,1.54 4.15,2.89 8.09,3.9 4.61,1.2 10.7,1.91 17.36,1.91 0.28,0 0.56,0 0.83,-0.01 6.34,-0.05 12.12,-0.75 16.53,-1.9 5.42,-1.39 8.83,-3.43 8.83,-5.69 0,-0.51 -0.18,-1.03 -0.52,-1.51 0.42,0.53 0.63,1.09 0.63,1.65 z"
   id="path4104" />
						<path
   class="st181"
   d="m 1131.48,619.19 v 11.39 c 0,4.2 -11.72,7.61 -26.19,7.61 -14.46,0 -26.19,-3.41 -26.19,-7.61 v -11.39 c 0,2.26 3.42,4.31 8.86,5.7 4.6,1.19 10.67,1.9 17.33,1.9 6.64,0 12.7,-0.71 17.34,-1.9 5.41,-1.4 8.85,-3.44 8.85,-5.7 z"
   id="path4106" />
						<path
   class="st181"
   d="m 1071.44,592.8 v 11.39 c 0,0.1 -0.01,0.21 -0.02,0.31 -0.01,0.09 -0.03,0.18 -0.06,0.27 -0.02,0.09 -0.05,0.19 -0.09,0.28 -0.07,0.19 -0.17,0.38 -0.3,0.56 -0.05,0.09 -0.11,0.18 -0.19,0.26 0,0.02 -0.01,0.03 -0.02,0.04 -0.07,0.08 -0.14,0.17 -0.22,0.25 -0.08,0.09 -0.17,0.18 -0.27,0.27 -0.13,0.12 -0.27,0.24 -0.41,0.36 -0.29,0.23 -0.62,0.46 -0.99,0.68 -0.37,0.22 -0.77,0.43 -1.21,0.64 -0.29,0.14 -0.59,0.27 -0.9,0.4 -0.31,0.13 -0.64,0.26 -0.98,0.38 -0.68,0.25 -1.42,0.49 -2.21,0.71 -0.39,0.11 -0.8,0.22 -1.22,0.32 -0.41,0.11 -0.84,0.21 -1.29,0.3 -2.05,0.45 -4.33,0.81 -6.79,1.08 -0.4,0.05 -0.8,0.09 -1.22,0.12 -1.42,0.13 -2.89,0.22 -4.41,0.27 -0.53,0.03 -1.07,0.04 -1.61,0.05 -0.58,0.01 -1.18,0.02 -1.77,0.02 -0.59,0 -1.19,-0.01 -1.77,-0.02 -0.54,-0.01 -1.08,-0.02 -1.61,-0.05 -1.54,-0.05 -3.03,-0.15 -4.48,-0.28 -0.39,-0.03 -0.77,-0.07 -1.15,-0.11 -2.46,-0.26 -4.74,-0.62 -6.79,-1.08 -0.43,-0.1 -0.86,-0.2 -1.28,-0.3 -0.21,-0.05 -0.42,-0.1 -0.62,-0.16 -0.2,-0.05 -0.4,-0.1 -0.59,-0.16 -0.2,-0.05 -0.39,-0.11 -0.58,-0.17 -0.57,-0.17 -1.12,-0.35 -1.63,-0.54 -0.34,-0.12 -0.67,-0.25 -0.99,-0.38 -0.31,-0.13 -0.61,-0.26 -0.9,-0.4 -0.43,-0.21 -0.83,-0.42 -1.21,-0.64 -0.37,-0.22 -0.7,-0.45 -0.99,-0.68 -0.14,-0.12 -0.28,-0.24 -0.41,-0.36 -0.1,-0.09 -0.19,-0.18 -0.27,-0.27 -0.08,-0.08 -0.15,-0.17 -0.22,-0.25 -0.01,-0.01 -0.02,-0.02 -0.02,-0.04 -0.08,-0.08 -0.14,-0.17 -0.19,-0.26 -0.13,-0.18 -0.23,-0.37 -0.3,-0.56 -0.04,-0.09 -0.07,-0.19 -0.09,-0.28 -0.03,-0.09 -0.05,-0.18 -0.06,-0.27 -0.01,-0.1 -0.02,-0.21 -0.02,-0.31 V 592.8 c 0,2.26 3.41,4.3 8.83,5.69 4.61,1.2 10.69,1.91 17.36,1.91 6.66,0 12.75,-0.71 17.37,-1.91 5.38,-1.39 8.79,-3.43 8.79,-5.69 z"
   id="path4108" />
						<polygon
   class="st181"
   points="984.38,719.38 984.38,657.56 984.78,657.73 993.13,661.46 1044.83,684.44 1044.93,684.49 1044.93,746.3 "
   id="polygon4110" />
						<polygon
   class="st181"
   points="1096.49,661.46 1165.65,630.54 1165.65,692.37 1044.93,746.3 1044.93,691.88 1045.32,692.05 1045.32,684.32 1060.57,677.5 "
   id="polygon4112" />
						<polygon
   class="st181"
   points="1044.93,684.49 1045.32,684.32 1045.32,692.05 1044.93,691.88 "
   id="polygon4114" />
					</g>
				</g>
				<g
   id="g4168">
					<polygon
   class="st181"
   points="895.64,359.27 895.64,367 895.24,366.83 895.24,359.44 "
   id="polygon4120" />
					<path
   class="st181"
   d="m 921.75,267.74 v 11.39 c 0,4.21 -11.72,7.61 -26.19,7.61 -14.47,0 -26.19,-3.4 -26.19,-7.61 v -11.39 c 0,2.27 3.41,4.3 8.83,5.7 4.6,1.2 10.69,1.91 17.36,1.91 6.66,0 12.75,-0.71 17.37,-1.91 5.41,-1.4 8.82,-3.43 8.82,-5.7 z"
   id="path4122" />
					<path
   class="st181"
   d="m 921.11,320.72 v 11.41 c 0,4.12 -11.34,7.49 -25.48,7.59 -0.23,0.01 -0.47,0.01 -0.71,0.01 -14.47,0 -26.19,-3.41 -26.19,-7.6 v -10.88 c -0.08,-0.22 -0.11,-0.44 -0.11,-0.66 0,-4.2 11.72,-7.61 26.18,-7.61 0.28,0 0.56,0 0.83,0.01 12.03,0.1 22,2.56 24.65,5.85 -2.85,-3.21 -12.76,-5.6 -24.65,-5.69 -0.23,-0.01 -0.47,-0.01 -0.71,-0.01 -14.47,0 -26.19,3.41 -26.19,7.59 0,0.55 0.2,1.09 0.59,1.6 0,0.02 0.01,0.04 0.03,0.05 1.28,1.54 4.15,2.89 8.09,3.9 4.61,1.2 10.7,1.91 17.36,1.91 0.28,0 0.56,0 0.83,-0.01 6.34,-0.05 12.12,-0.75 16.53,-1.9 5.42,-1.39 8.83,-3.43 8.83,-5.69 0,-0.51 -0.18,-1.03 -0.52,-1.51 0.43,0.53 0.64,1.08 0.64,1.64 z"
   id="path4124" />
					<path
   class="st181"
   d="m 981.79,294.13 v 11.4 c 0,4.2 -11.72,7.61 -26.19,7.61 -14.47,0 -26.19,-3.41 -26.19,-7.61 v -11.4 c 0,2.27 3.42,4.31 8.85,5.71 4.61,1.18 10.68,1.9 17.34,1.9 6.64,0 12.7,-0.72 17.34,-1.9 5.41,-1.4 8.85,-3.44 8.85,-5.71 z"
   id="path4126" />
					<g
   id="g4166">
						<polygon
   class="st181"
   points="835.09,278.24 835.15,278.27 835.09,278.3 "
   id="polygon4128" />
						<polygon
   class="st181"
   points="835.09,278.65 835.89,279.01 895.14,305.49 856.28,322.85 835.09,332.33 "
   id="polygon4130" />
						<polygon
   class="st181"
   points="895.24,359.44 895.64,359.27 895.64,367 895.24,366.83 "
   id="polygon4132" />
						<path
   class="st181"
   d="m 895.64,312.99 v 0.16 c -0.23,-0.01 -0.47,-0.01 -0.71,-0.01 -14.47,0 -26.19,3.41 -26.19,7.59 0,0.55 0.2,1.09 0.59,1.6 -0.29,-0.35 -0.49,-0.71 -0.59,-1.08 -0.08,-0.22 -0.11,-0.44 -0.11,-0.66 0,-4.2 11.72,-7.61 26.18,-7.61 0.27,0 0.55,0 0.83,0.01 z"
   id="path4134" />
						<path
   class="st181"
   d="m 895.64,328.17 v 0.15 c -0.23,0.01 -0.47,0.01 -0.71,0.01 -6.65,0 -12.72,-0.71 -17.34,-1.9 -4.08,-1.05 -7.01,-2.45 -8.23,-4.06 1.28,1.54 4.15,2.89 8.09,3.9 4.61,1.2 10.7,1.91 17.36,1.91 0.27,0 0.55,0 0.83,-0.01 z"
   id="path4136" />
						<g
   id="g4164">
							<path
   class="st181"
   d="m 834.7,278.47 0.39,0.17 v -0.34 z m 0,54.03 0.39,0.17 v -0.34 z m 60.94,-19.51 c -0.27,-0.01 -0.55,-0.01 -0.83,-0.01 -14.46,0 -26.18,3.41 -26.18,7.61 0,0.22 0.03,0.44 0.11,0.66 v -0.52 c 0,-4.18 11.72,-7.59 26.19,-7.59 0.24,0 0.48,0 0.71,0.01 11.89,0.09 21.8,2.48 24.65,5.69 -2.66,-3.29 -12.62,-5.75 -24.65,-5.85 z"
   id="path4138" />
							<path
   class="st181"
   d="m 895.24,251.53 -0.05,0.02 120.31,54.14 0.45,-0.2 z m -14.65,6.52 -45.44,20.22 -0.06,0.03 v 0.34 l 0.8,0.36 -0.19,-0.41 z"
   id="path4140" />
							<path
   class="st181"
   d="m 895.19,251.55 -14.6,6.5 -44.89,20.55 0.19,0.41 59.25,26.48 -38.86,17.37 -21.19,9.48 v 0.34 l 8.35,3.73 24.14,10.73 27.57,12.26 0.1,0.05 0.39,-0.17 51.16,-22.87 68.71,-30.71 z m 25.92,80.58 c 0,4.12 -11.34,7.49 -25.48,7.59 -0.23,0.01 -0.47,0.01 -0.71,0.01 -14.47,0 -26.19,-3.41 -26.19,-7.6 v -10.88 c -0.08,-0.22 -0.11,-0.44 -0.11,-0.66 0,-4.2 11.72,-7.61 26.18,-7.61 0.28,0 0.56,0 0.83,0.01 12.03,0.1 22,2.56 24.65,5.85 0.07,0.08 0.14,0.16 0.19,0.24 0.42,0.53 0.63,1.09 0.63,1.65 v 11.4 z m 0.64,-53 c 0,4.21 -11.72,7.61 -26.19,7.61 -14.47,0 -26.19,-3.4 -26.19,-7.61 v -11.39 c 0,-4.19 11.72,-7.6 26.19,-7.6 14.46,0 26.19,3.41 26.19,7.6 z m 33.85,34.01 c -14.47,0 -26.19,-3.41 -26.19,-7.61 v -11.4 c 0,-4.19 11.72,-7.6 26.19,-7.6 14.46,0 26.19,3.41 26.19,7.6 v 11.4 c 0,4.2 -11.72,7.61 -26.19,7.61 z"
   id="path4142" />
							<path
   class="st181"
   d="m 921.75,267.74 c 0,2.27 -3.42,4.3 -8.82,5.7 -4.61,1.2 -10.7,1.91 -17.37,1.91 -6.66,0 -12.75,-0.71 -17.36,-1.91 -5.43,-1.4 -8.83,-3.43 -8.83,-5.7 0,-4.19 11.72,-7.6 26.19,-7.6 14.47,0 26.19,3.41 26.19,7.6 z"
   id="path4144" />
							<path
   class="st181"
   d="m 869.33,322.32 c -0.29,-0.35 -0.49,-0.71 -0.59,-1.08 v -0.52 c -0.01,0.56 0.19,1.09 0.59,1.6 z"
   id="path4146" />
							<path
   class="st181"
   d="m 920.29,318.83 c -2.85,-3.21 -12.76,-5.6 -24.65,-5.69 -0.23,-0.01 -0.47,-0.01 -0.71,-0.01 -14.47,0 -26.19,3.41 -26.19,7.59 0,0.55 0.2,1.09 0.59,1.6 -0.29,-0.35 -0.49,-0.71 -0.59,-1.08 -0.08,-0.22 -0.11,-0.44 -0.11,-0.66 0,-4.2 11.72,-7.61 26.18,-7.61 0.28,0 0.56,0 0.83,0.01 12.03,0.11 21.99,2.57 24.65,5.85 z"
   id="path4148" />
							<path
   class="st181"
   d="m 981.79,294.13 c 0,2.27 -3.44,4.31 -8.85,5.71 -4.63,1.18 -10.69,1.9 -17.34,1.9 -6.65,0 -12.72,-0.72 -17.34,-1.9 -5.44,-1.4 -8.85,-3.44 -8.85,-5.71 0,-4.19 11.72,-7.6 26.19,-7.6 14.46,0 26.19,3.41 26.19,7.6 z"
   id="path4150" />
							<path
   class="st181"
   d="m 921,320.58 c 0,2.26 -3.42,4.3 -8.83,5.69 -4.41,1.15 -10.19,1.85 -16.53,1.9 -0.27,0.01 -0.55,0.01 -0.83,0.01 -6.65,0 -12.74,-0.71 -17.36,-1.91 -3.94,-1 -6.81,-2.36 -8.09,-3.9 -0.02,-0.01 -0.03,-0.03 -0.03,-0.05 -0.39,-0.51 -0.59,-1.05 -0.59,-1.6 0,-4.18 11.72,-7.59 26.19,-7.59 0.24,0 0.48,0 0.71,0.01 11.89,0.09 21.8,2.48 24.65,5.69 0.07,0.08 0.14,0.16 0.19,0.24 0.34,0.49 0.52,1 0.52,1.51 z"
   id="path4152" />
							<path
   class="st181"
   d="m 921.11,320.72 c 0,2.27 -3.44,4.31 -8.85,5.71 -4.45,1.15 -10.25,1.85 -16.62,1.89 -0.23,0.01 -0.47,0.01 -0.71,0.01 -6.65,0 -12.72,-0.71 -17.34,-1.9 -4.08,-1.05 -7.01,-2.45 -8.23,-4.06 1.28,1.54 4.15,2.89 8.09,3.9 4.61,1.2 10.7,1.91 17.36,1.91 0.28,0 0.56,0 0.83,-0.01 6.34,-0.05 12.12,-0.75 16.53,-1.9 5.42,-1.39 8.83,-3.43 8.83,-5.69 0,-0.51 -0.18,-1.03 -0.52,-1.51 0.42,0.54 0.63,1.09 0.63,1.65 z"
   id="path4154" />
							<path
   class="st181"
   d="m 981.79,294.13 v 11.4 c 0,4.2 -11.72,7.61 -26.19,7.61 -14.47,0 -26.19,-3.41 -26.19,-7.61 v -11.4 c 0,2.27 3.42,4.31 8.85,5.71 4.61,1.18 10.68,1.9 17.34,1.9 6.64,0 12.7,-0.72 17.34,-1.9 5.41,-1.4 8.85,-3.44 8.85,-5.71 z"
   id="path4156" />
							<path
   class="st181"
   d="m 921.75,267.74 v 11.39 c 0,4.21 -11.72,7.61 -26.19,7.61 -14.47,0 -26.19,-3.4 -26.19,-7.61 v -11.39 c 0,2.27 3.41,4.3 8.83,5.7 4.6,1.2 10.69,1.91 17.36,1.91 6.66,0 12.75,-0.71 17.37,-1.91 5.41,-1.4 8.82,-3.43 8.82,-5.7 z"
   id="path4158" />
							<polygon
   class="st181"
   points="834.7,394.33 834.7,332.5 835.09,332.67 843.44,336.4 867.58,347.13 895.14,359.39 895.24,359.44 895.24,421.26 "
   id="polygon4160" />
							<polygon
   class="st181"
   points="895.24,421.26 895.24,366.83 895.64,367 895.64,359.27 946.8,336.4 1015.51,305.69 1015.96,305.49 1015.96,367.31 "
   id="polygon4162" />
						</g>
					</g>
				</g>
				<g
   id="g4238">
					<g
   id="g4196">
						<g
   id="g4194">
							<polygon
   class="st181"
   points="1409.53,453.37 1409.53,453.46 1409.62,453.41 1409.64,453.41 1409.79,453.48 1409.79,515.29 1288.51,461.36 1288.51,399.52 1358,430.43 1409.33,453.28 "
   id="polygon4170" />
							<polygon
   class="st181"
   points="1409.53,453.37 1409.62,453.41 1409.53,453.46 "
   id="polygon4172" />
							<polygon
   class="st181"
   points="1470.05,488.37 1409.79,515.29 1409.79,453.48 1461.35,430.43 1470.05,426.54 "
   id="polygon4174" />
							<path
   class="st181"
   d="m 1435.52,361.79 v 11.38 c 0,4.21 -11.72,7.61 -26.19,7.61 -14.47,0 -26.19,-3.4 -26.19,-7.61 v -11.38 c 0,2.26 3.41,4.3 8.83,5.69 4.6,1.2 10.69,1.91 17.36,1.91 6.66,0 12.75,-0.71 17.37,-1.91 5.4,-1.39 8.82,-3.43 8.82,-5.69 z"
   id="path4176" />
							<path
   class="st181"
   d="m 1375.34,388.17 v 11.4 c 0,4.2 -11.72,7.61 -26.19,7.61 -14.47,0 -26.19,-3.41 -26.19,-7.61 v -11.4 c 0,2.27 3.42,4.31 8.85,5.71 4.61,1.19 10.68,1.9 17.34,1.9 6.64,0 12.7,-0.71 17.34,-1.9 5.42,-1.4 8.85,-3.44 8.85,-5.71 z"
   id="path4178" />
							<polygon
   class="st181"
   points="1409.53,453.46 1409.53,453.37 1409.62,453.41 "
   id="polygon4180" />
							<polygon
   class="st181"
   points="1461.98,376.35 1466.68,374.01 1469.83,372.61 1469.83,426.32 1469.7,426.38 1410.43,400.01 1410.44,399.38 "
   id="polygon4182" />
							<path
   class="st181"
   d="m 1469.7,426.38 -60.06,27.02 0.15,0.07 51.55,-23.04 8.7,-3.9 z m -3.02,-52.37 3.15,-1.4 v -0.16 z"
   id="path4184" />
							<path
   class="st181"
   d="m 1470.06,372.51 -60.27,-26.94 -121.29,53.96 69.49,30.91 51.33,22.84 0.2,0.09 0.09,0.04 h 0.02 l 60.06,-27.02 -59.27,-26.37 -0.63,-0.28 -0.46,-0.21 0.46,-0.2 56.89,-25.31 3.15,-1.56 v 0.16 z m -94.72,27.05 c 0,4.2 -11.72,7.61 -26.19,7.61 -14.47,0 -26.19,-3.41 -26.19,-7.61 v -11.4 c 0,-4.18 11.72,-7.59 26.19,-7.59 14.45,0 26.19,3.41 26.19,7.59 z m 34.97,7.62 c 14.01,0.14 25.21,3.49 25.21,7.59 v 11.4 c 0,4.14 -11.43,7.52 -25.66,7.6 h -0.53 c -14.47,0 -26.19,-3.41 -26.19,-7.6 v -11.4 c 0,-4.19 11.72,-7.6 26.19,-7.6 0.33,0 0.65,0 0.98,0.01 z m 25.21,-34.02 c 0,4.21 -11.72,7.61 -26.19,7.61 -14.47,0 -26.19,-3.4 -26.19,-7.61 v -11.38 c 0,-4.2 11.72,-7.61 26.19,-7.61 14.46,0 26.19,3.41 26.19,7.61 z"
   id="path4186" />
							<path
   class="st181"
   d="m 1435.52,361.79 c 0,2.26 -3.42,4.3 -8.82,5.69 -4.61,1.2 -10.7,1.91 -17.37,1.91 -6.66,0 -12.75,-0.71 -17.36,-1.91 -5.43,-1.39 -8.83,-3.43 -8.83,-5.69 0,-4.2 11.72,-7.61 26.19,-7.61 14.46,0 26.19,3.41 26.19,7.61 z"
   id="path4188" />
							<path
   class="st181"
   d="m 1375.34,388.17 c 0,2.27 -3.44,4.31 -8.85,5.71 -4.63,1.19 -10.69,1.9 -17.34,1.9 -6.65,0 -12.72,-0.71 -17.34,-1.9 -5.44,-1.4 -8.85,-3.44 -8.85,-5.71 0,-4.18 11.72,-7.59 26.19,-7.59 14.46,0 26.19,3.41 26.19,7.59 z"
   id="path4190" />
							<path
   class="st181"
   d="m 1435.52,414.77 c 0,2.26 -3.44,4.31 -8.85,5.69 -4.44,1.16 -10.23,1.86 -16.61,1.9 -0.24,0.01 -0.48,0.01 -0.72,0.01 -6.65,0 -12.73,-0.71 -17.34,-1.9 -5.44,-1.4 -8.85,-3.44 -8.85,-5.7 0,-4.19 11.72,-7.6 26.19,-7.6 0.33,0 0.65,0 0.97,0.01 14.01,0.14 25.21,3.49 25.21,7.59 z"
   id="path4192" />
						</g>
					</g>
					<g
   id="g4236">
						<g
   id="g4234">
							<polygon
   class="st181"
   points="1267.51,543.93 1267.57,543.96 1267.51,543.99 "
   id="polygon4198" />
							<polygon
   class="st181"
   points="1267.51,544.33 1327.57,571.17 1267.51,598.01 "
   id="polygon4200" />
							<path
   class="st181"
   d="m 1328.06,578.67 v 0.16 c -0.23,-0.01 -0.47,-0.01 -0.71,-0.01 -14.47,0 -26.19,3.41 -26.19,7.59 0,0.55 0.2,1.09 0.59,1.6 -0.29,-0.35 -0.49,-0.71 -0.59,-1.08 -0.08,-0.22 -0.11,-0.44 -0.11,-0.66 0,-4.2 11.72,-7.61 26.18,-7.61 0.28,0 0.56,0 0.83,0.01 z"
   id="path4202" />
							<path
   class="st181"
   d="m 1327.23,593.86 c 0.28,0 0.56,0 0.83,-0.01 V 594 c -0.23,0.01 -0.47,0.01 -0.71,0.01 -6.65,0 -12.72,-0.71 -17.34,-1.9 -4.08,-1.05 -7.01,-2.45 -8.23,-4.06 1.28,1.54 4.15,2.89 8.09,3.9 4.61,1.2 10.7,1.91 17.36,1.91 z"
   id="path4204" />
							<g
   id="g4232">
								<path
   class="st181"
   d="m 1328.06,578.67 c -0.27,-0.01 -0.55,-0.01 -0.83,-0.01 -14.46,0 -26.18,3.41 -26.18,7.61 0,0.22 0.03,0.44 0.11,0.66 v -0.52 c 0,-4.18 11.72,-7.59 26.19,-7.59 0.24,0 0.48,0 0.71,0.01 11.89,0.09 21.8,2.48 24.65,5.69 -2.65,-3.29 -12.62,-5.75 -24.65,-5.85 z m 0,46.28 -0.39,0.17 -0.1,-0.04 0.1,0.05 0.39,-0.17 51.16,-22.87 z m -60.94,-26.77 0.39,0.17 v -0.34 z m 0,-54.02 0.39,0.17 v -0.34 z"
   id="path4206" />
								<path
   class="st181"
   d="m 1327.67,517.21 -60.1,26.74 -0.06,0.03 v 0.34 l 60.06,26.84 -60.06,26.84 v 0.34 l 8.35,3.73 51.71,22.99 0.1,0.04 0.39,-0.17 51.16,-22.86 69.16,-30.91 z m 25.87,80.6 c 0,4.12 -11.34,7.49 -25.48,7.59 -0.23,0.01 -0.47,0.01 -0.71,0.01 -14.47,0 -26.19,-3.41 -26.19,-7.6 v -10.88 c -0.08,-0.22 -0.11,-0.44 -0.11,-0.66 0,-4.2 11.72,-7.61 26.18,-7.61 0.28,0 0.56,0 0.83,0.01 12.03,0.1 22,2.56 24.65,5.85 0.07,0.08 0.14,0.16 0.19,0.24 0.42,0.53 0.63,1.09 0.63,1.65 v 11.4 z m 0.64,-53 c 0,4.21 -11.72,7.61 -26.19,7.61 -1.63,0 -3.23,-0.04 -4.77,-0.13 -0.19,-0.01 -0.39,-0.02 -0.58,-0.03 -2.82,-0.17 -5.48,-0.47 -7.88,-0.87 -0.25,-0.05 -0.5,-0.09 -0.74,-0.14 -3.07,-0.56 -5.7,-1.31 -7.73,-2.17 -0.22,-0.09 -0.42,-0.19 -0.62,-0.28 -0.68,-0.32 -1.28,-0.66 -1.79,-1.02 -0.17,-0.11 -0.33,-0.22 -0.47,-0.34 -0.29,-0.24 -0.55,-0.47 -0.76,-0.71 -0.11,-0.12 -0.21,-0.24 -0.29,-0.37 -0.18,-0.25 -0.32,-0.5 -0.4,-0.75 -0.05,-0.13 -0.08,-0.26 -0.1,-0.39 -0.03,-0.13 -0.04,-0.26 -0.04,-0.39 v -11.39 c 0,-4.19 11.72,-7.6 26.19,-7.6 14.46,0 26.19,3.41 26.19,7.6 v 11.37 z m 60.01,26.74 c -0.01,0.08 -0.02,0.15 -0.05,0.23 -0.02,0.1 -0.05,0.2 -0.1,0.3 -0.02,0.08 -0.05,0.15 -0.09,0.22 -0.08,0.16 -0.18,0.32 -0.29,0.47 -0.06,0.09 -0.13,0.18 -0.21,0.26 -0.32,0.39 -0.75,0.76 -1.29,1.13 -0.49,0.34 -1.08,0.66 -1.73,0.98 -0.22,0.1 -0.44,0.2 -0.68,0.3 -0.23,0.1 -0.46,0.19 -0.7,0.29 -0.01,0 -0.02,0 -0.03,0.01 -0.75,0.3 -1.58,0.57 -2.46,0.82 -0.44,0.13 -0.9,0.25 -1.38,0.37 -0.48,0.12 -0.96,0.24 -1.47,0.34 -0.5,0.12 -1.03,0.22 -1.56,0.32 -1.06,0.19 -2.17,0.37 -3.34,0.52 -0.58,0.08 -1.18,0.15 -1.78,0.21 -0.59,0.06 -1.21,0.12 -1.83,0.17 -0.62,0.06 -1.26,0.1 -1.9,0.14 -0.84,0.06 -1.71,0.1 -2.59,0.11 -0.44,0.01 -0.88,0.02 -1.34,0.03 -0.22,0 -0.44,0.01 -0.67,0.01 -0.22,0.01 -0.45,0.01 -0.67,0.01 -0.22,0 -0.45,0 -0.67,-0.01 -0.23,0 -0.45,-0.01 -0.67,-0.01 -0.45,-0.01 -0.89,-0.02 -1.34,-0.03 -0.88,-0.01 -1.75,-0.05 -2.59,-0.11 -2.56,-0.15 -4.97,-0.41 -7.21,-0.76 -2.23,-0.36 -4.26,-0.8 -6.03,-1.32 -0.84,-0.24 -1.64,-0.5 -2.36,-0.78 -0.07,-0.03 -0.14,-0.05 -0.21,-0.08 -0.21,-0.09 -0.42,-0.17 -0.62,-0.26 -0.24,-0.1 -0.47,-0.2 -0.69,-0.3 -0.87,-0.42 -1.61,-0.86 -2.19,-1.33 -0.29,-0.23 -0.55,-0.47 -0.76,-0.71 -0.17,-0.18 -0.31,-0.36 -0.41,-0.55 -0.07,-0.09 -0.12,-0.19 -0.16,-0.28 -0.04,-0.09 -0.08,-0.19 -0.12,-0.29 -0.05,-0.12 -0.08,-0.25 -0.1,-0.38 -0.03,-0.13 -0.04,-0.26 -0.04,-0.39 v -11.4 c 0,-0.13 0.01,-0.26 0.04,-0.39 0.02,-0.13 0.05,-0.25 0.1,-0.38 0.08,-0.26 0.21,-0.51 0.4,-0.75 0.08,-0.13 0.18,-0.25 0.29,-0.37 0.21,-0.24 0.47,-0.48 0.76,-0.71 0.14,-0.11 0.3,-0.23 0.47,-0.34 0.16,-0.11 0.33,-0.22 0.52,-0.33 0.16,-0.1 0.32,-0.2 0.49,-0.28 0.42,-0.24 0.89,-0.46 1.4,-0.67 0.21,-0.09 0.43,-0.18 0.66,-0.27 0.3,-0.12 0.62,-0.24 0.94,-0.35 0.5,-0.18 1.04,-0.34 1.59,-0.5 0.59,-0.18 1.21,-0.34 1.86,-0.49 0.64,-0.16 1.32,-0.3 2.01,-0.43 0.35,-0.08 0.7,-0.14 1.07,-0.2 0.67,-0.12 1.38,-0.24 2.1,-0.33 0.08,-0.02 0.16,-0.03 0.23,-0.03 0.61,-0.09 1.24,-0.17 1.87,-0.24 0.32,-0.04 0.65,-0.07 0.98,-0.1 0.32,-0.03 0.65,-0.06 0.99,-0.09 0.66,-0.06 1.35,-0.11 2.04,-0.15 0.19,-0.01 0.39,-0.02 0.58,-0.03 1.55,-0.09 3.15,-0.13 4.77,-0.13 14.46,0 26.19,3.41 26.19,7.6 v 11.4 c 0.01,0.08 0,0.2 -0.02,0.31 z"
   id="path4208" />
								<path
   class="st181"
   d="m 1354.18,533.42 c 0,2.27 -3.42,4.3 -8.82,5.7 -4.61,1.19 -10.7,1.91 -17.37,1.91 -6.66,0 -12.74,-0.72 -17.36,-1.91 -5.43,-1.4 -8.82,-3.43 -8.82,-5.7 v 11.39 c 0,0.13 0.01,0.26 0.03,0.39 -0.03,-0.13 -0.04,-0.26 -0.04,-0.39 v -11.39 c 0,-4.19 11.72,-7.6 26.19,-7.6 14.46,0.01 26.19,3.41 26.19,7.6 z"
   id="path4210" />
								<path
   class="st181"
   d="m 1301.75,588 c -0.29,-0.35 -0.49,-0.71 -0.59,-1.08 v -0.52 c 0,0.56 0.2,1.09 0.59,1.6 z"
   id="path4212" />
								<path
   class="st181"
   d="m 1352.71,584.52 c -2.85,-3.21 -12.76,-5.6 -24.65,-5.69 -0.23,-0.01 -0.47,-0.01 -0.71,-0.01 -14.47,0 -26.19,3.41 -26.19,7.59 0,0.55 0.2,1.09 0.59,1.6 -0.29,-0.35 -0.49,-0.71 -0.59,-1.08 -0.08,-0.22 -0.11,-0.44 -0.11,-0.66 0,-4.2 11.72,-7.61 26.18,-7.61 0.28,0 0.56,0 0.83,0.01 12.03,0.1 22,2.56 24.65,5.85 z"
   id="path4214" />
								<path
   class="st181"
   d="m 1414.22,559.81 c 0,2.27 -3.44,4.31 -8.85,5.7 -4.62,1.19 -10.69,1.91 -17.34,1.91 -6.65,0 -12.72,-0.72 -17.33,-1.91 -5.45,-1.39 -8.85,-3.43 -8.85,-5.7 0,-0.13 0.01,-0.26 0.03,-0.39 0.03,-0.13 0.06,-0.26 0.1,-0.38 0.09,-0.26 0.23,-0.51 0.4,-0.75 0.09,-0.13 0.18,-0.25 0.29,-0.37 0.21,-0.24 0.47,-0.48 0.76,-0.71 0.14,-0.11 0.3,-0.23 0.47,-0.34 0.16,-0.11 0.33,-0.22 0.52,-0.33 0.15,-0.1 0.32,-0.19 0.49,-0.28 0.42,-0.24 0.89,-0.46 1.4,-0.67 0.21,-0.09 0.43,-0.18 0.66,-0.27 0.3,-0.12 0.62,-0.24 0.94,-0.35 0.5,-0.17 1.04,-0.34 1.59,-0.5 0.59,-0.17 1.22,-0.33 1.86,-0.49 0.64,-0.15 1.32,-0.3 2.01,-0.43 0.35,-0.08 0.7,-0.14 1.07,-0.2 0.68,-0.12 1.38,-0.23 2.1,-0.33 0.08,-0.02 0.16,-0.03 0.23,-0.03 0.61,-0.09 1.24,-0.17 1.87,-0.24 0.32,-0.04 0.65,-0.07 0.98,-0.1 0.32,-0.03 0.65,-0.06 0.99,-0.09 0.66,-0.06 1.35,-0.11 2.04,-0.15 0.19,-0.01 0.39,-0.02 0.58,-0.03 1.55,-0.09 3.15,-0.13 4.77,-0.13 14.49,-0.03 26.22,3.37 26.22,7.56 z"
   id="path4216" />
								<path
   class="st181"
   d="m 1353.43,586.26 c 0,2.26 -3.42,4.3 -8.83,5.69 -4.41,1.15 -10.19,1.85 -16.53,1.9 -0.27,0.01 -0.55,0.01 -0.83,0.01 -6.65,0 -12.74,-0.71 -17.36,-1.91 -3.94,-1.01 -6.81,-2.36 -8.09,-3.9 -0.02,-0.01 -0.03,-0.03 -0.03,-0.05 -0.39,-0.51 -0.59,-1.05 -0.59,-1.6 0,-4.18 11.72,-7.59 26.19,-7.59 0.24,0 0.48,0 0.71,0.01 11.89,0.09 21.8,2.48 24.65,5.69 0.07,0.08 0.14,0.16 0.19,0.24 0.33,0.49 0.52,1 0.52,1.51 z"
   id="path4218" />
								<path
   class="st181"
   d="m 1353.54,586.4 c 0,2.27 -3.44,4.31 -8.85,5.71 -4.45,1.15 -10.25,1.85 -16.62,1.89 -0.23,0.01 -0.47,0.01 -0.71,0.01 -6.65,0 -12.72,-0.71 -17.34,-1.9 -4.08,-1.05 -7.01,-2.45 -8.23,-4.06 1.28,1.54 4.15,2.89 8.09,3.9 4.61,1.2 10.7,1.91 17.36,1.91 0.28,0 0.56,0 0.83,-0.01 6.34,-0.05 12.12,-0.75 16.53,-1.9 5.42,-1.39 8.83,-3.43 8.83,-5.69 0,-0.51 -0.18,-1.03 -0.52,-1.51 0.42,0.54 0.63,1.09 0.63,1.65 z"
   id="path4220" />
								<path
   class="st181"
   d="m 1414.22,559.81 v 11.4 c 0,0.11 -0.01,0.23 -0.03,0.34 -0.01,0.08 -0.02,0.15 -0.05,0.23 -0.02,0.1 -0.05,0.2 -0.1,0.3 -0.02,0.08 -0.05,0.15 -0.09,0.22 -0.08,0.16 -0.18,0.32 -0.29,0.47 -0.06,0.09 -0.13,0.18 -0.21,0.26 -0.32,0.39 -0.75,0.76 -1.29,1.13 -0.49,0.34 -1.08,0.66 -1.73,0.98 -0.22,0.1 -0.44,0.2 -0.68,0.3 -0.23,0.1 -0.46,0.19 -0.7,0.29 -0.01,0 -0.02,0 -0.03,0.01 -0.75,0.29 -1.58,0.56 -2.46,0.82 -0.44,0.13 -0.9,0.25 -1.38,0.37 -0.48,0.12 -0.96,0.23 -1.47,0.34 -0.51,0.11 -1.03,0.22 -1.56,0.32 -1.06,0.19 -2.17,0.37 -3.34,0.52 -0.58,0.07 -1.18,0.14 -1.78,0.21 -0.6,0.06 -1.22,0.12 -1.83,0.17 -0.62,0.05 -1.26,0.1 -1.9,0.14 -0.84,0.05 -1.72,0.08 -2.59,0.11 -0.44,0.01 -0.88,0.02 -1.34,0.03 -0.22,0 -0.44,0.01 -0.67,0.01 h -1.35 c -0.23,0 -0.45,-0.01 -0.67,-0.01 -0.45,-0.01 -0.89,-0.02 -1.34,-0.03 -0.87,-0.03 -1.75,-0.06 -2.59,-0.11 -2.56,-0.16 -4.97,-0.42 -7.21,-0.76 -2.23,-0.36 -4.26,-0.8 -6.03,-1.32 -0.84,-0.24 -1.64,-0.51 -2.36,-0.78 -0.07,-0.03 -0.14,-0.05 -0.21,-0.08 -0.21,-0.09 -0.42,-0.17 -0.62,-0.26 -0.24,-0.1 -0.47,-0.2 -0.69,-0.3 -0.87,-0.42 -1.61,-0.86 -2.19,-1.33 -0.29,-0.23 -0.55,-0.47 -0.76,-0.71 -0.16,-0.18 -0.3,-0.36 -0.41,-0.55 -0.06,-0.09 -0.11,-0.18 -0.16,-0.28 -0.04,-0.09 -0.08,-0.19 -0.12,-0.29 -0.04,-0.12 -0.07,-0.25 -0.1,-0.38 -0.02,-0.13 -0.03,-0.26 -0.03,-0.39 v -11.4 c 0,2.27 3.41,4.31 8.85,5.7 4.6,1.19 10.67,1.91 17.33,1.91 6.64,0 12.71,-0.72 17.34,-1.91 5.4,-1.38 8.84,-3.42 8.84,-5.69 z"
   id="path4222" />
								<path
   class="st181"
   d="m 1354.18,533.42 v 11.39 c 0,4.21 -11.72,7.61 -26.19,7.61 -1.63,0 -3.23,-0.04 -4.77,-0.13 -0.19,-0.01 -0.39,-0.02 -0.58,-0.03 -2.82,-0.17 -5.48,-0.47 -7.88,-0.87 -0.25,-0.05 -0.5,-0.09 -0.74,-0.14 -3.07,-0.56 -5.7,-1.31 -7.73,-2.17 -0.22,-0.09 -0.42,-0.19 -0.62,-0.28 -0.68,-0.32 -1.28,-0.66 -1.79,-1.02 -0.17,-0.11 -0.33,-0.22 -0.47,-0.34 -0.29,-0.24 -0.55,-0.47 -0.76,-0.71 -0.11,-0.12 -0.2,-0.25 -0.29,-0.37 -0.17,-0.25 -0.31,-0.5 -0.4,-0.75 -0.04,-0.13 -0.07,-0.26 -0.1,-0.39 -0.02,-0.13 -0.03,-0.26 -0.03,-0.39 v -11.39 c 0,2.27 3.4,4.3 8.82,5.7 4.61,1.19 10.69,1.91 17.36,1.91 6.66,0 12.75,-0.72 17.37,-1.91 5.38,-1.42 8.8,-3.45 8.8,-5.72 z"
   id="path4224" />
								<polygon
   class="st181"
   points="1327.67,686.94 1267.12,660.01 1267.12,598.18 1267.51,598.35 1275.86,602.08 1327.57,625.08 1327.67,625.12 "
   id="polygon4226" />
								<polygon
   class="st181"
   points="1448.38,632.99 1327.67,686.94 1327.67,632.51 1328.06,632.68 1328.06,624.96 1379.22,602.08 1448.38,571.17 "
   id="polygon4228" />
								<polygon
   class="st181"
   points="1328.06,624.95 1379.22,602.08 1328.06,624.96 1328.06,632.68 1327.67,632.51 1327.67,625.12 "
   id="polygon4230" />
							</g>
						</g>
					</g>
				</g>
				<g
   id="g4268">
					<g
   id="g4266">
						<polygon
   class="st181"
   points="921.6,488.11 991.09,519.02 1042.42,541.85 1042.62,541.95 1042.62,542.04 1042.71,541.99 1042.73,541.99 1042.88,542.06 1042.88,603.87 921.6,549.93 "
   id="polygon4240" />
						<polygon
   class="st181"
   points="1042.62,541.95 1042.71,541.99 1042.62,542.04 "
   id="polygon4242" />
						<polygon
   class="st181"
   points="1042.88,542.06 1094.44,519.02 1103.14,515.12 1103.14,576.95 1042.88,603.87 "
   id="polygon4244" />
						<rect
   x="1103.14"
   y="515.12"
   class="st181"
   width="0.0099999998"
   height="61.830002"
   id="rect4246" />
						<path
   class="st181"
   d="m 1068.61,450.36 v 11.38 c 0,0.12 -0.01,0.23 -0.03,0.34 -0.01,0.09 -0.03,0.19 -0.06,0.28 0,0.03 -0.01,0.06 -0.02,0.09 v 0.01 c -0.03,0.08 -0.06,0.16 -0.1,0.23 v 0.01 c -0.01,0.03 -0.02,0.06 -0.04,0.08 -0.04,0.1 -0.1,0.2 -0.16,0.3 -0.06,0.1 -0.13,0.2 -0.2,0.3 -0.13,0.18 -0.29,0.35 -0.47,0.52 -0.06,0.07 -0.14,0.14 -0.22,0.21 -0.09,0.08 -0.18,0.16 -0.28,0.24 -0.29,0.23 -0.62,0.46 -0.99,0.68 -1.04,0.62 -2.37,1.21 -3.94,1.72 -0.22,0.08 -0.45,0.15 -0.68,0.22 -0.33,0.1 -0.68,0.2 -1.04,0.3 -0.28,0.08 -0.56,0.15 -0.86,0.22 -0.04,0.01 -0.07,0.02 -0.1,0.03 -0.42,0.1 -0.86,0.2 -1.31,0.3 -0.5,0.11 -1.03,0.21 -1.56,0.31 -0.45,0.08 -0.91,0.16 -1.39,0.24 -0.59,0.09 -1.2,0.18 -1.82,0.26 -0.42,0.06 -0.84,0.11 -1.28,0.16 -0.02,0 -0.05,0.01 -0.07,0.01 -0.58,0.07 -1.18,0.13 -1.78,0.18 -0.3,0.03 -0.61,0.05 -0.92,0.07 -0.39,0.04 -0.78,0.07 -1.19,0.09 -0.49,0.03 -1.01,0.06 -1.52,0.08 -0.54,0.03 -1.09,0.05 -1.64,0.06 -0.32,0.01 -0.63,0.02 -0.95,0.03 -0.52,0.01 -1.05,0.01 -1.57,0.01 -0.52,0 -1.05,0 -1.57,-0.01 -0.32,-0.01 -0.63,-0.02 -0.95,-0.03 -0.55,-0.01 -1.1,-0.03 -1.64,-0.06 -0.51,-0.02 -1.02,-0.05 -1.52,-0.08 -0.37,-0.02 -0.74,-0.05 -1.12,-0.08 -0.33,-0.02 -0.66,-0.05 -0.99,-0.08 -0.61,-0.05 -1.22,-0.12 -1.81,-0.18 -0.43,-0.05 -0.85,-0.11 -1.28,-0.16 -0.16,-0.02 -0.32,-0.04 -0.48,-0.07 -0.35,-0.04 -0.71,-0.1 -1.06,-0.15 -0.17,-0.03 -0.33,-0.05 -0.5,-0.08 -0.03,0 -0.05,-0.01 -0.08,-0.01 -0.33,-0.06 -0.66,-0.12 -0.99,-0.18 -0.43,-0.08 -0.86,-0.16 -1.28,-0.25 -0.36,-0.07 -0.71,-0.15 -1.06,-0.23 -0.22,-0.05 -0.42,-0.1 -0.63,-0.14 -0.25,-0.07 -0.5,-0.13 -0.74,-0.2 -0.44,-0.11 -0.86,-0.23 -1.29,-0.36 -0.23,-0.07 -0.46,-0.14 -0.68,-0.22 -1.57,-0.51 -2.9,-1.1 -3.94,-1.72 -0.37,-0.22 -0.7,-0.45 -0.99,-0.68 -0.1,-0.08 -0.19,-0.16 -0.28,-0.24 -0.08,-0.07 -0.16,-0.14 -0.22,-0.21 -0.18,-0.17 -0.34,-0.34 -0.47,-0.52 -0.07,-0.1 -0.14,-0.2 -0.2,-0.3 -0.06,-0.1 -0.12,-0.2 -0.16,-0.3 -0.02,-0.02 -0.03,-0.05 -0.04,-0.08 v -0.01 c -0.04,-0.07 -0.07,-0.15 -0.1,-0.23 v -0.01 c -0.01,-0.03 -0.02,-0.06 -0.02,-0.09 -0.03,-0.09 -0.05,-0.19 -0.06,-0.28 -0.02,-0.11 -0.03,-0.22 -0.03,-0.34 v -11.38 c 0,2.26 3.41,4.3 8.83,5.69 4.6,1.2 10.69,1.91 17.36,1.91 6.67,0 12.75,-0.71 17.37,-1.91 5.39,-1.39 8.81,-3.43 8.81,-5.69 z"
   id="path4248" />
						<path
   class="st181"
   d="m 1008.43,476.75 v 11.39 c 0,4.2 -11.72,7.61 -26.19,7.61 -0.68,0 -1.36,-0.01 -2.02,-0.03 -0.22,0 -0.44,0 -0.66,-0.01 -0.7,-0.02 -1.41,-0.05 -2.09,-0.09 -0.2,-0.01 -0.39,-0.02 -0.58,-0.03 -0.69,-0.04 -1.38,-0.09 -2.04,-0.15 -0.54,-0.04 -1.09,-0.09 -1.61,-0.15 -0.12,-0.01 -0.25,-0.03 -0.37,-0.04 -0.27,-0.03 -0.54,-0.06 -0.81,-0.1 -0.35,-0.04 -0.7,-0.08 -1.05,-0.13 -0.08,-0.01 -0.16,-0.02 -0.24,-0.04 -0.72,-0.1 -1.42,-0.21 -2.1,-0.33 -0.36,-0.06 -0.71,-0.13 -1.07,-0.2 -0.69,-0.13 -1.37,-0.28 -2.01,-0.43 -0.32,-0.08 -0.64,-0.16 -0.95,-0.24 -0.31,-0.08 -0.61,-0.16 -0.9,-0.25 -0.29,-0.08 -0.58,-0.17 -0.86,-0.26 -0.25,-0.08 -0.49,-0.16 -0.72,-0.24 -0.03,-0.01 -0.07,-0.02 -0.1,-0.04 -0.27,-0.09 -0.53,-0.18 -0.78,-0.28 -0.04,-0.01 -0.07,-0.03 -0.11,-0.04 -0.21,-0.09 -0.41,-0.17 -0.61,-0.26 -0.38,-0.16 -0.74,-0.33 -1.08,-0.5 -0.06,-0.03 -0.13,-0.07 -0.19,-0.1 -0.17,-0.09 -0.33,-0.18 -0.48,-0.27 -0.16,-0.09 -0.31,-0.18 -0.45,-0.28 -0.11,-0.07 -0.23,-0.14 -0.33,-0.22 -0.12,-0.09 -0.24,-0.17 -0.35,-0.26 -0.15,-0.11 -0.28,-0.23 -0.41,-0.35 -0.06,-0.06 -0.12,-0.11 -0.18,-0.18 -0.06,-0.05 -0.12,-0.12 -0.17,-0.18 -0.11,-0.12 -0.2,-0.24 -0.29,-0.36 -0.17,-0.25 -0.31,-0.5 -0.4,-0.76 -0.04,-0.12 -0.07,-0.25 -0.1,-0.38 -0.02,-0.13 -0.03,-0.26 -0.03,-0.39 v -11.39 c 0,2.26 3.41,4.31 8.84,5.7 4.61,1.19 10.68,1.9 17.34,1.9 6.64,0 12.7,-0.71 17.34,-1.9 5.38,-1.44 8.81,-3.48 8.81,-5.74 z"
   id="path4250" />
						<polygon
   class="st181"
   points="1102.79,514.96 1043.52,488.59 1043.53,487.96 1095.07,464.93 1099.77,462.58 1102.92,461.19 1102.92,514.9 "
   id="polygon4252" />
						<polygon
   class="st181"
   points="1042.62,541.95 1042.71,541.99 1042.62,542.04 "
   id="polygon4254" />
						<polygon
   class="st181"
   points="1099.77,462.58 1102.92,461.03 1102.92,461.19 "
   id="polygon4256" />
						<path
   class="st181"
   d="m 1102.79,514.96 -60.06,27.02 0.15,0.07 51.55,-23.04 8.7,-3.9 z m -3.02,-52.38 3.15,-1.4 v -0.16 z"
   id="path4258" />
						<path
   class="st181"
   d="m 1103.15,461.09 -60.27,-26.94 -121.29,53.95 0.01,0.01 69.48,30.9 51.33,22.84 0.2,0.09 0.09,0.04 h 0.02 l 60.06,-27.02 -59.27,-26.37 -0.63,-0.28 -0.46,-0.21 0.46,-0.2 56.89,-25.31 3.15,-1.56 v 0.16 z m -94.72,27.05 c 0,4.2 -11.72,7.61 -26.19,7.61 -0.68,0 -1.36,-0.01 -2.02,-0.03 -0.22,0 -0.44,0 -0.66,-0.01 -0.7,-0.02 -1.41,-0.05 -2.09,-0.09 -0.2,-0.01 -0.39,-0.02 -0.58,-0.03 -0.69,-0.04 -1.38,-0.09 -2.04,-0.15 -0.54,-0.04 -1.09,-0.09 -1.61,-0.15 -0.12,-0.01 -0.25,-0.03 -0.37,-0.04 -0.27,-0.03 -0.54,-0.06 -0.81,-0.1 -0.35,-0.04 -0.7,-0.08 -1.05,-0.13 -0.08,-0.01 -0.16,-0.02 -0.24,-0.04 -0.72,-0.1 -1.42,-0.21 -2.1,-0.33 -0.36,-0.06 -0.71,-0.12 -1.07,-0.2 -0.69,-0.13 -1.37,-0.27 -2.01,-0.43 -0.33,-0.07 -0.64,-0.15 -0.95,-0.24 -0.31,-0.08 -0.61,-0.16 -0.9,-0.25 -0.29,-0.08 -0.58,-0.17 -0.86,-0.26 -0.25,-0.07 -0.48,-0.15 -0.72,-0.24 -0.03,-0.01 -0.07,-0.02 -0.1,-0.04 -0.27,-0.09 -0.53,-0.18 -0.78,-0.28 -0.04,-0.01 -0.07,-0.03 -0.11,-0.04 -0.21,-0.09 -0.41,-0.17 -0.61,-0.26 -0.38,-0.16 -0.74,-0.32 -1.08,-0.5 -0.06,-0.03 -0.13,-0.07 -0.19,-0.1 -0.17,-0.09 -0.33,-0.17 -0.48,-0.27 -0.16,-0.09 -0.31,-0.18 -0.45,-0.28 -0.11,-0.07 -0.23,-0.14 -0.33,-0.22 -0.12,-0.09 -0.24,-0.17 -0.35,-0.26 -0.15,-0.11 -0.28,-0.23 -0.41,-0.35 -0.06,-0.06 -0.12,-0.11 -0.18,-0.18 -0.06,-0.05 -0.12,-0.12 -0.17,-0.18 -0.12,-0.12 -0.21,-0.24 -0.29,-0.36 -0.18,-0.25 -0.32,-0.5 -0.4,-0.76 -0.05,-0.12 -0.08,-0.25 -0.1,-0.38 -0.03,-0.13 -0.04,-0.26 -0.04,-0.39 v -11.4 c 0,-0.13 0.01,-0.25 0.04,-0.38 0.01,-0.13 0.05,-0.25 0.1,-0.38 0.12,-0.38 0.35,-0.76 0.69,-1.13 0.05,-0.06 0.11,-0.12 0.17,-0.18 0.06,-0.07 0.12,-0.12 0.18,-0.18 0.13,-0.12 0.26,-0.24 0.41,-0.35 0.29,-0.24 0.62,-0.46 0.99,-0.68 0.36,-0.22 0.76,-0.44 1.21,-0.64 0.44,-0.21 0.9,-0.41 1.41,-0.6 0.52,-0.2 1.08,-0.4 1.67,-0.58 0.26,-0.08 0.53,-0.17 0.8,-0.24 0.88,-0.26 1.84,-0.5 2.84,-0.71 0.28,-0.06 0.56,-0.12 0.85,-0.17 0.25,-0.06 0.5,-0.11 0.76,-0.15 0.35,-0.07 0.72,-0.14 1.1,-0.19 0.55,-0.1 1.12,-0.18 1.7,-0.26 0.35,-0.05 0.7,-0.1 1.07,-0.14 0.5,-0.06 1.03,-0.12 1.55,-0.18 0.28,-0.03 0.56,-0.05 0.85,-0.08 0.36,-0.03 0.73,-0.06 1.12,-0.09 0.14,-0.01 0.29,-0.02 0.44,-0.03 0.42,-0.03 0.85,-0.06 1.3,-0.09 0.89,-0.04 1.8,-0.08 2.72,-0.1 0.28,-0.01 0.57,-0.02 0.86,-0.02 0.44,-0.01 0.89,-0.01 1.35,-0.01 0.45,0 0.9,0 1.35,0.01 0.29,0 0.58,0.01 0.86,0.02 0.91,0.02 1.81,0.05 2.69,0.1 0.44,0.03 0.88,0.06 1.33,0.09 0.58,0.04 1.16,0.08 1.72,0.14 0.23,0.02 0.46,0.04 0.68,0.06 0.52,0.06 1.05,0.12 1.56,0.18 0.37,0.04 0.74,0.09 1.12,0.14 0.02,0.01 0.04,0.01 0.07,0.01 0.37,0.05 0.73,0.11 1.1,0.17 0.37,0.05 0.73,0.11 1.1,0.18 0.36,0.06 0.71,0.13 1.07,0.2 0.35,0.07 0.69,0.14 1.03,0.21 0.34,0.07 0.65,0.14 0.97,0.21 0.34,0.09 0.68,0.17 1.02,0.26 0.29,0.08 0.58,0.16 0.86,0.24 0.27,0.07 0.52,0.15 0.77,0.23 0.6,0.19 1.17,0.39 1.7,0.59 0.5,0.19 0.97,0.39 1.41,0.6 0.66,0.31 1.25,0.64 1.74,0.98 0.16,0.11 0.3,0.21 0.44,0.32 0.17,0.13 0.32,0.26 0.46,0.39 0.12,0.11 0.23,0.23 0.33,0.34 0.02,0.02 0.04,0.05 0.06,0.07 0.08,0.1 0.16,0.2 0.23,0.3 0.09,0.12 0.17,0.24 0.23,0.37 0.06,0.11 0.12,0.23 0.16,0.35 0,0.01 0.01,0.03 0.01,0.05 0.04,0.1 0.07,0.2 0.08,0.3 0.01,0.04 0.02,0.09 0.03,0.13 0,0.01 0,0.01 0,0.02 0.01,0.1 0.02,0.19 0.02,0.29 v 11.37 z m 34.97,7.62 c 14.01,0.14 25.21,3.49 25.21,7.59 v 11.4 c 0,4.14 -11.43,7.52 -25.66,7.6 h -0.53 c -14.47,0 -26.19,-3.41 -26.19,-7.6 v -11.4 c 0,-4.19 11.72,-7.6 26.19,-7.6 0.33,0 0.65,0 0.98,0.01 z m 25.21,-34.02 c 0,0.12 -0.01,0.23 -0.03,0.34 -0.01,0.09 -0.03,0.19 -0.06,0.28 0,0.03 -0.01,0.06 -0.02,0.09 v 0.01 c -0.03,0.08 -0.06,0.16 -0.1,0.23 v 0.01 c -0.01,0.03 -0.02,0.06 -0.04,0.08 -0.04,0.1 -0.1,0.2 -0.16,0.3 -0.05,0.1 -0.12,0.2 -0.2,0.3 -0.13,0.18 -0.29,0.35 -0.47,0.52 -0.06,0.07 -0.14,0.14 -0.22,0.21 -0.09,0.08 -0.18,0.16 -0.28,0.24 -0.29,0.23 -0.62,0.46 -0.99,0.68 -1.04,0.62 -2.37,1.21 -3.94,1.72 -0.22,0.08 -0.45,0.15 -0.68,0.22 -0.33,0.1 -0.68,0.2 -1.04,0.3 -0.28,0.08 -0.56,0.15 -0.86,0.22 -0.04,0.01 -0.07,0.02 -0.1,0.03 -0.42,0.1 -0.86,0.2 -1.31,0.3 -0.5,0.11 -1.03,0.21 -1.56,0.31 -0.45,0.08 -0.91,0.16 -1.39,0.24 -0.59,0.09 -1.2,0.18 -1.82,0.26 -0.42,0.06 -0.84,0.11 -1.28,0.16 -0.02,0 -0.05,0.01 -0.07,0.01 -0.58,0.07 -1.18,0.13 -1.78,0.18 -0.3,0.03 -0.61,0.05 -0.92,0.07 -0.39,0.04 -0.78,0.07 -1.19,0.09 -0.49,0.03 -1.01,0.06 -1.52,0.08 -0.54,0.03 -1.09,0.05 -1.64,0.06 -0.32,0.01 -0.63,0.02 -0.95,0.03 -0.52,0.01 -1.05,0.01 -1.57,0.01 -0.52,0 -1.05,0 -1.57,-0.01 -0.32,-0.01 -0.63,-0.02 -0.95,-0.03 -0.55,-0.01 -1.1,-0.03 -1.64,-0.06 -0.51,-0.02 -1.02,-0.05 -1.52,-0.08 -0.37,-0.02 -0.74,-0.05 -1.12,-0.08 -0.33,-0.02 -0.66,-0.05 -0.99,-0.08 -0.61,-0.05 -1.22,-0.12 -1.81,-0.18 -0.43,-0.05 -0.85,-0.11 -1.28,-0.16 -0.16,-0.02 -0.32,-0.04 -0.48,-0.07 -0.35,-0.04 -0.71,-0.1 -1.06,-0.15 -0.17,-0.03 -0.33,-0.05 -0.5,-0.08 -0.03,0 -0.05,-0.01 -0.08,-0.01 -0.33,-0.06 -0.66,-0.12 -0.99,-0.18 -0.43,-0.08 -0.86,-0.16 -1.28,-0.25 -0.36,-0.07 -0.71,-0.15 -1.06,-0.23 -0.22,-0.05 -0.42,-0.1 -0.63,-0.14 -0.25,-0.07 -0.5,-0.13 -0.74,-0.2 -0.44,-0.11 -0.86,-0.23 -1.29,-0.36 -0.23,-0.07 -0.46,-0.14 -0.68,-0.22 -1.57,-0.51 -2.9,-1.1 -3.94,-1.72 -0.37,-0.22 -0.7,-0.45 -0.99,-0.68 -0.1,-0.08 -0.19,-0.16 -0.28,-0.24 -0.08,-0.07 -0.16,-0.14 -0.22,-0.21 -0.18,-0.17 -0.34,-0.34 -0.47,-0.52 -0.08,-0.1 -0.15,-0.2 -0.2,-0.3 -0.06,-0.1 -0.12,-0.2 -0.16,-0.3 -0.02,-0.02 -0.03,-0.05 -0.04,-0.08 v -0.01 c -0.04,-0.07 -0.07,-0.15 -0.1,-0.23 v -0.01 c -0.01,-0.03 -0.02,-0.06 -0.02,-0.09 -0.03,-0.09 -0.05,-0.19 -0.06,-0.28 -0.02,-0.11 -0.03,-0.22 -0.03,-0.34 v -11.38 c 0,-4.2 11.72,-7.61 26.19,-7.61 14.46,0 26.19,3.41 26.19,7.61 v 11.38 z"
   id="path4260" />
						<path
   class="st181"
   d="m 1068.61,450.36 c 0,2.26 -3.42,4.3 -8.82,5.69 -4.61,1.2 -10.69,1.91 -17.37,1.91 -6.66,0 -12.75,-0.71 -17.36,-1.91 -5.43,-1.39 -8.83,-3.43 -8.83,-5.69 0,-4.2 11.72,-7.61 26.19,-7.61 14.46,0.01 26.19,3.41 26.19,7.61 z"
   id="path4262" />
						<path
   class="st181"
   d="m 1068.61,503.34 c 0,2.26 -3.44,4.31 -8.85,5.69 -4.44,1.16 -10.23,1.86 -16.61,1.9 -0.24,0.01 -0.48,0.01 -0.72,0.01 -6.65,0 -12.73,-0.71 -17.34,-1.9 -5.44,-1.4 -8.85,-3.44 -8.85,-5.7 0,-4.19 11.72,-7.6 26.19,-7.6 0.33,0 0.65,0 0.97,0.01 14,0.15 25.21,3.49 25.21,7.59 z"
   id="path4264" />
					</g>
				</g>
				<path
   class="st181"
   d="m 1008.67,476.28 c 0,2.27 -3.44,4.31 -8.85,5.71 -4.63,1.19 -10.69,1.9 -17.34,1.9 -6.65,0 -12.72,-0.71 -17.34,-1.9 -5.44,-1.4 -8.85,-3.44 -8.85,-5.71 0,-4.18 11.72,-7.59 26.19,-7.59 14.46,0.01 26.19,3.41 26.19,7.59 z"
   id="path4270" />
				<g
   id="g4344">
					<g
   id="g4302">
						<g
   id="g4300">
							<polygon
   class="st181"
   points="1246.58,244.65 1246.58,244.74 1246.67,244.69 1246.69,244.69 1246.84,244.76 1246.84,306.57 1125.55,252.64 1125.55,190.8 1195.05,221.72 1246.38,244.56 "
   id="polygon4272" />
							<polygon
   class="st181"
   points="1246.58,244.65 1246.67,244.69 1246.58,244.74 "
   id="polygon4274" />
							<polygon
   class="st181"
   points="1307.1,279.65 1246.84,306.57 1246.84,244.76 1298.4,221.72 1307.1,217.82 "
   id="polygon4276" />
							<rect
   x="1307.1"
   y="217.82001"
   class="st181"
   width="0.0099999998"
   height="61.84"
   id="rect4278" />
							<path
   class="st181"
   d="m 1272.57,153.07 v 11.38 c 0,4.21 -11.72,7.61 -26.19,7.61 -14.47,0 -26.19,-3.4 -26.19,-7.61 v -11.38 c 0,2.26 3.41,4.3 8.83,5.69 4.6,1.2 10.69,1.91 17.36,1.91 6.66,0 12.75,-0.71 17.37,-1.91 5.4,-1.39 8.82,-3.43 8.82,-5.69 z"
   id="path4280" />
							<path
   class="st181"
   d="m 1212.39,179.45 v 11.4 c 0,4.2 -11.72,7.61 -26.19,7.61 -14.47,0 -26.19,-3.41 -26.19,-7.61 v -11.4 c 0,2.27 3.42,4.31 8.85,5.71 4.61,1.19 10.68,1.9 17.34,1.9 6.64,0 12.7,-0.71 17.34,-1.9 5.41,-1.4 8.85,-3.44 8.85,-5.71 z"
   id="path4282" />
							<polygon
   class="st181"
   points="1246.58,244.74 1246.58,244.65 1246.67,244.69 "
   id="polygon4284" />
							<polygon
   class="st181"
   points="1299.03,167.63 1303.73,165.29 1306.88,163.89 1306.88,217.61 1306.75,217.67 1247.47,191.3 1247.48,190.66 "
   id="polygon4286" />
							<polygon
   class="st181"
   points="1303.73,165.29 1306.88,163.73 1306.88,163.89 "
   id="polygon4288" />
							<path
   class="st181"
   d="m 1306.75,217.67 -60.06,27.02 0.15,0.07 51.55,-23.04 8.7,-3.9 z m -3.02,-52.38 3.15,-1.4 v -0.16 z"
   id="path4290" />
							<path
   class="st181"
   d="m 1307.11,163.79 -60.27,-26.94 -121.29,53.96 69.49,30.91 51.33,22.84 0.2,0.09 0.09,0.04 h 0.02 l 60.06,-27.02 -59.27,-26.37 -0.63,-0.28 -0.46,-0.21 0.46,-0.2 56.89,-25.31 3.15,-1.56 v 0.16 z m -94.72,27.05 c 0,4.2 -11.72,7.61 -26.19,7.61 -14.47,0 -26.19,-3.41 -26.19,-7.61 v -11.4 c 0,-4.18 11.72,-7.59 26.19,-7.59 14.45,0 26.19,3.41 26.19,7.59 z m 34.96,7.62 c 14.01,0.14 25.21,3.49 25.21,7.59 v 11.4 c 0,4.14 -11.43,7.52 -25.66,7.6 h -0.53 c -14.47,0 -26.19,-3.41 -26.19,-7.6 v -11.4 c 0,-4.19 11.72,-7.6 26.19,-7.6 0.34,0 0.66,0 0.98,0.01 z m 25.22,-34.02 c 0,4.21 -11.72,7.61 -26.19,7.61 -14.47,0 -26.19,-3.4 -26.19,-7.61 v -11.38 c 0,-4.2 11.72,-7.61 26.19,-7.61 14.46,0 26.19,3.41 26.19,7.61 z"
   id="path4292" />
							<path
   class="st181"
   d="m 1272.57,153.07 c 0,2.26 -3.42,4.3 -8.82,5.69 -4.61,1.2 -10.7,1.91 -17.37,1.91 -6.66,0 -12.75,-0.71 -17.36,-1.91 -5.43,-1.39 -8.83,-3.43 -8.83,-5.69 0,-4.2 11.72,-7.61 26.19,-7.61 14.46,0 26.19,3.41 26.19,7.61 z"
   id="path4294" />
							<path
   class="st181"
   d="m 1212.39,179.45 c 0,2.27 -3.44,4.31 -8.85,5.71 -4.63,1.19 -10.69,1.9 -17.34,1.9 -6.65,0 -12.72,-0.71 -17.34,-1.9 -5.44,-1.4 -8.85,-3.44 -8.85,-5.71 0,-4.18 11.72,-7.59 26.19,-7.59 14.45,0 26.19,3.41 26.19,7.59 z"
   id="path4296" />
							<path
   class="st181"
   d="m 1272.57,206.05 c 0,2.26 -3.44,4.31 -8.85,5.69 -4.44,1.16 -10.23,1.86 -16.61,1.9 -0.24,0.01 -0.48,0.01 -0.72,0.01 -6.65,0 -12.73,-0.71 -17.34,-1.9 -5.44,-1.4 -8.85,-3.44 -8.85,-5.7 0,-4.19 11.72,-7.6 26.19,-7.6 0.33,0 0.65,0 0.97,0.01 14,0.14 25.21,3.49 25.21,7.59 z"
   id="path4298" />
						</g>
					</g>
					<g
   id="g4342">
						<g
   id="g4340">
							<polygon
   class="st181"
   points="1104.56,335.21 1104.62,335.24 1104.56,335.27 "
   id="polygon4304" />
							<polygon
   class="st181"
   points="1104.56,335.61 1164.62,362.45 1104.56,389.29 "
   id="polygon4306" />
							<path
   class="st181"
   d="m 1165.11,369.95 v 0.16 c -0.23,-0.01 -0.47,-0.01 -0.71,-0.01 -14.47,0 -26.19,3.41 -26.19,7.59 0,0.55 0.2,1.09 0.59,1.6 -0.29,-0.35 -0.49,-0.71 -0.59,-1.08 -0.08,-0.22 -0.11,-0.44 -0.11,-0.66 0,-4.2 11.72,-7.61 26.18,-7.61 0.28,0 0.56,0 0.83,0.01 z"
   id="path4308" />
							<path
   class="st181"
   d="m 1164.27,385.14 c 0.28,0 0.56,0 0.83,-0.01 v 0.15 c -0.23,0.01 -0.47,0.01 -0.71,0.01 -6.65,0 -12.72,-0.71 -17.34,-1.9 -4.08,-1.05 -7.01,-2.45 -8.23,-4.06 1.28,1.54 4.15,2.89 8.09,3.9 4.62,1.2 10.71,1.91 17.36,1.91 z"
   id="path4310" />
							<g
   id="g4338">
								<path
   class="st181"
   d="m 1165.11,369.95 c -0.27,-0.01 -0.55,-0.01 -0.83,-0.01 -14.46,0 -26.18,3.41 -26.18,7.61 0,0.22 0.03,0.44 0.11,0.66 v -0.52 c 0,-4.18 11.72,-7.59 26.19,-7.59 0.24,0 0.48,0 0.71,0.01 11.89,0.09 21.8,2.48 24.65,5.69 -2.65,-3.29 -12.62,-5.75 -24.65,-5.85 z m 0,46.28 -0.39,0.17 -0.1,-0.04 0.1,0.05 0.39,-0.18 51.16,-22.86 z m -60.94,-26.77 0.39,0.17 v -0.34 z m 0,-54.02 0.39,0.17 v -0.34 z"
   id="path4312" />
								<path
   class="st181"
   d="m 1164.72,308.49 -60.1,26.74 -0.06,0.03 v 0.34 l 60.06,26.84 -60.06,26.84 v 0.34 l 8.35,3.73 51.71,22.99 0.1,0.04 0.39,-0.17 51.16,-22.86 69.16,-30.91 z m 25.86,80.6 c 0,4.12 -11.34,7.49 -25.48,7.59 -0.23,0.01 -0.47,0.01 -0.71,0.01 -14.47,0 -26.19,-3.41 -26.19,-7.6 v -10.88 c -0.08,-0.22 -0.11,-0.44 -0.11,-0.66 0,-4.2 11.72,-7.61 26.18,-7.61 0.28,0 0.56,0 0.83,0.01 12.03,0.1 22,2.56 24.65,5.85 0.07,0.08 0.14,0.16 0.19,0.24 0.42,0.53 0.63,1.09 0.63,1.65 v 11.4 z m 0.65,-53 c 0,4.21 -11.72,7.61 -26.19,7.61 -1.63,0 -3.23,-0.04 -4.77,-0.13 -0.19,-0.01 -0.39,-0.02 -0.58,-0.03 -2.82,-0.17 -5.48,-0.47 -7.88,-0.87 -0.25,-0.05 -0.5,-0.09 -0.74,-0.14 -3.07,-0.56 -5.7,-1.31 -7.73,-2.17 -0.22,-0.09 -0.42,-0.19 -0.62,-0.28 -0.68,-0.32 -1.28,-0.66 -1.79,-1.02 -0.17,-0.11 -0.33,-0.22 -0.47,-0.34 -0.29,-0.24 -0.55,-0.47 -0.76,-0.71 -0.11,-0.12 -0.21,-0.24 -0.29,-0.37 -0.18,-0.25 -0.32,-0.5 -0.4,-0.75 -0.05,-0.13 -0.08,-0.26 -0.1,-0.39 -0.03,-0.13 -0.04,-0.26 -0.04,-0.39 V 324.7 c 0,-4.19 11.72,-7.6 26.19,-7.6 14.46,0 26.19,3.41 26.19,7.6 v 11.39 z m 60,26.74 c -0.01,0.08 -0.02,0.15 -0.05,0.23 -0.02,0.1 -0.05,0.2 -0.1,0.3 -0.02,0.08 -0.05,0.15 -0.09,0.22 -0.08,0.16 -0.18,0.32 -0.29,0.47 -0.06,0.09 -0.13,0.18 -0.21,0.26 -0.32,0.39 -0.75,0.76 -1.29,1.13 -0.49,0.34 -1.08,0.66 -1.73,0.98 -0.22,0.1 -0.44,0.2 -0.68,0.3 -0.23,0.1 -0.46,0.19 -0.7,0.29 -0.01,0 -0.02,0 -0.03,0.01 -0.75,0.3 -1.58,0.57 -2.46,0.82 -0.44,0.13 -0.9,0.25 -1.38,0.37 -0.48,0.12 -0.96,0.24 -1.47,0.34 -0.5,0.12 -1.03,0.22 -1.56,0.32 -1.06,0.19 -2.17,0.37 -3.34,0.52 -0.58,0.08 -1.18,0.15 -1.78,0.21 -0.59,0.06 -1.21,0.12 -1.83,0.17 -0.62,0.06 -1.26,0.1 -1.9,0.14 -0.84,0.06 -1.71,0.1 -2.59,0.11 -0.44,0.01 -0.88,0.02 -1.34,0.03 -0.22,0 -0.44,0.01 -0.67,0.01 -0.22,0.01 -0.45,0.01 -0.67,0.01 -0.22,0 -0.45,0 -0.67,-0.01 -0.23,0 -0.45,-0.01 -0.67,-0.01 -0.45,-0.01 -0.89,-0.02 -1.34,-0.03 -0.88,-0.01 -1.75,-0.05 -2.59,-0.11 -2.56,-0.15 -4.97,-0.41 -7.21,-0.76 -2.23,-0.36 -4.26,-0.8 -6.03,-1.32 -0.84,-0.24 -1.64,-0.5 -2.36,-0.78 -0.07,-0.03 -0.14,-0.05 -0.21,-0.08 -0.21,-0.09 -0.42,-0.17 -0.62,-0.26 -0.24,-0.1 -0.47,-0.2 -0.69,-0.3 -0.87,-0.42 -1.61,-0.86 -2.19,-1.33 -0.29,-0.23 -0.55,-0.47 -0.76,-0.71 -0.17,-0.18 -0.31,-0.36 -0.41,-0.55 -0.07,-0.09 -0.12,-0.19 -0.16,-0.28 -0.04,-0.09 -0.08,-0.19 -0.12,-0.29 -0.05,-0.12 -0.08,-0.25 -0.1,-0.38 -0.03,-0.13 -0.04,-0.26 -0.04,-0.39 v -11.4 c 0,-0.13 0.01,-0.26 0.04,-0.39 0.02,-0.13 0.05,-0.25 0.1,-0.38 0.08,-0.26 0.21,-0.51 0.4,-0.75 0.08,-0.13 0.18,-0.25 0.29,-0.37 0.21,-0.24 0.47,-0.48 0.76,-0.71 0.14,-0.11 0.3,-0.23 0.47,-0.34 0.16,-0.11 0.33,-0.22 0.52,-0.33 0.16,-0.1 0.32,-0.2 0.49,-0.28 0.42,-0.24 0.89,-0.46 1.4,-0.67 0.21,-0.09 0.43,-0.18 0.66,-0.27 0.3,-0.12 0.62,-0.24 0.94,-0.35 0.5,-0.18 1.04,-0.34 1.59,-0.5 0.59,-0.18 1.21,-0.34 1.86,-0.49 0.64,-0.16 1.32,-0.3 2.01,-0.43 0.35,-0.08 0.7,-0.14 1.07,-0.2 0.67,-0.12 1.38,-0.24 2.1,-0.33 0.08,-0.02 0.16,-0.03 0.23,-0.03 0.61,-0.09 1.24,-0.17 1.87,-0.24 0.32,-0.04 0.65,-0.07 0.98,-0.1 0.32,-0.03 0.65,-0.06 0.99,-0.09 0.66,-0.06 1.35,-0.11 2.04,-0.15 0.19,-0.01 0.39,-0.02 0.58,-0.03 1.55,-0.09 3.15,-0.13 4.77,-0.13 14.46,0 26.19,3.41 26.19,7.6 v 11.4 c 0.01,0.08 0,0.2 -0.02,0.31 z"
   id="path4314" />
								<path
   class="st181"
   d="m 1191.23,324.7 c 0,2.27 -3.42,4.3 -8.82,5.7 -4.61,1.19 -10.7,1.91 -17.37,1.91 -6.66,0 -12.74,-0.72 -17.36,-1.91 -5.43,-1.4 -8.82,-3.43 -8.82,-5.7 v 11.39 c 0,0.13 0.01,0.26 0.03,0.39 -0.03,-0.13 -0.04,-0.26 -0.04,-0.39 V 324.7 c 0,-4.19 11.72,-7.6 26.19,-7.6 14.46,0.01 26.19,3.41 26.19,7.6 z"
   id="path4316" />
								<path
   class="st181"
   d="m 1138.8,379.28 c -0.29,-0.35 -0.49,-0.71 -0.59,-1.08 v -0.52 c -0.01,0.56 0.2,1.09 0.59,1.6 z"
   id="path4318" />
								<path
   class="st181"
   d="m 1189.76,375.8 c -2.85,-3.21 -12.76,-5.6 -24.65,-5.69 -0.23,-0.01 -0.47,-0.01 -0.71,-0.01 -14.47,0 -26.19,3.41 -26.19,7.59 0,0.55 0.2,1.09 0.59,1.6 -0.29,-0.35 -0.49,-0.71 -0.59,-1.08 -0.08,-0.22 -0.11,-0.44 -0.11,-0.66 0,-4.2 11.72,-7.61 26.18,-7.61 0.28,0 0.56,0 0.83,0.01 12.03,0.1 22,2.56 24.65,5.85 z"
   id="path4320" />
								<path
   class="st181"
   d="m 1251.26,351.09 c 0,2.27 -3.44,4.31 -8.85,5.7 -4.62,1.19 -10.69,1.91 -17.34,1.91 -6.65,0 -12.72,-0.72 -17.33,-1.91 -5.45,-1.39 -8.85,-3.43 -8.85,-5.7 0,-0.13 0.01,-0.26 0.03,-0.39 0.03,-0.13 0.06,-0.26 0.1,-0.38 0.09,-0.26 0.23,-0.51 0.4,-0.75 0.09,-0.13 0.18,-0.25 0.29,-0.37 0.21,-0.24 0.47,-0.48 0.76,-0.71 0.14,-0.11 0.3,-0.23 0.47,-0.34 0.16,-0.11 0.33,-0.22 0.52,-0.33 0.15,-0.1 0.32,-0.19 0.49,-0.28 0.42,-0.24 0.89,-0.46 1.4,-0.67 0.21,-0.09 0.43,-0.18 0.66,-0.27 0.3,-0.12 0.62,-0.24 0.94,-0.35 0.5,-0.17 1.04,-0.34 1.59,-0.5 0.59,-0.17 1.22,-0.33 1.86,-0.49 0.64,-0.15 1.32,-0.3 2.01,-0.43 0.35,-0.08 0.7,-0.14 1.07,-0.2 0.68,-0.12 1.38,-0.23 2.1,-0.33 0.08,-0.02 0.16,-0.03 0.23,-0.03 0.61,-0.09 1.24,-0.17 1.87,-0.24 0.32,-0.04 0.65,-0.07 0.98,-0.1 0.32,-0.03 0.65,-0.06 0.99,-0.09 0.66,-0.06 1.35,-0.11 2.04,-0.15 0.19,-0.01 0.39,-0.02 0.58,-0.03 1.55,-0.09 3.15,-0.13 4.77,-0.13 14.5,-0.03 26.22,3.37 26.22,7.56 z"
   id="path4322" />
								<path
   class="st181"
   d="m 1190.47,377.54 c 0,2.26 -3.42,4.3 -8.83,5.69 -4.41,1.15 -10.19,1.85 -16.53,1.9 -0.27,0.01 -0.55,0.01 -0.83,0.01 -6.65,0 -12.74,-0.71 -17.36,-1.91 -3.94,-1 -6.81,-2.36 -8.09,-3.9 -0.02,-0.01 -0.03,-0.03 -0.03,-0.05 -0.39,-0.51 -0.59,-1.05 -0.59,-1.6 0,-4.18 11.72,-7.59 26.19,-7.59 0.24,0 0.48,0 0.71,0.01 11.89,0.09 21.8,2.48 24.65,5.69 0.07,0.08 0.14,0.16 0.19,0.24 0.34,0.49 0.52,1 0.52,1.51 z"
   id="path4324" />
								<path
   class="st181"
   d="m 1190.58,377.69 c 0,2.27 -3.44,4.31 -8.85,5.71 -4.45,1.15 -10.25,1.85 -16.62,1.89 -0.23,0.01 -0.47,0.01 -0.71,0.01 -6.65,0 -12.72,-0.71 -17.34,-1.9 -4.08,-1.05 -7.01,-2.45 -8.23,-4.06 1.28,1.54 4.15,2.89 8.09,3.9 4.61,1.2 10.7,1.91 17.36,1.91 0.28,0 0.56,0 0.83,-0.01 6.34,-0.05 12.12,-0.75 16.53,-1.9 5.42,-1.39 8.83,-3.43 8.83,-5.69 0,-0.51 -0.18,-1.03 -0.52,-1.51 0.42,0.53 0.63,1.08 0.63,1.65 z"
   id="path4326" />
								<path
   class="st181"
   d="m 1251.26,351.09 v 11.4 c 0,0.11 -0.01,0.23 -0.03,0.34 -0.01,0.08 -0.02,0.15 -0.05,0.23 -0.02,0.1 -0.05,0.2 -0.1,0.3 -0.02,0.08 -0.05,0.15 -0.09,0.22 -0.08,0.16 -0.18,0.32 -0.29,0.47 -0.06,0.09 -0.13,0.18 -0.21,0.26 -0.32,0.39 -0.75,0.76 -1.29,1.13 -0.49,0.34 -1.08,0.66 -1.73,0.98 -0.22,0.1 -0.44,0.2 -0.68,0.3 -0.23,0.1 -0.46,0.19 -0.7,0.29 -0.01,0 -0.02,0 -0.03,0.01 -0.75,0.29 -1.58,0.56 -2.46,0.82 -0.44,0.13 -0.9,0.25 -1.38,0.37 -0.48,0.12 -0.96,0.23 -1.47,0.34 -0.51,0.11 -1.03,0.22 -1.56,0.32 -1.06,0.19 -2.17,0.37 -3.34,0.52 -0.58,0.07 -1.18,0.14 -1.78,0.21 -0.6,0.06 -1.22,0.12 -1.83,0.17 -0.62,0.05 -1.26,0.1 -1.9,0.14 -0.84,0.05 -1.72,0.08 -2.59,0.11 -0.44,0.01 -0.88,0.02 -1.34,0.03 -0.22,0 -0.44,0.01 -0.67,0.01 h -1.35 c -0.23,0 -0.45,-0.01 -0.67,-0.01 -0.45,-0.01 -0.89,-0.02 -1.34,-0.03 -0.87,-0.03 -1.75,-0.06 -2.59,-0.11 -2.56,-0.16 -4.97,-0.42 -7.21,-0.76 -2.23,-0.36 -4.26,-0.8 -6.03,-1.32 -0.84,-0.24 -1.64,-0.51 -2.36,-0.78 -0.07,-0.03 -0.14,-0.05 -0.21,-0.08 -0.21,-0.09 -0.42,-0.17 -0.62,-0.26 -0.24,-0.1 -0.47,-0.2 -0.69,-0.3 -0.87,-0.42 -1.61,-0.86 -2.19,-1.33 -0.29,-0.23 -0.55,-0.47 -0.76,-0.71 -0.16,-0.18 -0.3,-0.36 -0.41,-0.55 -0.06,-0.09 -0.11,-0.18 -0.16,-0.28 -0.04,-0.09 -0.08,-0.19 -0.12,-0.29 -0.04,-0.12 -0.07,-0.25 -0.1,-0.38 -0.02,-0.13 -0.03,-0.26 -0.03,-0.39 v -11.4 c 0,2.27 3.41,4.31 8.85,5.7 4.6,1.19 10.67,1.91 17.33,1.91 6.64,0 12.71,-0.72 17.34,-1.91 5.41,-1.37 8.84,-3.41 8.84,-5.69 z"
   id="path4328" />
								<path
   class="st181"
   d="m 1191.23,324.7 v 11.39 c 0,4.21 -11.72,7.61 -26.19,7.61 -1.63,0 -3.23,-0.04 -4.77,-0.13 -0.19,-0.01 -0.39,-0.02 -0.58,-0.03 -2.82,-0.17 -5.48,-0.47 -7.88,-0.87 -0.25,-0.05 -0.5,-0.09 -0.74,-0.14 -3.07,-0.56 -5.7,-1.31 -7.73,-2.17 -0.22,-0.09 -0.42,-0.19 -0.62,-0.28 -0.68,-0.32 -1.28,-0.66 -1.79,-1.02 -0.17,-0.11 -0.33,-0.22 -0.47,-0.34 -0.29,-0.24 -0.55,-0.47 -0.76,-0.71 -0.11,-0.12 -0.2,-0.25 -0.29,-0.37 -0.17,-0.25 -0.31,-0.5 -0.4,-0.75 -0.04,-0.13 -0.07,-0.26 -0.1,-0.39 -0.02,-0.13 -0.03,-0.26 -0.03,-0.39 V 324.7 c 0,2.27 3.4,4.3 8.82,5.7 4.61,1.19 10.69,1.91 17.36,1.91 6.66,0 12.75,-0.72 17.37,-1.91 5.38,-1.39 8.8,-3.42 8.8,-5.7 z"
   id="path4330" />
								<polygon
   class="st181"
   points="1164.72,478.22 1104.17,451.29 1104.17,389.46 1104.56,389.63 1112.91,393.36 1164.62,416.36 1164.72,416.4 "
   id="polygon4332" />
								<polygon
   class="st181"
   points="1285.43,424.28 1164.72,478.22 1164.72,423.79 1165.11,423.96 1165.11,416.24 1216.27,393.36 1285.43,362.45 "
   id="polygon4334" />
								<polygon
   class="st181"
   points="1165.11,416.23 1216.27,393.36 1165.11,416.24 1165.11,423.96 1164.72,423.79 1164.72,416.4 "
   id="polygon4336" />
							</g>
						</g>
					</g>
				</g>
			</g>
			<g
   id="g4378">
				<g
   id="g4376">
					<polygon
   class="st181"
   points="742.04,235.25 742.04,297.06 620.75,243.13 620.75,181.29 690.25,212.2 741.58,235.05 741.78,235.14 741.78,235.23 741.87,235.18 741.89,235.18 "
   id="polygon4348" />
					<polygon
   class="st181"
   points="741.78,235.14 741.87,235.18 741.78,235.23 "
   id="polygon4350" />
					<polygon
   class="st181"
   points="802.3,208.31 802.3,270.14 742.04,297.06 742.04,235.25 793.6,212.2 "
   id="polygon4352" />
					<rect
   x="802.29999"
   y="208.31"
   class="st181"
   width="0.0099999998"
   height="61.84"
   id="rect4354" />
					<path
   class="st181"
   d="m 767.77,143.56 v 11.38 c 0,4.21 -11.72,7.61 -26.19,7.61 -14.47,0 -26.19,-3.4 -26.19,-7.61 v -11.38 c 0,2.26 3.41,4.3 8.83,5.69 4.6,1.2 10.69,1.91 17.36,1.91 6.66,0 12.75,-0.71 17.37,-1.91 5.4,-1.39 8.82,-3.43 8.82,-5.69 z"
   id="path4356" />
					<path
   class="st181"
   d="m 707.59,169.94 v 11.4 c 0,4.2 -11.72,7.61 -26.19,7.61 -14.47,0 -26.19,-3.41 -26.19,-7.61 v -11.4 c 0,2.27 3.42,4.31 8.85,5.71 4.61,1.19 10.68,1.9 17.34,1.9 6.64,0 12.7,-0.71 17.34,-1.9 5.42,-1.4 8.85,-3.44 8.85,-5.71 z"
   id="path4358" />
					<polygon
   class="st181"
   points="741.78,235.23 741.78,235.14 741.87,235.18 "
   id="polygon4360" />
					<polygon
   class="st181"
   points="798.93,155.78 802.08,154.38 802.08,208.09 801.95,208.15 742.68,181.78 742.69,181.15 794.23,158.12 "
   id="polygon4362" />
					<polygon
   class="st181"
   points="798.93,155.78 802.08,154.22 802.08,154.38 "
   id="polygon4364" />
					<path
   class="st181"
   d="m 801.95,208.15 -60.06,27.02 0.15,0.07 51.55,-23.04 8.7,-3.9 z m -3.02,-52.37 3.15,-1.4 v -0.16 z"
   id="path4366" />
					<path
   class="st181"
   d="m 802.31,154.28 -60.27,-26.94 -121.29,53.96 69.49,30.91 51.33,22.84 0.2,0.09 0.09,0.04 h 0.02 l 60.06,-27.02 -59.27,-26.37 -0.63,-0.28 -0.46,-0.21 0.46,-0.2 56.89,-25.31 3.15,-1.56 v 0.16 z m -94.72,27.05 c 0,4.2 -11.72,7.61 -26.19,7.61 -14.47,0 -26.19,-3.41 -26.19,-7.61 v -11.4 c 0,-4.18 11.72,-7.59 26.19,-7.59 14.45,0 26.19,3.41 26.19,7.59 z m 34.97,7.62 c 14.01,0.14 25.21,3.49 25.21,7.59 v 11.4 c 0,4.14 -11.43,7.52 -25.66,7.6 h -0.53 c -14.47,0 -26.19,-3.41 -26.19,-7.6 v -11.4 c 0,-4.19 11.72,-7.6 26.19,-7.6 0.33,0 0.65,0 0.98,0.01 z m 25.21,-34.02 c 0,4.21 -11.72,7.61 -26.19,7.61 -14.47,0 -26.19,-3.4 -26.19,-7.61 v -11.38 c 0,-4.2 11.72,-7.61 26.19,-7.61 14.46,0 26.19,3.41 26.19,7.61 z"
   id="path4368" />
					<path
   class="st181"
   d="m 767.77,143.56 c 0,2.26 -3.42,4.3 -8.82,5.69 -4.61,1.2 -10.7,1.91 -17.37,1.91 -6.66,0 -12.75,-0.71 -17.36,-1.91 -5.43,-1.39 -8.83,-3.43 -8.83,-5.69 0,-4.2 11.72,-7.61 26.19,-7.61 14.46,0 26.19,3.41 26.19,7.61 z"
   id="path4370" />
					<path
   class="st181"
   d="m 707.59,169.94 c 0,2.27 -3.44,4.31 -8.85,5.71 -4.63,1.19 -10.69,1.9 -17.34,1.9 -6.65,0 -12.72,-0.71 -17.34,-1.9 -5.44,-1.4 -8.85,-3.44 -8.85,-5.71 0,-4.18 11.72,-7.59 26.19,-7.59 14.45,0 26.19,3.41 26.19,7.59 z"
   id="path4372" />
					<path
   class="st181"
   d="m 767.77,196.54 c 0,2.26 -3.44,4.31 -8.85,5.69 -4.44,1.16 -10.23,1.86 -16.61,1.9 -0.24,0.01 -0.48,0.01 -0.72,0.01 -6.65,0 -12.73,-0.71 -17.34,-1.9 -5.44,-1.4 -8.85,-3.44 -8.85,-5.7 0,-4.19 11.72,-7.6 26.19,-7.6 0.33,0 0.65,0 0.97,0.01 14,0.14 25.21,3.49 25.21,7.59 z"
   id="path4374" />
				</g>
			</g>
		</g>
	</g>
</svg>
