<?xml version="1.0" encoding="UTF-8" standalone="no"?>
<svg
   xmlns:dc="http://purl.org/dc/elements/1.1/"
   xmlns:cc="http://creativecommons.org/ns#"
   xmlns:rdf="http://www.w3.org/1999/02/22-rdf-syntax-ns#"
   xmlns:svg="http://www.w3.org/2000/svg"
   xmlns="http://www.w3.org/2000/svg"
   version="1.1"
   x="0px"
   y="0px"
   width="1143.33"
   height="942.04004"
   viewBox="0 0 1143.33 942.04006"
   xml:space="preserve"
   id="svg3893"><metadata
   id="metadata3899"><rdf:RDF><cc:Work
       rdf:about=""><dc:format>image/svg+xml</dc:format><dc:type
         rdf:resource="http://purl.org/dc/dcmitype/StillImage" /><dc:title></dc:title></cc:Work></rdf:RDF></metadata><defs
   id="defs3897" />
<style
   type="text/css"
   id="style2385">
	.st0{fill:#0095A3;}
	.st1{fill:#FFFFFF;}
	.st2{fill:#F8F8F8;}
	.st3{fill:#8E992E;}
	.st4{fill:#8EB230;}
	.st5{fill:#F2F2F2;}
	.st6{fill:#D5D7D8;}
	.st7{clip-path:url(#SVGID_2_);}
	.st8{opacity:0.06;}
	.st9{fill:#CECECE;}
	.st10{fill:#E1E1E1;}
	.st11{fill:#CFCFD0;}
	.st12{fill:#D1D1D1;}
	.st13{fill:#D7D7D6;}
	.st14{fill:#CCCCCC;}
	.st15{fill:#E8E8E8;}
	.st16{fill:#D5D5D5;}
	.st17{fill:#F0F0F0;}
	.st18{fill:#EFEEEE;}
	.st19{fill:#EBEBEB;}
	.st20{fill:#E2E2E2;}
	.st21{fill:#D4D3D3;}
	.st22{fill:#CDCDCD;}
	.st23{fill:#DEDEDD;}
	.st24{fill:#EAEAEA;}
	.st25{fill:#E9E9E9;}
	.st26{fill:#959595;}
	.st27{fill:#E4E4E3;}
	.st28{fill:#C5C5C5;}
	.st29{fill:#D6D6D6;}
	.st30{fill:#EDECEC;}
	.st31{fill:#E5E5E4;}
	.st32{fill:#E3E3E3;}
	.st33{fill:#C5C4C4;}
	.st34{fill:none;stroke:#F1F1F1;stroke-miterlimit:10;}
	.st35{fill:#B3B3B4;}
	.st36{fill:#7A7A7A;}
	.st37{fill:#D0D1D1;}
	.st38{fill:#8A8A8A;}
	.st39{fill:#686868;}
	.st40{fill:#E7E7E7;}
	.st41{fill:#ABABAB;}
	.st42{fill:#B8B8B9;}
	.st43{fill:#A2A2A2;}
	.st44{fill:#E6E6E6;}
	.st45{fill:#9A9A9A;}
	.st46{fill:#A7A6A6;}
	.st47{fill:#707171;}
	.st48{fill:#A8A8A7;}
	.st49{fill:#8C8C8C;}
	.st50{fill:#939393;}
	.st51{fill:#6B6B6B;}
	.st52{fill:#DFDFDF;}
	.st53{fill:#AAAAAA;}
	.st54{fill:#A0A0A0;}
	.st55{fill:#B4B4B5;}
	.st56{fill:#ADADAD;}
	.st57{fill:#999999;}
	.st58{fill:#B9B9B9;}
	.st59{fill:#B5B5B6;}
	.st60{fill:#7D7D7D;}
	.st61{fill:#BEBDBD;}
	.st62{fill:#BBBBBB;}
	.st63{fill:#656666;}
	.st64{fill:#9C9C9C;}
	.st65{fill:#6A6A6A;}
	.st66{fill:#919191;}
	.st67{fill:#D2D2D2;}
	.st68{fill:#DBDADA;}
	.st69{fill:#BFBFBF;}
	.st70{fill:#B1B1B1;}
	.st71{fill:#808080;}
	.st72{fill:#DAD9D9;}
	.st73{fill:#E0E0E0;}
	.st74{fill:#737374;}
	.st75{fill:#8D8D8D;}
	.st76{fill:#B8B7B8;}
	.st77{fill:#B7B6B7;}
	.st78{fill:#ADADAE;}
	.st79{fill:#D9D8D7;}
	.st80{fill:#C0C0C0;}
	.st81{fill:#807F7F;}
	.st82{fill:#CCCBCB;}
	.st83{fill:#6D6D6D;}
	.st84{fill:#898989;}
	.st85{fill:#888888;}
	.st86{fill:#B0B0B0;}
	.st87{fill:#B2B2B3;}
	.st88{fill:#989898;}
	.st89{clip-path:url(#SVGID_6_);}
	.st90{clip-path:url(#SVGID_10_);}
	.st91{clip-path:url(#SVGID_14_);}
	.st92{clip-path:url(#SVGID_18_);}
	.st93{fill:#78AC5F;}
	.st94{fill:#83C579;}
	.st95{clip-path:url(#SVGID_22_);}
	.st96{fill:none;}
	.st97{font-family:'ExoSoft-Regular';}
	.st98{font-size:17.9468px;}
	.st99{font-size:20px;}
	.st100{letter-spacing:8;}
	.st101{clip-path:url(#SVGID_26_);}
	.st102{fill:#F1F4F8;}
	.st103{fill:#005077;fill-opacity:0.1;}
	.st104{fill:none;stroke:#BFD6D8;stroke-width:4;stroke-opacity:0.8;}
	.st105{fill:none;stroke:#BFD6D8;stroke-width:4;stroke-linecap:round;stroke-linejoin:bevel;}
	
		.st106{opacity:0.9866;fill:#FFFFFF;fill-opacity:0.5;stroke:#252D5A;stroke-linecap:square;stroke-dasharray:3,6;enable-background:new    ;}
	.st107{fill-rule:evenodd;clip-rule:evenodd;fill:#629BB7;}
	.st108{fill-rule:evenodd;clip-rule:evenodd;fill:#999DB1;}
	.st109{fill:#252D5A;}
	
		.st110{opacity:0.9866;fill:#FDFEFF;fill-opacity:0.5;stroke:#252D5A;stroke-linecap:square;stroke-dasharray:3,6;enable-background:new    ;}
	.st111{clip-path:url(#SVGID_28_);}
	.st112{fill-rule:evenodd;clip-rule:evenodd;fill:#353C65;}
	.st113{opacity:0.86;fill:#F26B30;}
	.st114{font-family:'AcuminPro-Regular';}
	.st115{font-size:11px;}
	.st116{letter-spacing:4;}
	.st117{fill:#375974;}
	.st118{font-family:'AcuminPro-Bold';}
	.st119{font-size:14px;}
	.st120{letter-spacing:5;}
	.st121{opacity:0.85;}
	.st122{fill:#587F98;}
	.st123{font-size:25px;}
	.st124{letter-spacing:10;}
	.st125{opacity:0.86;}
	.st126{font-size:18px;}
	.st127{letter-spacing:7;}
	.st128{fill:#F26B30;}
	.st129{fill:#231F20;}
	.st130{font-size:41.1457px;}
	.st131{opacity:0.4;}
	.st132{fill:none;stroke:#2D2C2C;stroke-width:1.5081;stroke-linejoin:round;stroke-miterlimit:10;}
	.st133{fill:#2D2C2C;stroke:#2D2C2C;stroke-width:1.5081;stroke-linejoin:round;stroke-miterlimit:10;}
	.st134{fill:none;stroke:#231F20;stroke-width:1.5081;stroke-linejoin:round;stroke-miterlimit:10;}
	.st135{fill:#F26B30;stroke:#231F20;stroke-width:1.5081;stroke-linejoin:round;stroke-miterlimit:10;}
	.st136{fill:#007B84;stroke:#231F20;stroke-width:1.5081;stroke-linejoin:round;stroke-miterlimit:10;}
	.st137{fill:#F6921E;stroke:#231F20;stroke-width:1.5081;stroke-linejoin:round;stroke-miterlimit:10;}
	.st138{fill:#8EB230;stroke:#231F20;stroke-width:1.5081;stroke-linejoin:round;stroke-miterlimit:10;}
	.st139{fill:#0095A3;stroke:#231F20;stroke-width:1.5081;stroke-linejoin:round;stroke-miterlimit:10;}
	.st140{fill:#6C8B23;stroke:#231F20;stroke-width:1.5081;stroke-linejoin:round;stroke-miterlimit:10;}
	.st141{fill:#C3C3C3;}
	.st142{fill:#ACACAC;}
	.st143{fill:none;stroke:#000000;stroke-miterlimit:10;}
	.st144{opacity:0.1;}
	.st145{fill:none;stroke:#FFFFFF;stroke-width:10.1966;stroke-linejoin:round;stroke-miterlimit:10;}
	.st146{fill:none;stroke:#FFFFFF;stroke-width:2.8103;stroke-linejoin:round;stroke-miterlimit:10;}
	.st147{opacity:0.1;fill:none;stroke:#FFFFFF;stroke-width:10.1966;stroke-linejoin:round;stroke-miterlimit:10;}
	.st148{opacity:0.15;}
	.st149{fill:none;stroke:#FFFFFF;stroke-width:5.0805;stroke-linejoin:round;stroke-miterlimit:10;}
	.st150{opacity:0.1;fill:none;stroke:#FFFFFF;stroke-width:5.0805;stroke-linejoin:round;stroke-miterlimit:10;}
	.st151{fill:#8EB230;stroke:#231F20;stroke-width:3.7101;stroke-linejoin:round;stroke-miterlimit:10;}
	.st152{fill:none;stroke:#231F20;stroke-width:3.7101;stroke-linejoin:round;stroke-miterlimit:10;}
	.st153{fill:#0095A3;stroke:#231F20;stroke-width:3.7101;stroke-linejoin:round;stroke-miterlimit:10;}
	.st154{fill:#6C8B23;stroke:#231F20;stroke-width:3.7101;stroke-linejoin:round;stroke-miterlimit:10;}
	.st155{fill:#AA4C23;stroke:#231F20;stroke-width:3.7101;stroke-linejoin:round;stroke-miterlimit:10;}
	.st156{fill:#007B84;stroke:#231F20;stroke-width:3.7101;stroke-linejoin:round;stroke-miterlimit:10;}
	.st157{fill:#F6921E;stroke:#231F20;stroke-width:3.7101;stroke-linejoin:round;stroke-miterlimit:10;}
	.st158{fill:#0095A3;stroke:#231F20;stroke-width:3.714;stroke-linejoin:round;stroke-miterlimit:10;}
	.st159{fill:#AA4C23;stroke:#231F20;stroke-width:3.714;stroke-linejoin:round;stroke-miterlimit:10;}
	.st160{fill:#F26B30;stroke:#231F20;stroke-width:3.714;stroke-linejoin:round;stroke-miterlimit:10;}
	.st161{fill:#F6921E;stroke:#231F20;stroke-width:3.714;stroke-linejoin:round;stroke-miterlimit:10;}
	.st162{fill:none;stroke:#231F20;stroke-width:3.714;stroke-linejoin:round;stroke-miterlimit:10;}
	.st163{fill:#00494F;stroke:#231F20;stroke-width:3.714;stroke-linejoin:round;stroke-miterlimit:10;}
	.st164{fill:#8EB230;stroke:#231F20;stroke-width:3.714;stroke-linejoin:round;stroke-miterlimit:10;}
	.st165{fill:#6C8B23;stroke:#231F20;stroke-width:3.714;stroke-linejoin:round;stroke-miterlimit:10;}
	.st166{fill:#D05D2A;stroke:#231F20;stroke-width:3.714;stroke-linejoin:round;stroke-miterlimit:10;}
	.st167{fill:#007B84;stroke:#231F20;stroke-width:3.714;stroke-linejoin:round;stroke-miterlimit:10;}
	.st168{fill:none;stroke:#EBEBEB;stroke-width:3;stroke-miterlimit:10;}
	.st169{fill:#AA4C23;}
	.st170{fill:#CACACA;}
	.st171{letter-spacing:3;}
	.st172{font-size:36px;}
	.st173{opacity:0.85;fill:#0095A3;}
	.st174{fill:#FFFFFF;stroke:#000000;stroke-width:1.4481;stroke-miterlimit:10;}
	.st175{fill:none;stroke:#000000;stroke-width:1.4481;stroke-miterlimit:10;}
	.st176{fill:none;stroke:#FFFFFF;stroke-width:0.6715;stroke-miterlimit:10;}
	.st177{opacity:0.21;fill:none;stroke:#FFFFFF;stroke-miterlimit:10;}
	.st178{font-size:30px;}
	.st179{fill:none;stroke:#FFFFFF;stroke-miterlimit:10;}
</style>




<g
   id="Home"
   transform="translate(-153.67,-2418.96)">
	
	
	
	
	
	
	
	
	
	
	
	
	
	
	
	
	
	
	
	
	
	
	
	
	
	
	
	
	
	
	
	
	
	
	
	
	
	
	
	
	
	
	
	
	
	
	
	
	
	
	
	
	
	
	
	
	
	
	
	
	
	
	
	
	<g
   class="st148"
   id="g3890">
		<polygon
   class="st179"
   points="779.67,2887.13 779.9,2887.24 779.67,2887.42 "
   id="polygon3472" />
		<polygon
   class="st179"
   points="719.44,2859.27 659.93,2885.74 659.31,2885.23 719.61,2859.1 732.1,2864.93 "
   id="polygon3474" />
		<path
   class="st179"
   d="m 745.69,2886.32 c 0,4.2 -11.74,7.6 -26.19,7.6 -14.47,0 -26.2,-3.4 -26.2,-7.6 v -11.4 c 0,2.27 3.44,4.31 8.85,5.7 4.63,1.19 10.69,1.91 17.34,1.91 6.65,0 12.72,-0.72 17.35,-1.92 5.43,-1.39 8.84,-3.42 8.84,-5.69 v 11.26 c 0.01,0.05 0.01,0.09 0.01,0.14 z"
   id="path3476" />
		<polygon
   class="st179"
   points="662.71,2888.06 719.43,2913.3 719.44,2913.3 778.85,2886.75 779.57,2887.09 770.97,2890.94 719.44,2913.97 719.44,2935.34 719.42,2935.32 718.99,2934.96 664.91,2889.89 664.9,2889.88 "
   id="polygon3478" />
		<polygon
   class="st179"
   points="576.39,3110.43 695.98,3007.92 575.38,2953.66 516.09,2980.79 "
   id="polygon3480" />
		<g
   id="g3578">
			<polygon
   class="st179"
   points="737.18,3124.5 676.88,3254.14 557.29,3151.63 677.89,3097.36 "
   id="polygon3482" />
			<polygon
   class="st179"
   points="674.37,3152.64 734.67,3126.51 794.97,3154.65 734.67,3202.89 "
   id="polygon3484" />
			<g
   id="g3510">
				<g
   id="g3492">
					<polygon
   class="st179"
   points="673.19,3203.17 673.66,3203.37 673.66,3265.19 552.37,3211.25 552.37,3149.42 621.86,3180.34 "
   id="polygon3486" />
					<polygon
   class="st179"
   points="725.21,3180.34 733.92,3176.44 733.92,3238.26 673.66,3265.19 673.66,3203.37 "
   id="polygon3488" />
					<rect
   x="733.91998"
   y="3176.4399"
   class="st179"
   width="0.0099999998"
   height="61.830002"
   id="rect3490" />
				</g>
				<path
   class="st179"
   d="m 733.14,3122.06 -59.97,26.67 v 0.41 l 0.32,0.14 0.16,-0.07 60.27,-26.8 z"
   id="path3494" />
				<path
   class="st179"
   d="m 673.66,3149.62 -0.47,-0.2 0.31,-0.14 -0.32,-0.14 v -0.41 l 59.97,-26.67 -59.48,-26.6 -121.29,53.97 69.49,30.91 51.32,22.83 0.47,0.2 51.55,-23.03 8.7,-3.9 z m -26.65,-37.94 c 0,-4.2 11.72,-7.61 26.18,-7.61 14.46,0 26.2,3.41 26.2,7.61 v 11.39 c 0,4.21 -11.73,7.61 -26.2,7.61 -14.46,0 -26.18,-3.4 -26.18,-7.61 z m -7.8,37.78 c 0,4.19 -11.72,7.6 -26.2,7.6 -14.47,0 -26.18,-3.41 -26.18,-7.6 v -11.4 c 0,-4.19 11.71,-7.6 26.18,-7.6 14.46,0 26.2,3.41 26.2,7.6 z m 60.18,26.6 c 0,4.19 -11.73,7.6 -26.2,7.6 -14.46,0 -26.18,-3.41 -26.18,-7.6 v -11.41 c 0,-4.19 11.72,-7.6 26.18,-7.6 14.46,0 26.2,3.41 26.2,7.6 z"
   id="path3496" />
				<path
   class="st179"
   d="m 699.39,3164.66 c 0,2.27 -3.44,4.31 -8.86,5.7 -4.6,1.19 -10.67,1.91 -17.34,1.91 -6.65,0 -12.72,-0.72 -17.33,-1.91 -5.44,-1.4 -8.85,-3.43 -8.85,-5.7 0,-4.19 11.72,-7.6 26.18,-7.6 14.46,0 26.2,3.41 26.2,7.6 z"
   id="path3498" />
				<path
   class="st179"
   d="m 699.39,3111.68 c 0,2.27 -3.42,4.3 -8.83,5.7 -4.6,1.19 -10.69,1.91 -17.37,1.91 -6.66,0 -12.74,-0.72 -17.36,-1.91 -5.42,-1.4 -8.82,-3.43 -8.82,-5.7 0,-4.2 11.72,-7.61 26.18,-7.61 14.46,0 26.2,3.41 26.2,7.61 z"
   id="path3500" />
				<path
   class="st179"
   d="m 639.21,3138.07 c 0,2.27 -3.44,4.31 -8.85,5.7 -4.63,1.19 -10.69,1.91 -17.35,1.91 -6.66,0 -12.71,-0.72 -17.34,-1.91 -5.43,-1.39 -8.84,-3.43 -8.84,-5.7 0,-4.19 11.71,-7.6 26.18,-7.6 14.46,0 26.2,3.41 26.2,7.6 z"
   id="path3502" />
				<path
   class="st179"
   d="m 699.39,3111.68 v 11.39 c 0,4.21 -11.73,7.61 -26.2,7.61 -14.46,0 -26.18,-3.4 -26.18,-7.61 v -11.39 c 0,2.27 3.41,4.3 8.82,5.7 4.61,1.19 10.69,1.91 17.36,1.91 6.67,0 12.76,-0.72 17.37,-1.91 5.41,-1.4 8.83,-3.43 8.83,-5.7 z"
   id="path3504" />
				<path
   class="st179"
   d="m 699.39,3164.66 v 11.41 c 0,4.19 -11.73,7.6 -26.2,7.6 -14.46,0 -26.18,-3.41 -26.18,-7.6 v -11.41 c 0,2.27 3.42,4.3 8.85,5.7 4.6,1.19 10.67,1.91 17.33,1.91 6.66,0 12.73,-0.72 17.34,-1.91 5.42,-1.39 8.86,-3.43 8.86,-5.7 z"
   id="path3506" />
				<path
   class="st179"
   d="m 639.21,3138.07 v 11.4 c 0,4.19 -11.72,7.6 -26.2,7.6 -14.47,0 -26.18,-3.41 -26.18,-7.6 v -11.4 c 0,2.27 3.42,4.31 8.84,5.7 4.62,1.19 10.68,1.91 17.34,1.91 6.66,0 12.71,-0.72 17.35,-1.91 5.41,-1.39 8.85,-3.43 8.85,-5.7 z"
   id="path3508" />
			</g>
			<polygon
   class="st179"
   points="734.17,3125.5 794.46,3255.14 914.05,3152.64 793.46,3098.37 "
   id="polygon3512" />
			<g
   id="g3532">
				<path
   class="st179"
   d="m 819.58,3162.06 c -0.02,-0.02 -0.03,-0.04 -0.05,-0.06 -2.75,-3.34 -13.09,-5.83 -25.45,-5.83 -14.47,0 -26.19,3.41 -26.19,7.61 0,0.23 0.03,0.45 0.11,0.67 v -0.52 c 0,-4.19 11.72,-7.6 26.2,-7.6 0.7,0 1.41,0.01 2.1,0.03 0.28,0 0.56,0.01 0.83,0.02 0.34,0.01 0.67,0.02 1,0.04 0.22,0 0.44,0.02 0.66,0.03 0.35,0.01 0.69,0.03 1.04,0.06 0.53,0.03 1.06,0.07 1.58,0.11 1.85,0.15 3.61,0.36 5.26,0.63 0.37,0.05 0.74,0.11 1.1,0.18 0.36,0.06 0.72,0.13 1.07,0.2 0.66,0.12 1.31,0.26 1.93,0.41 2.85,0.67 5.21,1.52 6.86,2.49 0.12,0.06 0.24,0.13 0.35,0.21 0.22,0.13 0.42,0.27 0.61,0.41 0.08,0.06 0.16,0.13 0.24,0.19 0.08,0.07 0.17,0.13 0.24,0.2 0.05,0.05 0.1,0.1 0.15,0.14 0.08,0.07 0.14,0.13 0.19,0.19 0.06,0.06 0.11,0.13 0.16,0.19 0.02,0.02 0.03,0.04 0.05,0.06 0.01,0.01 0.02,0.03 0.04,0.04 -0.02,-0.02 -0.05,-0.06 -0.08,-0.1 z m -25.71,-13.13 -59.91,26.77 0.02,0.01 59.91,-26.77 z"
   id="path3514" />
				<path
   class="st179"
   d="m 914.51,3148.37 -59.73,26.69 -120.42,-53.55 -0.38,0.17 60.45,27.01 -0.54,0.24 0.02,0.01 -59.91,26.77 8.72,3.89 51.71,22.98 0.1,0.05 51.55,-23.03 69.16,-30.91 z m -94.13,26.95 c 0,4.19 -11.72,7.6 -26.18,7.6 -14.48,0 -26.2,-3.41 -26.2,-7.6 v -10.87 c -0.08,-0.22 -0.11,-0.44 -0.11,-0.67 0,-4.2 11.72,-7.61 26.19,-7.61 12.35,0 22.69,2.49 25.45,5.83 0.02,0.02 0.03,0.04 0.05,0.06 0.03,0.04 0.06,0.08 0.09,0.12 0.01,0 0.01,0.01 0.01,0.01 l 0.01,0.01 c 0.01,0.01 0.01,0.02 0.02,0.03 0.04,0.03 0.07,0.07 0.08,0.1 h 0.01 c 0.01,0.01 0.01,0.02 0.02,0.03 0.02,0.03 0.04,0.07 0.06,0.1 0.07,0.08 0.12,0.16 0.15,0.24 0.03,0.05 0.06,0.09 0.08,0.13 0.05,0.09 0.09,0.18 0.12,0.28 0.1,0.27 0.15,0.54 0.15,0.81 z"
   id="path3516" />
				<path
   class="st179"
   d="m 820.38,3163.93 v 11.4 c 0,4.19 -11.72,7.6 -26.18,7.6 -14.48,0 -26.2,-3.41 -26.2,-7.6 v -11.4 c 0,0.55 0.2,1.09 0.59,1.61 0.07,0.1 0.15,0.2 0.25,0.29 1.31,1.5 4.15,2.81 8.01,3.8 4.61,1.19 10.68,1.91 17.35,1.91 6.64,0 12.7,-0.72 17.33,-1.91 5.42,-1.39 8.85,-3.44 8.85,-5.7 z"
   id="path3518" />
				<path
   class="st179"
   d="m 819.58,3162.06 c 0,0.01 0.01,0.01 0,0.02 -0.05,-0.06 -0.1,-0.13 -0.16,-0.19 -0.05,-0.06 -0.11,-0.12 -0.19,-0.19 -0.05,-0.04 -0.1,-0.09 -0.15,-0.14 -0.07,-0.07 -0.16,-0.13 -0.24,-0.2 -0.08,-0.06 -0.16,-0.13 -0.24,-0.19 -0.19,-0.14 -0.39,-0.28 -0.61,-0.41 -0.11,-0.08 -0.23,-0.15 -0.35,-0.21 -1.66,-0.97 -4.01,-1.82 -6.86,-2.49 -0.62,-0.15 -1.27,-0.29 -1.93,-0.41 -0.34,-0.07 -0.7,-0.14 -1.07,-0.2 -0.35,-0.07 -0.72,-0.13 -1.1,-0.18 -1.65,-0.27 -3.41,-0.48 -5.26,-0.63 -0.52,-0.04 -1.05,-0.08 -1.58,-0.11 -0.34,-0.03 -0.68,-0.05 -1.04,-0.06 -0.22,-0.01 -0.44,-0.03 -0.66,-0.03 -0.33,-0.02 -0.66,-0.03 -1,-0.04 -0.27,-0.01 -0.55,-0.02 -0.83,-0.02 -0.69,-0.02 -1.4,-0.03 -2.1,-0.03 -14.48,0 -26.2,3.41 -26.2,7.6 0,0.55 0.2,1.09 0.59,1.61 -0.29,-0.35 -0.49,-0.71 -0.59,-1.09 -0.08,-0.22 -0.11,-0.44 -0.11,-0.67 0,-4.2 11.72,-7.61 26.19,-7.61 12.35,0 22.69,2.49 25.45,5.83 0.01,0 0.02,0.02 0.04,0.04 z"
   id="path3520" />
				<path
   class="st179"
   d="m 820.27,3163.77 c 0,2.27 -3.42,4.3 -8.82,5.69 -4.61,1.2 -10.7,1.92 -17.37,1.92 -6.67,0 -12.75,-0.72 -17.36,-1.92 -3.73,-0.95 -6.5,-2.21 -7.88,-3.64 -0.1,-0.09 -0.18,-0.19 -0.25,-0.29 -0.39,-0.52 -0.59,-1.06 -0.59,-1.61 0,-4.19 11.72,-7.6 26.2,-7.6 0.7,0 1.41,0.01 2.1,0.03 0.28,0 0.56,0.01 0.83,0.02 0.34,0.01 0.67,0.02 1,0.04 0.22,0 0.44,0.02 0.66,0.03 0.35,0.01 0.69,0.03 1.04,0.06 0.53,0.03 1.06,0.07 1.58,0.11 1.85,0.15 3.61,0.36 5.26,0.63 0.37,0.05 0.74,0.11 1.1,0.18 0.36,0.06 0.72,0.13 1.07,0.2 0.66,0.13 1.31,0.26 1.93,0.41 2.85,0.67 5.21,1.52 6.86,2.49 0.12,0.06 0.24,0.13 0.35,0.21 0.22,0.13 0.42,0.27 0.61,0.41 0.08,0.06 0.16,0.13 0.24,0.19 0.08,0.07 0.17,0.13 0.24,0.2 0.05,0.05 0.1,0.1 0.15,0.14 0.08,0.07 0.14,0.13 0.19,0.19 0.06,0.06 0.11,0.13 0.16,0.19 0.02,0.02 0.03,0.04 0.05,0.06 0.01,0.01 0.02,0.03 0.04,0.04 0.01,0 0.01,0.01 0.01,0.01 l 0.01,0.01 c 0.01,0.01 0.01,0.02 0.02,0.03 0.04,0.03 0.07,0.07 0.08,0.1 h 0.01 c 0.01,0.01 0.01,0.02 0.02,0.03 0.02,0.03 0.04,0.07 0.06,0.1 0.27,0.46 0.4,0.89 0.4,1.34 z"
   id="path3522" />
				<path
   class="st179"
   d="m 819.67,3162.18 c -0.02,-0.01 -0.03,-0.03 -0.04,-0.04 -0.02,-0.02 -0.03,-0.04 -0.05,-0.06 -0.05,-0.06 -0.1,-0.13 -0.16,-0.19 l 0.11,0.11 c 0.02,0.02 0.03,0.04 0.05,0.06 0.03,0.04 0.06,0.08 0.09,0.12 z"
   id="path3524" />
				<path
   class="st179"
   d="m 820.38,3163.93 c 0,2.26 -3.44,4.31 -8.85,5.7 -4.62,1.19 -10.68,1.91 -17.33,1.91 -6.66,0 -12.73,-0.72 -17.35,-1.91 -3.86,-0.98 -6.7,-2.3 -8.01,-3.8 1.38,1.43 4.15,2.68 7.88,3.64 4.6,1.2 10.69,1.92 17.36,1.92 6.67,0 12.75,-0.72 17.37,-1.92 5.41,-1.39 8.82,-3.42 8.82,-5.69 0,-0.45 -0.13,-0.88 -0.39,-1.32 0.07,0.08 0.12,0.16 0.15,0.24 0.03,0.05 0.06,0.09 0.08,0.13 0.05,0.09 0.09,0.18 0.12,0.28 0.1,0.27 0.15,0.54 0.15,0.82 z"
   id="path3526" />
				<polygon
   class="st179"
   points="742.71,3179.6 794.42,3202.59 794.52,3202.64 794.52,3264.45 733.97,3237.53 733.97,3175.7 733.99,3175.71 "
   id="polygon3528" />
				<polygon
   class="st179"
   points="915.23,3210.51 794.52,3264.45 794.52,3202.64 846.07,3179.6 915.23,3148.69 "
   id="polygon3530" />
			</g>
			<g
   id="g3544">
				<line
   class="st179"
   x1="759.69"
   y1="3148.98"
   x2="759.69"
   y2="3148.8401"
   id="line3534" />
				<path
   class="st179"
   d="m 793.87,3148.93 -60.43,-27 -0.3,0.13 -59.97,26.67 v 0.41 l 0.32,0.14 59.94,26.67 h 0.01 l 0.52,-0.23 0.02,-0.01 59.91,-26.77 z m -60.36,7.65 c -14.47,0 -26.2,-3.41 -26.2,-7.61 v -11.39 c 0,-4.19 11.73,-7.6 26.19,-7.6 14.46,0 26.19,3.41 26.19,7.6 v 11.26 c 0.02,0.05 0.02,0.09 0.02,0.13 0,4.2 -11.74,7.61 -26.2,7.61 z"
   id="path3536" />
				<path
   class="st179"
   d="m 759.69,3137.58 c 0,2.26 -3.42,4.3 -8.84,5.69 -4.62,1.2 -10.69,1.91 -17.35,1.91 -6.64,0 -12.7,-0.71 -17.34,-1.9 -5.42,-1.39 -8.85,-3.44 -8.85,-5.7 0,-4.19 11.73,-7.6 26.19,-7.6 14.46,0 26.19,3.41 26.19,7.6 z"
   id="path3538" />
				<path
   class="st179"
   d="m 759.71,3148.97 c 0,4.2 -11.75,7.61 -26.2,7.61 -14.47,0 -26.2,-3.41 -26.2,-7.61 v -11.39 c 0,2.26 3.44,4.31 8.85,5.7 4.63,1.19 10.69,1.9 17.34,1.9 6.65,0 12.72,-0.71 17.35,-1.91 5.43,-1.39 8.84,-3.43 8.84,-5.69 v 11.26 c 0.02,0.05 0.02,0.09 0.02,0.13 z"
   id="path3540" />
				<rect
   x="733.42999"
   y="3175.95"
   class="st179"
   width="0.0099999998"
   height="61.830002"
   id="rect3542" />
			</g>
			<polygon
   class="st179"
   points="914.05,3036.06 853.76,3165.7 734.17,3063.2 854.76,3008.93 "
   id="polygon3546" />
			<g
   id="g3576">
				<polygon
   class="st179"
   points="734.35,3121.51 733.48,3121.12 733.48,3059.3 802.98,3090.21 854.3,3113.04 854.31,3113.04 854.51,3113.13 854.51,3113.22 854.61,3113.17 854.62,3113.17 854.77,3113.24 854.77,3175.06 "
   id="polygon3548" />
				<polygon
   class="st179"
   points="854.51,3113.13 854.61,3113.17 854.51,3113.22 "
   id="polygon3550" />
				<polygon
   class="st179"
   points="914.51,3148.37 854.77,3175.06 854.77,3113.24 906.33,3090.21 915.03,3086.31 915.03,3148.14 "
   id="polygon3552" />
				<rect
   x="915.03003"
   y="3086.3101"
   class="st179"
   width="0.0099999998"
   height="61.830002"
   id="rect3554" />
				<path
   class="st179"
   d="m 880.5,3021.55 v 11.38 c 0,0.1 -0.01,0.2 -0.02,0.3 0,0.01 0,0.01 0,0.02 0,0.01 0,0.02 -0.01,0.03 0,0.08 -0.02,0.16 -0.05,0.24 -0.02,0.1 -0.05,0.19 -0.09,0.28 -0.07,0.19 -0.17,0.38 -0.3,0.56 -0.05,0.09 -0.11,0.18 -0.19,0.26 0,0.01 -0.01,0.03 -0.02,0.04 -0.02,0.02 -0.04,0.05 -0.06,0.07 -0.05,0.06 -0.1,0.12 -0.16,0.18 -0.09,0.09 -0.18,0.18 -0.27,0.27 -0.13,0.12 -0.27,0.24 -0.41,0.36 -0.29,0.23 -0.62,0.45 -0.99,0.68 -0.15,0.09 -0.31,0.18 -0.48,0.27 -0.16,0.09 -0.34,0.18 -0.52,0.26 -0.14,0.07 -0.29,0.14 -0.43,0.21 -0.22,0.1 -0.46,0.21 -0.7,0.31 -0.24,0.1 -0.48,0.19 -0.74,0.29 -0.34,0.13 -0.69,0.25 -1.07,0.37 -0.18,0.07 -0.37,0.13 -0.56,0.18 -0.19,0.06 -0.38,0.12 -0.58,0.18 -0.29,0.09 -0.6,0.17 -0.9,0.25 -0.13,0.03 -0.27,0.06 -0.4,0.1 -0.33,0.08 -0.67,0.16 -1.01,0.24 -0.95,0.22 -1.97,0.42 -3.04,0.6 -0.46,0.08 -0.94,0.15 -1.43,0.22 -0.5,0.08 -1.02,0.15 -1.54,0.21 -3.13,0.38 -6.57,0.59 -10.19,0.59 h -0.01 c -0.59,0 -1.18,-0.01 -1.76,-0.02 -0.54,-0.01 -1.1,-0.02 -1.63,-0.05 -0.61,-0.02 -1.21,-0.04 -1.8,-0.08 -0.16,-0.01 -0.31,-0.02 -0.47,-0.03 -0.15,-0.01 -0.3,-0.02 -0.46,-0.03 -0.1,-0.01 -0.21,-0.01 -0.31,-0.02 -0.48,-0.04 -0.95,-0.07 -1.43,-0.12 -0.39,-0.03 -0.77,-0.07 -1.15,-0.11 -1.04,-0.1 -2.04,-0.23 -3,-0.38 -0.32,-0.05 -0.64,-0.1 -0.95,-0.15 -0.42,-0.07 -0.84,-0.14 -1.25,-0.22 -0.27,-0.05 -0.53,-0.1 -0.79,-0.16 -0.27,-0.05 -0.52,-0.1 -0.78,-0.16 -0.44,-0.1 -0.87,-0.2 -1.29,-0.3 -0.21,-0.05 -0.42,-0.1 -0.62,-0.16 -0.2,-0.05 -0.4,-0.11 -0.59,-0.16 -0.78,-0.22 -1.53,-0.46 -2.21,-0.71 -0.34,-0.12 -0.67,-0.25 -0.98,-0.38 -0.31,-0.13 -0.61,-0.26 -0.9,-0.4 -0.43,-0.21 -0.83,-0.42 -1.21,-0.64 -0.37,-0.23 -0.7,-0.45 -0.99,-0.68 -0.14,-0.12 -0.28,-0.24 -0.41,-0.36 -0.09,-0.09 -0.18,-0.18 -0.27,-0.27 -0.06,-0.06 -0.11,-0.12 -0.16,-0.18 -0.02,-0.02 -0.04,-0.05 -0.06,-0.07 -0.01,-0.01 -0.02,-0.03 -0.02,-0.04 -0.08,-0.08 -0.14,-0.17 -0.19,-0.26 -0.13,-0.18 -0.23,-0.37 -0.3,-0.56 -0.04,-0.09 -0.07,-0.18 -0.09,-0.28 -0.03,-0.08 -0.04,-0.16 -0.05,-0.24 -0.01,-0.01 -0.01,-0.02 -0.01,-0.03 0,-0.01 0,-0.01 0,-0.02 -0.01,-0.1 -0.02,-0.2 -0.02,-0.3 v -11.38 c 0,2.26 3.41,4.3 8.82,5.69 4.61,1.2 10.69,1.92 17.36,1.92 6.67,0 12.76,-0.72 17.37,-1.92 5.35,-1.39 8.77,-3.43 8.77,-5.69 z"
   id="path3556" />
				<path
   class="st179"
   d="m 820.32,3047.94 v 11.39 c 0,4.2 -11.72,7.61 -26.19,7.61 -14.47,0 -26.19,-3.41 -26.19,-7.61 v -11.39 c 0,2.26 3.42,4.31 8.84,5.7 4.62,1.19 10.68,1.9 17.34,1.9 6.64,0 12.71,-0.71 17.35,-1.9 5.42,-1.39 8.85,-3.44 8.85,-5.7 z"
   id="path3558" />
				<polygon
   class="st179"
   points="906.96,3036.11 911.66,3033.77 914.81,3032.38 914.81,3086.09 914.68,3086.15 855.41,3059.78 855.42,3059.15 "
   id="polygon3560" />
				<polygon
   class="st179"
   points="854.51,3113.13 854.61,3113.17 854.51,3113.22 "
   id="polygon3562" />
				<polygon
   class="st179"
   points="911.66,3033.77 914.81,3032.21 914.81,3032.38 "
   id="polygon3564" />
				<path
   class="st179"
   d="m 914.68,3086.15 -60.06,27.02 0.15,0.07 51.55,-23.04 8.7,-3.9 z m 0.13,-53.94 -3.15,1.56 3.15,-1.4 z m -69.51,7.86 c -1.38,-0.15 -2.7,-0.33 -3.96,-0.53 1.25,0.21 2.58,0.39 3.96,0.53 z"
   id="path3566" />
				<path
   class="st179"
   d="m 915.04,3032.28 -60.27,-26.94 -121.29,53.96 69.49,30.91 51.32,22.84 h 0.01 l 0.2,0.09 0.1,0.04 h 0.01 l 60.06,-27.02 -59.27,-26.37 -0.63,-0.28 -0.46,-0.21 0.46,-0.2 56.89,-25.31 3.15,-1.56 v 0.16 z m -94.72,27.05 c 0,4.2 -11.72,7.61 -26.19,7.61 -14.47,0 -26.19,-3.41 -26.19,-7.61 v -11.43 c 0,-0.09 0.01,-0.19 0.02,-0.28 0.01,-0.03 0.01,-0.06 0.02,-0.09 0,-0.02 0.01,-0.05 0.02,-0.07 0.01,-0.07 0.03,-0.14 0.05,-0.22 0.01,-0.03 0.03,-0.07 0.04,-0.11 0,-0.01 0,-0.01 0.01,-0.02 0,-0.01 0.01,-0.03 0.02,-0.04 0.02,-0.09 0.06,-0.19 0.12,-0.28 0.06,-0.12 0.13,-0.25 0.23,-0.37 0.08,-0.12 0.18,-0.25 0.29,-0.37 0.08,-0.1 0.17,-0.19 0.27,-0.28 0.02,-0.02 0.05,-0.04 0.07,-0.06 0.02,-0.03 0.03,-0.04 0.04,-0.04 0.02,-0.02 0.04,-0.04 0.06,-0.06 0.08,-0.07 0.16,-0.15 0.25,-0.21 0.02,-0.02 0.03,-0.03 0.05,-0.04 0.17,-0.14 0.34,-0.27 0.53,-0.39 0.15,-0.1 0.3,-0.2 0.47,-0.3 0.17,-0.1 0.34,-0.2 0.53,-0.3 0.04,-0.02 0.08,-0.04 0.12,-0.07 0.17,-0.09 0.36,-0.19 0.56,-0.28 0.21,-0.1 0.42,-0.2 0.65,-0.29 0.24,-0.11 0.49,-0.21 0.75,-0.31 0.25,-0.1 0.51,-0.19 0.77,-0.28 0.27,-0.1 0.54,-0.19 0.82,-0.28 1.13,-0.36 2.37,-0.68 3.72,-0.97 0.33,-0.08 0.67,-0.15 1.03,-0.21 0.35,-0.07 0.7,-0.14 1.07,-0.2 0.67,-0.12 1.37,-0.23 2.08,-0.33 0.1,-0.02 0.2,-0.03 0.3,-0.04 0.04,-0.01 0.07,-0.01 0.11,-0.01 0.51,-0.08 1.03,-0.14 1.55,-0.2 0.13,-0.01 0.27,-0.03 0.4,-0.04 0.35,-0.04 0.71,-0.08 1.08,-0.11 0.26,-0.03 0.53,-0.05 0.8,-0.07 0.46,-0.04 0.93,-0.08 1.42,-0.11 0.3,-0.02 0.6,-0.04 0.91,-0.06 0.73,-0.04 1.49,-0.07 2.24,-0.09 0.24,-0.01 0.48,-0.01 0.73,-0.02 0.64,-0.01 1.3,-0.02 1.95,-0.02 h 0.01 c 0.45,0 0.89,0 1.34,0.01 0.45,0.01 0.88,0.02 1.33,0.03 0.44,0.01 0.88,0.03 1.32,0.05 0.86,0.03 1.72,0.09 2.55,0.15 0.42,0.03 0.83,0.06 1.25,0.1 0.41,0.04 0.81,0.08 1.22,0.12 0.8,0.08 1.59,0.18 2.35,0.29 0.38,0.05 0.75,0.11 1.13,0.17 0.37,0.05 0.73,0.11 1.1,0.18 0.72,0.12 1.42,0.25 2.09,0.41 0.08,0.01 0.17,0.03 0.25,0.05 0.25,0.05 0.5,0.11 0.74,0.17 0.64,0.15 1.27,0.31 1.86,0.49 0.29,0.08 0.58,0.17 0.86,0.26 0.56,0.17 1.11,0.36 1.61,0.56 0.5,0.19 0.97,0.39 1.41,0.6 0.44,0.21 0.84,0.42 1.21,0.64 0.01,0 0.01,0.01 0.01,0.01 0.37,0.21 0.7,0.44 0.99,0.67 0.17,0.13 0.32,0.27 0.46,0.4 0.13,0.13 0.25,0.25 0.35,0.38 0.08,0.08 0.15,0.17 0.21,0.26 0.03,0.03 0.05,0.06 0.07,0.1 0.06,0.08 0.12,0.17 0.16,0.26 0.02,0.03 0.04,0.05 0.04,0.08 0.01,0.01 0.01,0.02 0.02,0.03 0.05,0.08 0.08,0.17 0.11,0.25 0.02,0.03 0.03,0.07 0.04,0.11 0.02,0.05 0.04,0.11 0.05,0.17 0.01,0.02 0.01,0.05 0.01,0.07 0.02,0.05 0.03,0.09 0.03,0.14 0.02,0.11 0.03,0.23 0.03,0.34 v 11.4 z m 34.97,7.62 c 14.01,0.14 25.21,3.49 25.21,7.59 v 11.4 c 0,4.14 -11.43,7.52 -25.66,7.6 h -0.53 c -14.47,0 -26.19,-3.41 -26.19,-7.6 v -11.4 c 0,-4.19 11.72,-7.6 26.19,-7.6 0.33,0 0.65,0 0.98,0.01 z m 25.21,-34.02 c 0,0.1 -0.01,0.2 -0.02,0.3 0,0.01 0,0.01 0,0.02 0,0.01 0,0.02 -0.01,0.03 0,0.08 -0.02,0.16 -0.05,0.24 -0.02,0.1 -0.05,0.19 -0.09,0.28 -0.07,0.19 -0.17,0.38 -0.3,0.56 -0.05,0.09 -0.11,0.18 -0.19,0.26 0,0.01 -0.01,0.03 -0.02,0.04 -0.02,0.02 -0.04,0.05 -0.06,0.07 -0.05,0.06 -0.1,0.12 -0.16,0.18 -0.09,0.09 -0.18,0.18 -0.27,0.27 -0.12,0.12 -0.26,0.24 -0.41,0.36 -0.29,0.23 -0.62,0.45 -0.99,0.68 -0.15,0.09 -0.31,0.18 -0.48,0.27 -0.16,0.09 -0.34,0.18 -0.52,0.26 -0.14,0.07 -0.29,0.14 -0.43,0.21 -0.22,0.1 -0.46,0.21 -0.7,0.31 -0.24,0.1 -0.48,0.19 -0.74,0.29 -0.34,0.13 -0.69,0.25 -1.07,0.37 -0.18,0.07 -0.37,0.13 -0.56,0.18 -0.19,0.06 -0.38,0.12 -0.58,0.18 -0.29,0.09 -0.6,0.17 -0.9,0.25 -0.13,0.03 -0.27,0.06 -0.4,0.1 -0.33,0.09 -0.66,0.17 -1.01,0.24 -0.95,0.22 -1.97,0.42 -3.04,0.6 -0.46,0.08 -0.94,0.15 -1.43,0.22 -0.5,0.08 -1.02,0.15 -1.54,0.21 -3.13,0.38 -6.57,0.59 -10.19,0.59 h -0.01 c -0.59,0 -1.18,-0.01 -1.76,-0.02 -0.54,-0.01 -1.1,-0.02 -1.63,-0.05 -0.61,-0.02 -1.21,-0.04 -1.8,-0.08 -0.16,-0.01 -0.31,-0.02 -0.47,-0.03 -0.15,-0.01 -0.3,-0.02 -0.46,-0.03 -0.1,-0.01 -0.21,-0.01 -0.31,-0.02 -0.48,-0.04 -0.95,-0.07 -1.43,-0.12 -0.39,-0.03 -0.77,-0.07 -1.15,-0.11 -1.04,-0.1 -2.04,-0.23 -3,-0.38 -0.32,-0.05 -0.64,-0.1 -0.95,-0.15 -0.42,-0.07 -0.84,-0.14 -1.25,-0.22 -0.27,-0.05 -0.53,-0.1 -0.79,-0.16 -0.27,-0.05 -0.52,-0.1 -0.78,-0.16 -0.44,-0.09 -0.87,-0.19 -1.29,-0.3 -0.21,-0.05 -0.42,-0.1 -0.62,-0.16 -0.2,-0.05 -0.4,-0.11 -0.59,-0.16 -0.78,-0.22 -1.53,-0.46 -2.21,-0.71 -0.34,-0.12 -0.67,-0.25 -0.98,-0.38 -0.31,-0.13 -0.61,-0.26 -0.9,-0.4 -0.43,-0.2 -0.83,-0.42 -1.21,-0.64 -0.37,-0.23 -0.7,-0.45 -0.99,-0.68 -0.15,-0.12 -0.29,-0.24 -0.41,-0.36 -0.09,-0.09 -0.18,-0.18 -0.27,-0.27 -0.06,-0.06 -0.11,-0.12 -0.16,-0.18 -0.02,-0.02 -0.04,-0.05 -0.06,-0.07 -0.01,-0.01 -0.02,-0.03 -0.02,-0.04 -0.08,-0.08 -0.14,-0.17 -0.19,-0.26 -0.13,-0.18 -0.23,-0.37 -0.3,-0.56 -0.04,-0.09 -0.07,-0.18 -0.09,-0.28 -0.03,-0.08 -0.04,-0.16 -0.05,-0.24 -0.01,-0.01 -0.01,-0.02 -0.01,-0.03 0,-0.01 0,-0.01 0,-0.02 -0.01,-0.1 -0.02,-0.2 -0.02,-0.3 v -11.38 c 0,-4.2 11.72,-7.61 26.19,-7.61 14.46,0 26.19,3.41 26.19,7.61 v 11.38 z"
   id="path3568" />
				<path
   class="st179"
   d="m 880.5,3021.55 c 0,2.26 -3.42,4.3 -8.83,5.69 -4.6,1.2 -10.69,1.92 -17.37,1.92 -6.66,0 -12.74,-0.72 -17.36,-1.92 -5.42,-1.39 -8.82,-3.43 -8.82,-5.69 0,-4.2 11.72,-7.61 26.19,-7.61 14.46,0 26.19,3.41 26.19,7.61 z"
   id="path3570" />
				<path
   class="st179"
   d="m 820.32,3047.93 v 0.01 c 0,2.26 -3.44,4.31 -8.85,5.7 -4.63,1.19 -10.7,1.9 -17.35,1.9 -6.65,0 -12.71,-0.71 -17.34,-1.9 -5.43,-1.39 -8.84,-3.44 -8.84,-5.7 v -0.04 c 0,-0.09 0.01,-0.19 0.02,-0.28 0.01,-0.03 0.01,-0.06 0.02,-0.09 0,-0.02 0.01,-0.05 0.02,-0.07 0.01,-0.07 0.03,-0.14 0.05,-0.22 0.01,-0.03 0.03,-0.07 0.04,-0.11 0,-0.01 0,-0.01 0.01,-0.02 0,-0.01 0.01,-0.03 0.02,-0.04 0.03,-0.1 0.07,-0.19 0.12,-0.28 0.06,-0.12 0.13,-0.25 0.23,-0.37 0.08,-0.12 0.18,-0.25 0.29,-0.37 0.08,-0.1 0.17,-0.19 0.27,-0.28 0.02,-0.02 0.05,-0.04 0.07,-0.06 0.02,-0.03 0.03,-0.04 0.04,-0.04 0.02,-0.02 0.04,-0.04 0.06,-0.06 0.08,-0.07 0.16,-0.14 0.25,-0.21 0.02,-0.02 0.03,-0.03 0.05,-0.04 0.17,-0.14 0.34,-0.27 0.53,-0.39 0.15,-0.1 0.3,-0.2 0.47,-0.3 0.17,-0.1 0.34,-0.2 0.53,-0.3 0.04,-0.02 0.08,-0.04 0.12,-0.07 0.17,-0.09 0.36,-0.19 0.56,-0.28 0.21,-0.1 0.42,-0.2 0.65,-0.29 0.24,-0.11 0.49,-0.21 0.75,-0.31 0.25,-0.1 0.51,-0.19 0.77,-0.28 0.27,-0.1 0.54,-0.19 0.82,-0.28 1.13,-0.36 2.37,-0.68 3.72,-0.97 0.33,-0.08 0.67,-0.15 1.03,-0.21 0.35,-0.07 0.7,-0.14 1.07,-0.2 0.67,-0.12 1.37,-0.23 2.08,-0.33 0.1,-0.02 0.2,-0.03 0.3,-0.04 0.04,-0.01 0.07,-0.01 0.11,-0.01 0.51,-0.08 1.03,-0.14 1.55,-0.2 0.13,-0.01 0.27,-0.03 0.4,-0.04 0.35,-0.04 0.71,-0.08 1.08,-0.11 0.26,-0.03 0.53,-0.05 0.8,-0.07 0.46,-0.04 0.93,-0.08 1.42,-0.11 0.3,-0.02 0.6,-0.04 0.91,-0.06 0.73,-0.04 1.49,-0.07 2.24,-0.09 0.24,-0.01 0.48,-0.01 0.73,-0.02 0.64,-0.01 1.3,-0.02 1.95,-0.02 h 0.01 c 0.45,0 0.89,0 1.34,0.01 0.45,0.01 0.88,0.02 1.33,0.03 0.44,0.01 0.88,0.03 1.32,0.05 0.86,0.03 1.72,0.09 2.55,0.15 0.42,0.03 0.83,0.06 1.25,0.1 0.41,0.04 0.81,0.08 1.22,0.12 0.8,0.09 1.59,0.18 2.35,0.29 0.38,0.05 0.75,0.11 1.13,0.17 0.37,0.05 0.73,0.11 1.1,0.18 0.72,0.12 1.42,0.25 2.09,0.41 0.08,0.01 0.17,0.03 0.25,0.05 0.25,0.05 0.5,0.11 0.74,0.17 0.64,0.16 1.27,0.32 1.86,0.49 0.29,0.08 0.58,0.17 0.86,0.26 0.56,0.18 1.11,0.37 1.61,0.56 0.5,0.2 0.97,0.4 1.41,0.6 0.44,0.21 0.84,0.42 1.21,0.64 0.01,0 0.01,0.01 0.01,0.01 0.37,0.21 0.7,0.44 0.99,0.67 0.17,0.13 0.32,0.27 0.46,0.4 0.13,0.13 0.25,0.25 0.35,0.38 0.08,0.08 0.15,0.17 0.21,0.26 0.03,0.03 0.05,0.06 0.07,0.1 0.06,0.08 0.11,0.17 0.16,0.26 0.02,0.03 0.04,0.05 0.04,0.08 0.01,0.01 0.01,0.02 0.02,0.03 0.04,0.08 0.08,0.16 0.11,0.25 0.02,0.03 0.03,0.07 0.04,0.11 0.02,0.05 0.04,0.11 0.05,0.17 0.01,0.02 0.01,0.05 0.01,0.07 0.02,0.05 0.03,0.09 0.03,0.14 0.04,0.11 0.05,0.23 0.05,0.34 z"
   id="path3572" />
				<path
   class="st179"
   d="m 880.5,3074.53 c 0,2.26 -3.44,4.31 -8.85,5.69 -4.44,1.16 -10.23,1.86 -16.61,1.9 -0.24,0.01 -0.48,0.01 -0.72,0.01 -6.65,0 -12.73,-0.71 -17.34,-1.9 -5.44,-1.4 -8.85,-3.44 -8.85,-5.7 0,-4.19 11.72,-7.6 26.19,-7.6 0.33,0 0.65,0 0.97,0.01 14,0.15 25.21,3.49 25.21,7.59 z"
   id="path3574" />
			</g>
		</g>
		<g
   id="g3604">
			<g
   id="g3592">
				<line
   class="st179"
   x1="745.67999"
   y1="2886.3301"
   x2="745.67999"
   y2="2886.1799"
   id="line3580" />
				<path
   class="st179"
   d="m 732.14,2864.95 46.71,21.8 1.04,-0.46 z m -72.97,21.13 v 0.4 l 3.53,1.57 -2.76,-2.31 z"
   id="path3582" />
				<path
   class="st179"
   d="m 732.14,2864.95 -0.04,-0.02 -12.66,-5.66 -59.5,26.47 2.76,2.31 0.01,0.01 56.72,25.23 h 0.01 l 59.41,-26.55 z m -12.63,28.97 c -14.47,0 -26.2,-3.4 -26.2,-7.6 v -11.4 c 0,-4.19 11.73,-7.6 26.19,-7.6 14.46,0 26.19,3.41 26.19,7.6 v 11.26 c 0.01,0.05 0.01,0.09 0.01,0.14 -0.01,4.21 -11.74,7.6 -26.19,7.6 z"
   id="path3584" />
				<path
   class="st179"
   d="m 745.68,2874.93 c 0,2.27 -3.42,4.3 -8.84,5.69 -4.62,1.2 -10.69,1.92 -17.35,1.92 -6.64,0 -12.7,-0.72 -17.34,-1.91 -5.42,-1.39 -8.85,-3.43 -8.85,-5.7 0,-4.19 11.73,-7.6 26.19,-7.6 14.47,0 26.19,3.41 26.19,7.6 z"
   id="path3586" />
				<path
   class="st179"
   d="m 745.69,2886.32 c 0,4.2 -11.74,7.6 -26.19,7.6 -14.47,0 -26.2,-3.4 -26.2,-7.6 v -11.4 c 0,2.27 3.44,4.31 8.85,5.7 4.63,1.19 10.69,1.91 17.34,1.91 6.65,0 12.72,-0.72 17.35,-1.92 5.43,-1.39 8.84,-3.42 8.84,-5.69 v 11.26 c 0.01,0.05 0.01,0.09 0.01,0.14 z"
   id="path3588" />
				<rect
   x="719.42999"
   y="2913.3"
   class="st179"
   width="0.0099999998"
   height="61.830002"
   id="rect3590" />
			</g>
			<polygon
   class="st179"
   points="719.42,2935.32 719.43,2935.33 719.43,2975.12 719.44,2975.12 719.44,2913.97 770.97,2890.94 779.57,2887.09 779.67,2887.13 779.67,2948.86 719.42,2975.8 "
   id="polygon3594" />
			<polygon
   class="st179"
   points="719.42,2913.98 719.43,2913.98 719.43,2935.33 719.42,2935.32 "
   id="polygon3596" />
			<polygon
   class="st179"
   points="779.57,2887.09 779.67,2887.04 779.67,2887.13 "
   id="polygon3598" />
			<polygon
   class="st179"
   points="719.43,2913.98 719.44,2913.97 719.44,2975.12 719.43,2975.12 "
   id="polygon3600" />
			<polygon
   class="st179"
   points="718.89,2913.9 718.99,2913.94 718.99,2975.77 658.44,2948.83 658.44,2887.01 667.19,2890.91 "
   id="polygon3602" />
		</g>
		<g
   id="g3644">
			<path
   class="st179"
   d="m 575.66,3025.7 c 0.28,0 0.56,0 0.83,-0.01 v 0.15 c -0.23,0.01 -0.47,0.01 -0.71,0.01 -6.65,0 -12.72,-0.71 -17.34,-1.9 -4.08,-1.05 -7.01,-2.45 -8.23,-4.06 1.28,1.54 4.15,2.89 8.09,3.9 4.61,1.2 10.7,1.91 17.36,1.91 z"
   id="path3606" />
			<polygon
   class="st179"
   points="515.94,2975.77 516,2975.8 515.94,2975.83 "
   id="polygon3608" />
			<polygon
   class="st179"
   points="515.94,2976.17 576,3003.01 515.94,3029.85 "
   id="polygon3610" />
			<polygon
   class="st179"
   points="576,3056.92 576.1,3056.97 576.49,3056.8 576.49,3064.52 576.1,3064.35 515.94,3037.59 515.94,3030.2 524.29,3033.92 "
   id="polygon3612" />
			<path
   class="st179"
   d="m 576.49,3010.51 v 0.16 c -0.23,-0.01 -0.47,-0.01 -0.71,-0.01 -14.47,0 -26.19,3.41 -26.19,7.59 0,0.55 0.2,1.09 0.59,1.6 -0.29,-0.35 -0.49,-0.71 -0.59,-1.08 -0.08,-0.22 -0.11,-0.44 -0.11,-0.66 0,-4.2 11.72,-7.61 26.18,-7.61 0.28,0 0.56,0 0.83,0.01 z"
   id="path3614" />
			<g
   id="g3642">
				<path
   class="st179"
   d="m 576.49,3010.51 c -0.27,-0.01 -0.55,-0.01 -0.83,-0.01 -14.46,0 -26.18,3.41 -26.18,7.61 0,0.22 0.03,0.44 0.11,0.66 v -0.52 c 0,-4.18 11.72,-7.59 26.19,-7.59 0.24,0 0.48,0 0.71,0.01 11.89,0.09 21.8,2.48 24.65,5.69 -2.65,-3.29 -12.62,-5.75 -24.65,-5.85 z m -60.55,19.69 v -0.34 l -0.39,0.17 z m 0,-54.03 v -0.34 l -0.39,0.17 z"
   id="path3616" />
				<path
   class="st179"
   d="m 576.1,2949.05 -60.1,26.75 -0.06,0.03 v 0.34 l 60.06,26.84 -60.06,26.84 v 0.34 l 8.35,3.73 51.71,22.99 0.1,0.05 0.39,-0.17 15.25,-6.81 35.92,-16.06 69.16,-30.91 z m 25.87,80.6 c 0,4.12 -11.34,7.49 -25.48,7.59 -0.23,0.01 -0.47,0.01 -0.71,0.01 -14.47,0 -26.19,-3.41 -26.19,-7.6 v -10.88 c -0.08,-0.22 -0.11,-0.44 -0.11,-0.66 0,-4.2 11.72,-7.61 26.18,-7.61 0.28,0 0.56,0 0.83,0.01 12.03,0.1 22,2.56 24.65,5.85 0.07,0.08 0.14,0.16 0.19,0.24 0.42,0.53 0.63,1.09 0.63,1.65 v 11.4 z m 0.64,-52.99 c 0,0.1 -0.01,0.21 -0.02,0.31 -0.01,0.09 -0.03,0.18 -0.06,0.27 -0.02,0.09 -0.05,0.19 -0.09,0.28 -0.07,0.19 -0.17,0.38 -0.3,0.56 -0.05,0.09 -0.11,0.18 -0.19,0.26 0,0.02 -0.01,0.03 -0.02,0.04 -0.07,0.08 -0.14,0.17 -0.22,0.25 -0.08,0.09 -0.17,0.18 -0.27,0.27 -0.12,0.12 -0.26,0.24 -0.41,0.36 -0.29,0.23 -0.62,0.46 -0.99,0.68 -0.37,0.22 -0.77,0.44 -1.21,0.64 -0.29,0.14 -0.59,0.27 -0.9,0.4 -0.31,0.13 -0.64,0.26 -0.98,0.38 -0.68,0.25 -1.42,0.49 -2.21,0.71 -0.39,0.11 -0.8,0.22 -1.22,0.32 -0.41,0.11 -0.84,0.21 -1.29,0.3 -2.05,0.45 -4.33,0.81 -6.79,1.08 -0.4,0.05 -0.8,0.09 -1.22,0.12 -1.42,0.13 -2.89,0.22 -4.41,0.27 -0.53,0.03 -1.07,0.04 -1.61,0.05 -0.58,0.01 -1.18,0.02 -1.77,0.02 -0.59,0 -1.19,-0.01 -1.77,-0.02 -0.54,-0.01 -1.08,-0.02 -1.61,-0.05 -1.54,-0.05 -3.03,-0.15 -4.48,-0.28 -0.39,-0.03 -0.77,-0.07 -1.15,-0.11 -2.46,-0.26 -4.74,-0.62 -6.79,-1.08 -0.44,-0.09 -0.86,-0.19 -1.28,-0.3 -0.21,-0.04 -0.42,-0.1 -0.62,-0.16 -0.2,-0.05 -0.4,-0.1 -0.59,-0.16 -0.2,-0.05 -0.39,-0.11 -0.58,-0.17 -0.57,-0.17 -1.12,-0.35 -1.63,-0.54 -0.34,-0.12 -0.67,-0.25 -0.99,-0.38 -0.31,-0.13 -0.61,-0.26 -0.9,-0.4 -0.43,-0.2 -0.83,-0.42 -1.21,-0.64 -0.37,-0.22 -0.7,-0.45 -0.99,-0.68 -0.15,-0.12 -0.29,-0.24 -0.41,-0.36 -0.1,-0.09 -0.19,-0.18 -0.27,-0.27 -0.08,-0.08 -0.15,-0.17 -0.22,-0.25 -0.01,-0.01 -0.02,-0.02 -0.02,-0.04 -0.08,-0.08 -0.14,-0.17 -0.19,-0.26 -0.13,-0.18 -0.23,-0.37 -0.3,-0.56 -0.04,-0.09 -0.07,-0.19 -0.09,-0.28 -0.03,-0.09 -0.05,-0.18 -0.06,-0.27 -0.01,-0.1 -0.02,-0.21 -0.02,-0.31 v -11.4 c 0,-4.19 11.72,-7.6 26.19,-7.6 14.46,0 26.19,3.41 26.19,7.6 v 11.4 z m 33.85,34 c -14.46,0 -26.19,-3.41 -26.19,-7.61 v -11.39 c 0,-0.1 0.01,-0.21 0.02,-0.31 0.01,-0.09 0.03,-0.18 0.06,-0.27 0.02,-0.09 0.05,-0.17 0.08,-0.26 0.1,-0.25 0.23,-0.5 0.42,-0.74 0.06,-0.09 0.12,-0.17 0.2,-0.26 0.22,-0.26 0.49,-0.51 0.8,-0.76 0.15,-0.12 0.3,-0.24 0.47,-0.34 0.47,-0.33 1.02,-0.65 1.64,-0.94 0.03,-0.01 0.06,-0.02 0.09,-0.04 0.46,-0.22 0.96,-0.44 1.51,-0.64 0.53,-0.2 1.12,-0.4 1.72,-0.59 0.68,-0.21 1.41,-0.41 2.17,-0.6 1.15,-0.29 2.37,-0.54 3.67,-0.76 0.86,-0.15 1.76,-0.29 2.69,-0.4 0.46,-0.06 0.93,-0.12 1.41,-0.17 1.28,-0.14 2.6,-0.25 3.96,-0.33 0.42,-0.02 0.85,-0.05 1.29,-0.07 1.3,-0.06 2.63,-0.09 3.99,-0.09 1.36,0 2.69,0.03 3.99,0.09 0.43,0.02 0.86,0.05 1.29,0.07 0.85,0.04 1.7,0.11 2.51,0.19 1.16,0.1 2.27,0.23 3.35,0.37 0.72,0.1 1.43,0.2 2.11,0.32 0.43,0.07 0.83,0.15 1.25,0.23 0.01,0 0.01,0 0.01,0 0.81,0.15 1.6,0.32 2.35,0.51 0.38,0.09 0.74,0.18 1.11,0.28 1.71,0.47 3.21,1 4.44,1.6 0.03,0.02 0.06,0.03 0.09,0.04 0.61,0.29 1.17,0.61 1.64,0.94 0.17,0.1 0.32,0.22 0.47,0.34 0.31,0.25 0.58,0.5 0.8,0.76 0.08,0.09 0.14,0.17 0.2,0.26 0.19,0.24 0.32,0.49 0.42,0.74 0.03,0.09 0.06,0.17 0.08,0.26 0.03,0.09 0.05,0.18 0.06,0.27 0.01,0.1 0.02,0.21 0.02,0.31 v 11.39 c 0,4.19 -11.72,7.6 -26.19,7.6 z"
   id="path3618" />
				<path
   class="st179"
   d="m 602.61,2965.26 v 0.01 c 0,2.26 -3.42,4.3 -8.82,5.69 -4.61,1.2 -10.7,1.91 -17.37,1.91 -6.67,0 -12.74,-0.71 -17.36,-1.91 -5.43,-1.39 -8.83,-3.43 -8.83,-5.69 v -0.01 c 0,-4.19 11.72,-7.6 26.19,-7.6 14.46,0.01 26.19,3.41 26.19,7.6 z"
   id="path3620" />
				<path
   class="st179"
   d="m 550.18,3019.84 c -0.29,-0.35 -0.49,-0.71 -0.59,-1.08 v -0.52 c 0,0.56 0.2,1.09 0.59,1.6 z"
   id="path3622" />
				<path
   class="st179"
   d="m 601.14,3016.36 c -2.85,-3.21 -12.76,-5.6 -24.65,-5.69 -0.23,-0.01 -0.47,-0.01 -0.71,-0.01 -14.47,0 -26.19,3.41 -26.19,7.59 0,0.55 0.2,1.09 0.59,1.6 -0.29,-0.35 -0.49,-0.71 -0.59,-1.08 -0.08,-0.22 -0.11,-0.44 -0.11,-0.66 0,-4.2 11.72,-7.61 26.18,-7.61 0.28,0 0.56,0 0.83,0.01 12.03,0.1 22,2.56 24.65,5.85 z"
   id="path3624" />
				<path
   class="st179"
   d="m 662.65,2991.66 c 0,2.26 -3.44,4.3 -8.85,5.7 -4.63,1.19 -10.69,1.9 -17.34,1.9 -6.65,0 -12.72,-0.71 -17.33,-1.9 -5.45,-1.39 -8.86,-3.44 -8.86,-5.7 0,-0.1 0.01,-0.21 0.02,-0.31 0.01,-0.09 0.03,-0.18 0.06,-0.27 0.02,-0.09 0.05,-0.17 0.08,-0.26 0.1,-0.25 0.23,-0.5 0.42,-0.74 0.06,-0.09 0.12,-0.17 0.2,-0.26 0.22,-0.26 0.49,-0.51 0.8,-0.76 0.15,-0.11 0.3,-0.23 0.47,-0.34 0.47,-0.32 1.02,-0.63 1.64,-0.94 0.03,-0.01 0.06,-0.02 0.09,-0.04 0.46,-0.22 0.96,-0.43 1.51,-0.64 0.53,-0.2 1.12,-0.4 1.72,-0.59 0.68,-0.21 1.41,-0.41 2.17,-0.6 1.15,-0.28 2.37,-0.53 3.67,-0.76 0.86,-0.15 1.77,-0.28 2.69,-0.4 0.46,-0.06 0.93,-0.12 1.41,-0.17 1.28,-0.14 2.6,-0.25 3.96,-0.33 0.42,-0.02 0.85,-0.05 1.29,-0.07 1.3,-0.05 2.63,-0.08 3.99,-0.08 1.36,0 2.69,0.03 3.99,0.08 0.43,0.02 0.86,0.05 1.29,0.07 0.85,0.05 1.69,0.12 2.51,0.19 1.16,0.1 2.27,0.23 3.35,0.37 0.72,0.1 1.43,0.21 2.11,0.32 0.42,0.07 0.84,0.15 1.25,0.23 0.01,0 0.01,0 0.01,0 0.82,0.16 1.61,0.33 2.35,0.51 0.38,0.09 0.74,0.18 1.11,0.28 1.71,0.47 3.21,1 4.44,1.6 0.03,0.02 0.06,0.03 0.09,0.04 0.62,0.31 1.17,0.62 1.64,0.94 0.17,0.11 0.32,0.23 0.47,0.34 0.31,0.25 0.58,0.5 0.8,0.76 0.08,0.09 0.14,0.17 0.2,0.26 0.19,0.24 0.32,0.49 0.42,0.74 0.03,0.09 0.06,0.17 0.08,0.26 0.03,0.09 0.05,0.18 0.06,0.27 0,0.09 0.02,0.2 0.02,0.3 z"
   id="path3626" />
				<path
   class="st179"
   d="m 601.85,3018.11 c 0,2.26 -3.42,4.3 -8.83,5.69 -4.41,1.15 -10.19,1.85 -16.53,1.9 -0.27,0.01 -0.55,0.01 -0.83,0.01 -6.65,0 -12.74,-0.71 -17.36,-1.91 -3.94,-1.01 -6.81,-2.36 -8.09,-3.9 -0.02,-0.01 -0.03,-0.03 -0.03,-0.05 -0.39,-0.51 -0.59,-1.05 -0.59,-1.6 0,-4.18 11.72,-7.59 26.19,-7.59 0.24,0 0.48,0 0.71,0.01 11.89,0.09 21.8,2.48 24.65,5.69 0.07,0.08 0.14,0.16 0.19,0.24 0.34,0.48 0.52,0.99 0.52,1.51 z"
   id="path3628" />
				<path
   class="st179"
   d="m 601.97,3018.25 c 0,2.27 -3.44,4.31 -8.85,5.71 -4.45,1.15 -10.25,1.85 -16.62,1.89 -0.23,0.01 -0.47,0.01 -0.71,0.01 -6.65,0 -12.72,-0.71 -17.34,-1.9 -4.08,-1.05 -7.01,-2.45 -8.23,-4.06 1.28,1.54 4.15,2.89 8.09,3.9 4.61,1.2 10.7,1.91 17.36,1.91 0.28,0 0.56,0 0.83,-0.01 6.34,-0.05 12.12,-0.75 16.53,-1.9 5.42,-1.39 8.83,-3.43 8.83,-5.69 0,-0.51 -0.18,-1.02 -0.52,-1.51 0.41,0.53 0.63,1.08 0.63,1.65 z"
   id="path3630" />
				<path
   class="st179"
   d="m 662.65,2991.66 v 11.39 c 0,4.2 -11.72,7.61 -26.19,7.61 -14.46,0 -26.19,-3.41 -26.19,-7.61 v -11.39 c 0,2.26 3.42,4.31 8.86,5.7 4.6,1.19 10.67,1.9 17.33,1.9 6.64,0 12.7,-0.71 17.34,-1.9 5.41,-1.39 8.85,-3.43 8.85,-5.7 z"
   id="path3632" />
				<path
   class="st179"
   d="m 602.61,2965.27 v 11.39 c 0,0.1 -0.01,0.21 -0.02,0.31 -0.01,0.09 -0.03,0.18 -0.06,0.27 -0.02,0.09 -0.05,0.19 -0.09,0.28 -0.07,0.19 -0.17,0.38 -0.3,0.56 -0.05,0.09 -0.11,0.18 -0.19,0.26 0,0.02 -0.01,0.03 -0.02,0.04 -0.07,0.08 -0.14,0.17 -0.22,0.25 -0.08,0.09 -0.17,0.18 -0.27,0.27 -0.13,0.12 -0.27,0.24 -0.41,0.36 -0.29,0.23 -0.62,0.46 -0.99,0.68 -0.37,0.22 -0.77,0.43 -1.21,0.64 -0.29,0.14 -0.59,0.27 -0.9,0.4 -0.31,0.13 -0.64,0.26 -0.98,0.38 -0.68,0.25 -1.42,0.49 -2.21,0.71 -0.39,0.11 -0.8,0.22 -1.22,0.32 -0.41,0.11 -0.84,0.21 -1.29,0.3 -2.05,0.45 -4.33,0.81 -6.79,1.08 -0.4,0.05 -0.8,0.09 -1.22,0.12 -1.42,0.13 -2.89,0.22 -4.41,0.27 -0.53,0.03 -1.07,0.04 -1.61,0.05 -0.58,0.01 -1.18,0.02 -1.77,0.02 -0.59,0 -1.19,-0.01 -1.77,-0.02 -0.54,-0.01 -1.08,-0.02 -1.61,-0.05 -1.54,-0.05 -3.03,-0.15 -4.48,-0.28 -0.39,-0.03 -0.77,-0.07 -1.15,-0.11 -2.46,-0.26 -4.74,-0.62 -6.79,-1.08 -0.43,-0.1 -0.86,-0.2 -1.28,-0.3 -0.21,-0.05 -0.42,-0.1 -0.62,-0.16 -0.2,-0.05 -0.4,-0.1 -0.59,-0.16 -0.2,-0.05 -0.39,-0.11 -0.58,-0.17 -0.57,-0.17 -1.12,-0.35 -1.63,-0.54 -0.34,-0.12 -0.67,-0.25 -0.99,-0.38 -0.31,-0.13 -0.61,-0.26 -0.9,-0.4 -0.43,-0.21 -0.83,-0.42 -1.21,-0.64 -0.37,-0.22 -0.7,-0.45 -0.99,-0.68 -0.14,-0.12 -0.28,-0.24 -0.41,-0.36 -0.1,-0.09 -0.19,-0.18 -0.27,-0.27 -0.08,-0.08 -0.15,-0.17 -0.22,-0.25 -0.01,-0.01 -0.02,-0.02 -0.02,-0.04 -0.08,-0.08 -0.14,-0.17 -0.19,-0.26 -0.13,-0.18 -0.23,-0.37 -0.3,-0.56 -0.04,-0.09 -0.07,-0.19 -0.09,-0.28 -0.03,-0.09 -0.05,-0.18 -0.06,-0.27 -0.01,-0.1 -0.02,-0.21 -0.02,-0.31 v -11.39 c 0,2.26 3.41,4.3 8.83,5.69 4.61,1.2 10.69,1.91 17.36,1.91 6.67,0 12.75,-0.71 17.37,-1.91 5.37,-1.38 8.79,-3.42 8.79,-5.69 z"
   id="path3634" />
				<polygon
   class="st179"
   points="524.29,3033.93 576,3056.92 576.1,3056.97 576.1,3118.78 515.55,3091.86 515.55,3030.03 515.94,3030.21 "
   id="polygon3636" />
				<polygon
   class="st179"
   points="576.1,3118.78 576.1,3064.35 576.49,3064.52 576.49,3056.8 591.73,3049.98 627.65,3033.93 696.81,3003.02 696.81,3064.85 "
   id="polygon3638" />
				<polygon
   class="st179"
   points="576.1,3064.35 576.1,3056.97 576.49,3056.8 576.49,3064.52 "
   id="polygon3640" />
			</g>
		</g>
		<g
   id="g3694">
			<polygon
   class="st179"
   points="426.41,2731.92 426.8,2731.75 426.8,2739.48 426.41,2739.31 "
   id="polygon3646" />
			<path
   class="st179"
   d="m 452.92,2640.22 v 11.39 c 0,4.21 -11.72,7.61 -26.19,7.61 -14.47,0 -26.19,-3.4 -26.19,-7.61 v -11.39 c 0,2.27 3.41,4.3 8.83,5.7 4.6,1.2 10.69,1.91 17.36,1.91 6.67,0 12.75,-0.71 17.37,-1.91 5.4,-1.4 8.82,-3.43 8.82,-5.7 z"
   id="path3648" />
			<path
   class="st179"
   d="m 452.28,2693.2 v 11.41 c 0,4.12 -11.34,7.49 -25.48,7.59 -0.23,0.01 -0.47,0.01 -0.71,0.01 -14.47,0 -26.19,-3.41 -26.19,-7.6 v -10.88 c -0.08,-0.22 -0.11,-0.44 -0.11,-0.66 0,-4.2 11.72,-7.61 26.18,-7.61 0.28,0 0.56,0 0.83,0.01 12.03,0.1 22,2.56 24.65,5.85 -2.85,-3.21 -12.76,-5.6 -24.65,-5.69 -0.23,-0.01 -0.47,-0.01 -0.71,-0.01 -14.47,0 -26.19,3.41 -26.19,7.59 0,0.55 0.2,1.09 0.59,1.6 0,0.02 0.01,0.04 0.03,0.05 1.28,1.54 4.15,2.89 8.09,3.9 4.61,1.2 10.7,1.91 17.36,1.91 0.28,0 0.56,0 0.83,-0.01 6.34,-0.05 12.12,-0.75 16.53,-1.9 5.42,-1.39 8.83,-3.43 8.83,-5.69 0,-0.51 -0.18,-1.02 -0.52,-1.51 0.43,0.53 0.64,1.08 0.64,1.64 z"
   id="path3650" />
			<path
   class="st179"
   d="m 512.96,2666.61 v 11.4 c 0,4.2 -11.72,7.61 -26.19,7.61 -14.47,0 -26.19,-3.41 -26.19,-7.61 v -11.4 c 0,2.27 3.42,4.31 8.85,5.71 4.61,1.18 10.68,1.9 17.34,1.9 6.64,0 12.7,-0.72 17.34,-1.9 5.41,-1.4 8.85,-3.44 8.85,-5.71 z"
   id="path3652" />
			<g
   id="g3692">
				<polygon
   class="st179"
   points="366.25,2650.72 366.31,2650.75 366.25,2650.78 "
   id="polygon3654" />
				<polygon
   class="st179"
   points="387.45,2695.33 366.25,2704.81 366.25,2651.12 367.06,2651.49 426.31,2677.97 "
   id="polygon3656" />
				<polygon
   class="st179"
   points="426.41,2739.31 426.41,2731.92 426.8,2731.75 426.8,2739.48 "
   id="polygon3658" />
				<path
   class="st179"
   d="m 426.8,2685.46 v 0.16 c -0.23,-0.01 -0.47,-0.01 -0.71,-0.01 -14.47,0 -26.19,3.41 -26.19,7.59 0,0.55 0.2,1.09 0.59,1.6 -0.29,-0.35 -0.49,-0.71 -0.59,-1.08 -0.08,-0.22 -0.11,-0.44 -0.11,-0.66 0,-4.2 11.72,-7.61 26.18,-7.61 0.28,0 0.56,0 0.83,0.01 z"
   id="path3660" />
				<path
   class="st179"
   d="m 426.8,2700.65 v 0.15 c -0.23,0.01 -0.47,0.01 -0.71,0.01 -6.65,0 -12.72,-0.71 -17.34,-1.9 -4.08,-1.05 -7.01,-2.45 -8.23,-4.06 1.28,1.54 4.15,2.89 8.09,3.9 4.61,1.2 10.7,1.91 17.36,1.91 0.28,0 0.56,0 0.83,-0.01 z"
   id="path3662" />
				<g
   id="g3690">
					<path
   class="st179"
   d="m 365.86,2650.95 0.39,0.17 v -0.34 z m 0,54.03 0.39,0.17 v -0.34 z m 60.94,-19.52 c -0.27,-0.01 -0.55,-0.01 -0.83,-0.01 -14.46,0 -26.18,3.41 -26.18,7.61 0,0.22 0.03,0.44 0.11,0.66 v -0.52 c 0,-4.18 11.72,-7.59 26.19,-7.59 0.24,0 0.48,0 0.71,0.01 11.89,0.09 21.8,2.48 24.65,5.69 -2.65,-3.28 -12.62,-5.75 -24.65,-5.85 z"
   id="path3664" />
					<path
   class="st179"
   d="m 426.41,2624.01 -0.05,0.02 120.31,54.14 0.45,-0.2 z m -14.65,6.52 -45.44,20.22 -0.06,0.03 v 0.34 l 0.8,0.36 -0.19,-0.41 z"
   id="path3666" />
					<path
   class="st179"
   d="m 426.36,2624.03 -14.6,6.5 -44.89,20.54 0.19,0.41 59.25,26.48 -38.86,17.37 -21.19,9.48 v 0.34 l 8.35,3.73 24.14,10.73 27.57,12.26 0.1,0.05 0.39,-0.17 51.16,-22.87 68.71,-30.71 z m 25.92,80.58 c 0,4.12 -11.34,7.49 -25.48,7.59 -0.23,0.01 -0.47,0.01 -0.71,0.01 -14.47,0 -26.19,-3.41 -26.19,-7.6 v -10.88 c -0.08,-0.22 -0.11,-0.44 -0.11,-0.66 0,-4.2 11.72,-7.61 26.18,-7.61 0.28,0 0.56,0 0.83,0.01 12.03,0.1 22,2.56 24.65,5.85 0.07,0.08 0.14,0.16 0.19,0.24 0.42,0.53 0.63,1.09 0.63,1.65 v 11.4 z m 0.64,-53 c 0,4.21 -11.72,7.61 -26.19,7.61 -14.47,0 -26.19,-3.4 -26.19,-7.61 v -11.39 c 0,-4.19 11.72,-7.6 26.19,-7.6 14.46,0 26.19,3.41 26.19,7.6 z m 33.85,34 c -14.47,0 -26.19,-3.41 -26.19,-7.61 v -11.4 c 0,-4.19 11.72,-7.6 26.19,-7.6 14.46,0 26.19,3.41 26.19,7.6 v 11.4 c 0,4.21 -11.72,7.61 -26.19,7.61 z"
   id="path3668" />
					<path
   class="st179"
   d="m 452.92,2640.22 c 0,2.27 -3.42,4.3 -8.82,5.7 -4.61,1.2 -10.7,1.91 -17.37,1.91 -6.67,0 -12.75,-0.71 -17.36,-1.91 -5.43,-1.4 -8.83,-3.43 -8.83,-5.7 0,-4.19 11.72,-7.6 26.19,-7.6 14.46,0 26.19,3.41 26.19,7.6 z"
   id="path3670" />
					<path
   class="st179"
   d="m 400.49,2694.8 c -0.29,-0.35 -0.49,-0.71 -0.59,-1.08 v -0.52 c 0,0.55 0.2,1.09 0.59,1.6 z"
   id="path3672" />
					<path
   class="st179"
   d="m 451.45,2691.31 c -2.85,-3.21 -12.76,-5.6 -24.65,-5.69 -0.23,-0.01 -0.47,-0.01 -0.71,-0.01 -14.47,0 -26.19,3.41 -26.19,7.59 0,0.55 0.2,1.09 0.59,1.6 -0.29,-0.35 -0.49,-0.71 -0.59,-1.08 -0.08,-0.22 -0.11,-0.44 -0.11,-0.66 0,-4.2 11.72,-7.61 26.18,-7.61 0.28,0 0.56,0 0.83,0.01 12.03,0.1 22,2.57 24.65,5.85 z"
   id="path3674" />
					<path
   class="st179"
   d="m 512.96,2666.61 c 0,2.27 -3.44,4.31 -8.85,5.71 -4.63,1.18 -10.69,1.9 -17.34,1.9 -6.65,0 -12.72,-0.72 -17.34,-1.9 -5.44,-1.4 -8.85,-3.44 -8.85,-5.71 0,-4.19 11.72,-7.6 26.19,-7.6 14.46,0 26.19,3.41 26.19,7.6 z"
   id="path3676" />
					<path
   class="st179"
   d="m 452.17,2693.06 c 0,2.26 -3.42,4.3 -8.83,5.69 -4.41,1.15 -10.19,1.85 -16.53,1.9 -0.27,0.01 -0.55,0.01 -0.83,0.01 -6.65,0 -12.74,-0.71 -17.36,-1.91 -3.94,-1 -6.81,-2.36 -8.09,-3.9 -0.02,-0.01 -0.03,-0.03 -0.03,-0.05 -0.39,-0.51 -0.59,-1.05 -0.59,-1.6 0,-4.18 11.72,-7.59 26.19,-7.59 0.24,0 0.48,0 0.71,0.01 11.89,0.09 21.8,2.48 24.65,5.69 0.07,0.08 0.14,0.16 0.19,0.24 0.34,0.49 0.52,1 0.52,1.51 z"
   id="path3678" />
					<path
   class="st179"
   d="m 452.28,2693.2 c 0,2.27 -3.44,4.31 -8.85,5.71 -4.45,1.15 -10.25,1.85 -16.62,1.89 -0.23,0.01 -0.47,0.01 -0.71,0.01 -6.65,0 -12.72,-0.71 -17.34,-1.9 -4.08,-1.05 -7.01,-2.45 -8.23,-4.06 1.28,1.54 4.15,2.89 8.09,3.9 4.61,1.2 10.7,1.91 17.36,1.91 0.28,0 0.56,0 0.83,-0.01 6.34,-0.05 12.12,-0.75 16.53,-1.9 5.42,-1.39 8.83,-3.43 8.83,-5.69 0,-0.51 -0.18,-1.02 -0.52,-1.51 0.42,0.54 0.63,1.09 0.63,1.65 z"
   id="path3680" />
					<path
   class="st179"
   d="m 512.96,2666.61 v 11.4 c 0,4.2 -11.72,7.61 -26.19,7.61 -14.47,0 -26.19,-3.41 -26.19,-7.61 v -11.4 c 0,2.27 3.42,4.31 8.85,5.71 4.61,1.18 10.68,1.9 17.34,1.9 6.64,0 12.7,-0.72 17.34,-1.9 5.41,-1.4 8.85,-3.44 8.85,-5.71 z"
   id="path3682" />
					<path
   class="st179"
   d="m 452.92,2640.22 v 11.39 c 0,4.21 -11.72,7.61 -26.19,7.61 -14.47,0 -26.19,-3.4 -26.19,-7.61 v -11.39 c 0,2.27 3.41,4.3 8.83,5.7 4.6,1.2 10.69,1.91 17.36,1.91 6.67,0 12.75,-0.71 17.37,-1.91 5.4,-1.4 8.82,-3.43 8.82,-5.7 z"
   id="path3684" />
					<polygon
   class="st179"
   points="374.6,2708.88 398.74,2719.61 426.31,2731.87 426.41,2731.92 426.41,2793.74 365.86,2766.8 365.86,2704.98 366.25,2705.15 "
   id="polygon3686" />
					<polygon
   class="st179"
   points="426.8,2731.75 477.96,2708.88 546.67,2678.17 547.12,2677.97 547.12,2739.79 426.41,2793.74 426.41,2739.31 426.8,2739.48 "
   id="polygon3688" />
				</g>
			</g>
		</g>
		<g
   id="g3774">
			<g
   id="g3728">
				<polygon
   class="st179"
   points="820.59,2775.78 941.19,2721.51 1000.48,2748.64 940.18,2878.28 "
   id="polygon3696" />
				<g
   id="g3726">
					<polygon
   class="st179"
   points="819.67,2772 889.16,2802.91 940.5,2825.76 940.7,2825.85 940.7,2825.94 940.79,2825.89 940.81,2825.89 940.96,2825.96 940.96,2887.77 819.67,2833.84 "
   id="polygon3698" />
					<polygon
   class="st179"
   points="940.79,2825.89 940.7,2825.94 940.7,2825.85 "
   id="polygon3700" />
					<polygon
   class="st179"
   points="940.96,2825.96 992.51,2802.91 1001.22,2799.01 1001.22,2860.85 940.96,2887.77 "
   id="polygon3702" />
					<rect
   x="1001.22"
   y="2799.01"
   class="st179"
   width="0.0099999998"
   height="61.84"
   id="rect3704" />
					<path
   class="st179"
   d="m 966.69,2734.26 v 11.38 c 0,4.21 -11.72,7.61 -26.19,7.61 -14.47,0 -26.19,-3.4 -26.19,-7.61 v -11.38 c 0,2.26 3.41,4.3 8.83,5.69 4.6,1.2 10.69,1.91 17.36,1.91 6.66,0 12.75,-0.71 17.37,-1.91 5.4,-1.38 8.82,-3.42 8.82,-5.69 z"
   id="path3706" />
					<path
   class="st179"
   d="m 906.51,2760.64 v 11.4 c 0,4.2 -11.72,7.61 -26.19,7.61 -14.47,0 -26.19,-3.41 -26.19,-7.61 v -11.4 c 0,2.27 3.42,4.31 8.85,5.71 4.61,1.19 10.68,1.9 17.34,1.9 6.64,0 12.7,-0.71 17.34,-1.9 5.41,-1.39 8.85,-3.43 8.85,-5.71 z"
   id="path3708" />
					<polygon
   class="st179"
   points="940.7,2825.85 940.79,2825.89 940.7,2825.94 "
   id="polygon3710" />
					<polygon
   class="st179"
   points="993.15,2748.83 997.85,2746.48 1001,2745.09 1001,2798.8 1000.86,2798.86 941.59,2772.49 941.6,2771.86 "
   id="polygon3712" />
					<polygon
   class="st179"
   points="1001,2744.93 1001,2745.09 997.85,2746.48 "
   id="polygon3714" />
					<path
   class="st179"
   d="m 1000.86,2798.86 -60.06,27.02 0.15,0.07 51.55,-23.04 8.7,-3.9 z m -3.01,-52.38 3.15,-1.4 v -0.16 z"
   id="path3716" />
					<path
   class="st179"
   d="m 1001.23,2744.99 -60.27,-26.94 -121.29,53.95 69.49,30.91 51.33,22.84 0.2,0.09 0.09,0.04 h 0.02 l 60.06,-27.02 -59.27,-26.37 -0.63,-0.28 -0.46,-0.21 0.46,-0.2 56.89,-25.31 3.15,-1.56 v 0.16 z m -94.72,27.05 c 0,4.2 -11.72,7.61 -26.19,7.61 -14.47,0 -26.19,-3.41 -26.19,-7.61 v -11.4 c 0,-4.18 11.72,-7.59 26.19,-7.59 14.45,0 26.19,3.41 26.19,7.59 z m 34.96,7.62 c 14.01,0.14 25.21,3.49 25.21,7.59 v 11.4 c 0,4.14 -11.43,7.52 -25.66,7.6 h -0.53 c -14.47,0 -26.19,-3.41 -26.19,-7.6 v -11.4 c 0,-4.19 11.72,-7.6 26.19,-7.6 0.34,0 0.66,0 0.98,0.01 z m 25.22,-34.02 c 0,4.21 -11.72,7.61 -26.19,7.61 -14.47,0 -26.19,-3.4 -26.19,-7.61 v -11.38 c 0,-4.2 11.72,-7.61 26.19,-7.61 14.46,0 26.19,3.41 26.19,7.61 z"
   id="path3718" />
					<path
   class="st179"
   d="m 966.69,2734.26 c 0,2.26 -3.42,4.3 -8.82,5.69 -4.61,1.2 -10.7,1.91 -17.37,1.91 -6.66,0 -12.75,-0.71 -17.36,-1.91 -5.43,-1.39 -8.83,-3.43 -8.83,-5.69 0,-4.2 11.72,-7.61 26.19,-7.61 14.46,0.01 26.19,3.41 26.19,7.61 z"
   id="path3720" />
					<path
   class="st179"
   d="m 906.51,2760.64 c 0,2.27 -3.44,4.31 -8.85,5.71 -4.63,1.19 -10.69,1.9 -17.34,1.9 -6.65,0 -12.72,-0.71 -17.34,-1.9 -5.44,-1.4 -8.85,-3.44 -8.85,-5.71 0,-4.18 11.72,-7.59 26.19,-7.59 14.45,0.01 26.19,3.41 26.19,7.59 z"
   id="path3722" />
					<path
   class="st179"
   d="m 966.69,2787.25 c 0,2.26 -3.44,4.31 -8.85,5.69 -4.44,1.16 -10.23,1.86 -16.61,1.9 -0.24,0.01 -0.48,0.01 -0.72,0.01 -6.65,0 -12.73,-0.71 -17.34,-1.9 -5.44,-1.4 -8.85,-3.44 -8.85,-5.7 0,-4.19 11.72,-7.6 26.19,-7.6 0.33,0 0.65,0 0.97,0.01 14,0.14 25.21,3.49 25.21,7.59 z"
   id="path3724" />
				</g>
			</g>
			<g
   id="g3772">
				<polygon
   class="st179"
   points="859.79,2894.36 800.49,2921.5 860.79,3051.14 980.38,2948.63 "
   id="polygon3730" />
				<g
   id="g3770">
					<polygon
   class="st179"
   points="798.68,2916.4 798.74,2916.43 798.68,2916.46 "
   id="polygon3732" />
					<polygon
   class="st179"
   points="798.68,2916.81 858.73,2943.65 798.68,2970.49 "
   id="polygon3734" />
					<polygon
   class="st179"
   points="858.83,3004.99 798.68,2978.23 798.68,2970.83 807.03,2974.56 858.73,2997.55 858.83,2997.59 859.23,2997.42 859.23,3005.16 "
   id="polygon3736" />
					<path
   class="st179"
   d="m 859.23,2951.14 v 0.16 c -0.23,-0.01 -0.47,-0.01 -0.71,-0.01 -14.47,0 -26.19,3.41 -26.19,7.59 0,0.55 0.2,1.09 0.59,1.6 -0.29,-0.35 -0.49,-0.71 -0.59,-1.08 -0.08,-0.22 -0.11,-0.44 -0.11,-0.66 0,-4.2 11.72,-7.61 26.18,-7.61 0.27,0 0.55,0 0.83,0.01 z"
   id="path3738" />
					<path
   class="st179"
   d="m 858.39,2966.34 c 0.28,0 0.56,0 0.83,-0.01 v 0.15 c -0.23,0.01 -0.47,0.01 -0.71,0.01 -6.65,0 -12.72,-0.71 -17.34,-1.9 -4.08,-1.05 -7.01,-2.45 -8.23,-4.06 1.28,1.54 4.15,2.89 8.09,3.9 4.62,1.2 10.71,1.91 17.36,1.91 z"
   id="path3740" />
					<g
   id="g3768">
						<path
   class="st179"
   d="m 859.23,2951.14 c -0.27,-0.01 -0.55,-0.01 -0.83,-0.01 -14.46,0 -26.18,3.41 -26.18,7.61 0,0.22 0.03,0.44 0.11,0.66 v -0.52 c 0,-4.18 11.72,-7.59 26.19,-7.59 0.24,0 0.48,0 0.71,0.01 11.89,0.09 21.8,2.48 24.65,5.69 -2.66,-3.28 -12.63,-5.74 -24.65,-5.85 z m 0,46.28 -0.39,0.17 -0.1,-0.04 0.1,0.05 0.39,-0.17 51.16,-22.87 z m -60.95,-26.76 0.39,0.17 v -0.34 z m 0,-54.03 0.39,0.17 v -0.34 z"
   id="path3742" />
						<path
   class="st179"
   d="m 858.83,2889.69 -60.1,26.74 -0.06,0.03 v 0.34 l 60.06,26.84 -60.06,26.84 v 0.34 l 8.35,3.73 51.71,22.99 0.1,0.04 0.39,-0.17 51.16,-22.86 69.16,-30.91 z m 25.87,80.6 c 0,4.12 -11.34,7.49 -25.48,7.59 -0.23,0.01 -0.47,0.01 -0.71,0.01 -14.47,0 -26.19,-3.41 -26.19,-7.6 v -10.88 c -0.08,-0.22 -0.11,-0.44 -0.11,-0.66 0,-4.2 11.72,-7.61 26.18,-7.61 0.28,0 0.56,0 0.83,0.01 12.03,0.1 22,2.56 24.65,5.85 0.07,0.08 0.14,0.16 0.19,0.24 0.42,0.53 0.63,1.09 0.63,1.65 v 11.4 z m 0.64,-53 c 0,4.21 -11.72,7.61 -26.19,7.61 -1.63,0 -3.23,-0.04 -4.77,-0.13 -0.19,-0.01 -0.39,-0.02 -0.58,-0.03 -2.82,-0.17 -5.48,-0.47 -7.88,-0.87 -0.25,-0.05 -0.5,-0.09 -0.74,-0.14 -3.07,-0.56 -5.7,-1.31 -7.73,-2.17 -0.22,-0.09 -0.42,-0.19 -0.62,-0.28 -0.68,-0.32 -1.28,-0.66 -1.79,-1.02 -0.17,-0.11 -0.33,-0.22 -0.47,-0.34 -0.29,-0.24 -0.55,-0.47 -0.76,-0.71 -0.11,-0.12 -0.21,-0.24 -0.29,-0.37 -0.18,-0.25 -0.32,-0.5 -0.4,-0.75 -0.05,-0.13 -0.08,-0.26 -0.1,-0.39 -0.03,-0.13 -0.04,-0.26 -0.04,-0.39 v -11.39 c 0,-4.19 11.72,-7.6 26.19,-7.6 14.46,0 26.19,3.41 26.19,7.6 v 11.37 z m 60.01,26.74 c -0.01,0.08 -0.02,0.15 -0.05,0.23 -0.02,0.1 -0.05,0.2 -0.1,0.3 -0.02,0.08 -0.05,0.15 -0.09,0.22 -0.08,0.16 -0.18,0.32 -0.29,0.47 -0.06,0.09 -0.13,0.18 -0.21,0.26 -0.32,0.39 -0.75,0.76 -1.29,1.13 -0.49,0.34 -1.08,0.66 -1.73,0.98 -0.22,0.1 -0.44,0.2 -0.68,0.3 -0.23,0.1 -0.46,0.19 -0.7,0.29 -0.01,0 -0.02,0 -0.03,0.01 -0.75,0.3 -1.58,0.57 -2.46,0.82 -0.44,0.13 -0.9,0.25 -1.38,0.37 -0.48,0.12 -0.96,0.24 -1.47,0.34 -0.5,0.12 -1.03,0.22 -1.56,0.32 -1.06,0.19 -2.17,0.37 -3.34,0.52 -0.58,0.08 -1.18,0.15 -1.78,0.21 -0.59,0.06 -1.21,0.12 -1.83,0.17 -0.62,0.06 -1.26,0.1 -1.9,0.14 -0.84,0.06 -1.71,0.1 -2.59,0.11 -0.44,0.01 -0.88,0.02 -1.34,0.03 -0.22,0 -0.44,0.01 -0.67,0.01 -0.22,0.01 -0.45,0.01 -0.67,0.01 -0.22,0 -0.45,0 -0.67,-0.01 -0.23,0 -0.45,-0.01 -0.67,-0.01 -0.45,-0.01 -0.89,-0.02 -1.34,-0.03 -0.88,-0.01 -1.75,-0.05 -2.59,-0.11 -2.56,-0.15 -4.97,-0.41 -7.21,-0.76 -2.23,-0.36 -4.26,-0.8 -6.03,-1.32 -0.84,-0.24 -1.64,-0.5 -2.36,-0.78 -0.07,-0.03 -0.14,-0.05 -0.21,-0.08 -0.21,-0.09 -0.42,-0.17 -0.62,-0.26 -0.24,-0.1 -0.47,-0.2 -0.69,-0.3 -0.87,-0.42 -1.61,-0.86 -2.19,-1.33 -0.29,-0.23 -0.55,-0.47 -0.76,-0.71 -0.17,-0.18 -0.31,-0.36 -0.41,-0.55 -0.07,-0.09 -0.12,-0.19 -0.16,-0.28 -0.04,-0.09 -0.08,-0.19 -0.12,-0.29 -0.05,-0.12 -0.08,-0.25 -0.1,-0.38 -0.03,-0.13 -0.04,-0.26 -0.04,-0.39 v -11.4 c 0,-0.13 0.01,-0.26 0.04,-0.39 0.02,-0.13 0.05,-0.25 0.1,-0.38 0.08,-0.26 0.21,-0.51 0.4,-0.75 0.08,-0.13 0.18,-0.25 0.29,-0.37 0.21,-0.24 0.47,-0.48 0.76,-0.71 0.14,-0.11 0.3,-0.23 0.47,-0.34 0.16,-0.11 0.33,-0.22 0.52,-0.33 0.16,-0.1 0.32,-0.2 0.49,-0.28 0.42,-0.24 0.89,-0.46 1.4,-0.67 0.21,-0.09 0.43,-0.18 0.66,-0.27 0.3,-0.12 0.62,-0.24 0.94,-0.35 0.5,-0.18 1.04,-0.34 1.59,-0.5 0.59,-0.18 1.21,-0.34 1.86,-0.49 0.64,-0.16 1.32,-0.3 2.01,-0.43 0.35,-0.08 0.7,-0.14 1.07,-0.2 0.67,-0.12 1.38,-0.24 2.1,-0.33 0.08,-0.02 0.16,-0.03 0.23,-0.03 0.61,-0.09 1.24,-0.17 1.87,-0.24 0.32,-0.04 0.65,-0.07 0.98,-0.1 0.32,-0.03 0.65,-0.06 0.99,-0.09 0.66,-0.06 1.35,-0.11 2.04,-0.15 0.19,-0.01 0.39,-0.02 0.58,-0.03 1.55,-0.09 3.15,-0.13 4.77,-0.13 14.46,0 26.19,3.41 26.19,7.6 v 11.4 c 0.01,0.08 0,0.2 -0.02,0.31 z"
   id="path3744" />
						<path
   class="st179"
   d="m 885.34,2905.9 c 0,2.27 -3.42,4.3 -8.82,5.7 -4.61,1.19 -10.7,1.91 -17.37,1.91 -6.67,0 -12.74,-0.72 -17.36,-1.91 -5.43,-1.4 -8.82,-3.43 -8.82,-5.7 v 11.39 c 0,0.13 0.01,0.26 0.03,0.39 -0.03,-0.13 -0.04,-0.26 -0.04,-0.39 v -11.39 c 0,-4.19 11.72,-7.6 26.19,-7.6 14.47,0 26.19,3.41 26.19,7.6 z"
   id="path3746" />
						<path
   class="st179"
   d="m 832.92,2960.48 c -0.29,-0.35 -0.49,-0.71 -0.59,-1.08 v -0.52 c -0.01,0.56 0.19,1.09 0.59,1.6 z"
   id="path3748" />
						<path
   class="st179"
   d="m 883.88,2956.99 c -2.85,-3.21 -12.76,-5.6 -24.65,-5.69 -0.23,-0.01 -0.47,-0.01 -0.71,-0.01 -14.47,0 -26.19,3.41 -26.19,7.59 0,0.55 0.2,1.09 0.59,1.6 -0.29,-0.35 -0.49,-0.71 -0.59,-1.08 -0.08,-0.22 -0.11,-0.44 -0.11,-0.66 0,-4.2 11.72,-7.61 26.18,-7.61 0.28,0 0.56,0 0.83,0.01 12.02,0.11 21.99,2.57 24.65,5.85 z"
   id="path3750" />
						<path
   class="st179"
   d="m 945.38,2932.29 c 0,2.27 -3.44,4.31 -8.85,5.7 -4.62,1.19 -10.69,1.91 -17.34,1.91 -6.65,0 -12.72,-0.72 -17.33,-1.91 -5.45,-1.39 -8.85,-3.43 -8.85,-5.7 0,-0.13 0.01,-0.26 0.03,-0.39 0.03,-0.13 0.06,-0.26 0.1,-0.38 0.09,-0.26 0.23,-0.51 0.4,-0.75 0.09,-0.13 0.18,-0.25 0.29,-0.37 0.21,-0.24 0.47,-0.48 0.76,-0.71 0.14,-0.11 0.3,-0.23 0.47,-0.34 0.16,-0.11 0.33,-0.22 0.52,-0.33 0.15,-0.1 0.32,-0.19 0.49,-0.28 0.42,-0.24 0.89,-0.46 1.4,-0.67 0.21,-0.09 0.43,-0.18 0.66,-0.27 0.3,-0.12 0.62,-0.24 0.94,-0.35 0.5,-0.17 1.04,-0.34 1.59,-0.5 0.59,-0.17 1.22,-0.33 1.86,-0.49 0.64,-0.15 1.32,-0.3 2.01,-0.43 0.35,-0.08 0.7,-0.14 1.07,-0.2 0.68,-0.12 1.38,-0.23 2.1,-0.33 0.08,-0.02 0.16,-0.03 0.23,-0.03 0.61,-0.09 1.24,-0.17 1.87,-0.24 0.32,-0.04 0.65,-0.07 0.98,-0.1 0.32,-0.03 0.65,-0.06 0.99,-0.09 0.66,-0.06 1.35,-0.11 2.04,-0.15 0.19,-0.01 0.39,-0.02 0.58,-0.03 1.55,-0.09 3.15,-0.13 4.77,-0.13 14.49,-0.04 26.22,3.37 26.22,7.56 z"
   id="path3752" />
						<path
   class="st179"
   d="m 884.59,2958.74 c 0,2.26 -3.42,4.3 -8.83,5.69 -4.41,1.15 -10.19,1.85 -16.53,1.9 -0.27,0.01 -0.55,0.01 -0.83,0.01 -6.65,0 -12.74,-0.71 -17.36,-1.91 -3.94,-1.01 -6.81,-2.36 -8.09,-3.9 -0.02,-0.01 -0.03,-0.03 -0.03,-0.05 -0.39,-0.51 -0.59,-1.05 -0.59,-1.6 0,-4.18 11.72,-7.59 26.19,-7.59 0.24,0 0.48,0 0.71,0.01 11.89,0.09 21.8,2.48 24.65,5.69 0.07,0.08 0.14,0.16 0.19,0.24 0.34,0.49 0.52,1 0.52,1.51 z"
   id="path3754" />
						<path
   class="st179"
   d="m 884.7,2958.88 c 0,2.27 -3.44,4.31 -8.85,5.71 -4.45,1.15 -10.25,1.85 -16.62,1.89 -0.23,0.01 -0.47,0.01 -0.71,0.01 -6.65,0 -12.72,-0.71 -17.34,-1.9 -4.08,-1.05 -7.01,-2.45 -8.23,-4.06 1.28,1.54 4.15,2.89 8.09,3.9 4.61,1.2 10.7,1.91 17.36,1.91 0.28,0 0.56,0 0.83,-0.01 6.34,-0.05 12.12,-0.75 16.53,-1.9 5.42,-1.39 8.83,-3.43 8.83,-5.69 0,-0.51 -0.18,-1.02 -0.52,-1.51 0.42,0.54 0.63,1.09 0.63,1.65 z"
   id="path3756" />
						<path
   class="st179"
   d="m 945.38,2932.29 v 11.4 c 0,0.11 -0.01,0.23 -0.03,0.34 -0.01,0.08 -0.02,0.15 -0.05,0.23 -0.02,0.1 -0.05,0.2 -0.1,0.3 -0.02,0.08 -0.05,0.15 -0.09,0.22 -0.08,0.16 -0.18,0.32 -0.29,0.47 -0.06,0.09 -0.13,0.18 -0.21,0.26 -0.32,0.39 -0.75,0.76 -1.29,1.13 -0.49,0.34 -1.08,0.66 -1.73,0.98 -0.22,0.1 -0.44,0.2 -0.68,0.3 -0.23,0.1 -0.46,0.19 -0.7,0.29 -0.01,0 -0.02,0 -0.03,0.01 -0.75,0.29 -1.58,0.56 -2.46,0.82 -0.44,0.13 -0.9,0.25 -1.38,0.37 -0.48,0.12 -0.96,0.23 -1.47,0.34 -0.51,0.11 -1.03,0.22 -1.56,0.32 -1.06,0.19 -2.17,0.37 -3.34,0.52 -0.58,0.07 -1.18,0.14 -1.78,0.21 -0.6,0.06 -1.22,0.12 -1.83,0.17 -0.62,0.05 -1.26,0.1 -1.9,0.14 -0.84,0.05 -1.72,0.08 -2.59,0.11 -0.44,0.01 -0.88,0.02 -1.34,0.03 -0.22,0 -0.44,0.01 -0.67,0.01 h -1.35 c -0.23,0 -0.45,-0.01 -0.67,-0.01 -0.45,-0.01 -0.89,-0.02 -1.34,-0.03 -0.87,-0.03 -1.75,-0.06 -2.59,-0.11 -2.56,-0.16 -4.97,-0.42 -7.21,-0.76 -2.23,-0.36 -4.26,-0.8 -6.03,-1.32 -0.84,-0.24 -1.64,-0.51 -2.36,-0.78 -0.07,-0.03 -0.14,-0.05 -0.21,-0.08 -0.21,-0.09 -0.42,-0.17 -0.62,-0.26 -0.24,-0.1 -0.47,-0.2 -0.69,-0.3 -0.87,-0.42 -1.61,-0.86 -2.19,-1.33 -0.29,-0.23 -0.55,-0.47 -0.76,-0.71 -0.16,-0.18 -0.3,-0.36 -0.41,-0.55 -0.06,-0.09 -0.11,-0.18 -0.16,-0.28 -0.04,-0.09 -0.08,-0.19 -0.12,-0.29 -0.04,-0.12 -0.07,-0.25 -0.1,-0.38 -0.02,-0.13 -0.03,-0.26 -0.03,-0.39 v -11.4 c 0,2.27 3.41,4.31 8.85,5.7 4.6,1.19 10.67,1.91 17.33,1.91 6.64,0 12.71,-0.72 17.34,-1.91 5.4,-1.38 8.84,-3.42 8.84,-5.69 z"
   id="path3758" />
						<path
   class="st179"
   d="m 885.34,2905.9 v 11.39 c 0,4.21 -11.72,7.61 -26.19,7.61 -1.63,0 -3.23,-0.04 -4.77,-0.13 -0.19,-0.01 -0.39,-0.02 -0.58,-0.03 -2.82,-0.17 -5.48,-0.47 -7.88,-0.87 -0.25,-0.05 -0.5,-0.09 -0.74,-0.14 -3.07,-0.56 -5.7,-1.31 -7.73,-2.17 -0.22,-0.09 -0.42,-0.19 -0.62,-0.28 -0.68,-0.32 -1.28,-0.66 -1.79,-1.02 -0.17,-0.11 -0.33,-0.22 -0.47,-0.34 -0.29,-0.24 -0.55,-0.47 -0.76,-0.71 -0.11,-0.12 -0.2,-0.25 -0.29,-0.37 -0.17,-0.25 -0.31,-0.5 -0.4,-0.75 -0.04,-0.13 -0.07,-0.26 -0.1,-0.39 -0.02,-0.13 -0.03,-0.26 -0.03,-0.39 v -11.39 c 0,2.27 3.4,4.3 8.82,5.7 4.61,1.19 10.69,1.91 17.36,1.91 6.67,0 12.75,-0.72 17.37,-1.91 5.39,-1.42 8.8,-3.45 8.8,-5.72 z"
   id="path3760" />
						<polygon
   class="st179"
   points="807.03,2974.56 858.73,2997.55 858.83,2997.59 858.83,3059.42 798.28,3032.49 798.28,2970.66 798.68,2970.83 "
   id="polygon3762" />
						<polygon
   class="st179"
   points="859.23,2997.43 910.39,2974.56 979.55,2943.65 979.55,3005.47 858.83,3059.42 858.83,3004.99 859.23,3005.16 "
   id="polygon3764" />
						<polygon
   class="st179"
   points="858.83,2997.59 859.23,2997.42 910.39,2974.56 859.23,2997.43 859.23,3005.16 858.83,3004.99 "
   id="polygon3766" />
					</g>
				</g>
			</g>
		</g>
		<g
   id="g3806">
			<polygon
   class="st179"
   points="633.67,2836.08 573.37,2965.72 453.78,2863.21 574.38,2808.94 "
   id="polygon3776" />
			<g
   id="g3804">
				<polygon
   class="st179"
   points="573.79,2914.42 573.79,2914.51 573.88,2914.46 573.9,2914.46 574.05,2914.53 574.05,2976.35 452.77,2922.41 452.77,2860.59 522.25,2891.5 573.59,2914.33 "
   id="polygon3778" />
				<polygon
   class="st179"
   points="573.79,2914.42 573.88,2914.46 573.79,2914.51 "
   id="polygon3780" />
				<polygon
   class="st179"
   points="634.31,2949.43 574.05,2976.35 574.05,2914.53 625.6,2891.5 634.31,2887.6 "
   id="polygon3782" />
				<rect
   x="634.31"
   y="2887.6001"
   class="st179"
   width="0.0099999998"
   height="61.830002"
   id="rect3784" />
				<path
   class="st179"
   d="m 599.77,2822.84 v 11.38 c 0,0.12 -0.01,0.23 -0.03,0.34 -0.01,0.09 -0.03,0.19 -0.06,0.28 0,0.03 -0.01,0.06 -0.02,0.09 v 0.01 c -0.03,0.08 -0.06,0.16 -0.1,0.23 v 0.01 c -0.01,0.03 -0.02,0.06 -0.04,0.08 -0.04,0.1 -0.1,0.2 -0.16,0.3 -0.06,0.1 -0.13,0.2 -0.2,0.3 -0.13,0.18 -0.29,0.35 -0.47,0.52 -0.06,0.07 -0.14,0.14 -0.22,0.21 -0.09,0.08 -0.18,0.16 -0.28,0.24 -0.29,0.23 -0.62,0.46 -0.99,0.68 -1.04,0.62 -2.37,1.21 -3.94,1.72 -0.22,0.08 -0.45,0.15 -0.68,0.22 -0.33,0.1 -0.68,0.2 -1.04,0.3 -0.28,0.08 -0.56,0.15 -0.86,0.22 -0.04,0.01 -0.07,0.02 -0.1,0.03 -0.42,0.1 -0.86,0.2 -1.31,0.3 -0.5,0.11 -1.03,0.21 -1.56,0.31 -0.45,0.08 -0.91,0.16 -1.39,0.24 -0.59,0.09 -1.2,0.18 -1.82,0.26 -0.42,0.06 -0.84,0.11 -1.28,0.16 -0.02,0 -0.05,0.01 -0.07,0.01 -0.58,0.07 -1.18,0.13 -1.78,0.18 -0.3,0.03 -0.61,0.05 -0.92,0.07 -0.39,0.04 -0.78,0.07 -1.19,0.09 -0.49,0.03 -1.01,0.06 -1.52,0.08 -0.54,0.03 -1.09,0.05 -1.64,0.06 -0.32,0.01 -0.63,0.02 -0.95,0.03 -0.52,0.01 -1.05,0.01 -1.57,0.01 -0.52,0 -1.05,0 -1.57,-0.01 -0.32,-0.01 -0.63,-0.02 -0.95,-0.03 -0.55,-0.01 -1.1,-0.03 -1.64,-0.06 -0.51,-0.02 -1.02,-0.05 -1.52,-0.08 -0.37,-0.02 -0.74,-0.05 -1.12,-0.08 -0.33,-0.02 -0.66,-0.05 -0.99,-0.08 -0.61,-0.05 -1.22,-0.12 -1.81,-0.18 -0.43,-0.05 -0.85,-0.11 -1.28,-0.16 -0.16,-0.02 -0.32,-0.04 -0.48,-0.07 -0.35,-0.04 -0.71,-0.1 -1.06,-0.15 -0.17,-0.03 -0.33,-0.05 -0.5,-0.08 -0.03,0 -0.05,-0.01 -0.08,-0.01 -0.33,-0.06 -0.66,-0.12 -0.99,-0.18 -0.43,-0.08 -0.86,-0.16 -1.28,-0.25 -0.36,-0.07 -0.71,-0.15 -1.06,-0.23 -0.22,-0.05 -0.42,-0.1 -0.63,-0.14 -0.25,-0.07 -0.5,-0.13 -0.74,-0.2 -0.44,-0.11 -0.86,-0.23 -1.29,-0.36 -0.23,-0.07 -0.46,-0.14 -0.68,-0.22 -1.57,-0.51 -2.9,-1.1 -3.94,-1.72 -0.37,-0.22 -0.7,-0.45 -0.99,-0.68 -0.1,-0.08 -0.19,-0.16 -0.28,-0.24 -0.08,-0.07 -0.16,-0.14 -0.22,-0.21 -0.18,-0.17 -0.34,-0.34 -0.47,-0.52 -0.07,-0.1 -0.14,-0.2 -0.2,-0.3 -0.06,-0.1 -0.12,-0.2 -0.16,-0.3 -0.02,-0.02 -0.03,-0.05 -0.04,-0.08 v -0.01 c -0.04,-0.07 -0.07,-0.15 -0.1,-0.23 v -0.01 c -0.01,-0.03 -0.02,-0.06 -0.02,-0.09 -0.03,-0.09 -0.05,-0.19 -0.06,-0.28 -0.02,-0.11 -0.03,-0.22 -0.03,-0.34 v -11.38 c 0,2.26 3.41,4.3 8.83,5.69 4.6,1.2 10.69,1.91 17.36,1.91 6.67,0 12.75,-0.71 17.37,-1.91 5.4,-1.39 8.81,-3.43 8.81,-5.69 z"
   id="path3786" />
				<path
   class="st179"
   d="m 539.6,2849.23 v 11.39 c 0,4.2 -11.72,7.61 -26.19,7.61 -0.68,0 -1.36,-0.01 -2.02,-0.03 -0.22,0 -0.44,0 -0.66,-0.01 -0.7,-0.02 -1.41,-0.05 -2.09,-0.09 -0.2,-0.01 -0.39,-0.02 -0.58,-0.03 -0.69,-0.04 -1.38,-0.09 -2.04,-0.15 -0.54,-0.04 -1.09,-0.09 -1.61,-0.15 -0.12,-0.01 -0.25,-0.03 -0.37,-0.04 -0.27,-0.03 -0.54,-0.06 -0.81,-0.1 -0.35,-0.04 -0.7,-0.08 -1.05,-0.13 -0.08,-0.01 -0.16,-0.02 -0.24,-0.04 -0.72,-0.1 -1.42,-0.21 -2.1,-0.33 -0.36,-0.06 -0.71,-0.13 -1.07,-0.2 -0.69,-0.13 -1.37,-0.28 -2.01,-0.43 -0.32,-0.08 -0.64,-0.16 -0.95,-0.24 -0.31,-0.08 -0.61,-0.16 -0.9,-0.25 -0.29,-0.08 -0.58,-0.17 -0.86,-0.26 -0.25,-0.08 -0.49,-0.16 -0.72,-0.24 -0.03,-0.01 -0.07,-0.02 -0.1,-0.04 -0.27,-0.09 -0.53,-0.18 -0.78,-0.28 -0.04,-0.01 -0.07,-0.03 -0.11,-0.04 -0.21,-0.09 -0.41,-0.17 -0.61,-0.26 -0.38,-0.16 -0.74,-0.33 -1.08,-0.5 -0.06,-0.03 -0.13,-0.07 -0.19,-0.1 -0.17,-0.09 -0.33,-0.18 -0.48,-0.27 -0.16,-0.09 -0.31,-0.18 -0.45,-0.28 -0.11,-0.07 -0.23,-0.14 -0.33,-0.22 -0.12,-0.09 -0.24,-0.17 -0.35,-0.26 -0.15,-0.11 -0.28,-0.23 -0.41,-0.35 -0.06,-0.06 -0.12,-0.11 -0.18,-0.18 -0.06,-0.05 -0.12,-0.12 -0.17,-0.18 -0.11,-0.12 -0.2,-0.24 -0.29,-0.36 -0.17,-0.25 -0.31,-0.5 -0.4,-0.76 -0.04,-0.12 -0.07,-0.25 -0.1,-0.38 -0.02,-0.13 -0.03,-0.26 -0.03,-0.39 v -11.39 c 0,2.26 3.41,4.31 8.84,5.7 4.61,1.19 10.68,1.9 17.34,1.9 6.64,0 12.7,-0.71 17.34,-1.9 5.37,-1.44 8.81,-3.48 8.81,-5.74 z"
   id="path3788" />
				<polygon
   class="st179"
   points="626.24,2837.4 630.94,2835.06 634.08,2833.66 634.08,2887.38 633.95,2887.44 574.68,2861.07 574.69,2860.44 "
   id="polygon3790" />
				<polygon
   class="st179"
   points="573.79,2914.42 573.88,2914.46 573.79,2914.51 "
   id="polygon3792" />
				<polygon
   class="st179"
   points="630.94,2835.06 634.08,2833.5 634.08,2833.66 "
   id="polygon3794" />
				<path
   class="st179"
   d="m 633.95,2887.44 -60.06,27.02 0.15,0.07 51.55,-23.04 8.7,-3.9 z m -3.01,-52.38 3.15,-1.4 v -0.16 z"
   id="path3796" />
				<path
   class="st179"
   d="m 634.32,2833.56 -60.27,-26.94 -121.29,53.96 0.01,0.01 69.48,30.9 51.33,22.84 0.2,0.09 0.09,0.04 h 0.02 l 60.06,-27.02 -59.27,-26.37 -0.63,-0.28 -0.46,-0.21 0.46,-0.2 56.89,-25.31 3.15,-1.56 v 0.16 z m -94.72,27.06 c 0,4.2 -11.72,7.61 -26.19,7.61 -0.68,0 -1.36,-0.01 -2.02,-0.03 -0.22,0 -0.44,0 -0.66,-0.01 -0.7,-0.02 -1.41,-0.05 -2.09,-0.09 -0.2,-0.01 -0.39,-0.02 -0.58,-0.03 -0.69,-0.04 -1.38,-0.09 -2.04,-0.15 -0.54,-0.04 -1.09,-0.09 -1.61,-0.15 -0.12,-0.01 -0.25,-0.03 -0.37,-0.04 -0.27,-0.03 -0.54,-0.06 -0.81,-0.1 -0.35,-0.04 -0.7,-0.08 -1.05,-0.13 -0.08,-0.01 -0.16,-0.02 -0.24,-0.04 -0.72,-0.1 -1.42,-0.21 -2.1,-0.33 -0.36,-0.06 -0.71,-0.12 -1.07,-0.2 -0.69,-0.13 -1.37,-0.27 -2.01,-0.43 -0.33,-0.07 -0.64,-0.15 -0.95,-0.24 -0.31,-0.08 -0.61,-0.16 -0.9,-0.25 -0.29,-0.08 -0.58,-0.17 -0.86,-0.26 -0.25,-0.07 -0.48,-0.15 -0.72,-0.24 -0.03,-0.01 -0.07,-0.02 -0.1,-0.04 -0.27,-0.09 -0.53,-0.18 -0.78,-0.28 -0.04,-0.01 -0.07,-0.03 -0.11,-0.04 -0.21,-0.09 -0.41,-0.17 -0.61,-0.26 -0.38,-0.16 -0.74,-0.32 -1.08,-0.5 -0.06,-0.03 -0.13,-0.07 -0.19,-0.1 -0.17,-0.09 -0.33,-0.17 -0.48,-0.27 -0.16,-0.09 -0.31,-0.18 -0.45,-0.28 -0.11,-0.07 -0.23,-0.14 -0.33,-0.22 -0.12,-0.09 -0.24,-0.17 -0.35,-0.26 -0.15,-0.11 -0.28,-0.23 -0.41,-0.35 -0.06,-0.06 -0.12,-0.11 -0.18,-0.18 -0.06,-0.05 -0.12,-0.12 -0.17,-0.18 -0.12,-0.12 -0.21,-0.24 -0.29,-0.36 -0.18,-0.25 -0.32,-0.5 -0.4,-0.76 -0.05,-0.12 -0.08,-0.25 -0.1,-0.38 -0.03,-0.13 -0.04,-0.26 -0.04,-0.39 v -11.4 c 0,-0.13 0.01,-0.25 0.04,-0.38 0.01,-0.13 0.05,-0.25 0.1,-0.38 0.12,-0.38 0.35,-0.76 0.69,-1.13 0.05,-0.06 0.11,-0.12 0.17,-0.18 0.06,-0.07 0.12,-0.12 0.18,-0.18 0.13,-0.12 0.26,-0.24 0.41,-0.35 0.29,-0.24 0.62,-0.46 0.99,-0.68 0.36,-0.22 0.76,-0.44 1.21,-0.64 0.44,-0.21 0.9,-0.41 1.41,-0.6 0.52,-0.2 1.08,-0.4 1.67,-0.58 0.26,-0.08 0.53,-0.17 0.8,-0.24 0.88,-0.26 1.84,-0.5 2.84,-0.71 0.28,-0.06 0.56,-0.12 0.85,-0.17 0.25,-0.06 0.5,-0.11 0.76,-0.15 0.35,-0.07 0.72,-0.14 1.1,-0.19 0.55,-0.1 1.12,-0.18 1.7,-0.26 0.35,-0.05 0.7,-0.1 1.07,-0.14 0.5,-0.06 1.03,-0.12 1.55,-0.18 0.28,-0.03 0.56,-0.05 0.85,-0.08 0.36,-0.03 0.73,-0.06 1.12,-0.09 0.14,-0.01 0.29,-0.02 0.44,-0.03 0.42,-0.03 0.85,-0.06 1.3,-0.09 0.89,-0.04 1.8,-0.08 2.72,-0.1 0.28,-0.01 0.57,-0.02 0.86,-0.02 0.44,-0.01 0.89,-0.01 1.35,-0.01 0.45,0 0.9,0 1.35,0.01 0.29,0 0.58,0.01 0.86,0.02 0.91,0.02 1.81,0.05 2.69,0.1 0.44,0.03 0.88,0.06 1.33,0.09 0.58,0.04 1.16,0.08 1.72,0.14 0.23,0.02 0.46,0.04 0.68,0.06 0.52,0.06 1.05,0.12 1.56,0.18 0.37,0.04 0.74,0.09 1.12,0.14 0.02,0.01 0.04,0.01 0.07,0.01 0.37,0.05 0.73,0.11 1.1,0.17 0.37,0.05 0.73,0.11 1.1,0.18 0.36,0.06 0.71,0.13 1.07,0.2 0.35,0.07 0.69,0.14 1.03,0.21 0.33,0.07 0.65,0.14 0.97,0.21 0.34,0.09 0.68,0.17 1.02,0.26 0.29,0.08 0.58,0.16 0.86,0.24 0.27,0.07 0.52,0.15 0.77,0.23 0.6,0.19 1.17,0.39 1.7,0.59 0.5,0.19 0.97,0.39 1.41,0.6 0.66,0.31 1.25,0.64 1.74,0.98 0.16,0.11 0.3,0.21 0.44,0.32 0.17,0.13 0.32,0.26 0.46,0.39 0.12,0.11 0.23,0.23 0.33,0.34 0.02,0.02 0.04,0.05 0.06,0.07 0.08,0.1 0.16,0.2 0.23,0.3 0.09,0.12 0.17,0.24 0.23,0.37 0.06,0.11 0.12,0.23 0.16,0.35 0,0.01 0.01,0.03 0.01,0.05 0.04,0.1 0.07,0.2 0.08,0.3 0.01,0.04 0.02,0.09 0.03,0.13 0,0.01 0,0.01 0,0.02 0.01,0.1 0.02,0.19 0.02,0.29 v 11.37 z m 34.96,7.62 c 14.01,0.14 25.21,3.49 25.21,7.59 v 11.4 c 0,4.14 -11.43,7.52 -25.66,7.6 h -0.53 c -14.47,0 -26.19,-3.41 -26.19,-7.6 v -11.4 c 0,-4.19 11.72,-7.6 26.19,-7.6 0.34,0 0.66,0 0.98,0.01 z m 25.21,-34.02 c 0,0.12 -0.01,0.23 -0.03,0.34 -0.01,0.09 -0.03,0.19 -0.06,0.28 0,0.03 -0.01,0.06 -0.02,0.09 v 0.01 c -0.03,0.08 -0.06,0.16 -0.1,0.23 v 0.01 c -0.01,0.03 -0.02,0.06 -0.04,0.08 -0.04,0.1 -0.1,0.2 -0.16,0.3 -0.05,0.1 -0.12,0.2 -0.2,0.3 -0.13,0.18 -0.29,0.35 -0.47,0.52 -0.06,0.07 -0.14,0.14 -0.22,0.21 -0.09,0.08 -0.18,0.16 -0.28,0.24 -0.29,0.23 -0.62,0.46 -0.99,0.68 -1.04,0.62 -2.37,1.21 -3.94,1.72 -0.22,0.08 -0.45,0.15 -0.68,0.22 -0.33,0.1 -0.68,0.2 -1.04,0.3 -0.28,0.08 -0.56,0.15 -0.86,0.22 -0.04,0.01 -0.07,0.02 -0.1,0.03 -0.42,0.1 -0.86,0.2 -1.31,0.3 -0.5,0.11 -1.03,0.21 -1.56,0.31 -0.45,0.08 -0.91,0.16 -1.39,0.24 -0.59,0.09 -1.2,0.18 -1.82,0.26 -0.42,0.06 -0.84,0.11 -1.28,0.16 -0.02,0 -0.05,0.01 -0.07,0.01 -0.58,0.07 -1.18,0.13 -1.78,0.18 -0.3,0.03 -0.61,0.05 -0.92,0.07 -0.39,0.04 -0.78,0.07 -1.19,0.09 -0.49,0.03 -1.01,0.06 -1.52,0.08 -0.54,0.03 -1.09,0.05 -1.64,0.06 -0.32,0.01 -0.63,0.02 -0.95,0.03 -0.52,0.01 -1.05,0.01 -1.57,0.01 -0.52,0 -1.05,0 -1.57,-0.01 -0.32,-0.01 -0.63,-0.02 -0.95,-0.03 -0.55,-0.01 -1.1,-0.03 -1.64,-0.06 -0.51,-0.02 -1.02,-0.05 -1.52,-0.08 -0.37,-0.02 -0.74,-0.05 -1.12,-0.08 -0.33,-0.02 -0.66,-0.05 -0.99,-0.08 -0.61,-0.05 -1.22,-0.12 -1.81,-0.18 -0.43,-0.05 -0.85,-0.11 -1.28,-0.16 -0.16,-0.02 -0.32,-0.04 -0.48,-0.07 -0.35,-0.04 -0.71,-0.1 -1.06,-0.15 -0.17,-0.03 -0.33,-0.05 -0.5,-0.08 -0.03,0 -0.05,-0.01 -0.08,-0.01 -0.33,-0.06 -0.66,-0.12 -0.99,-0.18 -0.43,-0.08 -0.86,-0.16 -1.28,-0.25 -0.36,-0.07 -0.71,-0.15 -1.06,-0.23 -0.22,-0.05 -0.42,-0.1 -0.63,-0.14 -0.25,-0.07 -0.5,-0.13 -0.74,-0.2 -0.44,-0.11 -0.86,-0.23 -1.29,-0.36 -0.23,-0.07 -0.46,-0.14 -0.68,-0.22 -1.57,-0.51 -2.9,-1.1 -3.94,-1.72 -0.37,-0.22 -0.7,-0.45 -0.99,-0.68 -0.1,-0.08 -0.19,-0.16 -0.28,-0.24 -0.08,-0.07 -0.16,-0.14 -0.22,-0.21 -0.18,-0.17 -0.34,-0.34 -0.47,-0.52 -0.08,-0.1 -0.15,-0.2 -0.2,-0.3 -0.06,-0.1 -0.12,-0.2 -0.16,-0.3 -0.02,-0.02 -0.03,-0.05 -0.04,-0.08 v -0.01 c -0.04,-0.07 -0.07,-0.15 -0.1,-0.23 v -0.01 c -0.01,-0.03 -0.02,-0.06 -0.02,-0.09 -0.03,-0.09 -0.05,-0.19 -0.06,-0.28 -0.02,-0.11 -0.03,-0.22 -0.03,-0.34 v -11.38 c 0,-4.2 11.72,-7.61 26.19,-7.61 14.46,0 26.19,3.41 26.19,7.61 v 11.38 z"
   id="path3798" />
				<path
   class="st179"
   d="m 599.77,2822.84 c 0,2.26 -3.42,4.3 -8.82,5.69 -4.61,1.2 -10.69,1.91 -17.37,1.91 -6.66,0 -12.75,-0.71 -17.36,-1.91 -5.43,-1.39 -8.83,-3.43 -8.83,-5.69 0,-4.2 11.72,-7.61 26.19,-7.61 14.47,0 26.19,3.41 26.19,7.61 z"
   id="path3800" />
				<path
   class="st179"
   d="m 599.77,2875.82 c 0,2.26 -3.44,4.31 -8.85,5.69 -4.44,1.16 -10.23,1.86 -16.61,1.9 -0.24,0.01 -0.48,0.01 -0.72,0.01 -6.65,0 -12.73,-0.71 -17.34,-1.9 -5.44,-1.4 -8.85,-3.44 -8.85,-5.7 0,-4.19 11.72,-7.6 26.19,-7.6 0.33,0 0.65,0 0.97,0.01 14.01,0.15 25.21,3.49 25.21,7.59 z"
   id="path3802" />
			</g>
		</g>
		<path
   class="st179"
   d="m 539.84,2848.76 c 0,2.27 -3.44,4.31 -8.85,5.71 -4.63,1.19 -10.69,1.9 -17.34,1.9 -6.65,0 -12.72,-0.71 -17.34,-1.9 -5.44,-1.4 -8.85,-3.44 -8.85,-5.71 0,-4.18 11.72,-7.59 26.19,-7.59 14.45,0 26.19,3.41 26.19,7.59 z"
   id="path3808" />
		<g
   id="g3888">
			<g
   id="g3842">
				<polygon
   class="st179"
   points="778.23,2512.79 837.53,2539.92 777.23,2669.56 657.64,2567.06 "
   id="polygon3810" />
				<g
   id="g3840">
					<polygon
   class="st179"
   points="777.86,2617.17 778.01,2617.24 778.01,2679.05 656.72,2625.12 656.72,2563.28 726.21,2594.19 777.54,2617.04 777.74,2617.13 777.74,2617.22 777.84,2617.17 "
   id="polygon3812" />
					<polygon
   class="st179"
   points="777.74,2617.13 777.84,2617.17 777.74,2617.22 "
   id="polygon3814" />
					<polygon
   class="st179"
   points="829.56,2594.19 838.26,2590.29 838.26,2652.13 778.01,2679.05 778.01,2617.24 "
   id="polygon3816" />
					<rect
   x="838.26001"
   y="2590.29"
   class="st179"
   width="0.0099999998"
   height="61.84"
   id="rect3818" />
					<path
   class="st179"
   d="m 803.73,2525.55 v 11.38 c 0,4.21 -11.72,7.61 -26.19,7.61 -14.47,0 -26.19,-3.4 -26.19,-7.61 v -11.38 c 0,2.26 3.41,4.3 8.83,5.69 4.6,1.2 10.69,1.91 17.36,1.91 6.66,0 12.75,-0.71 17.37,-1.91 5.41,-1.39 8.82,-3.43 8.82,-5.69 z"
   id="path3820" />
					<path
   class="st179"
   d="m 743.56,2551.93 v 11.4 c 0,4.2 -11.72,7.61 -26.19,7.61 -14.47,0 -26.19,-3.41 -26.19,-7.61 v -11.4 c 0,2.27 3.42,4.31 8.85,5.71 4.61,1.19 10.68,1.9 17.34,1.9 6.64,0 12.7,-0.71 17.34,-1.9 5.41,-1.4 8.85,-3.44 8.85,-5.71 z"
   id="path3822" />
					<polygon
   class="st179"
   points="777.74,2617.22 777.74,2617.13 777.84,2617.17 "
   id="polygon3824" />
					<polygon
   class="st179"
   points="838.04,2590.08 837.91,2590.14 778.64,2563.77 778.65,2563.14 830.19,2540.11 834.9,2537.77 838.04,2536.37 "
   id="polygon3826" />
					<polygon
   class="st179"
   points="834.9,2537.77 838.04,2536.21 838.04,2536.37 "
   id="polygon3828" />
					<path
   class="st179"
   d="m 837.91,2590.14 -60.06,27.02 0.15,0.07 51.55,-23.04 8.7,-3.9 z m -3.01,-52.37 3.15,-1.4 v -0.16 z"
   id="path3830" />
					<path
   class="st179"
   d="m 838.27,2536.27 -60.27,-26.94 -121.29,53.96 69.49,30.91 51.33,22.84 0.2,0.09 0.09,0.04 h 0.02 l 60.06,-27.02 -59.27,-26.37 -0.63,-0.28 -0.46,-0.21 0.46,-0.2 56.89,-25.31 3.15,-1.56 v 0.16 z m -94.71,27.05 c 0,4.2 -11.72,7.61 -26.19,7.61 -14.47,0 -26.19,-3.41 -26.19,-7.61 v -11.4 c 0,-4.18 11.72,-7.59 26.19,-7.59 14.45,0 26.19,3.41 26.19,7.59 z m 34.96,7.62 c 14.01,0.14 25.21,3.49 25.21,7.59 v 11.4 c 0,4.14 -11.43,7.52 -25.66,7.6 h -0.53 c -14.47,0 -26.19,-3.41 -26.19,-7.6 v -11.4 c 0,-4.19 11.72,-7.6 26.19,-7.6 0.34,0 0.66,0 0.98,0.01 z m 25.21,-34.02 c 0,4.21 -11.72,7.61 -26.19,7.61 -14.47,0 -26.19,-3.4 -26.19,-7.61 v -11.38 c 0,-4.2 11.72,-7.61 26.19,-7.61 14.46,0 26.19,3.41 26.19,7.61 z"
   id="path3832" />
					<path
   class="st179"
   d="m 803.73,2525.55 c 0,2.26 -3.42,4.3 -8.82,5.69 -4.61,1.2 -10.7,1.91 -17.37,1.91 -6.66,0 -12.75,-0.71 -17.36,-1.91 -5.43,-1.39 -8.83,-3.43 -8.83,-5.69 0,-4.2 11.72,-7.61 26.19,-7.61 14.47,0 26.19,3.4 26.19,7.61 z"
   id="path3834" />
					<path
   class="st179"
   d="m 743.56,2551.93 c 0,2.27 -3.44,4.31 -8.85,5.71 -4.63,1.19 -10.69,1.9 -17.34,1.9 -6.65,0 -12.72,-0.71 -17.34,-1.9 -5.44,-1.4 -8.85,-3.44 -8.85,-5.71 0,-4.18 11.72,-7.59 26.19,-7.59 14.45,0 26.19,3.4 26.19,7.59 z"
   id="path3836" />
					<path
   class="st179"
   d="m 803.73,2578.53 c 0,2.26 -3.44,4.31 -8.85,5.69 -4.44,1.16 -10.23,1.86 -16.61,1.9 -0.24,0.01 -0.48,0.01 -0.72,0.01 -6.65,0 -12.73,-0.71 -17.34,-1.9 -5.44,-1.4 -8.85,-3.44 -8.85,-5.7 0,-4.19 11.72,-7.6 26.19,-7.6 0.33,0 0.65,0 0.97,0.01 14.01,0.14 25.21,3.49 25.21,7.59 z"
   id="path3838" />
				</g>
			</g>
			<g
   id="g3886">
				<polygon
   class="st179"
   points="696.83,2685.64 637.54,2712.78 697.84,2842.42 817.43,2739.91 "
   id="polygon3844" />
				<g
   id="g3884">
					<polygon
   class="st179"
   points="635.72,2707.68 635.78,2707.71 635.72,2707.74 "
   id="polygon3846" />
					<polygon
   class="st179"
   points="635.72,2708.09 695.78,2734.93 635.72,2761.77 "
   id="polygon3848" />
					<polygon
   class="st179"
   points="635.72,2762.11 644.08,2765.84 695.78,2788.83 695.88,2788.88 696.27,2788.7 696.27,2796.44 695.88,2796.27 635.72,2769.51 "
   id="polygon3850" />
					<path
   class="st179"
   d="m 696.27,2742.43 v 0.16 c -0.23,-0.01 -0.47,-0.01 -0.71,-0.01 -14.47,0 -26.19,3.41 -26.19,7.59 0,0.55 0.2,1.09 0.59,1.6 -0.29,-0.35 -0.49,-0.71 -0.59,-1.08 -0.08,-0.22 -0.11,-0.44 -0.11,-0.66 0,-4.2 11.72,-7.61 26.18,-7.61 0.28,0 0.56,0 0.83,0.01 z"
   id="path3852" />
					<path
   class="st179"
   d="m 695.44,2757.62 c 0.28,0 0.56,0 0.83,-0.01 v 0.15 c -0.23,0.01 -0.47,0.01 -0.71,0.01 -6.65,0 -12.72,-0.71 -17.34,-1.9 -4.08,-1.05 -7.01,-2.45 -8.23,-4.06 1.28,1.54 4.15,2.89 8.09,3.9 4.62,1.2 10.71,1.91 17.36,1.91 z"
   id="path3854" />
					<g
   id="g3882">
						<path
   class="st179"
   d="m 696.27,2742.43 c -0.27,-0.01 -0.55,-0.01 -0.83,-0.01 -14.46,0 -26.18,3.41 -26.18,7.61 0,0.22 0.03,0.44 0.11,0.66 v -0.52 c 0,-4.18 11.72,-7.59 26.19,-7.59 0.24,0 0.48,0 0.71,0.01 11.89,0.09 21.8,2.48 24.65,5.69 -2.65,-3.29 -12.62,-5.75 -24.65,-5.85 z m 0,46.27 -0.39,0.17 -0.1,-0.04 0.1,0.05 0.39,-0.17 51.16,-22.87 z m -60.94,-26.76 0.39,0.17 v -0.34 z m 0,-54.02 0.39,0.17 v -0.34 z"
   id="path3856" />
						<path
   class="st179"
   d="m 695.88,2680.97 -60.1,26.74 -0.06,0.03 v 0.34 l 60.06,26.84 -60.06,26.84 v 0.34 l 8.35,3.73 51.71,22.99 0.1,0.04 0.39,-0.17 51.16,-22.86 69.16,-30.91 z m 25.87,80.6 c 0,4.12 -11.34,7.49 -25.48,7.59 -0.23,0.01 -0.47,0.01 -0.71,0.01 -14.47,0 -26.19,-3.41 -26.19,-7.6 v -10.88 c -0.08,-0.22 -0.11,-0.44 -0.11,-0.66 0,-4.2 11.72,-7.61 26.18,-7.61 0.28,0 0.56,0 0.83,0.01 12.03,0.1 22,2.56 24.65,5.85 0.07,0.08 0.14,0.16 0.19,0.24 0.42,0.53 0.63,1.09 0.63,1.65 v 11.4 z m 0.64,-53 c 0,4.21 -11.72,7.61 -26.19,7.61 -1.63,0 -3.23,-0.04 -4.77,-0.13 -0.19,-0.01 -0.39,-0.02 -0.58,-0.03 -2.82,-0.17 -5.48,-0.47 -7.88,-0.87 -0.25,-0.05 -0.5,-0.09 -0.74,-0.14 -3.07,-0.56 -5.7,-1.31 -7.73,-2.17 -0.22,-0.09 -0.42,-0.19 -0.62,-0.28 -0.68,-0.32 -1.28,-0.66 -1.79,-1.01 -0.17,-0.11 -0.33,-0.22 -0.47,-0.34 -0.29,-0.24 -0.55,-0.47 -0.76,-0.71 -0.11,-0.12 -0.21,-0.24 -0.29,-0.37 -0.18,-0.25 -0.32,-0.5 -0.4,-0.75 -0.05,-0.13 -0.08,-0.26 -0.1,-0.39 -0.03,-0.13 -0.04,-0.26 -0.04,-0.39 v -11.39 c 0,-4.19 11.72,-7.6 26.19,-7.6 14.46,0 26.19,3.41 26.19,7.6 v 11.36 z m 60.01,26.74 c -0.01,0.08 -0.02,0.15 -0.05,0.23 -0.02,0.1 -0.05,0.2 -0.1,0.3 -0.02,0.08 -0.05,0.15 -0.09,0.22 -0.08,0.16 -0.18,0.32 -0.29,0.47 -0.06,0.09 -0.13,0.18 -0.21,0.26 -0.32,0.39 -0.75,0.76 -1.29,1.13 -0.49,0.34 -1.08,0.66 -1.73,0.98 -0.22,0.1 -0.44,0.2 -0.68,0.3 -0.23,0.1 -0.46,0.19 -0.7,0.29 -0.01,0 -0.02,0 -0.03,0.01 -0.75,0.3 -1.58,0.57 -2.46,0.82 -0.44,0.13 -0.9,0.25 -1.38,0.37 -0.48,0.12 -0.96,0.24 -1.47,0.34 -0.5,0.12 -1.03,0.22 -1.56,0.32 -1.06,0.19 -2.17,0.37 -3.34,0.52 -0.58,0.08 -1.18,0.15 -1.78,0.21 -0.59,0.06 -1.21,0.12 -1.83,0.17 -0.62,0.06 -1.26,0.1 -1.9,0.14 -0.84,0.06 -1.71,0.1 -2.59,0.11 -0.44,0.01 -0.88,0.02 -1.34,0.03 -0.22,0 -0.44,0.01 -0.67,0.01 -0.22,0.01 -0.45,0.01 -0.67,0.01 -0.22,0 -0.45,0 -0.67,-0.01 -0.23,0 -0.45,-0.01 -0.67,-0.01 -0.45,-0.01 -0.89,-0.02 -1.34,-0.03 -0.88,-0.01 -1.75,-0.05 -2.59,-0.11 -2.56,-0.15 -4.97,-0.41 -7.21,-0.76 -2.23,-0.36 -4.26,-0.8 -6.03,-1.32 -0.84,-0.24 -1.64,-0.5 -2.36,-0.78 -0.07,-0.03 -0.14,-0.05 -0.21,-0.08 -0.21,-0.09 -0.42,-0.17 -0.62,-0.26 -0.24,-0.1 -0.47,-0.2 -0.69,-0.3 -0.87,-0.42 -1.61,-0.86 -2.19,-1.33 -0.29,-0.23 -0.55,-0.47 -0.76,-0.71 -0.17,-0.18 -0.31,-0.36 -0.41,-0.55 -0.07,-0.09 -0.12,-0.19 -0.16,-0.28 -0.04,-0.09 -0.08,-0.19 -0.12,-0.29 -0.05,-0.12 -0.08,-0.25 -0.1,-0.38 -0.03,-0.13 -0.04,-0.26 -0.04,-0.39 v -11.4 c 0,-0.13 0.01,-0.26 0.04,-0.39 0.02,-0.13 0.05,-0.25 0.1,-0.38 0.08,-0.26 0.21,-0.51 0.4,-0.75 0.08,-0.13 0.18,-0.25 0.29,-0.37 0.21,-0.24 0.47,-0.48 0.76,-0.71 0.14,-0.11 0.3,-0.23 0.47,-0.34 0.16,-0.11 0.33,-0.22 0.52,-0.33 0.16,-0.1 0.32,-0.2 0.49,-0.28 0.42,-0.24 0.89,-0.46 1.4,-0.67 0.21,-0.09 0.43,-0.18 0.66,-0.27 0.3,-0.12 0.62,-0.24 0.94,-0.35 0.5,-0.18 1.04,-0.34 1.59,-0.5 0.59,-0.18 1.21,-0.34 1.86,-0.49 0.64,-0.16 1.32,-0.3 2.01,-0.43 0.35,-0.08 0.7,-0.14 1.07,-0.2 0.67,-0.12 1.38,-0.24 2.1,-0.33 0.08,-0.02 0.16,-0.03 0.23,-0.03 0.61,-0.09 1.24,-0.17 1.87,-0.24 0.32,-0.04 0.65,-0.07 0.98,-0.1 0.32,-0.03 0.65,-0.06 0.99,-0.09 0.66,-0.06 1.35,-0.11 2.04,-0.15 0.19,-0.01 0.39,-0.02 0.58,-0.03 1.55,-0.09 3.15,-0.13 4.77,-0.13 14.46,0 26.19,3.41 26.19,7.6 v 11.4 c 0.01,0.08 0,0.2 -0.02,0.31 z"
   id="path3858" />
						<path
   class="st179"
   d="m 722.39,2697.18 c 0,2.27 -3.42,4.3 -8.82,5.7 -4.61,1.19 -10.7,1.91 -17.37,1.91 -6.66,0 -12.74,-0.72 -17.36,-1.91 -5.43,-1.4 -8.82,-3.43 -8.82,-5.7 v 11.39 c 0,0.13 0.01,0.26 0.03,0.39 -0.03,-0.13 -0.04,-0.26 -0.04,-0.39 v -11.39 c 0,-4.19 11.72,-7.6 26.19,-7.6 14.46,0 26.19,3.41 26.19,7.6 z"
   id="path3860" />
						<path
   class="st179"
   d="m 669.96,2751.76 c -0.29,-0.35 -0.49,-0.71 -0.59,-1.08 v -0.52 c 0,0.56 0.2,1.09 0.59,1.6 z"
   id="path3862" />
						<path
   class="st179"
   d="m 720.92,2748.27 c -2.85,-3.21 -12.76,-5.6 -24.65,-5.69 -0.23,-0.01 -0.47,-0.01 -0.71,-0.01 -14.47,0 -26.19,3.41 -26.19,7.59 0,0.55 0.2,1.09 0.59,1.6 -0.29,-0.35 -0.49,-0.71 -0.59,-1.08 -0.08,-0.22 -0.11,-0.44 -0.11,-0.66 0,-4.2 11.72,-7.61 26.18,-7.61 0.28,0 0.56,0 0.83,0.01 12.03,0.11 22,2.57 24.65,5.85 z"
   id="path3864" />
						<path
   class="st179"
   d="m 782.43,2723.57 c 0,2.27 -3.44,4.31 -8.85,5.7 -4.62,1.19 -10.69,1.91 -17.34,1.91 -6.65,0 -12.72,-0.72 -17.33,-1.91 -5.45,-1.39 -8.85,-3.43 -8.85,-5.7 0,-0.13 0.01,-0.26 0.03,-0.39 0.03,-0.13 0.06,-0.26 0.1,-0.38 0.09,-0.26 0.23,-0.51 0.4,-0.75 0.09,-0.13 0.18,-0.25 0.29,-0.37 0.21,-0.24 0.47,-0.48 0.76,-0.71 0.14,-0.11 0.3,-0.23 0.47,-0.34 0.16,-0.11 0.33,-0.22 0.52,-0.33 0.15,-0.1 0.32,-0.19 0.49,-0.28 0.42,-0.24 0.89,-0.46 1.4,-0.67 0.21,-0.09 0.43,-0.18 0.66,-0.27 0.3,-0.12 0.62,-0.24 0.94,-0.35 0.5,-0.17 1.04,-0.34 1.59,-0.5 0.59,-0.17 1.22,-0.33 1.86,-0.49 0.64,-0.15 1.32,-0.3 2.01,-0.43 0.35,-0.08 0.7,-0.14 1.07,-0.2 0.68,-0.12 1.38,-0.23 2.1,-0.33 0.08,-0.02 0.16,-0.03 0.23,-0.03 0.61,-0.09 1.24,-0.17 1.87,-0.24 0.32,-0.04 0.65,-0.07 0.98,-0.1 0.32,-0.03 0.65,-0.06 0.99,-0.09 0.66,-0.06 1.35,-0.11 2.04,-0.15 0.19,-0.01 0.39,-0.02 0.58,-0.03 1.55,-0.09 3.15,-0.13 4.77,-0.13 14.49,-0.03 26.22,3.37 26.22,7.56 z"
   id="path3866" />
						<path
   class="st179"
   d="m 721.64,2750.02 c 0,2.26 -3.42,4.3 -8.83,5.69 -4.41,1.15 -10.19,1.85 -16.53,1.9 -0.27,0.01 -0.55,0.01 -0.83,0.01 -6.65,0 -12.74,-0.71 -17.36,-1.91 -3.94,-1 -6.81,-2.36 -8.09,-3.9 -0.02,-0.01 -0.03,-0.03 -0.03,-0.05 -0.39,-0.51 -0.59,-1.05 -0.59,-1.6 0,-4.18 11.72,-7.59 26.19,-7.59 0.24,0 0.48,0 0.71,0.01 11.89,0.09 21.8,2.48 24.65,5.69 0.07,0.08 0.14,0.16 0.19,0.24 0.34,0.49 0.52,1 0.52,1.51 z"
   id="path3868" />
						<path
   class="st179"
   d="m 721.75,2750.16 c 0,2.27 -3.44,4.31 -8.85,5.71 -4.45,1.15 -10.25,1.85 -16.62,1.89 -0.23,0.01 -0.47,0.01 -0.71,0.01 -6.65,0 -12.72,-0.71 -17.34,-1.9 -4.08,-1.05 -7.01,-2.45 -8.23,-4.06 1.28,1.54 4.15,2.89 8.09,3.9 4.61,1.2 10.7,1.91 17.36,1.91 0.28,0 0.56,0 0.83,-0.01 6.34,-0.05 12.12,-0.75 16.53,-1.9 5.42,-1.39 8.83,-3.43 8.83,-5.69 0,-0.51 -0.18,-1.03 -0.52,-1.51 0.42,0.54 0.63,1.09 0.63,1.65 z"
   id="path3870" />
						<path
   class="st179"
   d="m 782.43,2723.57 v 11.4 c 0,0.11 -0.01,0.23 -0.03,0.34 -0.01,0.08 -0.02,0.15 -0.05,0.23 -0.02,0.1 -0.05,0.2 -0.1,0.3 -0.02,0.08 -0.05,0.15 -0.09,0.22 -0.08,0.16 -0.18,0.32 -0.29,0.47 -0.06,0.09 -0.13,0.18 -0.21,0.26 -0.32,0.39 -0.75,0.76 -1.29,1.13 -0.49,0.34 -1.08,0.66 -1.73,0.98 -0.22,0.1 -0.44,0.2 -0.68,0.3 -0.23,0.1 -0.46,0.19 -0.7,0.29 -0.01,0 -0.02,0 -0.03,0.01 -0.75,0.29 -1.58,0.56 -2.46,0.82 -0.44,0.13 -0.9,0.25 -1.38,0.37 -0.48,0.12 -0.96,0.23 -1.47,0.34 -0.51,0.11 -1.03,0.22 -1.56,0.32 -1.06,0.19 -2.17,0.37 -3.34,0.52 -0.58,0.07 -1.18,0.14 -1.78,0.21 -0.6,0.06 -1.22,0.12 -1.83,0.17 -0.62,0.05 -1.26,0.1 -1.9,0.14 -0.84,0.05 -1.72,0.08 -2.59,0.11 -0.44,0.01 -0.88,0.02 -1.34,0.03 -0.22,0 -0.44,0.01 -0.67,0.01 h -1.35 c -0.23,0 -0.45,-0.01 -0.67,-0.01 -0.45,-0.01 -0.89,-0.02 -1.34,-0.03 -0.87,-0.03 -1.75,-0.06 -2.59,-0.11 -2.56,-0.16 -4.97,-0.42 -7.21,-0.76 -2.23,-0.36 -4.26,-0.8 -6.03,-1.32 -0.84,-0.24 -1.64,-0.51 -2.36,-0.78 -0.07,-0.03 -0.14,-0.05 -0.21,-0.08 -0.21,-0.09 -0.42,-0.17 -0.62,-0.26 -0.24,-0.1 -0.47,-0.2 -0.69,-0.3 -0.87,-0.42 -1.61,-0.86 -2.19,-1.33 -0.29,-0.23 -0.55,-0.47 -0.76,-0.71 -0.16,-0.18 -0.3,-0.36 -0.41,-0.55 -0.06,-0.09 -0.11,-0.18 -0.16,-0.28 -0.04,-0.09 -0.08,-0.19 -0.12,-0.29 -0.04,-0.12 -0.07,-0.25 -0.1,-0.38 -0.02,-0.13 -0.03,-0.26 -0.03,-0.39 v -11.4 c 0,2.27 3.41,4.31 8.85,5.7 4.6,1.19 10.67,1.91 17.33,1.91 6.64,0 12.71,-0.72 17.34,-1.91 5.4,-1.38 8.84,-3.42 8.84,-5.69 z"
   id="path3872" />
						<path
   class="st179"
   d="m 722.39,2697.18 v 11.39 c 0,4.21 -11.72,7.61 -26.19,7.61 -1.63,0 -3.23,-0.04 -4.77,-0.13 -0.19,-0.01 -0.39,-0.02 -0.58,-0.03 -2.82,-0.17 -5.48,-0.47 -7.88,-0.87 -0.25,-0.05 -0.5,-0.09 -0.74,-0.14 -3.07,-0.56 -5.7,-1.31 -7.73,-2.17 -0.22,-0.09 -0.42,-0.19 -0.62,-0.28 -0.68,-0.32 -1.28,-0.66 -1.79,-1.01 -0.17,-0.11 -0.33,-0.22 -0.47,-0.34 -0.29,-0.24 -0.55,-0.47 -0.76,-0.71 -0.11,-0.12 -0.2,-0.25 -0.29,-0.37 -0.17,-0.25 -0.31,-0.5 -0.4,-0.75 -0.04,-0.13 -0.07,-0.26 -0.1,-0.39 -0.02,-0.13 -0.03,-0.26 -0.03,-0.39 v -11.39 c 0,2.27 3.4,4.3 8.82,5.7 4.61,1.19 10.69,1.91 17.36,1.91 6.66,0 12.75,-0.72 17.37,-1.91 5.38,-1.43 8.8,-3.46 8.8,-5.73 z"
   id="path3874" />
						<polygon
   class="st179"
   points="635.72,2762.11 644.08,2765.84 695.78,2788.83 695.88,2788.88 695.88,2850.7 635.33,2823.77 635.33,2761.94 "
   id="polygon3876" />
						<polygon
   class="st179"
   points="696.27,2796.44 696.27,2788.71 747.44,2765.84 816.6,2734.93 816.6,2796.75 695.88,2850.7 695.88,2796.27 "
   id="polygon3878" />
						<polygon
   class="st179"
   points="696.27,2796.44 695.88,2796.27 695.88,2788.88 696.27,2788.7 747.44,2765.84 696.27,2788.71 "
   id="polygon3880" />
					</g>
				</g>
			</g>
		</g>
	</g>
</g>
</svg>
