<?xml version="1.0" encoding="UTF-8" standalone="no"?>
<!-- Generator: Adobe Adobe Illustrator 24.2.0, SVG Export Plug-In . SVG Version: 6.00 Build 0)  -->

<svg
   version="1.1"
   id="Layer_1"
   x="0px"
   y="0px"
   width="1064.0579"
   height="832.349"
   viewBox="0 0 1064.0579 832.349"
   xml:space="preserve"
   xmlns="http://www.w3.org/2000/svg"
   xmlns:svg="http://www.w3.org/2000/svg"><defs
   id="defs162" />
<style
   type="text/css"
   id="style99">
	.st0{fill:url(#SVGID_1_);}
	.st1{fill:url(#SVGID_2_);}
	.st2{fill:#FFFFFF;}
</style>
<g
   id="g157"
   transform="translate(-68,-183.89999)">
	<linearGradient
   id="SVGID_1_"
   gradientUnits="userSpaceOnUse"
   x1="67.9384"
   y1="579.29718"
   x2="858.78491"
   y2="579.29718">
		<stop
   offset="0"
   style="stop-color:#D8D581"
   id="stop101" />
		<stop
   offset="6.821423e-02"
   style="stop-color:#D1CE6B"
   id="stop103" />
		<stop
   offset="0.1634"
   style="stop-color:#CAC654"
   id="stop105" />
		<stop
   offset="0.2735"
   style="stop-color:#C5C043"
   id="stop107" />
		<stop
   offset="0.4062"
   style="stop-color:#C1BC36"
   id="stop109" />
		<stop
   offset="0.5843"
   style="stop-color:#BFBA2F"
   id="stop111" />
		<stop
   offset="0.9999"
   style="stop-color:#BEB92D"
   id="stop113" />
	</linearGradient>
	<circle
   class="st0"
   cx="463.39999"
   cy="579.29999"
   r="395.39999"
   id="circle116"
   style="fill:url(#SVGID_1_)" />
	<linearGradient
   id="SVGID_2_"
   gradientUnits="userSpaceOnUse"
   x1="117.0835"
   y1="847.64362"
   x2="1132.0616"
   y2="847.64362">
		<stop
   offset="1.004242e-02"
   style="stop-color:#D5D279"
   id="stop118" />
		<stop
   offset="0.3353"
   style="stop-color:#A0C9A7"
   id="stop120" />
		<stop
   offset="0.6296"
   style="stop-color:#77C2CA"
   id="stop122" />
		<stop
   offset="0.8606"
   style="stop-color:#5DBEE0"
   id="stop124" />
		<stop
   offset="0.9999"
   style="stop-color:#54BCE8"
   id="stop126" />
	</linearGradient>
	<path
   class="st1"
   d="m 206.7,714.2 c 40,-46 370.3,-11.1 378.4,32 3.8,20.6 -68.5,28.8 -128.4,91.9 -20.3,21.4 -42,44.2 -27,59.9 25.5,26.8 136.4,15.9 195.9,4 38.8,-7.7 111.3,-22.2 128.4,-55.9 13.7,-27.1 -22.5,-38.9 -13.5,-67.9 12.8,-41.2 100.1,-63.5 148.6,-75.9 80.1,-20.5 207.9,-35.6 236.5,-8 8,7.7 9.2,19.8 0,28 -26.1,23.2 -109.6,-7.9 -209.5,12 -41.2,8.2 -109.3,29.9 -114.9,59.9 -7.2,39.1 98.6,53.7 101.3,91.9 3.7,52.3 -188.5,107.6 -358.1,123.9 -174.7,16.8 -403.9,-0.2 -425.7,-51.9 -14,-33.3 57.9,-81.4 121.6,-103.9 71,-25 134.7,-19.4 202.7,-59.9 17.6,-10.5 39.4,-23.8 33.8,-36 -9.8,-21.1 -100.4,-35.3 -175.7,-24 -43.3,6.5 -70.6,19.8 -87.8,12 -13.3,-6.2 -15,-22.5 -6.6,-32.1 z"
   id="path129"
   style="fill:url(#SVGID_2_)" />
	<g
   id="g135">
		<path
   class="st2"
   d="m 175.2,610 c 0,-149.7 36.5,-198.7 140,-198.7 103.5,0 140,49 140,198.7 0,149.7 -36.5,198.7 -140,198.7 -103.5,0 -140,-49 -140,-198.7 z m 232.5,0 c 0,-117.1 -22.8,-155.1 -92.5,-155.1 -69.7,0 -92.5,38 -92.5,155.1 0,117.1 22.8,155.1 92.5,155.1 69.7,0 92.5,-38 92.5,-155.1 z"
   id="path131" />
		<path
   class="st2"
   d="m 533.1,800.6 c -9.6,-1.8 -13.8,-7.3 -13,-17.2 l 0.4,-6.4 c 0.8,-10 6.2,-15.1 16,-14.6 49.9,2 68.3,2.3 94.9,2.1 54.5,-0.3 71.7,-18 71.7,-60.2 0,-38.6 -14.4,-53.4 -46.1,-63.3 L 586.4,617.8 C 534.4,601.7 515,563.8 515,511 c 0,-76.9 36.1,-99.5 115.1,-99.2 29,0.1 61.6,2 92.5,7.7 8.6,1.8 12.9,7.7 12.1,17.6 l -0.4,6 c -0.8,9.7 -6.2,15 -15.3,14.6 -25.9,-1.4 -59.2,-2.3 -87.1,-2.3 -51.1,0 -71.5,9.1 -71.5,56.9 0,36.6 14.2,52.9 46.5,62.7 l 68.7,22.4 c 55.2,17.2 73.2,54.4 73.2,107.8 0,76.2 -35.9,102.9 -118.7,102.9 -21.2,0 -55.5,-0.9 -97,-7.5 z"
   id="path133" />
	</g>
	<g
   id="g143">
		<path
   class="st2"
   d="m 197.2,393.7 v -60.3 c 0,-0.9 -0.4,-1.3 -1.2,-1.3 h -17.7 c -1.8,0 -2.8,-1 -2.8,-3 v -2.3 c 0,-2 1,-3 2.8,-3 h 46.5 c 1.8,0 2.8,1 2.8,3 v 2.3 c 0,1.9 -0.9,3 -2.8,3 H 207 c -0.8,0 -1.2,0.4 -1.2,1.3 v 60.3 c 0,2 -0.9,3 -2.8,3 h -3 c -1.8,-0.1 -2.8,-1.1 -2.8,-3 z"
   id="path137" />
		<path
   class="st2"
   d="m 237.6,393.4 v -67.5 c 0,-2.1 1,-3.2 3,-3.2 h 2.4 c 1.9,0 3,1.1 3,3.2 l 0.1,14.8 c 0,2.8 -0.1,5.5 -0.4,7.7 -0.1,1.1 0.6,1.4 1.6,0.6 6.5,-3.2 12.9,-5.1 19.2,-5.1 8.4,0 12.9,4.9 12.9,14.1 v 35.4 c 0,2.1 -1,3.2 -3,3.2 H 274 c -1.9,0 -3,-1.1 -3,-3.2 v -32.8 c 0,-6.8 -1.9,-9 -6.8,-9 -5.4,0 -10.3,1.6 -17.5,4.9 -0.6,0.3 -0.8,0.8 -0.8,1.6 v 35.4 c 0,2.1 -1,3.2 -3,3.2 h -2.4 c -1.9,-0.1 -2.9,-1.2 -2.9,-3.3 z"
   id="path139" />
		<path
   class="st2"
   d="m 314.7,397.9 c -16.3,0 -22.7,-7.3 -22.7,-27.1 0,-20.2 6.6,-26.9 22.1,-26.9 14.2,0 20.1,5.8 20.2,16.8 0.1,9.2 -3.1,14.5 -10.5,14.5 h -21.7 c -0.8,0 -1.2,0.5 -1.1,1.3 1.1,10.9 5.5,13.7 14.8,13.7 4.3,0 9.3,-0.4 13.7,-1 1.9,-0.2 3,0.7 3.3,2.7 0.3,1.9 -0.4,3.3 -2.1,3.8 -4.6,1.7 -11.4,2.2 -16,2.2 z m 5.5,-29.6 c 4.8,0 5.8,-2.8 5.7,-7.6 -0.1,-6.5 -3.1,-9.2 -11.5,-9.2 -10.5,0 -13.3,3.6 -13.8,15.5 -0.1,0.9 0.3,1.3 1.1,1.3 z"
   id="path141" />
	</g>
	<g
   id="g155">
		<path
   class="st2"
   d="m 404.3,901.3 c 0,-40.8 11.2,-53 42.9,-53 9,0 17,0.6 24.8,2.2 2.6,0.5 3.7,2.2 3.4,4.8 l -0.3,2 c -0.4,2.6 -2,3.9 -4.6,3.7 -8.2,-0.8 -15.8,-1 -22.5,-1 -22.2,0 -29.9,6.3 -29.9,42.2 0,29.9 5.7,40.9 22.3,40.9 10,0 17.3,-2.9 24.1,-6 0.8,-0.4 1.3,-1.1 1.3,-2.1 v -37.1 c 0,-2.7 1.4,-4.2 4.2,-4.2 h 4.3 c 2.8,0 4.2,1.5 4.2,4.2 v 51 c 0,2.7 -1.3,4.2 -4.1,4.2 h -1.7 c -2.5,0 -4,-1.3 -4.5,-3.7 l -0.2,-2 c -0.3,-1.4 -1.2,-1.7 -2.3,-1 -6.5,4.2 -16.4,8.2 -28.9,8.2 -23.2,-0.1 -32.5,-16.7 -32.5,-53.3 z"
   id="path145" />
		<path
   class="st2"
   d="m 500.3,948.8 v -64.1 c 0,-2.8 1.5,-4.2 4.2,-4.2 h 1.8 c 2.6,0 4,0.7 4.4,3.3 l 0.2,1.9 c 0.2,1.5 1.4,1.8 2.5,1 9.5,-5.1 17.3,-7.4 27.9,-8 2.9,-0.3 4.4,1.5 4,4.4 l -0.4,3.4 c -0.4,2.6 -1.8,3.5 -4.4,4 -5.1,0.4 -15.4,2.2 -26,5.7 -1,0.4 -1.5,1.1 -1.5,2.1 v 50.5 c 0,2.8 -1.4,4.2 -4.2,4.2 h -4.3 c -2.8,0 -4.2,-1.4 -4.2,-4.2 z"
   id="path147" />
		<path
   class="st2"
   d="m 554.4,916.8 c 0,-26.1 9,-38.2 33.8,-38.2 24.5,0 33.7,12.1 33.7,38.2 0,26.1 -9.2,38.1 -33.7,38.1 -24.9,0 -33.8,-12 -33.8,-38.1 z m 54.3,0 c 0,-19.5 -5.1,-27.5 -20.5,-27.5 -15.7,0 -20.5,8 -20.5,27.5 0,19.4 4.8,27.4 20.5,27.4 15.4,0 20.5,-8 20.5,-27.4 z"
   id="path149" />
		<path
   class="st2"
   d="m 641.3,935 v -50 c 0,-3 1.6,-4.5 4.5,-4.5 h 3.6 c 3,0 4.5,1.5 4.5,4.5 v 46.3 c 0,9.6 2.9,12.7 10.4,12.7 7.9,0 14.9,-1.8 25.3,-6.8 0.8,-0.4 1.1,-0.9 1.1,-1.8 V 885 c 0,-3 1.5,-4.5 4.5,-4.5 h 3.6 c 3,0 4.5,1.5 4.5,4.5 v 63.4 c 0,3 -1.5,4.6 -4.5,4.6 h -2 c -2.8,0 -4.3,-1.1 -4.6,-3.2 l -0.2,-2.1 c -0.1,-1.1 -1,-1.4 -2.2,-0.7 -9.8,5.6 -19.5,7.8 -29.1,7.8 -12.5,0.1 -19.4,-6.8 -19.4,-19.8 z"
   id="path151" />
		<path
   class="st2"
   d="m 730.9,983.3 c -3,0 -4.5,-1.6 -4.5,-4.5 v -91.7 c 0,-2.2 0.9,-3.6 3.2,-4.4 6.6,-2.2 20.1,-4.1 29.2,-4.1 25.1,0 32.5,13 32.5,37.6 0,32.5 -11.5,38.7 -29.4,38.7 -4.6,0 -13,-0.7 -21.1,-3.7 -1.7,-0.6 -2.6,-0.8 -2.3,1.1 0.6,4.2 0.6,5.5 0.6,10.8 v 15.8 c 0,3 -1.6,4.5 -4.5,4.5 z m 29.6,-39.5 c 12.7,0 17.8,-4.9 17.8,-27.2 0,-20.6 -5.3,-27.1 -18.7,-27.3 -6,-0.1 -13.5,0.7 -18.2,1.9 -1.4,0.4 -2.3,1.2 -2.3,2.7 l -0.1,43.9 c 0,1.6 0.4,2.7 1.5,2.9 7.8,2.2 14.2,3.1 20,3.1 z"
   id="path153" />
	</g>
</g>
</svg>
