<?xml version="1.0" encoding="UTF-8" standalone="no"?>
<svg
   xmlns:dc="http://purl.org/dc/elements/1.1/"
   xmlns:cc="http://creativecommons.org/ns#"
   xmlns:rdf="http://www.w3.org/1999/02/22-rdf-syntax-ns#"
   xmlns:svg="http://www.w3.org/2000/svg"
   xmlns="http://www.w3.org/2000/svg"
   xml:space="preserve"
   id="svg2"
   height="103.875"
   width="142.37"
   version="1.1"><metadata
     id="metadata8"><rdf:RDF><cc:Work
         rdf:about=""><dc:format>image/svg+xml</dc:format><dc:type
           rdf:resource="http://purl.org/dc/dcmitype/StillImage" /><dc:title></dc:title></cc:Work></rdf:RDF></metadata><defs
     id="defs6"><clipPath
       id="clipPath18"><path
         id="path20"
         d="M 0,0 H 5261.66 V 831 H 0 Z" /></clipPath></defs><g
     transform="matrix(0.125,0,0,-0.125,0,103.875)"
     id="g14"><g
       id="g16"
       clip-path="url(#clipPath18)"><path
         style="fill:#5d96d1;fill-opacity:1;fill-rule:nonzero;stroke:none"
         id="path94"
         d="m 1138.96,531.055 c -31.1,14.992 -66.33,22.547 -105.19,22.547 -29.64,0 -61.071,-4.145 -96.047,-12.7 -16.34,-4.007 -36.707,-9.98 -60.278,-16.882 -82.109,-24.086 -206.187,-60.489 -328.535,-60.489 -160.098,0 -359.117,80.742 -381.297,89.953 -11.871,4.934 -29.832,7.883 -48.043,7.883 -18.172,0 -52.7223,-3.101 -80.0466,-23.836 C 13.2969,517.625 0,486.254 0,444.281 c 0,-34.433 11.1758,-63.129 32.3359,-82.976 19.4219,-18.231 46.711,-28.27 76.8481,-28.25 28.886,0 57.582,8.726 83.402,24.859 -24.723,-7.496 -47.461,-11.254 -67.984,-11.254 -63.6879,0 -100.2075,37.074 -100.2075,101.746 0,33.453 24.418,83.227 91.6525,83.227 15.551,0 32.601,-2.793 50.699,-8.285 42.973,-13.086 80.547,-51.528 120.34,-92.227 65.25,-66.754 139.207,-142.406 261.824,-142.406 168.981,0 268.531,87.004 334.395,144.582 12.023,10.504 23.355,20.406 33.703,28.519 73.496,57.774 150.002,69.895 201.242,69.895 7.32,0 14.26,-0.25 20.71,-0.656 M 548.91,486.27 c 50.219,0 100.977,6.378 148.977,15.535 -15.184,41.312 -47.035,74.593 -87.426,91.609 -3.684,30.734 -29.813,54.57 -61.551,54.57 -31.719,0 -57.867,-23.836 -61.527,-54.57 -39.602,-16.687 -70.992,-48.965 -86.504,-89.144 48.965,-10.579 100.355,-18 148.031,-18 M 414.309,183.691 h 269.222 c -25.051,48.852 -75.926,82.301 -134.621,82.301 -58.676,0 -109.551,-33.449 -134.601,-82.301" /><path
         style="fill:#5d96d1;fill-opacity:1;fill-rule:nonzero;stroke:none"
         id="path96"
         d="M 901.98,0 H 235.652 C 190.016,0 152.883,37.1289 152.883,82.7734 V 129.16 h 28.902 V 82.7734 c 0,-29.707 24.168,-53.8672 53.867,-53.8672 H 901.98 c 29.704,0 53.872,24.1602 53.872,53.8672 V 129.16 h 28.906 V 82.7734 C 984.758,37.1289 947.621,0 901.98,0" /><path
         style="fill:#5d96d1;fill-opacity:1;fill-rule:nonzero;stroke:none"
         id="path98"
         d="M 984.758,702.109 H 955.852 V 748.5 c 0,29.703 -24.168,53.867 -53.872,53.867 H 235.652 c -29.699,0 -53.867,-24.164 -53.867,-53.867 V 702.109 H 152.883 V 748.5 c 0,45.641 37.133,82.773 82.769,82.773 H 901.98 c 45.641,0 82.778,-37.132 82.778,-82.773 v -46.391" /></g></g></svg>