<?xml version="1.0" encoding="UTF-8"?>
<svg id="Layer_1" data-name="Layer 1" xmlns="http://www.w3.org/2000/svg" xmlns:xlink="http://www.w3.org/1999/xlink" viewBox="0 0 1200 460">
  <defs>
    <style>
      .cls-1 {
        fill: #89a24f;
      }

      .cls-1, .cls-2, .cls-3, .cls-4, .cls-5, .cls-6, .cls-7, .cls-8, .cls-9, .cls-10, .cls-11, .cls-12, .cls-13, .cls-14, .cls-15, .cls-16, .cls-17, .cls-18, .cls-19, .cls-20, .cls-21, .cls-22 {
        stroke-width: 0px;
      }

      .cls-2 {
        fill: #0098a5;
      }

      .cls-3 {
        fill: #0075c5;
      }

      .cls-3, .cls-5, .cls-17, .cls-18 {
        fill-rule: evenodd;
      }

      .cls-4 {
        fill: #ff620a;
      }

      .cls-23 {
        stroke-width: 1.83px;
      }

      .cls-23, .cls-24, .cls-25, .cls-26, .cls-27, .cls-28, .cls-29, .cls-30 {
        stroke-miterlimit: 10;
      }

      .cls-23, .cls-24, .cls-25, .cls-26, .cls-27, .cls-29 {
        stroke: #fff;
      }

      .cls-23, .cls-24, .cls-26, .cls-27, .cls-28, .cls-29, .cls-30 {
        fill: none;
      }

      .cls-23, .cls-26, .cls-28, .cls-29, .cls-30 {
        stroke-linecap: round;
      }

      .cls-24 {
        stroke-width: 1.83px;
      }

      .cls-5 {
        fill: #0053a1;
      }

      .cls-25, .cls-27 {
        stroke-width: 2.87px;
      }

      .cls-25, .cls-18, .cls-22 {
        fill: #fff;
      }

      .cls-6 {
        fill: url(#New_Gradient_Swatch_copy_2-2);
      }

      .cls-7 {
        fill: #00727c;
      }

      .cls-8 {
        fill: #6c8b23;
      }

      .cls-26 {
        stroke-width: 3.28px;
      }

      .cls-9 {
        fill: url(#New_Gradient_Swatch_copy_3);
      }

      .cls-10 {
        fill: url(#New_Gradient_Swatch_copy_2);
      }

      .cls-11 {
        fill: #66c1c9;
      }

      .cls-12 {
        fill: #00707a;
      }

      .cls-28 {
        stroke: #ff620a;
        stroke-width: 3.72px;
      }

      .cls-13 {
        fill: #f36c30;
      }

      .cls-29 {
        stroke-width: 4.31px;
      }

      .cls-14 {
        fill: #b65124;
      }

      .cls-15 {
        fill: #8eb230;
      }

      .cls-31 {
        opacity: .95;
      }

      .cls-16 {
        fill: #83b500;
      }

      .cls-17 {
        fill: #0085da;
      }

      .cls-19 {
        fill: #628d00;
      }

      .cls-20 {
        fill: #c34a0c;
      }

      .cls-21 {
        fill: #0095a3;
      }

      .cls-30 {
        stroke: #00727c;
        stroke-width: .54px;
      }
    </style>
    <linearGradient id="New_Gradient_Swatch_copy_3" data-name="New Gradient Swatch copy 3" x1="997.12" y1="48.13" x2="997.16" y2="48.13" gradientUnits="userSpaceOnUse">
      <stop offset="0" stop-color="#f8a783"/>
      <stop offset=".07" stop-color="#f6956b"/>
      <stop offset=".15" stop-color="#f58655"/>
      <stop offset=".25" stop-color="#f47a44"/>
      <stop offset=".36" stop-color="#f37238"/>
      <stop offset=".53" stop-color="#f36d31"/>
      <stop offset="1" stop-color="#f36c30"/>
    </linearGradient>
    <linearGradient id="New_Gradient_Swatch_copy_2" data-name="New Gradient Swatch copy 2" x1="335.05" y1="274.29" x2="335.22" y2="274.29" gradientUnits="userSpaceOnUse">
      <stop offset="0" stop-color="#ffa06c"/>
      <stop offset=".03" stop-color="#ff985f"/>
      <stop offset=".1" stop-color="#ff8745"/>
      <stop offset=".18" stop-color="#ff792f"/>
      <stop offset=".27" stop-color="#ff6e1e"/>
      <stop offset=".39" stop-color="#ff6712"/>
      <stop offset=".55" stop-color="#ff630b"/>
      <stop offset="1" stop-color="#ff620a"/>
    </linearGradient>
    <linearGradient id="New_Gradient_Swatch_copy_2-2" data-name="New Gradient Swatch copy 2" x1="774.35" x2="774.52" xlink:href="#New_Gradient_Swatch_copy_2"/>
  </defs>
  <rect class="cls-1" x="-9.18" y="-6.43" width="1214" height="471.63"/>
  <g>
    <g>
      <g>
        <polygon class="cls-14" points="1008.25 48.13 1008.25 53.81 1002.72 56.29 1002.72 50.61 1007.45 48.49 1008.25 48.13"/>
        <path class="cls-9" d="M997.12,48.13l.04.02v-.04l-.04.02Z"/>
        <path class="cls-13" d="M1002.7,45.65l-5.54,2.46v.04l5.54,2.46h0l5.55-2.48-5.55-2.48ZM1002.71,48.84c-1.33,0-2.41-.31-2.41-.7v-1.05c0-.38,1.08-.7,2.41-.7s2.41.31,2.41.7v1.03s0,0,0,.01c0,.39-1.08.7-2.41.7Z"/>
        <path class="cls-13" d="M1005.11,47.09c0,.21-.31.4-.81.52-.43.11-.98.18-1.59.18s-1.17-.07-1.59-.17c-.5-.13-.81-.32-.81-.52,0-.38,1.08-.7,2.41-.7s2.41.31,2.41.7Z"/>
        <polygon class="cls-13" points="1002.71 50.61 1002.71 56.29 997.14 53.81 997.14 48.13 997.95 48.49 1002.7 50.6 1002.71 50.61"/>
      </g>
      <polygon class="cls-12" points="1014.13 39.15 1014.13 44.83 1008.59 47.31 1008.59 41.63 1013.33 39.51 1014.13 39.15"/>
      <path class="cls-21" d="M1002.99,39.15l.04.02v-.04l-.04.02Z"/>
      <path class="cls-21" d="M1008.57,36.67l-5.54,2.46v.04l5.54,2.46h0l5.55-2.48-5.55-2.48ZM1008.58,39.86c-1.33,0-2.41-.31-2.41-.7v-1.05c0-.38,1.08-.7,2.41-.7s2.41.31,2.41.7v1.03s0,0,0,.01c0,.39-1.08.7-2.41.7Z"/>
      <path class="cls-21" d="M1010.99,38.11c0,.21-.31.4-.81.52-.43.11-.98.18-1.59.18s-1.17-.07-1.59-.17c-.5-.13-.81-.32-.81-.52,0-.38,1.08-.7,2.41-.7s2.41.31,2.41.7Z"/>
      <polygon class="cls-21" points="1008.58 41.63 1008.58 47.31 1003.02 44.83 1003.02 39.15 1003.82 39.51 1008.57 41.63 1008.58 41.63"/>
      <g>
        <polygon class="cls-8" points="1020.17 48.13 1020.17 53.81 1014.64 56.29 1014.64 50.61 1019.37 48.49 1020.17 48.13"/>
        <path class="cls-15" d="M1009.04,48.13l.04.02v-.04l-.04.02Z"/>
        <path class="cls-15" d="M1014.62,45.65l-5.54,2.46v.04l5.54,2.46h0l5.55-2.48-5.55-2.48ZM1014.63,48.84c-1.33,0-2.41-.31-2.41-.7v-1.05c0-.38,1.08-.7,2.41-.7s2.41.31,2.41.7v1.03s0,0,0,.01c0,.39-1.08.7-2.41.7Z"/>
        <path class="cls-15" d="M1017.03,47.09c0,.21-.31.4-.81.52-.43.11-.98.18-1.59.18s-1.17-.07-1.59-.17c-.5-.13-.81-.32-.81-.52,0-.38,1.08-.7,2.41-.7s2.41.31,2.41.7Z"/>
        <polygon class="cls-15" points="1014.63 50.61 1014.63 56.29 1009.07 53.81 1009.07 48.13 1009.87 48.49 1014.62 50.6 1014.63 50.61"/>
      </g>
    </g>
    <g class="cls-31">
      <path class="cls-22" d="M1023.17,58.23c-.62-.11-.89-.44-.84-1.03l.02-.38c.05-.6.4-.91,1.04-.87,3.23.12,4.42.14,6.14.13,3.52-.02,4.64-1.08,4.64-3.6,0-2.31-.93-3.19-2.98-3.79l-4.57-1.39c-3.37-.96-4.62-3.23-4.62-6.39,0-4.6,2.33-5.96,7.45-5.94,1.87,0,3.99.12,5.99.46.55.11.83.46.78,1.05l-.02.36c-.05.58-.4.9-.99.87-1.68-.08-3.83-.14-5.64-.14-3.31,0-4.63.55-4.63,3.41,0,2.19.92,3.17,3.01,3.75l4.45,1.34c3.57,1.03,4.74,3.26,4.74,6.45,0,4.56-2.32,6.16-7.69,6.16-1.37,0-3.6-.06-6.28-.45Z"/>
      <path class="cls-22" d="M1040.94,37.03c0-1.01.83-1.85,1.86-1.85s1.85.84,1.85,1.85-.84,1.86-1.85,1.86-1.86-.83-1.86-1.86ZM1041.39,57.28v-14.15c0-.67.35-1.01,1.01-1.01h.79c.67,0,1.01.34,1.01,1.01v14.15c0,.67-.34,1.01-1.01,1.01h-.79c-.66,0-1.01-.35-1.01-1.01Z"/>
      <path class="cls-22" d="M1050.42,58.3c-.66,0-1.01-.34-1.01-1.01v-14.15c0-.66.33-1.01.99-1.01h.36c.64,0,.97.05,1.1.7l.04.41c.05.29.24.41.51.22,2.06-1.33,4.64-1.75,6.07-1.75,1.77,0,3,.34,3.91,1.73.15.25.33.27.62.07,2.1-1.33,4.07-1.8,6.1-1.8,2.84,0,4.37,1.54,4.37,4.45v11.14c0,.67-.35,1.01-1.01,1.01h-.81c-.67,0-1.01-.34-1.01-1.01v-10.33c-.02-1.99-.71-2.84-2.52-2.84-1.39,0-2.78.24-5.05,1.5-.2.13-.28.27-.27.51.03.43.04.83.02,1.28v9.88c-.02.67-.38,1.01-1.04,1.01h-.71c-.67,0-1.01-.34-1.01-1.01v-10.33c.02-2.09-.81-2.84-2.52-2.84-1.09,0-2.71.18-5,1.46-.2.11-.28.27-.3.51v11.2c-.02.67-.37,1.01-1.04,1.01h-.79Z"/>
      <path class="cls-22" d="M1080.62,58.3c-1.27,0-1.9-.7-1.9-1.94v-19.06c0-1.24.64-1.83,1.9-1.94h5.55c5.64,0,7.65,1,7.65,5.72,0,3.12-.98,4.8-3.24,5.16-.27.05-.27.28,0,.33,2.9.39,3.93,2.53,3.93,6.02,0,4.66-2.05,5.72-7.32,5.72h-6.57ZM1086.52,45.28c3.32,0,4.47-.78,4.47-3.87s-1.27-3.57-4.94-3.57h-3.78c-.46,0-.68.22-.68.68v6.36c0,.27.14.41.41.41h4.52ZM1086.75,55.84c3.61,0,4.8-.54,4.8-3.74,0-3.56-1.27-4.52-5.01-4.56h-4.54c-.27,0-.41.14-.41.41v7.19c0,.47.21.68.66.68l4.5.02h0Z"/>
      <path class="cls-22" d="M1098.91,57.36v-14.3c0-.62.33-.94.93-.94h.4c.57,0,.9.16.98.75l.04.43c.05.33.31.41.56.22,2.11-1.13,3.85-1.66,6.21-1.77.65-.07.97.33.88.97l-.08.75c-.09.59-.41.78-.97.88-1.14.1-3.43.5-5.79,1.27-.22.08-.33.25-.33.47v11.28c0,.62-.32.94-.94.94h-.96c-.61,0-.94-.33-.94-.94Z"/>
      <path class="cls-22" d="M1111.76,37.03c0-1.01.83-1.85,1.86-1.85s1.85.84,1.85,1.85-.84,1.86-1.85,1.86-1.86-.83-1.86-1.86ZM1112.21,57.28v-14.15c0-.67.35-1.01,1.01-1.01h.79c.67,0,1.01.34,1.01,1.01v14.15c0,.67-.34,1.01-1.01,1.01h-.79c-.66,0-1.01-.35-1.01-1.01Z"/>
      <path class="cls-22" d="M1119.43,50.19c0-6.25,2.09-8.5,7.69-8.5,1.17,0,2.87.12,4.3.49.62.16.86.59.74,1.2-.14.61-.51.87-1.13.86-1.22-.09-2.55-.14-3.44-.14-3.85,0-5.2,1.37-5.2,6.09s1.35,6.11,5.2,6.11c.79,0,2.34-.05,3.75-.21.67-.08,1.04.2,1.15.81.11.66-.15,1.08-.75,1.24-1.45.35-3.09.55-4.63.55-5.61,0-7.68-2.25-7.68-8.5Z"/>
      <path class="cls-22" d="M1136.34,57.28v-21.25c0-.66.34-1.01,1.01-1.01h.81c.67,0,1.01.34,1.01,1.01l.04,9.32c0,.84-.03,1.57-.12,2.34-.03.27.11.43.38.43h1.34c.22,0,.36-.08.5-.25l4.48-5.19c.35-.4.69-.58,1.25-.58h.92c.88,0,1.14.56.58,1.25l-4.04,4.68c-.26.34-.61.68-.88.87-.22.16-.22.38,0,.57.26.21.64.67.88,1.02l4.74,6.56c.49.68.2,1.22-.63,1.22h-.99c-.56,0-.93-.19-1.23-.66l-5.05-7.19c-.11-.19-.28-.27-.49-.27h-1.37c-.29,0-.43.16-.41.43.09.75.12,1.48.12,2.17v4.51c0,.66-.35,1.01-1.01,1.01h-.81c-.66,0-1.01-.35-1.01-1.01Z"/>
      <path class="cls-22" d="M1153.36,58.33c-.64-.07-.86-.45-.8-1.18.06-.76.35-1,1-.97,1.44.07,3.06.11,4.75.1,3.63-.02,4.75-.46,4.75-2.26,0-1.53-.98-2-2.72-2.35l-4.3-.91c-2.69-.58-3.76-2.04-3.76-4.61,0-3.32,1.9-4.51,6.25-4.47,1.8.03,4,.17,5.88.39.59.08.91.42.83,1.13-.08.81-.38,1.05-1.04,1.02-1.73-.08-3.51-.13-5.25-.14-2.93-.02-3.92.3-3.92,2.06,0,1.59.83,2.02,2.48,2.39l4.35.93c2.76.6,3.95,1.86,3.95,4.54,0,3.56-2.21,4.64-6.91,4.64-1.06,0-3.14-.03-5.52-.33Z"/>
    </g>
  </g>
  <g>
    <rect class="cls-2" x="59.43" y="130.49" width="210.67" height="239.04"/>
    <rect class="cls-2" x="73.62" y="114.04" width="44.49" height="22.47"/>
    <rect class="cls-2" x="142.41" y="114.04" width="44.49" height="22.47"/>
    <rect class="cls-2" x="209.48" y="114.04" width="44.49" height="22.47"/>
    <g>
      <path class="cls-22" d="M122.26,328.38c.46.49,1.18.95,2.15,1.38.97.43,2.05.65,3.23.65,1.4,0,2.52-.42,3.36-1.26.85-.84,1.27-2.08,1.27-3.73v-1.19c-.49.73-1.17,1.31-2.07,1.74-.89.43-1.95.64-3.17.64-2.39,0-4.32-.87-5.78-2.61-1.46-1.74-2.19-4.01-2.19-6.82v-.57c0-2.8.73-5.08,2.18-6.82,1.46-1.74,3.38-2.61,5.79-2.61,1.21,0,2.28.25,3.23.75.95.5,1.63,1.11,2.06,1.85h.09l.12-2.24h4.33v17.79c0,2.79-.85,4.94-2.54,6.44-1.69,1.5-3.85,2.25-6.48,2.25-1.6,0-3.07-.25-4.43-.76-1.35-.5-2.48-1.13-3.36-1.89l2.2-2.98ZM124.87,321.45c.72,1.07,1.84,1.61,3.36,1.61.99,0,1.84-.29,2.54-.85.7-.57,1.2-1.21,1.51-1.93v-6.68c-.32-.8-.83-1.48-1.54-2.03-.7-.55-1.56-.82-2.58-.82-1.47,0-2.56.54-3.28,1.61-.72,1.07-1.08,2.44-1.08,4.09v.92c0,1.66.36,3.02,1.08,4.09Z"/>
      <path class="cls-22" d="M140.65,316.62c0-2.88.84-5.2,2.51-6.96s3.84-2.64,6.51-2.64,4.74.83,6.24,2.48c1.5,1.65,2.25,3.92,2.25,6.81v1.7h-14.43v-3.05h9.83v-.43c.01-1.14-.32-2.1-.99-2.89s-1.62-1.19-2.87-1.19c-1.47,0-2.57.55-3.32,1.65-.75,1.1-1.12,2.54-1.12,4.33v.94c0,1.75.4,3.18,1.2,4.28.8,1.1,2,1.65,3.59,1.65,1.06,0,1.99-.25,2.76-.75.78-.5,1.4-1.09,1.87-1.77l3.18,2.2c-.59,1.04-1.56,1.94-2.91,2.69-1.35.75-2.96,1.13-4.83,1.13-2.98,0-5.31-.88-6.98-2.65-1.67-1.77-2.5-4.09-2.5-6.95v-.57Z"/>
      <path class="cls-22" d="M161.74,307.54h4.33l.12,2.22h.11c.58-.82,1.34-1.45,2.27-1.9.94-.45,1.95-.67,3.04-.67,1.29,0,2.41.26,3.36.79.95.53,1.64,1.33,2.09,2.41h.09c.67-1.08,1.54-1.88,2.58-2.41,1.05-.53,2.18-.79,3.4-.79,1.91,0,3.42.57,4.55,1.71,1.13,1.14,1.7,3.05,1.7,5.72v11.63h-4.62v-11.86c0-1.24-.26-2.15-.78-2.72-.52-.57-1.28-.86-2.29-.86-.86-.01-1.62.22-2.27.71-.65.48-1.17,1.14-1.54,1.97v12.76h-4.63v-11.82c0-1.27-.26-2.19-.79-2.76-.53-.57-1.29-.86-2.3-.86-.88,0-1.63.24-2.27.71-.64.47-1.15,1.13-1.53,1.97v12.76h-4.62v-18.71Z"/>
      <path class="cls-22" d="M192.9,319.15h4.74v.3c0,1.15.37,2.05,1.11,2.7s1.75.98,3.04.98,2.36-.45,3.1-1.34c.74-.89,1.11-2.17,1.11-3.83s-.38-2.89-1.14-3.75-1.78-1.28-3.07-1.28c-.94,0-1.74.19-2.41.56-.67.37-1.3.88-1.86,1.52l-3.67-1.72,1.33-12.89h14.26v3.89l-10.42-.02-.67,6.25c.51-.34,1.12-.64,1.85-.89.72-.25,1.55-.37,2.49-.37,2.33,0,4.27.75,5.81,2.26,1.54,1.5,2.32,3.6,2.32,6.28s-.8,4.93-2.41,6.55c-1.61,1.62-3.8,2.43-6.57,2.43s-5.11-.69-6.63-2.08c-1.52-1.38-2.28-3.13-2.28-5.24v-.32Z"/>
    </g>
    <rect class="cls-11" x="102.26" y="146.49" width="125.3" height="125.3" rx="41.19" ry="41.19"/>
    <rect class="cls-24" x="127.23" y="225.54" width="78.63" height="24.93" rx="6.39" ry="6.39"/>
    <line class="cls-23" x1="135.53" y1="238.37" x2="164.58" y2="238.37"/>
    <circle class="cls-23" cx="193.96" cy="238.72" r="1.04"/>
    <image width="256" height="256" transform="translate(109.4 160.78) scale(.25)" xlink:href="../../Downloads/Dakirby309-Simply-Styled-OS-Linux.256.png"/>
    <path class="cls-26" d="M177.53,196.27c3.26,2.68,7.21,5.35,10.48,8.03.04.03.03.1,0,.13l-10.47,7.08"/>
    <path class="cls-25" d="M214.9,186.45v2.91h-44.38v-2.91c0-2.95,1.77-5.34,3.95-5.34h36.48c2.18,0,3.95,2.39,3.95,5.34Z"/>
    <path class="cls-27" d="M214.9,189.36v24.32c0,2.95-1.77,5.35-3.95,5.35h-36.48c-2.19,0-3.95-2.4-3.95-5.35v-24.32h44.38Z"/>
    <line class="cls-29" x1="192.97" y1="209.84" x2="208.87" y2="209.84"/>
    <line class="cls-30" x1="170.52" y1="189.36" x2="170.42" y2="189.36"/>
  </g>
  <g>
    <rect class="cls-20" x="933.14" y="130.96" width="210.67" height="239.04"/>
    <rect class="cls-20" x="947.33" y="114.51" width="44.49" height="22.47"/>
    <rect class="cls-20" x="1016.12" y="114.51" width="44.49" height="22.47"/>
    <rect class="cls-20" x="1083.19" y="114.51" width="44.49" height="22.47"/>
    <rect class="cls-4" x="978.15" y="147.9" width="126.4" height="126.4" rx="41.19" ry="41.19"/>
    <g>
      <path class="cls-22" d="M1018.68,293.54h3.57l.1,1.81h.09c.45-.63,1.07-1.14,1.86-1.54.79-.39,1.66-.58,2.62-.58,1.58,0,2.86.45,3.83,1.34s1.46,2.44,1.46,4.64v9.74h-3.8v-9.84c0-1.05-.23-1.79-.69-2.23s-1.12-.65-1.97-.65c-.7,0-1.34.19-1.92.58s-1.03.93-1.34,1.61v10.53h-3.8v-15.41Z"/>
      <path class="cls-22" d="M1038.81,304.21v.17c0,.78.27,1.36.81,1.73.54.37,1.27.55,2.19.55s1.64-.18,2.13-.53.75-.83.75-1.41-.23-1.02-.7-1.31c-.47-.29-1.54-.62-3.23-.99-1.75-.38-3.07-.95-3.95-1.7-.88-.75-1.32-1.74-1.32-2.98,0-1.4.57-2.53,1.7-3.38s2.66-1.27,4.58-1.27,3.46.43,4.61,1.3c1.15.87,1.73,2.05,1.73,3.55v.13h-3.73v-.21c0-.63-.21-1.13-.64-1.5-.43-.37-1.09-.55-1.99-.55s-1.53.16-1.94.47-.61.72-.61,1.21.25.89.74,1.18c.49.29,1.59.62,3.28.99,1.74.37,3.05.93,3.91,1.67s1.29,1.79,1.29,3.12c0,1.5-.56,2.7-1.68,3.58-1.12.89-2.77,1.33-4.94,1.33s-3.83-.45-5.01-1.34c-1.17-.89-1.76-2.13-1.76-3.72v-.13l3.76.02Z"/>
      <path class="cls-22" d="M1050.48,298.09h8.36v3.3h-8.36v-3.3Z"/>
      <path class="cls-22" d="M1060.63,302.91h3.9v.25c0,1.01.3,1.8.9,2.37.6.57,1.44.85,2.52.85s1.94-.29,2.54-.86c.6-.57.9-1.46.9-2.67s-.34-2.05-1.02-2.64c-.68-.59-1.66-.88-2.92-.88h-1.84v-2.89h1.7c1.12,0,1.97-.28,2.56-.85.58-.56.88-1.35.88-2.37s-.25-1.73-.74-2.23-1.19-.75-2.1-.75-1.66.25-2.16.74c-.51.5-.76,1.22-.76,2.16v.19h-3.89v-.19c0-1.64.61-3.03,1.83-4.19,1.22-1.16,2.91-1.73,5.05-1.73s3.83.54,4.99,1.61,1.75,2.39,1.75,3.95c0,1.09-.27,2.08-.8,2.97-.54.89-1.38,1.55-2.51,2v.06c1.23.29,2.21.89,2.94,1.8.73.91,1.1,2.03,1.1,3.36,0,1.99-.67,3.55-2.02,4.7-1.35,1.14-3.18,1.72-5.5,1.72s-4.15-.57-5.4-1.72c-1.25-1.15-1.88-2.64-1.88-4.47v-.28Z"/>
      <path class="cls-22" d="M991.03,323.59h4.15l8.32,13.77c.18.3.33.59.48.86.14.27.27.54.37.83h.12c0-.31-.02-.62-.02-.94,0-.32,0-.63,0-.96v-13.55h3.49v21.29h-4.22l-8.26-13.7c-.17-.29-.33-.58-.47-.86-.14-.28-.26-.56-.38-.85h-.1c0,.31.02.64.03.99,0,.35.01.68.01.99v13.44h-3.51v-21.29Z"/>
      <path class="cls-22" d="M1011.4,336.94c0-2.37.69-4.28,2.07-5.73s3.17-2.18,5.36-2.18,3.91.68,5.14,2.04c1.23,1.36,1.85,3.23,1.85,5.61v1.4h-11.89v-2.51h8.1v-.35c0-.94-.26-1.73-.81-2.38-.55-.65-1.34-.98-2.36-.98-1.21,0-2.12.45-2.73,1.36-.61.91-.92,2.1-.92,3.57v.78c0,1.44.33,2.62.99,3.52.66.91,1.64,1.36,2.96,1.36.88,0,1.63-.21,2.27-.62s1.15-.9,1.54-1.46l2.62,1.81c-.49.86-1.29,1.6-2.4,2.21s-2.44.93-3.98.93c-2.46,0-4.37-.73-5.75-2.19-1.38-1.46-2.06-3.37-2.06-5.72v-.47Z"/>
      <path class="cls-22" d="M1026.77,329.47h9.25v2.81h-9.25v-2.81ZM1029.22,330.99v-.44s.01-4.77.01-4.77h3.79v14.71c0,.69.13,1.18.4,1.45.26.27.65.41,1.15.41.23,0,.47-.03.71-.08.24-.05.48-.12.71-.21v2.81c-.23.12-.56.22-.97.31-.41.09-.87.14-1.35.14-1.33,0-2.41-.38-3.22-1.15s-1.22-1.97-1.22-3.61v-9.56Z"/>
      <path class="cls-22" d="M1040.75,329.47l2.46,9.12c.1.39.18.73.24,1.02s.13.63.2,1.02h.09c.06-.39.11-.73.17-1.02s.14-.63.26-1.02l2.81-9.12h3.55l2.91,9.14c.13.38.22.72.29,1.02s.13.63.2,1.02h.09c.07-.38.13-.72.18-1.02s.12-.64.21-1.02l2.43-9.14h3.36l-4.66,15.41h-3.46l-2.91-9.06c-.12-.37-.22-.75-.32-1.14-.1-.39-.19-.78-.26-1.15h-.07c-.07.38-.15.76-.26,1.15s-.21.77-.31,1.14l-2.81,9.06h-3.49l-4.65-15.41h3.79Z"/>
      <path class="cls-22" d="M1061.6,336.94c0-2.4.71-4.31,2.13-5.75s3.28-2.16,5.58-2.16,4.17.72,5.59,2.16c1.42,1.44,2.13,3.36,2.13,5.75v.47c0,2.39-.71,4.3-2.13,5.74-1.42,1.44-3.28,2.16-5.59,2.16s-4.16-.72-5.58-2.16c-1.42-1.44-2.13-3.36-2.13-5.74v-.47ZM1065.49,337.57c0,1.48.33,2.65.98,3.52.65.86,1.6,1.29,2.84,1.29s2.18-.43,2.84-1.29c.65-.86.98-2.03.98-3.52v-.79c0-1.49-.33-2.67-.99-3.52s-1.6-1.29-2.83-1.29-2.16.43-2.82,1.29-.99,2.03-.99,3.52v.79Z"/>
      <path class="cls-22" d="M1080.14,329.47h3.58l.1,1.78h.07c.33-.59.79-1.11,1.36-1.55.57-.44,1.24-.66,1.99-.66.2,0,.41.03.63.07.21.05.37.09.45.13v3.33c-.18-.04-.36-.07-.56-.09-.2-.02-.42-.03-.65-.03-.74,0-1.39.21-1.94.62s-.96.94-1.21,1.57v10.22h-3.82v-15.41Z"/>
      <path class="cls-22" d="M1090.79,322.47h3.8v13.03l5.58-6.02h4.21l-9.8,10.45v4.96h-3.8v-22.41ZM1095.03,337.44l2.41-2.69,7.6,10.13h-4.47l-5.54-7.44Z"/>
    </g>
    <g id="website_icon" data-name="website icon">
      <g id="icon">
        <path class="cls-22" d="M1041.45,166.58c-23.07,0-41.84,18.77-41.84,41.84s18.77,41.84,41.84,41.84,41.84-18.77,41.84-41.84c0-23.07-18.77-41.84-41.84-41.84ZM1074.01,228.99h-11.8c1.65-5.48,2.64-11.72,2.8-18.41h14.7c-.32,6.73-2.36,13-5.7,18.41ZM1003.19,210.59h14.71c.15,6.69,1.14,12.92,2.8,18.41h-11.8c-3.34-5.4-5.38-11.68-5.7-18.41ZM1008.89,188.09h11.8c-1.65,5.48-2.64,11.72-2.8,18.41h-14.71c.32-6.73,2.36-13,5.7-18.41ZM1043.58,185.02v-14.38c5.49,1,10.42,6.45,13.76,14.38h-13.76ZM1058.88,188.09c1.8,5.44,2.91,11.73,3.08,18.41h-18.38v-18.41h15.3ZM1039.49,170.64v14.38h-13.76c3.34-7.93,8.26-13.38,13.76-14.38ZM1039.49,188.09v18.41h-18.38c.17-6.68,1.29-12.97,3.08-18.41,0,0,15.3,0,15.3,0ZM1021.11,210.59h18.38v18.41h-15.3c-1.8-5.44-2.91-11.73-3.08-18.41ZM1039.49,232.06v14.38c-5.49-1-10.42-6.44-13.76-14.38h13.76ZM1043.58,246.44v-14.38h13.76c-3.34,7.93-8.27,13.38-13.76,14.38ZM1043.58,228.99v-18.41h18.38c-.17,6.68-1.29,12.97-3.08,18.41h-15.3ZM1065,206.5c-.15-6.69-1.14-12.92-2.8-18.41h11.8c3.34,5.4,5.38,11.68,5.7,18.41h-14.71ZM1071.42,185.02h-10.35c-1.98-5.19-4.6-9.5-7.69-12.63,7.19,2.37,13.43,6.82,18.03,12.63ZM1029.51,172.39c-3.08,3.13-5.71,7.44-7.69,12.63h-10.35c4.6-5.81,10.85-10.26,18.03-12.63ZM1011.48,232.06h10.35c1.98,5.19,4.6,9.5,7.68,12.63-7.19-2.37-13.43-6.82-18.03-12.63ZM1053.39,244.69c3.08-3.13,5.71-7.44,7.68-12.63h10.35c-4.6,5.81-10.84,10.26-18.03,12.63Z"/>
      </g>
    </g>
  </g>
  <g>
    <g>
      <line class="cls-28" x1="308.2" y1="254.75" x2="455.55" y2="254.75"/>
      <polygon class="cls-4" points="290.45 254.04 308.62 264.53 308.62 243.55 290.45 254.04"/>
      <polygon class="cls-4" points="473.82 255 455.66 265.48 455.66 244.51 473.82 255"/>
    </g>
    <rect class="cls-1" x="334.37" y="227.14" width="95.54" height="86.85"/>
    <g>
      <g>
        <polygon class="cls-20" points="380.85 274.29 380.85 297.66 358.07 307.83 358.07 284.47 377.56 275.76 380.85 274.29"/>
        <path class="cls-10" d="M335.05,274.29l.18.08v-.16l-.18.08Z"/>
        <path class="cls-4" d="M358,264.08l-22.78,10.13v.16l22.78,10.13h0l22.85-10.21-22.85-10.21ZM358.03,277.18c-5.47,0-9.9-1.29-9.9-2.87v-4.31c0-1.58,4.43-2.87,9.9-2.87s9.9,1.29,9.9,2.87v4.25s0,.04,0,.05c0,1.59-4.44,2.87-9.9,2.87Z"/>
        <path class="cls-4" d="M367.92,270c0,.86-1.29,1.63-3.34,2.15-1.75.45-4.04.72-6.56.72s-4.8-.27-6.55-.72c-2.05-.53-3.35-1.3-3.35-2.15,0-1.58,4.43-2.87,9.9-2.87s9.9,1.29,9.9,2.87Z"/>
        <polygon class="cls-4" points="358.04 284.47 358.04 307.83 335.15 297.66 335.15 274.29 338.45 275.76 358 284.45 358.04 284.47"/>
      </g>
      <polygon class="cls-7" points="405.02 237.34 405.02 260.71 382.25 270.89 382.25 247.52 401.73 238.82 405.02 237.34"/>
      <path class="cls-2" d="M359.22,237.34l.18.08v-.16l-.18.08Z"/>
      <path class="cls-2" d="M382.18,227.13l-22.78,10.13v.16l22.78,10.13h0l22.85-10.21-22.85-10.21ZM382.21,240.23c-5.47,0-9.9-1.29-9.9-2.87v-4.31c0-1.58,4.43-2.87,9.9-2.87s9.9,1.29,9.9,2.87v4.25s0,.04,0,.05c0,1.59-4.44,2.87-9.9,2.87Z"/>
      <path class="cls-2" d="M392.1,233.05c0,.86-1.29,1.63-3.34,2.15-1.75.45-4.04.72-6.56.72s-4.8-.27-6.55-.72c-2.05-.53-3.35-1.3-3.35-2.15,0-1.58,4.43-2.87,9.9-2.87s9.9,1.29,9.9,2.87Z"/>
      <polygon class="cls-2" points="382.21 247.52 382.21 270.89 359.33 260.71 359.33 237.34 362.63 238.82 382.17 247.51 382.21 247.52"/>
      <g>
        <polygon class="cls-19" points="429.91 274.29 429.91 297.66 407.13 307.83 407.13 284.47 426.62 275.76 429.91 274.29"/>
        <path class="cls-16" d="M384.1,274.29l.18.08v-.16l-.18.08Z"/>
        <path class="cls-16" d="M407.06,264.08l-22.78,10.13v.16l22.78,10.13h0l22.85-10.21-22.85-10.21ZM407.09,277.18c-5.47,0-9.9-1.29-9.9-2.87v-4.31c0-1.58,4.43-2.87,9.9-2.87s9.9,1.29,9.9,2.87v4.25s0,.04,0,.05c0,1.59-4.44,2.87-9.9,2.87Z"/>
        <path class="cls-16" d="M416.98,270c0,.86-1.29,1.63-3.34,2.15-1.75.45-4.04.72-6.56.72s-4.8-.27-6.55-.72c-2.05-.53-3.35-1.3-3.35-2.15,0-1.58,4.43-2.87,9.9-2.87s9.9,1.29,9.9,2.87Z"/>
        <polygon class="cls-16" points="407.09 284.47 407.09 307.83 384.21 297.66 384.21 274.29 387.51 275.76 407.05 284.45 407.09 284.47"/>
      </g>
    </g>
  </g>
  <g>
    <g>
      <line class="cls-28" x1="747.5" y1="254.75" x2="894.85" y2="254.75"/>
      <polygon class="cls-4" points="729.75 254.04 747.92 264.53 747.92 243.55 729.75 254.04"/>
      <polygon class="cls-4" points="913.12 255 894.96 265.48 894.96 244.51 913.12 255"/>
    </g>
    <rect class="cls-1" x="773.67" y="227.14" width="95.54" height="86.85"/>
    <g>
      <g>
        <polygon class="cls-20" points="820.15 274.29 820.15 297.66 797.37 307.83 797.37 284.47 816.86 275.76 820.15 274.29"/>
        <path class="cls-6" d="M774.35,274.29l.18.08v-.16l-.18.08Z"/>
        <path class="cls-4" d="M797.3,264.08l-22.78,10.13v.16l22.78,10.13h0l22.85-10.21-22.85-10.21ZM797.33,277.18c-5.47,0-9.9-1.29-9.9-2.87v-4.31c0-1.58,4.43-2.87,9.9-2.87s9.9,1.29,9.9,2.87v4.25s0,.04,0,.05c0,1.59-4.44,2.87-9.9,2.87Z"/>
        <path class="cls-4" d="M807.22,270c0,.86-1.29,1.63-3.34,2.15-1.75.45-4.04.72-6.56.72s-4.8-.27-6.55-.72c-2.05-.53-3.35-1.3-3.35-2.15,0-1.58,4.43-2.87,9.9-2.87s9.9,1.29,9.9,2.87Z"/>
        <polygon class="cls-4" points="797.33 284.47 797.33 307.83 774.45 297.66 774.45 274.29 777.75 275.76 797.3 284.45 797.33 284.47"/>
      </g>
      <polygon class="cls-7" points="844.32 237.34 844.32 260.71 821.55 270.89 821.55 247.52 841.03 238.82 844.32 237.34"/>
      <path class="cls-2" d="M798.52,237.34l.18.08v-.16l-.18.08Z"/>
      <path class="cls-2" d="M821.48,227.13l-22.78,10.13v.16l22.78,10.13h0l22.85-10.21-22.85-10.21ZM821.51,240.23c-5.47,0-9.9-1.29-9.9-2.87v-4.31c0-1.58,4.43-2.87,9.9-2.87s9.9,1.29,9.9,2.87v4.25s0,.04,0,.05c0,1.59-4.44,2.87-9.9,2.87Z"/>
      <path class="cls-2" d="M831.4,233.05c0,.86-1.29,1.63-3.34,2.15-1.75.45-4.04.72-6.56.72s-4.8-.27-6.55-.72c-2.05-.53-3.35-1.3-3.35-2.15,0-1.58,4.43-2.87,9.9-2.87s9.9,1.29,9.9,2.87Z"/>
      <polygon class="cls-2" points="821.51 247.52 821.51 270.89 798.63 260.71 798.63 237.34 801.93 238.82 821.47 247.51 821.51 247.52"/>
      <g>
        <polygon class="cls-19" points="869.21 274.29 869.21 297.66 846.43 307.83 846.43 284.47 865.92 275.76 869.21 274.29"/>
        <path class="cls-16" d="M823.4,274.29l.18.08v-.16l-.18.08Z"/>
        <path class="cls-16" d="M846.36,264.08l-22.78,10.13v.16l22.78,10.13h0l22.85-10.21-22.85-10.21ZM846.39,277.18c-5.47,0-9.9-1.29-9.9-2.87v-4.31c0-1.58,4.43-2.87,9.9-2.87s9.9,1.29,9.9,2.87v4.25s0,.04,0,.05c0,1.59-4.44,2.87-9.9,2.87Z"/>
        <path class="cls-16" d="M856.28,270c0,.86-1.29,1.63-3.34,2.15-1.75.45-4.04.72-6.56.72s-4.8-.27-6.55-.72c-2.05-.53-3.35-1.3-3.35-2.15,0-1.58,4.43-2.87,9.9-2.87s9.9,1.29,9.9,2.87Z"/>
        <polygon class="cls-16" points="846.39 284.47 846.39 307.83 823.51 297.66 823.51 274.29 826.81 275.76 846.35 284.45 846.39 284.47"/>
      </g>
    </g>
  </g>
  <g>
    <rect class="cls-19" x="497.11" y="129.16" width="212.58" height="241.21"/>
    <rect class="cls-19" x="511.42" y="112.56" width="44.89" height="22.67"/>
    <rect class="cls-19" x="580.84" y="112.56" width="44.89" height="22.67"/>
    <rect class="cls-19" x="648.52" y="112.56" width="44.89" height="22.67"/>
    <g>
      <path class="cls-22" d="M543.33,302.96h3.69v.26c0,1.04.34,1.83,1.02,2.34.68.52,1.63.78,2.86.78s2.17-.25,2.82-.76c.65-.51.98-1.17.98-2s-.31-1.46-.94-1.92c-.63-.46-1.93-.95-3.9-1.47-2.09-.57-3.64-1.3-4.66-2.19-1.01-.89-1.52-2.13-1.53-3.72,0-1.67.64-3.02,1.91-4.05s3.01-1.55,5.2-1.55,3.92.54,5.23,1.62c1.31,1.08,1.96,2.48,1.96,4.22v.28h-3.62v-.26c0-.9-.3-1.63-.9-2.18-.6-.55-1.48-.83-2.66-.83s-2.05.22-2.61.68c-.56.45-.84,1.06-.84,1.84s.29,1.31.89,1.7c.59.4,1.87.87,3.85,1.4,2.06.57,3.63,1.31,4.69,2.24,1.06.92,1.59,2.25,1.59,3.98s-.68,3.21-2.03,4.24c-1.35,1.04-3.16,1.55-5.42,1.55s-4.08-.51-5.48-1.54c-1.4-1.03-2.1-2.49-2.1-4.38v-.3Z"/>
      <path class="cls-22" d="M561.41,289.07c.36-.37.88-.55,1.55-.55s1.19.18,1.55.55c.36.37.54.83.54,1.38s-.18,1.01-.55,1.38c-.36.38-.89.56-1.56.56s-1.18-.19-1.54-.56c-.36-.37-.54-.83-.54-1.38s.18-1.01.54-1.38ZM561.2,294.52h3.53v14.25h-3.53v-14.25Z"/>
      <path class="cls-22" d="M568.47,294.52h3.3l.09,1.69h.08c.44-.62,1.02-1.1,1.73-1.45.71-.34,1.48-.51,2.31-.51.98,0,1.83.2,2.55.6.72.4,1.25,1.01,1.59,1.83h.07c.51-.82,1.17-1.43,1.97-1.83.8-.4,1.66-.6,2.59-.6,1.45,0,2.61.43,3.47,1.3.86.87,1.29,2.32,1.29,4.36v8.85h-3.51v-9.03c0-.95-.2-1.64-.59-2.07s-.98-.66-1.74-.66c-.66,0-1.23.17-1.73.54-.5.37-.89.87-1.18,1.5v9.72h-3.53v-9c0-.96-.2-1.66-.6-2.1s-.98-.66-1.75-.66c-.67,0-1.24.18-1.73.54-.49.36-.87.86-1.16,1.5v9.72h-3.51v-14.25Z"/>
      <path class="cls-22" d="M592.93,294.52h3.51v8.96c0,1.04.22,1.76.66,2.18s1.04.62,1.8.62c.68,0,1.28-.19,1.8-.57.53-.38.93-.86,1.21-1.44v-9.74h3.51v14.25h-3.3l-.09-1.68h-.08c-.45.6-1.04,1.08-1.77,1.43-.73.35-1.55.52-2.45.52-1.42,0-2.58-.43-3.47-1.3s-1.34-2.32-1.34-4.35v-8.87Z"/>
      <path class="cls-22" d="M609.16,288.05h3.53v20.72h-3.53v-20.72Z"/>
      <path class="cls-22" d="M617.48,301.06c1.2-.8,2.72-1.2,4.55-1.2h2.91v-.86c0-.7-.18-1.28-.55-1.72-.37-.45-1.01-.67-1.93-.67s-1.57.18-1.95.55c-.38.37-.57.81-.57,1.31v.16h-3.47v-.16c0-1.23.56-2.26,1.69-3.1s2.61-1.26,4.45-1.26,3.27.4,4.3,1.21c1.03.81,1.55,2.03,1.55,3.68v6.54c0,.59.05,1.14.15,1.65.1.52.23.97.41,1.35v.22h-3.43c-.12-.22-.22-.5-.31-.84-.09-.34-.15-.68-.18-1.01-.3.55-.83,1.04-1.59,1.47-.77.43-1.73.65-2.91.65-1.38,0-2.54-.38-3.49-1.13-.95-.75-1.42-1.86-1.42-3.33,0-1.55.6-2.72,1.8-3.52ZM619.8,305.94c.4.41,1.02.62,1.88.62s1.66-.29,2.3-.88.96-1.26.96-2.01v-1.58h-2.45c-1.1,0-1.92.2-2.47.58-.55.39-.82.93-.82,1.63s.2,1.23.59,1.64Z"/>
      <path class="cls-22" d="M630.31,294.52h8.55v2.6h-8.55v-2.6ZM632.57,295.93v-.41s.01-4.41.01-4.41h3.5v13.6c0,.64.12,1.09.37,1.34s.6.38,1.07.38c.22,0,.43-.03.66-.07.22-.05.44-.12.66-.2v2.6c-.22.11-.52.21-.9.29-.38.08-.8.13-1.25.13-1.23,0-2.23-.36-2.98-1.07-.75-.71-1.13-1.83-1.13-3.34v-8.84Z"/>
      <path class="cls-22" d="M641.58,289.07c.36-.37.88-.55,1.55-.55s1.19.18,1.55.55c.36.37.54.83.54,1.38s-.18,1.01-.55,1.38c-.37.38-.88.56-1.56.56s-1.18-.19-1.54-.56c-.36-.37-.54-.83-.54-1.38s.18-1.01.54-1.38ZM641.37,294.52h3.53v14.25h-3.53v-14.25Z"/>
      <path class="cls-22" d="M647.84,301.43c0-2.22.66-3.99,1.97-5.32,1.31-1.33,3.03-1.99,5.16-1.99s3.86.67,5.17,1.99c1.31,1.33,1.97,3.1,1.97,5.32v.43c0,2.21-.66,3.98-1.97,5.31-1.31,1.33-3.03,2-5.17,2s-3.84-.67-5.16-2c-1.31-1.33-1.97-3.1-1.97-5.31v-.43ZM651.44,302.01c0,1.37.3,2.45.91,3.25s1.48,1.2,2.62,1.2,2.02-.4,2.62-1.2.91-1.88.91-3.25v-.73c0-1.38-.3-2.46-.91-3.26-.61-.79-1.48-1.19-2.62-1.19s-2,.4-2.61,1.19c-.61.79-.92,1.88-.92,3.26v.73Z"/>
      <path class="cls-22" d="M664.98,294.52h3.3l.09,1.68h.08c.41-.59.99-1.06,1.72-1.42.73-.36,1.54-.54,2.42-.54,1.46,0,2.64.41,3.54,1.24s1.35,2.26,1.35,4.29v9h-3.51v-9.1c0-.97-.21-1.66-.64-2.06-.43-.4-1.03-.6-1.82-.6-.65,0-1.24.18-1.78.54-.54.36-.95.86-1.24,1.49v9.73h-3.51v-14.25Z"/>
      <path class="cls-22" d="M544.42,322.3h4.65l5.08,13.43c.11.29.21.57.29.85.09.28.16.57.22.88h.09c.06-.31.14-.6.22-.88.09-.28.18-.56.29-.85l5.1-13.43h4.7v19.68h-3.58v-13.11c0-.29,0-.61.02-.97s.04-.68.07-.97h-.11c-.05.29-.13.61-.22.97s-.2.68-.3.97l-4.95,13.11h-3.01l-4.93-13.11c-.11-.29-.21-.61-.3-.97s-.17-.68-.22-.97h-.11c.04.29.06.61.07.97s.01.68.01.97v13.11h-3.08v-19.68Z"/>
      <path class="cls-22" d="M568.28,334.64c0-2.22.66-3.99,1.97-5.32,1.31-1.33,3.03-1.99,5.16-1.99s3.86.66,5.17,1.99c1.31,1.33,1.97,3.1,1.97,5.32v.43c0,2.21-.66,3.98-1.97,5.31-1.31,1.33-3.03,2-5.17,2s-3.85-.67-5.16-2c-1.31-1.33-1.97-3.11-1.97-5.31v-.43ZM571.87,335.22c0,1.37.3,2.45.91,3.25.6.8,1.48,1.2,2.62,1.2s2.02-.4,2.62-1.2c.6-.8.91-1.88.91-3.25v-.73c0-1.38-.3-2.46-.91-3.26-.61-.79-1.48-1.19-2.62-1.19s-2,.4-2.61,1.19-.92,1.88-.92,3.26v.73Z"/>
      <path class="cls-22" d="M584.62,334.64c0-2.11.56-3.83,1.69-5.17s2.6-2.01,4.42-2.01c.93,0,1.73.16,2.39.49.67.33,1.18.76,1.55,1.3v-8h3.51v20.72h-3.3l-.09-1.72h-.07c-.32.57-.84,1.04-1.55,1.42-.71.38-1.52.57-2.44.57-1.89,0-3.39-.67-4.48-2.01-1.09-1.34-1.64-3.06-1.64-5.17v-.43ZM589.04,338.33c.55.82,1.39,1.22,2.51,1.22.77,0,1.41-.21,1.95-.63.53-.42.92-.91,1.18-1.47v-5.19c-.24-.57-.63-1.06-1.15-1.47-.52-.42-1.18-.62-1.97-.62-1.12,0-1.95.41-2.51,1.22-.55.82-.83,1.86-.83,3.12v.7c0,1.26.27,2.3.82,3.12Z"/>
      <path class="cls-22" d="M601.05,334.64c0-2.19.64-3.96,1.91-5.3,1.27-1.34,2.93-2.01,4.95-2.01s3.61.63,4.75,1.88c1.14,1.26,1.71,2.99,1.71,5.18v1.3h-10.99v-2.32h7.49v-.32c0-.87-.24-1.6-.75-2.2s-1.24-.9-2.18-.9c-1.12,0-1.96.42-2.53,1.26-.57.84-.85,1.94-.85,3.3v.71c0,1.33.3,2.42.91,3.26s1.52,1.26,2.74,1.26c.81,0,1.51-.19,2.1-.57.59-.38,1.07-.83,1.43-1.35l2.42,1.68c-.45.79-1.19,1.48-2.22,2.05-1.03.57-2.25.86-3.68.86-2.27,0-4.04-.67-5.31-2.02-1.27-1.35-1.91-3.11-1.91-5.29v-.43Z"/>
      <path class="cls-22" d="M617.16,321.26h3.53v20.72h-3.53v-20.72Z"/>
    </g>
    <g>
      <path class="cls-5" d="M666.67,321.48c.76-.43,1.7-.43,2.46,0,3.77,2.11,15.1,8.48,18.87,10.59.76.43,1.23,1.22,1.23,2.07v21.18c0,.86-.47,1.65-1.23,2.07-3.77,2.11-15.1,8.48-18.87,10.59-.76.43-1.7.43-2.46,0-3.77-2.11-15.1-8.48-18.87-10.59-.76-.43-1.23-1.22-1.23-2.07v-21.18c0-.86.47-1.65,1.23-2.07,3.77-2.11,15.1-8.48,18.87-10.59Z"/>
      <path class="cls-17" d="M646.91,356.42c-.3-.4-.34-.78-.34-1.29v-21.06c0-.85.47-1.64,1.23-2.06,3.75-2.1,15.05-8.43,18.8-10.53.76-.43,1.79-.42,2.55,0,3.75,2.1,15.01,8.37,18.77,10.48.3.17.53.38.74.65l-41.75,23.81Z"/>
      <path class="cls-18" d="M667.9,329.02c8.68,0,15.72,7.04,15.72,15.72s-7.04,15.72-15.72,15.72-15.72-7.04-15.72-15.72,7.04-15.72,15.72-15.72ZM667.9,336.88c4.34,0,7.86,3.52,7.86,7.86s-3.52,7.86-7.86,7.86-7.86-3.52-7.86-7.86,3.52-7.86,7.86-7.86Z"/>
      <path class="cls-3" d="M688.66,332.61c.58.54.57,1.36.57,2,0,4.26-.04,16.38.01,20.64,0,.44-.14.91-.36,1.27l-21.43-11.79,21.21-12.12Z"/>
      <path class="cls-18" d="M675.76,341.37h2.25v6.74h-2.25v-6.74ZM683.62,341.37h2.25v6.74h-2.25v-6.74Z"/>
      <path class="cls-18" d="M673.52,343.61h6.74v2.25h-6.74v-2.25ZM681.38,343.61h6.74v2.25h-6.74v-2.25Z"/>
    </g>
    <g>
      <rect class="cls-16" x="542.81" y="144.53" width="125.3" height="125.3" rx="41.19" ry="41.19"/>
      <g>
        <path class="cls-22" d="M557.8,170.36c3.71,0,7.42-.03,11.12-.02,1.08,0,1.64.63,1.69,1.71,0,.2,0,.41,0,.61,0,23.42,0,46.84,0,70.26v1.02h-3.19v-1.09c0-22.28,0-44.56,0-66.84,0-2.07-.43-2.5-2.53-2.5-2.37,0-4.73,0-7.1,0v-3.16Z"/>
        <path class="cls-22" d="M647.49,231.16h-3.1v-6.28h-3.23v6.27h-3.23v-6.28h-3.17v6.27h-3.22v-6.27h-3.23v6.28h-3.18v-6.28h-3.17v6.26h-3.23v-6.27h-3.22v6.29h-3.18v-6.27h-3.19v6.26h-3.26c0-.43,0-.88,0-1.34,0-1.11.02-2.22-.01-3.33-.03-1-.58-1.55-1.57-1.64-.2-.02-.41-.02-.61-.02-3.86,0-7.71,0-11.57,0-1.75,0-2.23.49-2.24,2.24,0,1.34,0,2.68,0,4.09h-15.99v-12.74c1.48,0,2.91,0,4.33,0,1.44,0,2.03-.59,2.03-2.02,0-6.13,0-12.27,0-18.4,0-1.42-.6-2-2.04-2.01-1.42,0-2.85,0-4.31,0v-12.78h73.61v47.99ZM641.13,207.12h3.15v-3.16h-3.09v-1.61h3.11v-3.21h-3.11v-1.62h3.1v-3.19h-3.17c0-.67,0-1.25,0-1.83,0-2.73-.23-2.96-2.93-2.96-.6,0-1.2,0-1.89,0v-3.15h-3.21v3.09h-1.57v-3.11h-3.23v3.09h-1.62v-3.07h-3.21v3.14c-.59,0-1.09,0-1.58,0-3.04,0-3.19.15-3.19,3.15,0,.54,0,1.08,0,1.72h-3.16v3.15h3.09v1.62h-3.08v3.22h3.09v1.58h-3.1v3.2h3.15c0,.84,0,1.59,0,2.35,0,2,.44,2.44,2.4,2.44.78,0,1.56,0,2.43,0v3.17h3.19v-3.1h1.62v3.09h3.22v-3.08h1.64v3.1h3.12v-3.18c.83,0,1.58,0,2.34,0,2.06,0,2.47-.41,2.48-2.44,0-.75,0-1.51,0-2.4ZM608.98,199.2h-19.06v3.16c.4,0,.75,0,1.09,0,5.14,0,10.27,0,15.41,0q2.89,0,2.64-2.93c0-.05-.04-.11-.09-.24ZM589.94,212.02v3.12h12.69v-3.12h-12.69ZM602.65,205.63h-12.72v3.07h12.72v-3.07ZM592.96,195.94c1.74.05,3.2-1.31,3.27-3.06.07-1.81-1.28-3.27-3.08-3.33-1.74-.06-3.22,1.32-3.28,3.05-.06,1.8,1.31,3.28,3.09,3.33ZM599.5,192.71c-.01,1.8,1.41,3.24,3.19,3.23,1.75,0,3.15-1.41,3.17-3.16.02-1.8-1.4-3.23-3.19-3.22-1.76,0-3.16,1.4-3.17,3.16ZM609.09,215.14c0-.94.02-1.83-.02-2.72,0-.16-.24-.43-.38-.43-.92-.04-1.84-.02-2.77-.02v3.17h3.17ZM605.93,205.6v3.1h3.11v-3.1h-3.11Z"/>
        <path class="cls-22" d="M573.88,199.18h3.12v15.96h-3.12v-15.96Z"/>
        <path class="cls-22" d="M637.87,208.73h-15.88v-15.92h15.88v15.92ZM634.68,205.53v-9.52h-9.52v9.52h9.52Z"/>
        <path class="cls-22" d="M628.35,199.17h3.17c0,.94.02,1.86-.02,2.78,0,.14-.27.39-.42.39-.89.04-1.78.02-2.73.02v-3.19Z"/>
      </g>
    </g>
  </g>
</svg>