<?xml version="1.0" encoding="UTF-8"?>
<svg id="Layer_1" data-name="Layer 1" xmlns="http://www.w3.org/2000/svg" xmlns:xlink="http://www.w3.org/1999/xlink" viewBox="0 0 868 816">
  <defs>
    <style>
      .cls-1 {
        fill: #89a24f;
      }

      .cls-1, .cls-2, .cls-3, .cls-4, .cls-5, .cls-6, .cls-7, .cls-8, .cls-9, .cls-10, .cls-11, .cls-12, .cls-13, .cls-14, .cls-15, .cls-16 {
        stroke-width: 0px;
      }

      .cls-17 {
        stroke-width: 1.5px;
      }

      .cls-17, .cls-18, .cls-19, .cls-20, .cls-21, .cls-22, .cls-23, .cls-24, .cls-25, .cls-26, .cls-27, .cls-28 {
        stroke-miterlimit: 10;
      }

      .cls-17, .cls-18, .cls-19, .cls-20, .cls-21, .cls-22, .cls-23, .cls-25, .cls-26, .cls-27, .cls-28 {
        fill: none;
      }

      .cls-17, .cls-18, .cls-20, .cls-21, .cls-22, .cls-23, .cls-26, .cls-28 {
        stroke-linecap: round;
      }

      .cls-17, .cls-19, .cls-20, .cls-21, .cls-23, .cls-24, .cls-25, .cls-26, .cls-27, .cls-28 {
        stroke: #fff;
      }

      .cls-2 {
        fill: #0098a5;
      }

      .cls-3 {
        fill: #ff620a;
      }

      .cls-4 {
        fill: #00727c;
      }

      .cls-18 {
        stroke-width: .26px;
      }

      .cls-18, .cls-22 {
        stroke: #00727c;
      }

      .cls-5 {
        fill: #6c8b23;
      }

      .cls-6 {
        fill: url(#New_Gradient_Swatch_copy_3);
      }

      .cls-7 {
        fill: #66c1c9;
      }

      .cls-8 {
        fill: #00707a;
      }

      .cls-19 {
        stroke-width: 3px;
      }

      .cls-20 {
        stroke-width: 2.01px;
      }

      .cls-21 {
        stroke-width: 3.96px;
      }

      .cls-22 {
        stroke-width: .25px;
      }

      .cls-9 {
        fill: #f36c30;
      }

      .cls-23 {
        stroke-width: 1.79px;
      }

      .cls-10 {
        fill: #b65124;
      }

      .cls-11 {
        fill: #8eb230;
      }

      .cls-29 {
        opacity: .95;
      }

      .cls-12 {
        fill: #83b500;
      }

      .cls-24, .cls-25 {
        stroke-width: 1.34px;
      }

      .cls-24, .cls-16 {
        fill: #fff;
      }

      .cls-13 {
        fill: #628d00;
      }

      .cls-14 {
        fill: #c34a0c;
      }

      .cls-15 {
        fill: #0095a3;
      }

      .cls-26 {
        stroke-width: 1.53px;
      }

      .cls-27 {
        stroke-width: .85px;
      }

      .cls-28 {
        stroke-width: .85px;
      }
    </style>
    <linearGradient id="New_Gradient_Swatch_copy_3" data-name="New Gradient Swatch copy 3" x1="738.18" y1="793.33" x2="738.2" y2="793.33" gradientUnits="userSpaceOnUse">
      <stop offset="0" stop-color="#f8a783"/>
      <stop offset=".07" stop-color="#f6956b"/>
      <stop offset=".15" stop-color="#f58655"/>
      <stop offset=".25" stop-color="#f47a44"/>
      <stop offset=".36" stop-color="#f37238"/>
      <stop offset=".53" stop-color="#f36d31"/>
      <stop offset="1" stop-color="#f36c30"/>
    </linearGradient>
    <image id="image" width="256" height="256" xlink:href="../../Downloads/Dakirby309-Simply-Styled-OS-Linux.256.png"/>
  </defs>
  <rect class="cls-1" x="-22" y="-18" width="902" height="847.33"/>
  <g>
    <line class="cls-23" x1="350.56" y1="627.62" x2="350.56" y2="695.38"/>
    <polygon class="cls-16" points="350.56 621.24 345.36 629.73 355.75 629.73 350.56 621.24"/>
    <polygon class="cls-16" points="350.56 701.04 345.36 692.55 355.75 692.55 350.56 701.04"/>
  </g>
  <g>
    <line class="cls-17" x1="394.48" y1="498.85" x2="347.62" y2="550.07"/>
    <polygon class="cls-16" points="398 495 390.2 497.05 396.12 503.51 398 495"/>
    <polygon class="cls-16" points="345 552.85 346.88 544.34 352.8 550.8 345 552.85"/>
  </g>
  <rect class="cls-2" x="301.65" y="676.55" width="98.32" height="111.56"/>
  <rect class="cls-2" x="308.27" y="668.88" width="20.76" height="10.49"/>
  <rect class="cls-2" x="340.37" y="668.88" width="20.76" height="10.49"/>
  <rect class="cls-2" x="371.67" y="668.88" width="20.76" height="10.49"/>
  <g>
    <path class="cls-16" d="M331.22,769.03c.24.25.62.49,1.12.72.51.23,1.07.34,1.69.34.73,0,1.32-.22,1.76-.66.44-.44.66-1.09.66-1.95v-.62c-.25.38-.61.69-1.08.91-.47.22-1.02.33-1.66.33-1.25,0-2.26-.46-3.02-1.36-.76-.91-1.15-2.1-1.15-3.56v-.3c0-1.47.38-2.65,1.14-3.56.76-.91,1.77-1.36,3.02-1.36.63,0,1.19.13,1.69.39.49.26.85.58,1.08.96h.05l.06-1.17h2.26v9.3c0,1.46-.44,2.58-1.33,3.36-.88.78-2.01,1.17-3.39,1.17-.83,0-1.61-.13-2.31-.39-.71-.26-1.29-.59-1.76-.99l1.15-1.56ZM332.58,765.41c.38.56.96.84,1.75.84.52,0,.96-.15,1.33-.45.36-.3.63-.63.79-1.01v-3.49c-.17-.42-.43-.77-.8-1.06-.37-.29-.82-.43-1.35-.43-.77,0-1.34.28-1.72.84-.38.56-.57,1.27-.57,2.14v.48c0,.87.19,1.58.57,2.14Z"/>
    <path class="cls-16" d="M340.83,762.88c0-1.5.44-2.72,1.31-3.64.88-.92,2.01-1.38,3.4-1.38s2.48.43,3.26,1.29c.78.86,1.17,2.05,1.17,3.56v.89h-7.54v-1.6h5.14v-.22c0-.59-.17-1.1-.51-1.51-.35-.41-.85-.62-1.5-.62-.77,0-1.35.29-1.73.86s-.58,1.33-.58,2.26v.49c0,.92.21,1.66.63,2.24.42.58,1.04.86,1.88.86.56,0,1.04-.13,1.44-.39.4-.26.73-.57.98-.92l1.66,1.15c-.31.54-.82,1.01-1.52,1.41s-1.55.59-2.52.59c-1.56,0-2.77-.46-3.65-1.39s-1.31-2.14-1.31-3.63v-.3Z"/>
    <path class="cls-16" d="M351.85,758.14h2.26l.06,1.16h.06c.3-.43.7-.76,1.19-.99.49-.24,1.02-.35,1.59-.35.67,0,1.26.14,1.75.41.49.28.86.69,1.09,1.26h.05c.35-.56.8-.98,1.35-1.26.55-.28,1.14-.41,1.78-.41,1,0,1.79.3,2.38.9.59.6.89,1.59.89,2.99v6.08h-2.41v-6.2c0-.65-.14-1.12-.41-1.42-.27-.3-.67-.45-1.2-.45-.45,0-.85.12-1.19.37-.34.25-.61.6-.81,1.03v6.67h-2.42v-6.18c0-.66-.14-1.14-.41-1.44-.27-.3-.68-.45-1.2-.45-.46,0-.85.12-1.19.37s-.6.59-.8,1.03v6.67h-2.41v-9.78Z"/>
    <path class="cls-16" d="M368.13,764.21h2.48v.16c0,.6.19,1.07.58,1.41.39.34.92.51,1.59.51s1.23-.23,1.62-.7c.39-.47.58-1.13.58-2s-.2-1.51-.59-1.96c-.4-.45-.93-.67-1.6-.67-.49,0-.91.1-1.26.29-.35.2-.68.46-.97.79l-1.92-.9.7-6.74h7.45v2.03h-5.45s-.35,3.26-.35,3.26c.27-.18.59-.33.96-.46.38-.13.81-.2,1.3-.2,1.22,0,2.23.39,3.04,1.18.81.79,1.21,1.88,1.21,3.28s-.42,2.58-1.26,3.42c-.84.85-1.99,1.27-3.43,1.27s-2.67-.36-3.47-1.08c-.79-.72-1.19-1.64-1.19-2.74v-.17Z"/>
  </g>
  <rect class="cls-7" x="321.63" y="684.02" width="58.48" height="58.48" rx="24.25" ry="24.25"/>
  <rect class="cls-27" x="333.29" y="720.91" width="36.7" height="11.64" rx="4.82" ry="4.82"/>
  <line class="cls-28" x1="337.16" y1="726.9" x2="350.71" y2="726.9"/>
  <circle class="cls-28" cx="364.43" cy="727.06" r=".48"/>
  <use transform="translate(324.97 690.69) scale(.12)" xlink:href="#image"/>
  <path class="cls-26" d="M356.76,707.25c1.52,1.25,3.36,2.5,4.89,3.75.02.01.02.05,0,.06l-4.89,3.31"/>
  <path class="cls-24" d="M374.2,702.67v1.36h-20.71v-1.36c0-1.38.82-2.49,1.85-2.49h17.02c1.02,0,1.84,1.12,1.84,2.49Z"/>
  <path class="cls-25" d="M374.2,704.03v11.35c0,1.38-.82,2.5-1.84,2.5h-17.02c-1.02,0-1.85-1.12-1.85-2.5v-11.35h20.71Z"/>
  <line class="cls-20" x1="363.97" y1="713.59" x2="371.39" y2="713.59"/>
  <line class="cls-22" x1="353.49" y1="704.03" x2="353.44" y2="704.03"/>
  <g>
    <line class="cls-17" x1="470.49" y1="496.46" x2="517.35" y2="547.68"/>
    <polygon class="cls-16" points="466.96 492.61 474.76 494.66 468.84 501.12 466.96 492.61"/>
    <polygon class="cls-16" points="519.96 550.46 518.08 541.95 512.17 548.41 519.96 550.46"/>
  </g>
  <rect class="cls-14" x="382.08" y="398.13" width="100.35" height="113.87"/>
  <rect class="cls-14" x="388.83" y="390.29" width="21.19" height="10.7"/>
  <rect class="cls-14" x="421.6" y="390.29" width="21.19" height="10.7"/>
  <rect class="cls-14" x="453.55" y="390.29" width="21.19" height="10.7"/>
  <rect class="cls-3" x="403.52" y="406.2" width="60.21" height="60.21" rx="24.31" ry="24.31"/>
  <g>
    <path class="cls-16" d="M416.07,473.14h2.26l.06,1.15h.06c.28-.4.68-.73,1.18-.97.5-.25,1.05-.37,1.66-.37,1,0,1.81.28,2.43.85.62.57.93,1.55.93,2.95v6.18h-2.41v-6.24c0-.67-.15-1.14-.44-1.41s-.71-.41-1.25-.41c-.45,0-.85.12-1.22.37s-.65.59-.85,1.02v6.68h-2.41v-9.78Z"/>
    <path class="cls-16" d="M428.85,479.91v.11c0,.5.17.86.51,1.09.34.24.81.35,1.39.35s1.04-.11,1.36-.34c.31-.23.47-.52.47-.9s-.15-.65-.45-.83c-.3-.18-.98-.39-2.05-.63-1.11-.24-1.95-.6-2.5-1.08s-.84-1.11-.84-1.89c0-.89.36-1.6,1.08-2.14.72-.54,1.69-.81,2.91-.81s2.19.28,2.93.83c.73.55,1.1,1.3,1.1,2.25v.08h-2.37v-.13c0-.4-.14-.72-.41-.95-.27-.23-.69-.35-1.26-.35s-.97.1-1.23.3c-.26.2-.38.46-.38.77s.16.56.47.75c.31.18,1.01.39,2.08.63,1.11.24,1.93.59,2.48,1.06.55.47.82,1.13.82,1.98,0,.95-.36,1.71-1.07,2.27-.71.56-1.76.84-3.14.84s-2.43-.28-3.18-.85c-.75-.57-1.12-1.35-1.12-2.36v-.08h2.38Z"/>
    <path class="cls-16" d="M436.25,476.03h5.31v2.1h-5.31v-2.1Z"/>
    <path class="cls-16" d="M442.69,479.09h2.48v.16c0,.64.19,1.14.57,1.5.38.36.91.54,1.6.54s1.23-.18,1.61-.54c.38-.36.57-.93.57-1.69s-.22-1.3-.65-1.67-1.05-.56-1.86-.56h-1.17v-1.84h1.08c.71,0,1.25-.18,1.62-.54s.56-.86.56-1.5-.16-1.1-.47-1.42c-.31-.32-.76-.48-1.33-.48s-1.05.16-1.37.47c-.32.32-.48.77-.48,1.37v.12h-2.47v-.12c0-1.04.39-1.92,1.16-2.66.78-.73,1.84-1.1,3.21-1.1s2.43.34,3.17,1.02,1.11,1.52,1.11,2.5c0,.69-.17,1.32-.51,1.88-.34.56-.87.99-1.6,1.27v.04c.78.19,1.4.57,1.86,1.15.46.58.7,1.29.7,2.13,0,1.26-.43,2.26-1.28,2.98s-2.02,1.09-3.49,1.09-2.63-.37-3.43-1.09c-.79-.73-1.19-1.68-1.19-2.84v-.18Z"/>
    <path class="cls-16" d="M400.84,492.21h2.63l5.28,8.74c.11.19.21.37.3.54s.17.34.24.52h.07c0-.2,0-.4-.01-.6,0-.2,0-.4,0-.61v-8.6h2.22v13.51h-2.68l-5.24-8.69c-.11-.19-.21-.37-.3-.55-.09-.18-.17-.36-.24-.54h-.06c0,.2.01.41.02.63,0,.22,0,.43,0,.63v8.53h-2.23v-13.51Z"/>
    <path class="cls-16" d="M413.77,500.68c0-1.5.44-2.72,1.31-3.64.88-.92,2.01-1.38,3.4-1.38s2.48.43,3.26,1.29c.78.86,1.17,2.05,1.17,3.56v.89h-7.54v-1.6h5.14v-.22c0-.59-.17-1.1-.51-1.51-.35-.41-.85-.62-1.5-.62-.77,0-1.34.29-1.73.86s-.58,1.33-.58,2.26v.49c0,.92.21,1.66.63,2.24.42.58,1.04.86,1.88.86.56,0,1.04-.13,1.44-.39.4-.26.73-.57.98-.92l1.66,1.15c-.31.54-.82,1.01-1.52,1.41s-1.55.59-2.52.59c-1.56,0-2.77-.46-3.65-1.39s-1.31-2.14-1.31-3.63v-.3Z"/>
    <path class="cls-16" d="M423.53,495.94h5.87v1.78h-5.87v-1.78ZM425.08,496.9v-.28s0-3.02,0-3.02h2.4v9.33c0,.44.08.75.25.92.17.17.41.26.73.26.15,0,.3-.02.45-.05.15-.03.3-.08.45-.13v1.78c-.15.07-.35.14-.62.2-.26.06-.55.09-.86.09-.85,0-1.53-.24-2.04-.73-.52-.49-.78-1.25-.78-2.29v-6.07Z"/>
    <path class="cls-16" d="M432.4,495.94l1.56,5.79c.06.25.11.46.15.65s.08.4.13.65h.05c.04-.25.07-.46.11-.65.03-.19.09-.4.16-.65l1.78-5.79h2.25l1.85,5.8c.08.24.14.46.18.65s.08.4.12.64h.06c.04-.24.08-.46.12-.64s.08-.4.13-.65l1.54-5.8h2.13l-2.96,9.78h-2.2l-1.85-5.75c-.07-.24-.14-.48-.21-.72-.06-.25-.12-.49-.17-.73h-.05c-.04.24-.1.49-.16.73-.07.25-.13.49-.2.72l-1.78,5.75h-2.22l-2.95-9.78h2.4Z"/>
    <path class="cls-16" d="M445.63,500.68c0-1.52.45-2.74,1.35-3.65.9-.91,2.08-1.37,3.54-1.37s2.65.46,3.55,1.37c.9.91,1.35,2.13,1.35,3.65v.3c0,1.51-.45,2.73-1.35,3.65-.9.92-2.08,1.37-3.55,1.37s-2.64-.46-3.54-1.37c-.9-.92-1.35-2.13-1.35-3.65v-.3ZM448.09,501.08c0,.94.21,1.68.62,2.23.41.55,1.01.82,1.8.82s1.39-.27,1.8-.82c.41-.55.62-1.29.62-2.23v-.5c0-.95-.21-1.69-.63-2.24-.42-.54-1.02-.82-1.79-.82s-1.37.27-1.79.82c-.42.54-.63,1.29-.63,2.24v.5Z"/>
    <path class="cls-16" d="M457.39,495.94h2.27l.06,1.13h.05c.21-.38.5-.71.86-.98s.79-.42,1.26-.42c.13,0,.26.01.4.05.14.03.23.06.29.08v2.12c-.11-.02-.23-.04-.36-.05-.13-.01-.26-.02-.41-.02-.47,0-.88.13-1.23.39-.35.26-.61.6-.77,1v6.48h-2.42v-9.78Z"/>
    <path class="cls-16" d="M464.15,491.5h2.41v8.27l3.54-3.82h2.67l-6.22,6.63v3.14h-2.41v-14.22ZM466.84,501l1.53-1.71,4.82,6.43h-2.84l-3.52-4.72Z"/>
  </g>
  <g id="website_icon" data-name="website icon">
    <g id="icon">
      <path class="cls-16" d="M433.67,415.1c-10.99,0-19.93,8.94-19.93,19.93s8.94,19.93,19.93,19.93,19.93-8.94,19.93-19.93c0-10.99-8.94-19.93-19.93-19.93ZM449.18,444.83h-5.62c.79-2.61,1.26-5.58,1.33-8.77h7c-.15,3.2-1.12,6.19-2.71,8.77ZM415.44,436.06h7.01c.07,3.18.54,6.16,1.33,8.77h-5.62c-1.59-2.57-2.56-5.56-2.71-8.77ZM418.16,425.34h5.62c-.79,2.61-1.26,5.58-1.33,8.77h-7.01c.15-3.2,1.13-6.19,2.71-8.77ZM434.69,423.88v-6.85c2.62.47,4.96,3.07,6.55,6.85h-6.55ZM441.98,425.34c.86,2.59,1.39,5.59,1.47,8.77h-8.76v-8.77h7.29ZM432.74,417.03v6.85h-6.55c1.59-3.78,3.94-6.37,6.55-6.85ZM432.74,425.34v8.77h-8.76c.08-3.18.61-6.18,1.47-8.77,0,0,7.29,0,7.29,0ZM423.98,436.06h8.76v8.77h-7.29c-.86-2.59-1.39-5.59-1.47-8.77ZM432.74,446.29v6.85c-2.62-.48-4.96-3.07-6.55-6.85h6.55ZM434.69,453.14v-6.85h6.55c-1.59,3.78-3.94,6.37-6.55,6.85ZM434.69,444.83v-8.77h8.76c-.08,3.18-.61,6.18-1.47,8.77h-7.29ZM444.89,434.11c-.07-3.18-.54-6.16-1.33-8.77h5.62c1.59,2.57,2.56,5.56,2.71,8.77h-7.01ZM447.94,423.88h-4.93c-.94-2.47-2.19-4.53-3.66-6.02,3.42,1.13,6.4,3.25,8.59,6.02ZM427.98,417.87c-1.47,1.49-2.72,3.55-3.66,6.02h-4.93c2.19-2.77,5.17-4.89,8.59-6.02ZM419.39,446.29h4.93c.94,2.47,2.19,4.53,3.66,6.02-3.42-1.13-6.4-3.25-8.59-6.02ZM439.36,452.31c1.47-1.49,2.72-3.55,3.66-6.02h4.93c-2.19,2.77-5.17,4.89-8.59,6.02Z"/>
    </g>
  </g>
  <rect class="cls-13" x="300.35" y="540.73" width="100.9" height="114.49"/>
  <rect class="cls-13" x="306.77" y="532.85" width="21.31" height="10.76"/>
  <rect class="cls-13" x="339.72" y="532.85" width="21.31" height="10.76"/>
  <rect class="cls-13" x="371.84" y="532.85" width="21.31" height="10.76"/>
  <rect class="cls-12" x="320.49" y="548.4" width="60.01" height="60.01" rx="24.06" ry="24.06"/>
  <line class="cls-18" x1="353.18" y1="568.93" x2="353.14" y2="568.93"/>
  <g>
    <path class="cls-16" d="M327.67,560.77c1.78,0,3.55-.02,5.33,0,.51,0,.78.3.81.82,0,.1,0,.2,0,.29,0,11.22,0,22.43,0,33.65v.49h-1.53v-.52c0-10.67,0-21.34,0-32.01,0-.99-.21-1.2-1.21-1.2-1.13,0-2.27,0-3.4,0v-1.51Z"/>
    <path class="cls-16" d="M370.62,589.89h-1.49v-3.01h-1.54v3h-1.55v-3.01h-1.52v3h-1.54v-3h-1.55v3.01h-1.52v-3.01h-1.52v3h-1.55v-3h-1.54v3.01h-1.52v-3h-1.53v3h-1.56c0-.21,0-.42,0-.64,0-.53,0-1.06,0-1.59-.01-.48-.28-.74-.75-.79-.1,0-.2,0-.29,0-1.85,0-3.69,0-5.54,0-.84,0-1.07.23-1.07,1.07,0,.64,0,1.28,0,1.96h-7.66v-6.1c.71,0,1.39,0,2.08,0,.69,0,.97-.28.97-.97,0-2.94,0-5.88,0-8.81,0-.68-.29-.96-.98-.96-.68,0-1.36,0-2.07,0v-6.12h35.26v22.99ZM367.58,578.38h1.51v-1.51h-1.48v-.77h1.49v-1.54h-1.49v-.78h1.49v-1.53h-1.52c0-.32,0-.6,0-.88,0-1.31-.11-1.42-1.4-1.42-.29,0-.58,0-.91,0v-1.51h-1.54v1.48h-.75v-1.49h-1.54v1.48h-.78v-1.47h-1.54v1.5c-.28,0-.52,0-.76,0-1.45,0-1.53.07-1.53,1.51,0,.26,0,.52,0,.82h-1.51v1.51h1.48v.78h-1.47v1.54h1.48v.76h-1.49v1.53h1.51c0,.4,0,.76,0,1.12,0,.96.21,1.17,1.15,1.17.37,0,.75,0,1.16,0v1.52h1.53v-1.49h.77v1.48h1.54v-1.48h.79v1.49h1.5v-1.52c.4,0,.76,0,1.12,0,.99,0,1.19-.2,1.19-1.17,0-.36,0-.72,0-1.15ZM352.18,574.58h-9.13v1.52c.19,0,.36,0,.52,0,2.46,0,4.92,0,7.38,0q1.38,0,1.27-1.4s-.02-.05-.04-.11ZM343.06,580.72v1.5h6.08v-1.5h-6.08ZM349.14,577.66h-6.09v1.47h6.09v-1.47ZM344.51,573.02c.84.03,1.53-.63,1.57-1.46.03-.87-.61-1.57-1.48-1.59-.83-.03-1.54.63-1.57,1.46-.03.86.63,1.57,1.48,1.6ZM347.64,571.47c0,.86.67,1.55,1.53,1.55.84,0,1.51-.67,1.52-1.51,0-.86-.67-1.55-1.53-1.54-.84,0-1.51.67-1.52,1.51ZM352.23,582.22c0-.45,0-.88,0-1.3,0-.07-.12-.2-.18-.21-.44-.02-.88,0-1.33,0v1.52h1.52ZM350.72,577.65v1.49h1.49v-1.49h-1.49Z"/>
    <path class="cls-16" d="M335.37,574.58h1.49v7.64h-1.49v-7.64Z"/>
    <path class="cls-16" d="M366.02,579.15h-7.6v-7.63h7.6v7.63ZM364.49,577.61v-4.56h-4.56v4.56h4.56Z"/>
    <path class="cls-16" d="M361.46,574.57h1.52c0,.45,0,.89,0,1.33,0,.07-.13.19-.2.19-.43.02-.85,0-1.31,0v-1.53Z"/>
  </g>
  <g>
    <path class="cls-16" d="M313.51,612.56h2.5v13.51h-2.5v-13.51Z"/>
    <path class="cls-16" d="M318.74,616.29h2.26l.06,1.15h.06c.28-.4.68-.73,1.18-.97.5-.25,1.05-.37,1.66-.37,1,0,1.81.28,2.43.85.62.57.93,1.55.93,2.95v6.18h-2.41v-6.24c0-.67-.15-1.14-.44-1.41-.29-.28-.71-.41-1.25-.41-.45,0-.85.12-1.22.37-.37.25-.65.59-.85,1.02v6.68h-2.41v-9.78Z"/>
    <path class="cls-16" d="M328.49,616.29h5.87v1.78h-5.87v-1.78ZM330.04,617.25v-.28s0-3.02,0-3.02h2.4v9.33c0,.44.08.75.25.92.17.17.41.26.73.26.15,0,.3-.02.45-.05.15-.03.3-.08.45-.13v1.78c-.15.07-.35.14-.62.2-.26.06-.55.09-.86.09-.85,0-1.53-.24-2.05-.73-.52-.49-.77-1.25-.77-2.29v-6.07Z"/>
    <path class="cls-16" d="M335.48,621.03c0-1.5.44-2.72,1.31-3.64.88-.92,2.01-1.38,3.4-1.38s2.48.43,3.26,1.29c.78.86,1.17,2.05,1.17,3.56v.89h-7.54v-1.6h5.14v-.22c0-.59-.17-1.1-.51-1.51-.35-.41-.85-.62-1.5-.62-.77,0-1.35.29-1.73.86s-.58,1.33-.58,2.26v.49c0,.92.21,1.66.63,2.24.42.58,1.04.86,1.88.86.56,0,1.04-.13,1.44-.39.4-.26.73-.57.98-.92l1.66,1.15c-.31.54-.82,1.01-1.52,1.41s-1.55.59-2.52.59c-1.56,0-2.77-.46-3.65-1.39s-1.31-2.14-1.31-3.63v-.3Z"/>
    <path class="cls-16" d="M346.54,611.84h2.42v14.22h-2.42v-14.22Z"/>
    <path class="cls-16" d="M361.32,622.39v-.46s0-5.88,0-5.88h-.11l-3.44,5.07h7.55v1.92h-10.11v-1.61l6.17-8.87h2.36v13.51h-2.42v-3.67Z"/>
    <path class="cls-16" d="M366.4,617.1c0-1.44.4-2.61,1.19-3.49.79-.89,1.92-1.33,3.4-1.33s2.59.44,3.39,1.33c.8.88,1.2,2.05,1.2,3.5v4.42c0,1.45-.4,2.61-1.2,3.5-.8.88-1.93,1.33-3.38,1.33s-2.6-.44-3.4-1.33c-.79-.88-1.19-2.05-1.19-3.5v-4.42ZM369.44,623.66c.32.5.83.75,1.54.75s1.23-.25,1.55-.75c.32-.5.48-1.15.48-1.94v-4.82c0-.79-.16-1.44-.48-1.93-.32-.5-.84-.75-1.55-.75s-1.22.25-1.54.75c-.32.5-.48,1.14-.48,1.93v4.82c0,.79.16,1.44.48,1.94Z"/>
    <path class="cls-16" d="M377.32,618.88c0-2.13.55-3.76,1.65-4.9,1.1-1.14,2.54-1.71,4.33-1.71,1.62,0,2.9.41,3.83,1.23.93.82,1.42,1.82,1.46,3.01v.12h-2.5v-.09c0-.59-.24-1.13-.73-1.6-.49-.47-1.2-.71-2.14-.71-1.01,0-1.82.38-2.43,1.14s-.92,1.86-.92,3.31v1.24c0,1.47.32,2.58.96,3.33.64.75,1.52,1.13,2.65,1.13.58,0,1.07-.06,1.48-.18.41-.12.81-.31,1.2-.58v-2.66h-2.87v-1.89h5.31v5.41c-.46.46-1.12.88-1.98,1.28-.86.39-1.91.59-3.15.59-1.9,0-3.4-.57-4.5-1.71-1.1-1.14-1.65-2.77-1.65-4.9v-.85Z"/>
    <path class="cls-16" d="M336.29,635.36h2.63l5.28,8.74c.11.19.21.37.3.54.09.17.17.34.24.52h.07c0-.2-.01-.4-.01-.6,0-.2,0-.4,0-.61v-8.6h2.22v13.51h-2.68l-5.24-8.69c-.11-.19-.21-.37-.3-.55-.09-.18-.17-.36-.24-.54h-.06c0,.2.01.41.02.63,0,.22,0,.43,0,.63v8.53h-2.23v-13.51Z"/>
    <path class="cls-16" d="M349.97,635.36h2.5v13.51h-2.5v-13.51Z"/>
    <path class="cls-16" d="M354.91,641.68c0-2.13.55-3.76,1.65-4.9,1.1-1.14,2.51-1.71,4.24-1.71s2.99.44,3.96,1.33c.97.89,1.45,2,1.45,3.34v.19h-2.5v-.2c0-.83-.24-1.48-.72-1.97s-1.22-.72-2.2-.72-1.78.35-2.4,1.05c-.62.7-.92,1.83-.92,3.38v1.26c0,1.43.3,2.53.91,3.29.61.76,1.42,1.14,2.43,1.14.93,0,1.64-.25,2.11-.75.47-.5.73-1.15.79-1.95v-.19h2.51v.19c-.09,1.33-.59,2.44-1.52,3.33-.92.89-2.22,1.34-3.89,1.34s-3.15-.57-4.25-1.72c-1.09-1.14-1.64-2.77-1.64-4.89v-.85Z"/>
  </g>
  <g>
    <path class="cls-16" d="M463.94,289.04h2.5v11.64h6.12v1.94h-8.62v-13.57Z"/>
    <path class="cls-16" d="M474.96,297.3c.83-.55,1.88-.83,3.14-.83h2v-.6c0-.48-.13-.88-.38-1.19s-.69-.46-1.33-.46-1.08.13-1.35.38c-.26.25-.4.56-.4.9v.11h-2.4v-.11c0-.85.39-1.56,1.17-2.14.78-.58,1.8-.87,3.07-.87s2.26.28,2.97.83c.71.56,1.07,1.4,1.07,2.54v4.51c0,.4.03.78.1,1.14s.16.67.28.93v.15h-2.37c-.08-.15-.15-.34-.21-.58-.06-.24-.1-.47-.12-.7-.21.38-.57.72-1.1,1.02s-1.2.45-2,.45c-.95,0-1.75-.26-2.41-.78-.65-.52-.98-1.29-.98-2.3,0-1.07.42-1.88,1.25-2.43ZM476.56,300.67c.27.28.71.42,1.3.42s1.14-.2,1.58-.61c.44-.4.66-.87.66-1.39v-1.09h-1.69c-.76,0-1.33.13-1.7.4-.38.27-.56.64-.56,1.13s.14.85.41,1.13Z"/>
    <path class="cls-16" d="M484.98,292.79h2.42v6.18c0,.71.15,1.22.45,1.5.3.29.72.43,1.25.43.47,0,.88-.13,1.24-.4.36-.26.64-.59.83-.99v-6.72h2.42v9.83h-2.28l-.07-1.16h-.06c-.31.42-.72.74-1.22.98-.5.24-1.07.36-1.69.36-.98,0-1.78-.3-2.4-.9s-.92-1.6-.92-3v-6.12Z"/>
    <path class="cls-16" d="M496.14,292.79h2.28l.07,1.16h.06c.29-.4.68-.73,1.18-.98.5-.25,1.06-.37,1.67-.37,1.01,0,1.82.28,2.44.85.62.57.93,1.56.93,2.96v6.21h-2.42v-6.27c0-.67-.15-1.15-.44-1.42-.29-.28-.71-.41-1.25-.41-.45,0-.86.12-1.23.37-.37.25-.65.59-.85,1.03v6.71h-2.42v-9.83Z"/>
    <path class="cls-16" d="M506.66,297.56c0-1.53.44-2.75,1.31-3.67.88-.92,2.05-1.38,3.52-1.38,1.39,0,2.44.35,3.17,1.06.73.71,1.11,1.54,1.14,2.48v.12s-2.35,0-2.35,0v-.09c0-.48-.16-.89-.48-1.23s-.82-.51-1.49-.51c-.79,0-1.38.29-1.77.86-.39.58-.58,1.32-.58,2.24v.5c0,.91.19,1.66.57,2.24.38.58.97.87,1.77.87.71,0,1.22-.18,1.52-.53.3-.35.45-.76.45-1.22v-.08h2.36v.09c0,.94-.37,1.77-1.11,2.49-.74.72-1.81,1.08-3.2,1.08-1.47,0-2.65-.46-3.52-1.38-.88-.92-1.31-2.14-1.31-3.66v-.3Z"/>
    <path class="cls-16" d="M517.59,288.33h2.42v5.73c.31-.43.72-.78,1.22-1.05.5-.27,1.1-.41,1.79-.41.92,0,1.68.29,2.27.87s.89,1.53.89,2.85v6.3h-2.42v-6.2c0-.69-.15-1.18-.46-1.47-.31-.29-.73-.44-1.26-.44-.47,0-.88.13-1.22.39s-.61.61-.79,1.07v6.66h-2.42v-14.29Z"/>
  </g>
  <g>
    <line class="cls-23" x1="517.2" y1="625.11" x2="517.2" y2="692.87"/>
    <polygon class="cls-16" points="517.2 618.73 512 627.22 522.39 627.22 517.2 618.73"/>
    <polygon class="cls-16" points="517.2 698.53 512 690.04 522.39 690.04 517.2 698.53"/>
  </g>
  <g>
    <g>
      <g>
        <polygon class="cls-10" points="745.23 793.33 745.23 796.92 741.72 798.49 741.72 794.89 744.72 793.55 745.23 793.33"/>
        <path class="cls-6" d="M738.18,793.33h.01s0,0,0,0v-.02h-.02Z"/>
        <path class="cls-9" d="M741.71,791.75l-1.24.55-.66.29-1.61.72v.02l1.61.71h0s1.9.85,1.9.85h0s0,0,0,0l1.24-.55,2.26-1.01-3.52-1.57ZM743.24,793.33c0,.18-.38.33-.91.41-.19.02-.39.03-.61.03-.84,0-1.53-.2-1.53-.44v-.66c0-.11.14-.22.38-.29.28-.09.69-.15,1.15-.15.84,0,1.52.2,1.52.44v.65h0Z"/>
        <path class="cls-9" d="M743.24,792.67c0,.13-.2.25-.51.33-.27.07-.62.11-1.01.11s-.74-.04-1.01-.11c-.32-.08-.51-.2-.51-.33,0-.24.68-.44,1.52-.44s1.52.2,1.52.44Z"/>
        <polygon class="cls-9" points="741.72 794.89 741.72 798.49 738.19 796.92 738.19 793.33 738.7 793.55 741.71 794.89 741.72 794.89"/>
      </g>
      <polygon class="cls-8" points="748.95 787.64 748.95 791.24 745.44 792.8 745.44 789.21 748.44 787.87 748.95 787.64"/>
      <path class="cls-15" d="M741.9,787.64h.01s.01.01.01.01v-.02h-.03Z"/>
      <path class="cls-15" d="M745.43,786.07l-3.5,1.56v.02l3.5,1.56h0s0,0,0,0l.29-.13,3.21-1.43-3.52-1.57ZM746.96,787.64c0,.25-.68.44-1.52.44s-1.52-.2-1.52-.44v-.66c0-.25.68-.44,1.52-.44s1.52.2,1.52.44v.65h0Z"/>
      <path class="cls-15" d="M746.96,786.98c0,.13-.2.25-.51.33-.27.07-.62.11-1.01.11s-.74-.04-1.01-.11c-.32-.08-.51-.2-.51-.33,0-.24.68-.44,1.52-.44s1.52.2,1.52.44Z"/>
      <polygon class="cls-15" points="745.44 789.21 745.44 792.8 741.91 791.24 741.91 787.64 742.42 787.87 745.43 789.21 745.44 789.21"/>
      <g>
        <polygon class="cls-5" points="752.77 793.33 752.77 796.92 749.27 798.49 749.27 794.89 752.27 793.55 752.77 793.33"/>
        <path class="cls-11" d="M745.73,793.33h.01s0,0,0,0v-.02h-.02Z"/>
        <path class="cls-11" d="M749.26,791.75l-3.51,1.56v.02l3.51,1.56h0s0,0,0,0l3.51-1.57-3.52-1.57ZM750.79,793.33c0,.24-.68.44-1.52.44s-1.53-.2-1.53-.44v-.66c0-.25.68-.44,1.53-.44s1.52.2,1.52.44v.65h0Z"/>
        <path class="cls-11" d="M750.79,792.67c0,.13-.2.25-.51.33-.27.07-.62.11-1.01.11s-.74-.04-1.01-.11c-.32-.08-.51-.2-.51-.33,0-.24.68-.44,1.52-.44s1.52.2,1.52.44Z"/>
        <polygon class="cls-11" points="749.26 794.89 749.26 798.49 745.74 796.92 745.74 793.33 746.25 793.55 749.26 794.89 749.26 794.89"/>
      </g>
    </g>
    <g class="cls-29">
      <path class="cls-16" d="M754.67,799.72c-.39-.07-.56-.28-.53-.65v-.24c.05-.38.27-.57.67-.55,2.04.08,2.8.09,3.89.08,2.23-.01,2.94-.68,2.94-2.28,0-1.46-.59-2.02-1.89-2.4l-2.89-.88c-2.13-.61-2.92-2.04-2.92-4.05,0-2.91,1.48-3.77,4.71-3.76,1.19,0,2.52.07,3.79.29.35.07.53.29.5.67l-.02.23c-.03.37-.25.57-.62.55-1.06-.05-2.43-.09-3.57-.09-2.09,0-2.93.35-2.93,2.16,0,1.39.58,2,1.91,2.38l2.81.85c2.26.65,3,2.06,3,4.08,0,2.89-1.47,3.9-4.86,3.9-.87,0-2.28-.04-3.97-.29Z"/>
      <path class="cls-16" d="M765.92,786.3c0-.64.52-1.17,1.18-1.17s1.17.53,1.17,1.17-.53,1.18-1.17,1.18-1.18-.53-1.18-1.18ZM766.2,799.12v-8.96c0-.42.22-.64.64-.64h.5c.42,0,.64.22.64.64v8.96c0,.42-.22.64-.64.64h-.5c-.42,0-.64-.22-.64-.64Z"/>
      <path class="cls-16" d="M771.28,799.12v-8.96c0-.42.21-.64.63-.64h.23c.4,0,.61.03.7.44l.03.26c.03.19.15.26.33.14,1.31-.84,2.94-1.11,3.84-1.11,1.12,0,1.9.22,2.47,1.1.1.16.21.17.39.04,1.33-.84,2.57-1.14,3.86-1.14,1.8,0,2.76.98,2.76,2.82v7.05c0,.42-.22.64-.64.64h-.51c-.42,0-.64-.22-.64-.64v-6.54c-.01-1.26-.45-1.8-1.59-1.8-.88,0-1.76.15-3.2.95-.12.08-.18.17-.17.33.02.27.03.52.01.81v6.25c-.02.42-.24.64-.66.64h-.45c-.42,0-.64-.22-.64-.64v-6.54c.02-1.32-.51-1.8-1.59-1.8-.69,0-1.71.11-3.16.92-.12.07-.18.17-.19.33v7.09c-.02.42-.23.64-.66.64h-.5c-.42,0-.64-.22-.64-.64Z"/>
      <path class="cls-16" d="M791.04,799.76c-.8,0-1.2-.44-1.2-1.23v-12.06c0-.78.4-1.16,1.2-1.23h3.51c3.57,0,4.84.63,4.84,3.62,0,1.97-.62,3.04-2.05,3.26-.17.03-.17.18,0,.21,1.84.25,2.49,1.6,2.49,3.81,0,2.95-1.3,3.62-4.63,3.62h-4.16ZM794.77,791.52c2.1,0,2.83-.49,2.83-2.45s-.8-2.26-3.13-2.26h-2.39c-.29,0-.43.14-.43.43v4.02c0,.17.09.26.26.26h2.86ZM797.96,795.83c0-2.25-.8-2.86-3.17-2.88h-2.87c-.17,0-.26.09-.26.26v4.55c0,.29.13.43.42.43l2.85.02c2.28,0,3.04-.34,3.04-2.37Z"/>
      <path class="cls-16" d="M802.62,799.17v-9.05c0-.39.21-.59.59-.59h.25c.36,0,.57.1.62.47l.03.27c.03.21.2.26.36.14,1.34-.72,2.44-1.05,3.93-1.12.41-.05.62.21.56.62l-.05.48c-.06.37-.26.5-.61.56-.72.06-2.17.31-3.66.8-.14.05-.21.16-.21.29v7.14c0,.39-.2.59-.59.59h-.61c-.39,0-.59-.21-.59-.59Z"/>
      <path class="cls-16" d="M810.75,786.3c0-.64.52-1.17,1.18-1.17s1.17.53,1.17,1.17-.53,1.18-1.17,1.18-1.18-.53-1.18-1.18ZM811.04,799.12v-8.96c0-.42.22-.64.64-.64h.5c.42,0,.64.22.64.64v8.96c0,.42-.22.64-.64.64h-.5c-.42,0-.64-.22-.64-.64Z"/>
      <path class="cls-16" d="M815.61,794.63c0-3.95,1.32-5.38,4.87-5.38.74,0,1.81.08,2.72.31.39.1.54.37.47.76-.09.39-.33.55-.71.55-.77-.06-1.62-.09-2.18-.09-2.44,0-3.29.86-3.29,3.85s.85,3.87,3.29,3.87c.5,0,1.48-.03,2.37-.13.42-.05.66.13.73.52.07.42-.1.69-.47.78-.92.22-1.96.35-2.93.35-3.55,0-4.86-1.43-4.86-5.38Z"/>
      <path class="cls-16" d="M826.32,799.12v-13.45c0-.42.22-.64.64-.64h.51c.42,0,.64.22.64.64l.03,5.9c0,.53-.02.99-.08,1.48-.02.17.07.27.24.27h.85c.14,0,.23-.05.32-.16l2.83-3.28c.22-.25.44-.37.79-.37h.58c.56,0,.72.36.37.79l-2.56,2.96c-.17.21-.39.43-.56.55-.14.1-.14.24,0,.36.17.14.41.42.56.65l3,4.15c.31.43.12.77-.4.77h-.63c-.36,0-.59-.12-.78-.42l-3.2-4.55c-.07-.12-.18-.17-.31-.17h-.87c-.19,0-.27.1-.26.27.06.47.07.94.07,1.37v2.85c0,.42-.22.64-.64.64h-.51c-.42,0-.64-.22-.64-.64Z"/>
      <path class="cls-16" d="M837.09,799.78c-.4-.05-.54-.28-.51-.75.04-.48.22-.63.63-.61.91.04,1.94.07,3.01.06,2.29-.01,3.01-.29,3.01-1.43,0-.97-.62-1.27-1.72-1.48l-2.72-.57c-1.7-.37-2.38-1.29-2.38-2.92,0-2.1,1.2-2.85,3.95-2.83,1.14.02,2.54.11,3.72.25.37.05.57.27.53.72-.05.51-.24.67-.66.64-1.09-.05-2.22-.08-3.32-.09-1.85-.01-2.48.19-2.48,1.3,0,1.01.53,1.28,1.57,1.51l2.75.59c1.75.38,2.5,1.18,2.5,2.87,0,2.25-1.4,2.94-4.38,2.94-.67,0-1.99-.02-3.5-.21Z"/>
    </g>
  </g>
  <g>
    <line class="cls-21" x1="381.38" y1="179.4" x2="525.4" y2="179.4"/>
    <polygon class="cls-16" points="545 179.67 525.62 190.86 525.62 168.48 545 179.67"/>
  </g>
  <g>
    <g>
      <polygon class="cls-4" points="345.89 99.55 345.89 330.96 57.77 330.96 57.77 28.97 267.25 28.97 345.89 99.55"/>
      <polygon class="cls-2" points="267.86 98.96 267.86 28.38 346.5 98.96 267.86 98.96"/>
    </g>
    <g>
      <path class="cls-16" d="M78.81,137.46h2.8v.19c0,.79.26,1.39.78,1.78.52.39,1.24.59,2.17.59s1.65-.19,2.14-.58c.5-.38.74-.89.74-1.52s-.24-1.11-.71-1.46c-.48-.35-1.46-.72-2.96-1.12-1.59-.43-2.77-.99-3.54-1.66-.77-.68-1.16-1.62-1.17-2.83,0-1.27.48-2.29,1.45-3.08.97-.78,2.29-1.18,3.95-1.18s2.98.41,3.98,1.23c.99.82,1.49,1.89,1.49,3.21v.22h-2.75v-.2c0-.68-.23-1.24-.68-1.66-.46-.42-1.13-.63-2.02-.63s-1.56.17-1.98.51c-.42.34-.64.81-.64,1.4s.22.99.67,1.29,1.42.66,2.92,1.07c1.57.43,2.76,1,3.56,1.7.81.7,1.21,1.71,1.21,3.03s-.51,2.44-1.54,3.23c-1.03.79-2.4,1.18-4.12,1.18s-3.1-.39-4.17-1.17-1.6-1.89-1.6-3.33v-.23Z"/>
      <path class="cls-16" d="M92.56,126.91c.27-.28.67-.42,1.18-.42s.91.14,1.18.42c.27.28.41.63.41,1.05s-.14.77-.42,1.05-.67.43-1.19.43-.9-.14-1.17-.43-.41-.64-.41-1.05.14-.77.41-1.05ZM92.39,131.05h2.68v10.83h-2.68v-10.83Z"/>
      <path class="cls-16" d="M97.92,131.05h2.51l.07,1.28h.06c.34-.47.77-.84,1.31-1.1.54-.26,1.13-.39,1.76-.39.75,0,1.39.15,1.94.46s.95.77,1.21,1.39h.05c.39-.62.89-1.09,1.49-1.39s1.26-.46,1.97-.46c1.1,0,1.98.33,2.63.99.65.66.98,1.77.98,3.31v6.73h-2.67v-6.86c0-.72-.15-1.24-.45-1.58-.3-.33-.74-.5-1.32-.5-.5,0-.94.13-1.31.41-.38.28-.67.66-.89,1.14v7.39h-2.68v-6.84c0-.73-.15-1.27-.46-1.6-.3-.33-.75-.5-1.33-.5-.51,0-.94.14-1.31.41-.37.27-.66.65-.88,1.14v7.39h-2.67v-10.83Z"/>
      <path class="cls-16" d="M116.51,131.05h2.67v6.81c0,.79.17,1.34.5,1.65.33.32.79.47,1.37.47.51,0,.97-.15,1.37-.44s.71-.66.92-1.09v-7.41h2.67v10.83h-2.51l-.07-1.27h-.06c-.34.46-.79.82-1.35,1.08s-1.17.4-1.86.4c-1.08,0-1.96-.33-2.64-.99-.68-.66-1.02-1.76-1.02-3.31v-6.74Z"/>
      <path class="cls-16" d="M128.85,126.13h2.68v15.75h-2.68v-15.75Z"/>
      <path class="cls-16" d="M135.17,136.02c.91-.61,2.07-.91,3.46-.91h2.21v-.66c0-.53-.14-.97-.42-1.31-.28-.34-.77-.51-1.46-.51s-1.19.14-1.48.42-.44.61-.44,1v.12h-2.64v-.12c0-.93.43-1.72,1.28-2.35.86-.64,1.98-.96,3.38-.96s2.49.31,3.27.92,1.18,1.55,1.18,2.8v4.97c0,.45.04.86.11,1.26.08.39.18.73.31,1.02v.16h-2.61c-.09-.16-.17-.38-.24-.64-.07-.26-.11-.52-.13-.77-.23.42-.63.79-1.21,1.12s-1.32.49-2.21.49c-1.05,0-1.93-.29-2.65-.86s-1.08-1.42-1.08-2.53c0-1.18.46-2.07,1.37-2.68ZM136.93,139.73c.3.31.78.47,1.43.47s1.26-.22,1.75-.67c.49-.44.73-.96.73-1.53v-1.2h-1.86c-.84,0-1.46.15-1.87.44-.41.29-.62.71-.62,1.24s.15.94.45,1.25Z"/>
      <path class="cls-16" d="M144.92,131.05h6.5v1.97h-6.5v-1.97ZM146.64,132.12v-.31s.01-3.35.01-3.35h2.66v10.33c0,.49.09.83.28,1.02.19.19.46.29.81.29.16,0,.33-.02.5-.06.17-.04.33-.09.5-.15v1.97c-.16.08-.39.16-.68.22s-.61.1-.95.1c-.94,0-1.69-.27-2.27-.81s-.86-1.39-.86-2.54v-6.72Z"/>
      <path class="cls-16" d="M153.49,126.91c.27-.28.67-.42,1.18-.42s.91.14,1.18.42c.27.28.41.63.41,1.05s-.14.77-.42,1.05-.67.43-1.19.43-.9-.14-1.17-.43-.41-.64-.41-1.05.14-.77.41-1.05ZM153.33,131.05h2.68v10.83h-2.68v-10.83Z"/>
      <path class="cls-16" d="M158.25,136.3c0-1.68.5-3.03,1.49-4.04,1-1.01,2.3-1.52,3.92-1.52s2.93.51,3.93,1.52c1,1.01,1.49,2.36,1.49,4.04v.33c0,1.68-.5,3.02-1.49,4.04-1,1.01-2.31,1.52-3.93,1.52s-2.92-.51-3.92-1.52c-1-1.01-1.49-2.36-1.49-4.04v-.33ZM160.98,136.74c0,1.04.23,1.86.69,2.47.46.61,1.12.91,1.99.91s1.53-.3,1.99-.91c.46-.61.69-1.43.69-2.47v-.55c0-1.05-.23-1.87-.69-2.48-.46-.6-1.12-.9-1.99-.9s-1.52.3-1.98.9c-.47.6-.7,1.43-.7,2.48v.55Z"/>
      <path class="cls-16" d="M171.27,131.05h2.51l.07,1.27h.06c.31-.45.75-.8,1.3-1.08s1.17-.41,1.84-.41c1.11,0,2.01.31,2.69.94.69.63,1.03,1.71,1.03,3.26v6.84h-2.67v-6.91c0-.74-.16-1.26-.49-1.57-.33-.3-.79-.46-1.38-.46-.49,0-.94.14-1.35.41-.41.27-.72.65-.94,1.13v7.4h-2.67v-10.83Z"/>
      <path class="cls-16" d="M188.28,133.93c0-2.36.61-4.16,1.82-5.42s2.78-1.89,4.7-1.89,3.31.49,4.38,1.47c1.07.98,1.61,2.22,1.61,3.7v.21h-2.77v-.23c0-.92-.27-1.64-.8-2.18s-1.35-.8-2.43-.8-1.97.39-2.66,1.17c-.68.78-1.02,2.03-1.02,3.74v1.4c0,1.59.34,2.8,1.01,3.65.67.84,1.57,1.26,2.69,1.26,1.03,0,1.81-.28,2.33-.83.52-.55.81-1.27.87-2.16v-.21h2.78v.21c-.1,1.47-.66,2.7-1.68,3.69-1.02.99-2.46,1.48-4.31,1.48s-3.49-.63-4.7-1.9c-1.21-1.27-1.82-3.07-1.82-5.41v-.94Z"/>
      <path class="cls-16" d="M202.24,136.3c0-1.68.5-3.03,1.49-4.04,1-1.01,2.3-1.52,3.92-1.52s2.93.51,3.93,1.52c1,1.01,1.49,2.36,1.49,4.04v.33c0,1.68-.5,3.02-1.49,4.04-1,1.01-2.31,1.52-3.93,1.52s-2.92-.51-3.92-1.52c-1-1.01-1.49-2.36-1.49-4.04v-.33ZM204.98,136.74c0,1.04.23,1.86.69,2.47.46.61,1.12.91,1.99.91s1.53-.3,1.99-.91c.46-.61.69-1.43.69-2.47v-.55c0-1.05-.23-1.87-.69-2.48-.46-.6-1.12-.9-1.99-.9s-1.52.3-1.98.9c-.47.6-.7,1.43-.7,2.48v.55Z"/>
      <path class="cls-16" d="M215.27,131.05h2.51l.07,1.27h.06c.31-.45.75-.8,1.3-1.08s1.17-.41,1.84-.41c1.11,0,2.01.31,2.69.94.69.63,1.03,1.71,1.03,3.26v6.84h-2.67v-6.91c0-.74-.16-1.26-.49-1.57-.33-.3-.79-.46-1.38-.46-.49,0-.94.14-1.35.41-.41.27-.72.65-.94,1.13v7.4h-2.67v-10.83Z"/>
      <path class="cls-16" d="M226.31,131.05h6.29v1.97h-6.29v-1.97ZM227.85,129.96c0-1.34.37-2.34,1.11-3.02.74-.68,1.7-1.02,2.88-1.02.25,0,.49.01.72.04.24.03.45.07.65.12l-.09,2.01c-.14-.03-.28-.05-.44-.07-.16-.02-.32-.03-.48-.03-.53,0-.95.17-1.24.5-.29.33-.44.83-.44,1.5v11.88h-2.67v-11.92ZM234.12,126.91c.27-.28.67-.42,1.18-.42s.91.14,1.18.42.41.63.41,1.05-.14.77-.42,1.05-.67.43-1.19.43-.9-.14-1.17-.43c-.27-.28-.41-.64-.41-1.05s.14-.77.41-1.05ZM233.95,131.05h2.68v10.83h-2.68v-10.83Z"/>
      <path class="cls-16" d="M240.72,143.11c.27.28.68.55,1.24.8s1.19.38,1.87.38c.81,0,1.46-.24,1.95-.73.49-.49.73-1.21.73-2.16v-.69c-.28.42-.68.76-1.2,1.01s-1.13.37-1.83.37c-1.38,0-2.5-.5-3.34-1.51s-1.27-2.32-1.27-3.94v-.33c0-1.62.42-2.94,1.26-3.94.84-1.01,1.96-1.51,3.35-1.51.7,0,1.32.14,1.87.43s.94.64,1.19,1.07h.05l.07-1.29h2.51v10.29c0,1.62-.49,2.86-1.47,3.72-.98.87-2.23,1.3-3.75,1.3-.92,0-1.78-.15-2.56-.44-.78-.29-1.43-.66-1.95-1.09l1.27-1.73ZM242.23,139.1c.42.62,1.06.93,1.94.93.58,0,1.06-.16,1.47-.49.4-.33.69-.7.87-1.12v-3.86c-.19-.47-.48-.86-.89-1.18-.41-.32-.91-.48-1.49-.48-.85,0-1.48.31-1.9.93-.42.62-.63,1.41-.63,2.37v.53c0,.96.21,1.75.63,2.37Z"/>
      <path class="cls-16" d="M251.87,131.05h2.67v6.81c0,.79.17,1.34.5,1.65.33.32.79.47,1.37.47.51,0,.97-.15,1.37-.44s.71-.66.92-1.09v-7.41h2.67v10.83h-2.51l-.07-1.27h-.06c-.34.46-.79.82-1.35,1.08s-1.17.4-1.86.4c-1.08,0-1.96-.33-2.64-.99-.68-.66-1.02-1.76-1.02-3.31v-6.74Z"/>
      <path class="cls-16" d="M264.17,131.05h2.52l.07,1.25h.05c.23-.42.55-.78.96-1.09.4-.31.87-.46,1.4-.46.14,0,.29.02.44.05.15.03.26.07.32.09v2.34c-.12-.03-.25-.05-.4-.06-.14-.01-.29-.02-.46-.02-.52,0-.98.15-1.37.44-.39.29-.67.66-.85,1.1v7.18h-2.68v-10.83Z"/>
      <path class="cls-16" d="M272.06,136.02c.91-.61,2.07-.91,3.46-.91h2.21v-.66c0-.53-.14-.97-.42-1.31-.28-.34-.77-.51-1.46-.51s-1.19.14-1.48.42-.44.61-.44,1v.12h-2.64v-.12c0-.93.43-1.72,1.28-2.35.86-.64,1.98-.96,3.38-.96s2.49.31,3.27.92,1.18,1.55,1.18,2.8v4.97c0,.45.04.86.11,1.26.08.39.18.73.31,1.02v.16h-2.61c-.09-.16-.17-.38-.24-.64-.07-.26-.11-.52-.13-.77-.23.42-.63.79-1.21,1.12s-1.32.49-2.21.49c-1.05,0-1.93-.29-2.65-.86s-1.08-1.42-1.08-2.53c0-1.18.46-2.07,1.37-2.68ZM273.82,139.73c.3.31.78.47,1.43.47s1.26-.22,1.75-.67c.49-.44.73-.96.73-1.53v-1.2h-1.86c-.84,0-1.46.15-1.87.44-.41.29-.62.71-.62,1.24s.15.94.45,1.25Z"/>
      <path class="cls-16" d="M281.81,131.05h6.5v1.97h-6.5v-1.97ZM283.53,132.12v-.31s.01-3.35.01-3.35h2.66v10.33c0,.49.09.83.28,1.02.19.19.46.29.81.29.16,0,.33-.02.5-.06.17-.04.33-.09.5-.15v1.97c-.16.08-.39.16-.68.22s-.61.1-.95.1c-.94,0-1.69-.27-2.27-.81s-.86-1.39-.86-2.54v-6.72Z"/>
      <path class="cls-16" d="M290.38,126.91c.27-.28.67-.42,1.18-.42s.91.14,1.18.42c.27.28.41.63.41,1.05s-.14.77-.42,1.05-.67.43-1.19.43-.9-.14-1.17-.43-.41-.64-.41-1.05.14-.77.41-1.05ZM290.22,131.05h2.68v10.83h-2.68v-10.83Z"/>
      <path class="cls-16" d="M295.14,136.3c0-1.68.5-3.03,1.49-4.04,1-1.01,2.3-1.52,3.92-1.52s2.93.51,3.93,1.52c1,1.01,1.49,2.36,1.49,4.04v.33c0,1.68-.5,3.02-1.49,4.04-1,1.01-2.31,1.52-3.93,1.52s-2.92-.51-3.92-1.52c-1-1.01-1.49-2.36-1.49-4.04v-.33ZM297.87,136.74c0,1.04.23,1.86.69,2.47.46.61,1.12.91,1.99.91s1.53-.3,1.99-.91c.46-.61.69-1.43.69-2.47v-.55c0-1.05-.23-1.87-.69-2.48-.46-.6-1.12-.9-1.99-.9s-1.52.3-1.98.9c-.47.6-.7,1.43-.7,2.48v.55Z"/>
      <path class="cls-16" d="M308.16,131.05h2.51l.07,1.27h.06c.31-.45.75-.8,1.3-1.08s1.17-.41,1.84-.41c1.11,0,2.01.31,2.69.94.69.63,1.03,1.71,1.03,3.26v6.84h-2.67v-6.91c0-.74-.16-1.26-.49-1.57-.33-.3-.79-.46-1.38-.46-.49,0-.94.14-1.35.41-.41.27-.72.65-.94,1.13v7.4h-2.67v-10.83Z"/>
      <path class="cls-16" d="M322.31,138.55v.12c0,.55.19.95.57,1.21s.89.39,1.54.39,1.15-.12,1.5-.38c.35-.25.52-.58.52-.99s-.16-.72-.49-.92c-.33-.2-1.09-.43-2.27-.69-1.23-.27-2.16-.66-2.77-1.19s-.92-1.23-.92-2.1c0-.99.4-1.78,1.2-2.37.8-.6,1.87-.89,3.22-.89s2.43.3,3.24.91c.81.61,1.22,1.44,1.22,2.5v.09h-2.62v-.14c0-.44-.15-.8-.45-1.05s-.77-.39-1.4-.39-1.08.11-1.36.33c-.28.22-.43.5-.43.85s.17.62.52.83c.35.2,1.11.43,2.31.69,1.23.26,2.14.65,2.75,1.18.61.52.91,1.25.91,2.19,0,1.05-.39,1.89-1.18,2.52s-1.94.93-3.47.93-2.69-.31-3.52-.94c-.83-.63-1.24-1.5-1.24-2.61v-.09h2.64Z"/>
      <path class="cls-16" d="M80.14,157.34c.49-.52,1.12-.79,1.89-.79s1.4.26,1.89.79c.49.52.74,1.14.74,1.84s-.25,1.3-.74,1.82-1.12.79-1.89.79-1.4-.26-1.89-.79-.74-1.13-.74-1.82.25-1.32.74-1.84Z"/>
      <path class="cls-16" d="M96.25,152.17h11.5v1.39h-4.93v13.57h-1.64v-13.57h-4.93v-1.39Z"/>
      <path class="cls-16" d="M107.52,161.56c0-1.63.46-2.96,1.38-4,.92-1.03,2.16-1.55,3.7-1.55s2.77.52,3.69,1.55,1.38,2.37,1.38,4v.33c0,1.63-.46,2.96-1.38,4-.92,1.03-2.15,1.55-3.69,1.55s-2.78-.52-3.7-1.55c-.92-1.03-1.38-2.37-1.38-4v-.33ZM109.16,161.89c0,1.19.29,2.19.87,3s1.44,1.21,2.58,1.21,2-.4,2.58-1.21.87-1.81.87-3v-.33c0-1.19-.29-2.19-.87-3-.58-.81-1.44-1.21-2.58-1.21s-2,.4-2.58,1.21c-.58.81-.87,1.81-.87,3v.33Z"/>
      <path class="cls-16" d="M120.11,156.32h1.44l.07,1.46h.04c.3-.46.76-.85,1.36-1.18s1.31-.49,2.1-.49c1.39,0,2.49.51,3.31,1.54s1.22,2.33,1.22,3.9v.33c0,1.58-.41,2.88-1.22,3.9s-1.92,1.54-3.31,1.54c-.79,0-1.48-.14-2.04-.42-.57-.28-1.03-.65-1.38-1.11v5.6h-1.59v-15.08ZM122.84,165.42c.53.39,1.16.58,1.91.58,1.13,0,1.96-.39,2.48-1.17.52-.78.79-1.76.79-2.94v-.33c0-1.18-.26-2.16-.79-2.94s-1.35-1.17-2.48-1.17c-.75,0-1.38.19-1.91.58-.53.39-.91.83-1.14,1.33v4.73c.23.5.61.94,1.14,1.33Z"/>
      <path class="cls-16" d="M131.4,161.56c0-1.63.46-2.96,1.38-4,.92-1.03,2.16-1.55,3.7-1.55s2.77.52,3.69,1.55,1.38,2.37,1.38,4v.33c0,1.63-.46,2.96-1.38,4-.92,1.03-2.15,1.55-3.69,1.55s-2.78-.52-3.7-1.55c-.92-1.03-1.38-2.37-1.38-4v-.33ZM133.03,161.89c0,1.19.29,2.19.87,3s1.44,1.21,2.58,1.21,2-.4,2.58-1.21.87-1.81.87-3v-.33c0-1.19-.29-2.19-.87-3-.58-.81-1.44-1.21-2.58-1.21s-2,.4-2.58,1.21c-.58.81-.87,1.81-.87,3v.33Z"/>
      <path class="cls-16" d="M144.04,151.35h1.6v15.78h-1.6v-15.78Z"/>
      <path class="cls-16" d="M148.13,161.56c0-1.63.46-2.96,1.38-4,.92-1.03,2.16-1.55,3.7-1.55s2.77.52,3.69,1.55,1.38,2.37,1.38,4v.33c0,1.63-.46,2.96-1.38,4-.92,1.03-2.15,1.55-3.69,1.55s-2.78-.52-3.7-1.55c-.92-1.03-1.38-2.37-1.38-4v-.33ZM149.77,161.89c0,1.19.29,2.19.87,3s1.44,1.21,2.58,1.21,2-.4,2.58-1.21.87-1.81.87-3v-.33c0-1.19-.29-2.19-.87-3-.58-.81-1.44-1.21-2.58-1.21s-2,.4-2.58,1.21c-.58.81-.87,1.81-.87,3v.33Z"/>
      <path class="cls-16" d="M161.42,168.93c.32.34.78.63,1.36.88s1.23.38,1.95.37c1,0,1.79-.29,2.37-.86.58-.57.87-1.38.87-2.42v-1.11c-.34.46-.8.83-1.36,1.11s-1.24.42-2.04.42c-1.39,0-2.49-.51-3.31-1.54s-1.23-2.33-1.23-3.9v-.33c0-1.58.41-2.88,1.23-3.9s1.92-1.54,3.31-1.54c.79,0,1.49.16,2.1.49.6.33,1.05.72,1.36,1.18h.04l.06-1.46h1.45v10.59c0,1.51-.45,2.67-1.34,3.48s-2.04,1.21-3.46,1.21c-.88,0-1.7-.14-2.44-.41s-1.37-.62-1.88-1.04l.97-1.22ZM162.46,164.83c.53.78,1.35,1.17,2.48,1.17.75,0,1.38-.19,1.91-.58.52-.39.9-.83,1.13-1.33v-4.73c-.23-.5-.61-.94-1.13-1.33-.52-.39-1.16-.58-1.91-.58-1.12,0-1.95.39-2.48,1.17s-.79,1.76-.79,2.94v.33c0,1.18.26,2.16.79,2.94Z"/>
      <path class="cls-16" d="M171.67,170.03c.19.05.4.1.63.13s.45.05.66.05c.45,0,.85-.17,1.19-.51.34-.34.77-1.21,1.28-2.62h0s-4.16-10.77-4.16-10.77h1.6l2.8,7.58c.09.25.17.49.24.71s.14.44.2.66h.06c.07-.22.14-.44.21-.66s.15-.46.23-.71l2.63-7.58h1.55l-4.41,12.04c-.4,1.1-.86,1.91-1.39,2.44-.53.53-1.18.8-1.96.8-.29,0-.54-.02-.75-.05s-.42-.09-.62-.15v-1.37Z"/>
      <path class="cls-16" d="M80.14,182.59c.49-.52,1.12-.79,1.89-.79s1.4.26,1.89.79c.49.52.74,1.14.74,1.84s-.25,1.3-.74,1.82-1.12.79-1.89.79-1.4-.26-1.89-.79-.74-1.13-.74-1.82.25-1.32.74-1.84Z"/>
      <path class="cls-16" d="M97.18,184.47c0-2.34.58-4.16,1.75-5.44,1.17-1.28,2.63-1.93,4.39-1.93s3.11.48,4.06,1.45c.96.97,1.47,2.15,1.56,3.54v.1h-1.64v-.1c-.07-.96-.41-1.79-1.04-2.5-.63-.71-1.61-1.06-2.93-1.06s-2.37.51-3.22,1.52c-.84,1.01-1.26,2.48-1.26,4.42v.84c0,1.89.42,3.35,1.26,4.39.84,1.03,1.91,1.55,3.22,1.55s2.25-.36,2.88-1.07c.63-.71.99-1.54,1.09-2.5v-.1h1.65v.1c-.15,1.39-.68,2.57-1.6,3.54-.92.97-2.26,1.45-4.02,1.45s-3.22-.64-4.39-1.92-1.75-3.09-1.75-5.45v-.84Z"/>
      <path class="cls-16" d="M110.68,186.8c0-1.63.46-2.96,1.38-4,.92-1.03,2.16-1.55,3.7-1.55s2.77.52,3.69,1.55,1.38,2.37,1.38,4v.33c0,1.63-.46,2.96-1.38,4-.92,1.03-2.15,1.55-3.69,1.55s-2.78-.52-3.7-1.55c-.92-1.03-1.38-2.37-1.38-4v-.33ZM112.31,187.13c0,1.19.29,2.19.87,3s1.44,1.21,2.58,1.21,2-.4,2.58-1.21.87-1.81.87-3v-.33c0-1.19-.29-2.19-.87-3-.58-.81-1.44-1.21-2.58-1.21s-2,.4-2.58,1.21c-.58.81-.87,1.81-.87,3v.33Z"/>
      <path class="cls-16" d="M123.26,181.56h1.44l.07,1.49h.04c.41-.53.9-.94,1.47-1.24s1.21-.45,1.91-.45,1.38.15,1.93.45.95.77,1.21,1.42h.04c.47-.65.99-1.12,1.59-1.42s1.26-.45,2-.45c1.1,0,1.96.31,2.6.92.64.61.96,1.64.96,3.07v7.03h-1.59v-7.05c0-.92-.21-1.59-.62-1.99-.41-.4-.99-.61-1.73-.61-.64,0-1.21.18-1.7.53-.49.35-.88.81-1.18,1.36v7.76h-1.6v-7.05c0-.92-.21-1.59-.63-1.99-.42-.4-1-.61-1.75-.61-.64,0-1.21.18-1.69.53-.48.35-.87.81-1.17,1.36v7.76h-1.59v-10.81Z"/>
      <path class="cls-16" d="M141.5,181.56h1.44l.07,1.46h.04c.3-.46.76-.85,1.36-1.18s1.31-.49,2.1-.49c1.39,0,2.49.51,3.31,1.54s1.22,2.33,1.22,3.9v.33c0,1.58-.41,2.88-1.22,3.9s-1.92,1.54-3.31,1.54c-.79,0-1.48-.14-2.04-.42-.57-.28-1.03-.65-1.38-1.11v5.6h-1.59v-15.08ZM144.23,190.66c.53.39,1.16.58,1.91.58,1.13,0,1.96-.39,2.48-1.17.52-.78.79-1.76.79-2.94v-.33c0-1.18-.26-2.16-.79-2.94s-1.35-1.17-2.48-1.17c-.75,0-1.38.19-1.91.58-.53.39-.91.83-1.14,1.33v4.73c.23.5.61.94,1.14,1.33Z"/>
      <path class="cls-16" d="M152.79,186.8c0-1.63.46-2.96,1.38-4,.92-1.03,2.16-1.55,3.7-1.55s2.77.52,3.69,1.55,1.38,2.37,1.38,4v.33c0,1.63-.46,2.96-1.38,4-.92,1.03-2.15,1.55-3.69,1.55s-2.78-.52-3.7-1.55c-.92-1.03-1.38-2.37-1.38-4v-.33ZM154.42,187.13c0,1.19.29,2.19.87,3s1.44,1.21,2.58,1.21,2-.4,2.58-1.21.87-1.81.87-3v-.33c0-1.19-.29-2.19-.87-3-.58-.81-1.44-1.21-2.58-1.21s-2,.4-2.58,1.21c-.58.81-.87,1.81-.87,3v.33Z"/>
      <path class="cls-16" d="M165.37,181.56h1.44l.07,1.49h.04c.41-.53.91-.95,1.5-1.25s1.25-.45,1.98-.45c1.09,0,1.96.31,2.6.92.64.61.97,1.64.97,3.07v7.03h-1.6v-7.05c0-.92-.21-1.59-.64-1.99-.42-.4-1.03-.61-1.81-.61-.66,0-1.25.18-1.76.53-.51.36-.91.81-1.2,1.36v7.76h-1.59v-10.81Z"/>
      <path class="cls-16" d="M176.29,186.8c0-1.63.45-2.96,1.34-4s2.06-1.55,3.52-1.55,2.58.48,3.37,1.43c.79.95,1.18,2.26,1.18,3.93v.67h-8.46v-1.29h6.85v-.14c0-.99-.24-1.78-.72-2.37s-1.21-.89-2.17-.89c-1.08,0-1.9.4-2.45,1.21s-.83,1.81-.83,3v.33c0,1.2.29,2.2.86,3s1.48,1.21,2.7,1.21c.71,0,1.32-.15,1.83-.44s.93-.65,1.26-1.06l1.04.85c-.34.49-.86.95-1.57,1.36-.7.41-1.56.62-2.56.62-1.67,0-2.95-.52-3.85-1.55-.89-1.03-1.34-2.37-1.34-4v-.33Z"/>
      <path class="cls-16" d="M187.99,181.56h1.44l.07,1.49h.04c.41-.53.91-.95,1.5-1.25s1.25-.45,1.98-.45c1.09,0,1.96.31,2.6.92.64.61.97,1.64.97,3.07v7.03h-1.6v-7.05c0-.92-.21-1.59-.64-1.99-.42-.4-1.03-.61-1.81-.61-.66,0-1.25.18-1.76.53-.51.36-.91.81-1.2,1.36v7.76h-1.59v-10.81Z"/>
      <path class="cls-16" d="M198.03,181.56h6.23v1.26h-6.23v-1.26ZM200.12,182.33v-3.43h1.6v10.8c0,.57.11.98.32,1.22.21.25.55.37,1.01.37.2,0,.39-.02.58-.06s.38-.1.57-.16v1.34c-.17.08-.39.14-.67.2s-.58.09-.9.09c-.77,0-1.38-.24-1.83-.72-.45-.48-.68-1.24-.68-2.27v-7.37Z"/>
      <path class="cls-16" d="M210.83,188.18h1.64v.12c0,.97.33,1.7.98,2.2.65.5,1.56.75,2.72.75s2.07-.26,2.69-.77c.62-.51.93-1.17.93-1.97,0-.72-.28-1.3-.83-1.75-.55-.44-1.65-.9-3.28-1.36-1.66-.47-2.83-1.02-3.51-1.64-.68-.62-1.02-1.5-1.02-2.63s.43-2.11,1.3-2.88,2.08-1.15,3.62-1.15,2.77.41,3.68,1.24c.91.83,1.37,1.85,1.37,3.07v.12h-1.64v-.12c0-.85-.29-1.54-.86-2.08-.57-.54-1.42-.81-2.54-.81s-1.95.23-2.49.7c-.53.47-.8,1.09-.8,1.88,0,.67.27,1.22.81,1.63.54.42,1.62.86,3.26,1.31,1.64.45,2.82,1.01,3.52,1.67.7.66,1.05,1.59,1.05,2.78s-.47,2.22-1.41,3c-.94.78-2.22,1.17-3.84,1.17s-2.9-.39-3.88-1.18c-.98-.78-1.46-1.85-1.46-3.2v-.12Z"/>
      <path class="cls-16" d="M223.89,177.48c.18-.2.44-.29.78-.29s.6.1.79.29c.18.19.27.44.27.72s-.09.53-.27.72-.44.29-.78.29-.6-.1-.79-.29c-.18-.2-.27-.44-.27-.72s.09-.53.27-.72ZM223.87,181.56h1.59v10.81h-1.59v-10.81Z"/>
      <path class="cls-16" d="M228.64,181.56h1.44l.07,1.49h.04c.41-.53.9-.94,1.47-1.24s1.21-.45,1.91-.45,1.38.15,1.93.45.95.77,1.21,1.42h.04c.47-.65.99-1.12,1.59-1.42s1.26-.45,2-.45c1.1,0,1.96.31,2.6.92.64.61.96,1.64.96,3.07v7.03h-1.59v-7.05c0-.92-.21-1.59-.62-1.99-.41-.4-.99-.61-1.73-.61-.64,0-1.21.18-1.7.53-.49.35-.88.81-1.18,1.36v7.76h-1.6v-7.05c0-.92-.21-1.59-.63-1.99-.42-.4-1-.61-1.75-.61-.64,0-1.21.18-1.69.53-.48.35-.87.81-1.17,1.36v7.76h-1.59v-10.81Z"/>
      <path class="cls-16" d="M246.76,181.56h1.59v7.05c0,.92.22,1.59.65,1.99.43.4,1.04.61,1.82.61.66,0,1.25-.18,1.75-.53.5-.35.9-.81,1.2-1.36v-7.76h1.6v10.81h-1.45l-.06-1.49h-.05c-.41.53-.91.95-1.5,1.25s-1.25.45-1.98.45c-1.08,0-1.95-.31-2.59-.92-.65-.61-.97-1.63-.97-3.07v-7.03Z"/>
      <path class="cls-16" d="M258.53,176.59h1.6v15.78h-1.6v-15.78Z"/>
      <path class="cls-16" d="M263.99,186.73c.87-.6,1.97-.9,3.3-.9h2.65v-.85c0-.72-.18-1.3-.55-1.75-.37-.44-1.01-.67-1.92-.67s-1.56.19-1.96.56c-.39.37-.59.82-.59,1.34v.05h-1.57v-.05c0-.88.38-1.63,1.13-2.26.75-.63,1.77-.95,3.04-.95s2.26.31,2.96.94c.7.62,1.05,1.55,1.05,2.78v4.93c0,.45.04.86.11,1.26.07.39.17.74.3,1.04v.16h-1.53c-.11-.18-.21-.41-.29-.7s-.13-.58-.15-.86c-.27.45-.7.86-1.3,1.22s-1.37.54-2.31.54c-1.03,0-1.91-.28-2.62-.84-.71-.56-1.07-1.38-1.07-2.48s.43-1.93,1.3-2.53ZM264.88,190.73c.4.36,1.02.54,1.86.54s1.57-.27,2.22-.82c.65-.55.98-1.13.98-1.76v-1.69h-2.43c-1.05,0-1.86.19-2.4.58s-.82.92-.82,1.6.2,1.2.6,1.56Z"/>
      <path class="cls-16" d="M273.05,181.56h6.23v1.26h-6.23v-1.26ZM275.14,182.33v-3.43h1.6v10.8c0,.57.11.98.32,1.22.21.25.55.37,1.01.37.2,0,.39-.02.58-.06s.38-.1.57-.16v1.34c-.17.08-.39.14-.67.2s-.58.09-.9.09c-.77,0-1.38-.24-1.83-.72-.45-.48-.68-1.24-.68-2.27v-7.37Z"/>
      <path class="cls-16" d="M280.46,186.8c0-1.63.46-2.96,1.38-4,.92-1.03,2.16-1.55,3.7-1.55s2.77.52,3.69,1.55,1.38,2.37,1.38,4v.33c0,1.63-.46,2.96-1.38,4-.92,1.03-2.15,1.55-3.69,1.55s-2.78-.52-3.7-1.55c-.92-1.03-1.38-2.37-1.38-4v-.33ZM282.09,187.13c0,1.19.29,2.19.87,3s1.44,1.21,2.58,1.21,2-.4,2.58-1.21.87-1.81.87-3v-.33c0-1.19-.29-2.19-.87-3-.58-.81-1.44-1.21-2.58-1.21s-2,.4-2.58,1.21c-.58.81-.87,1.81-.87,3v.33Z"/>
      <path class="cls-16" d="M293.04,181.56h1.44l.07,1.46h.04c.3-.47.69-.89,1.18-1.24.48-.35,1.06-.53,1.74-.53.16,0,.32.02.5.05.17.03.3.07.38.09v1.49c-.14-.03-.3-.05-.46-.07-.16-.02-.33-.03-.52-.03-.67,0-1.24.17-1.71.52-.47.35-.82.78-1.06,1.29v7.76h-1.59v-10.81Z"/>
      <path class="cls-16" d="M301.11,189.19v.05c0,.71.25,1.23.77,1.58.51.35,1.18.52,2.01.52s1.49-.17,1.97-.51c.48-.34.71-.78.71-1.33s-.19-.95-.58-1.22c-.38-.27-1.17-.54-2.37-.82-1.19-.27-2.12-.66-2.78-1.16-.66-.5-.99-1.18-.99-2.04s.36-1.59,1.09-2.16,1.69-.86,2.91-.86,2.2.3,2.94.89c.74.6,1.11,1.38,1.11,2.34v.05h-1.59v-.06c0-.58-.2-1.03-.61-1.38s-1.02-.51-1.84-.51-1.43.15-1.82.44c-.39.29-.59.67-.59,1.14s.21.84.62,1.11c.41.28,1.21.55,2.4.83,1.2.27,2.12.66,2.75,1.15.64.49.96,1.21.96,2.15s-.36,1.73-1.07,2.34c-.71.62-1.78.92-3.21.92s-2.5-.31-3.25-.94-1.12-1.46-1.12-2.5v-.05h1.59Z"/>
      <path class="cls-16" d="M80.14,207.83c.49-.52,1.12-.79,1.89-.79s1.4.26,1.89.79c.49.52.74,1.14.74,1.84s-.25,1.3-.74,1.82-1.12.79-1.89.79-1.4-.26-1.89-.79-.74-1.13-.74-1.82.25-1.32.74-1.84Z"/>
      <path class="cls-16" d="M96.92,213.43h1.64v.12c0,.97.33,1.7.98,2.2.65.5,1.56.75,2.72.75s2.07-.26,2.69-.77c.62-.51.93-1.17.93-1.97,0-.72-.28-1.3-.83-1.75-.55-.44-1.65-.9-3.28-1.36-1.66-.47-2.83-1.02-3.51-1.64-.68-.62-1.02-1.5-1.02-2.63s.43-2.11,1.3-2.88,2.08-1.15,3.62-1.15,2.77.41,3.68,1.24c.91.83,1.37,1.85,1.37,3.07v.12h-1.64v-.12c0-.85-.29-1.54-.86-2.08-.57-.54-1.42-.81-2.54-.81s-1.95.23-2.49.7c-.53.47-.8,1.09-.8,1.88,0,.67.27,1.22.81,1.63.54.42,1.62.86,3.26,1.31,1.64.45,2.82,1.01,3.52,1.67.7.66,1.05,1.59,1.05,2.78s-.47,2.22-1.41,3c-.94.78-2.22,1.17-3.84,1.17s-2.9-.39-3.88-1.18c-.98-.78-1.46-1.85-1.46-3.2v-.12Z"/>
      <path class="cls-16" d="M109.21,212.05c0-1.63.46-2.96,1.38-4,.92-1.03,2.16-1.55,3.7-1.55s2.77.52,3.69,1.55,1.38,2.37,1.38,4v.33c0,1.63-.46,2.96-1.38,4-.92,1.03-2.15,1.55-3.69,1.55s-2.78-.52-3.7-1.55c-.92-1.03-1.38-2.37-1.38-4v-.33ZM110.84,212.38c0,1.19.29,2.19.87,3s1.44,1.21,2.58,1.21,2-.4,2.58-1.21.87-1.81.87-3v-.33c0-1.19-.29-2.19-.87-3-.58-.81-1.44-1.21-2.58-1.21s-2,.4-2.58,1.21c-.58.81-.87,1.81-.87,3v.33Z"/>
      <path class="cls-16" d="M120.5,206.81h6.02v1.26h-6.02v-1.26ZM122.42,205.37c0-1.22.32-2.15.95-2.78.63-.64,1.49-.96,2.58-.96.23,0,.46.01.69.04.23.03.45.07.66.12l-.11,1.3c-.15-.03-.32-.05-.5-.08-.19-.02-.37-.04-.56-.04-.67,0-1.19.2-1.56.6-.37.4-.55.99-.55,1.79v12.24h-1.59v-12.24Z"/>
      <path class="cls-16" d="M126.9,206.81h6.23v1.26h-6.23v-1.26ZM128.98,207.57v-3.43h1.6v10.8c0,.57.11.98.32,1.22.21.25.55.37,1.01.37.2,0,.39-.02.58-.06s.38-.1.57-.16v1.34c-.17.08-.39.14-.67.2s-.58.09-.9.09c-.77,0-1.38-.24-1.83-.72-.45-.48-.68-1.24-.68-2.27v-7.37Z"/>
      <path class="cls-16" d="M135.49,206.81l2.18,7.46c.08.27.15.52.21.74.05.22.11.47.17.74h.06c.06-.27.12-.52.17-.74.05-.22.13-.47.22-.74l2.42-7.46h1.4l2.47,7.46c.09.27.16.52.22.74.05.22.11.47.17.74h.06c.05-.27.11-.52.17-.74.06-.22.12-.47.2-.74l2.16-7.46h1.49l-3.4,10.81h-1.36l-2.39-7.35c-.09-.27-.17-.55-.26-.84-.08-.28-.16-.56-.23-.84h-.07c-.08.27-.15.55-.24.84-.08.28-.16.56-.25.84l-2.41,7.35h-1.36l-3.4-10.81h1.59Z"/>
      <path class="cls-16" d="M151.75,211.97c.87-.6,1.97-.9,3.3-.9h2.65v-.85c0-.72-.18-1.3-.55-1.75-.37-.44-1.01-.67-1.92-.67s-1.56.19-1.96.56c-.39.37-.59.82-.59,1.34v.05h-1.57v-.05c0-.88.38-1.63,1.13-2.26.75-.63,1.77-.95,3.04-.95s2.26.31,2.96.94c.7.62,1.05,1.55,1.05,2.78v4.93c0,.45.04.86.11,1.26.07.39.17.74.3,1.04v.16h-1.53c-.11-.18-.21-.41-.29-.7s-.13-.58-.15-.86c-.27.45-.7.86-1.3,1.22s-1.37.54-2.31.54c-1.03,0-1.91-.28-2.62-.84-.71-.56-1.07-1.38-1.07-2.48s.43-1.93,1.3-2.53ZM152.65,215.98c.4.36,1.02.54,1.86.54s1.57-.27,2.22-.82c.65-.55.98-1.13.98-1.76v-1.69h-2.43c-1.05,0-1.86.19-2.4.58s-.82.92-.82,1.6.2,1.2.6,1.56Z"/>
      <path class="cls-16" d="M162.37,206.81h1.44l.07,1.46h.04c.3-.47.69-.89,1.18-1.24.48-.35,1.06-.53,1.74-.53.16,0,.32.02.5.05.17.03.3.07.38.09v1.49c-.14-.03-.3-.05-.46-.07-.16-.02-.33-.03-.52-.03-.67,0-1.24.17-1.71.52-.47.35-.82.78-1.06,1.29v7.76h-1.59v-10.81Z"/>
      <path class="cls-16" d="M168.7,212.05c0-1.63.45-2.96,1.34-4s2.06-1.55,3.52-1.55,2.58.48,3.37,1.43c.79.95,1.18,2.26,1.18,3.93v.67h-8.46v-1.29h6.85v-.14c0-.99-.24-1.78-.72-2.37s-1.21-.89-2.17-.89c-1.08,0-1.9.4-2.45,1.21s-.83,1.81-.83,3v.33c0,1.2.29,2.2.86,3s1.48,1.21,2.7,1.21c.71,0,1.32-.15,1.83-.44s.93-.65,1.26-1.06l1.04.85c-.34.49-.86.95-1.57,1.36-.7.41-1.56.62-2.56.62-1.67,0-2.95-.52-3.85-1.55-.89-1.03-1.34-2.37-1.34-4v-.33Z"/>
      <path class="cls-16" d="M183.98,206.81h6.23v1.26h-6.23v-1.26ZM186.07,207.57v-3.43h1.6v10.8c0,.57.11.98.32,1.22.21.25.55.37,1.01.37.2,0,.39-.02.58-.06s.38-.1.57-.16v1.34c-.17.08-.39.14-.67.2s-.58.09-.9.09c-.77,0-1.38-.24-1.83-.72-.45-.48-.68-1.24-.68-2.27v-7.37Z"/>
      <path class="cls-16" d="M191.39,212.05c0-1.63.46-2.96,1.38-4,.92-1.03,2.16-1.55,3.7-1.55s2.77.52,3.69,1.55,1.38,2.37,1.38,4v.33c0,1.63-.46,2.96-1.38,4-.92,1.03-2.15,1.55-3.69,1.55s-2.78-.52-3.7-1.55c-.92-1.03-1.38-2.37-1.38-4v-.33ZM193.02,212.38c0,1.19.29,2.19.87,3s1.44,1.21,2.58,1.21,2-.4,2.58-1.21.87-1.81.87-3v-.33c0-1.19-.29-2.19-.87-3-.58-.81-1.44-1.21-2.58-1.21s-2,.4-2.58,1.21c-.58.81-.87,1.81-.87,3v.33Z"/>
      <path class="cls-16" d="M209.3,202.66h4.75c1.58,0,2.79.39,3.64,1.18.84.79,1.26,1.84,1.26,3.16s-.42,2.38-1.26,3.18-2.05,1.2-3.64,1.2h-3.1v6.23h-1.64v-14.96ZM214.05,210.03c1.21,0,2.06-.29,2.54-.86s.72-1.29.72-2.16-.24-1.58-.72-2.14-1.33-.84-2.54-.84h-3.1v6h3.1ZM214.19,210.71l1.69-.2,3.82,7.1h-1.87l-3.64-6.9Z"/>
      <path class="cls-16" d="M221.59,206.81h1.59v7.05c0,.92.22,1.59.65,1.99.43.4,1.04.61,1.82.61.66,0,1.25-.18,1.75-.53.5-.35.9-.81,1.2-1.36v-7.76h1.6v10.81h-1.45l-.06-1.49h-.05c-.41.53-.91.95-1.5,1.25s-1.25.45-1.98.45c-1.08,0-1.95-.31-2.59-.92-.65-.61-.97-1.63-.97-3.07v-7.03Z"/>
      <path class="cls-16" d="M233.3,206.81h1.44l.07,1.49h.04c.41-.53.91-.95,1.5-1.25s1.25-.45,1.98-.45c1.09,0,1.96.31,2.6.92.64.61.97,1.64.97,3.07v7.03h-1.6v-7.05c0-.92-.21-1.59-.64-1.99-.42-.4-1.03-.61-1.81-.61-.66,0-1.25.18-1.76.53-.51.36-.91.81-1.2,1.36v7.76h-1.59v-10.81Z"/>
      <path class="cls-16" d="M96.87,237.29c0-1.63.46-2.96,1.38-4,.92-1.03,2.16-1.55,3.7-1.55s2.77.52,3.69,1.55,1.38,2.37,1.38,4v.33c0,1.63-.46,2.96-1.38,4-.92,1.03-2.15,1.55-3.69,1.55s-2.78-.52-3.7-1.55c-.92-1.03-1.38-2.37-1.38-4v-.33ZM98.51,237.62c0,1.19.29,2.19.87,3s1.44,1.21,2.58,1.21,2-.4,2.58-1.21.87-1.81.87-3v-.33c0-1.19-.29-2.19-.87-3-.58-.81-1.44-1.21-2.58-1.21s-2,.4-2.58,1.21c-.58.81-.87,1.81-.87,3v.33Z"/>
      <path class="cls-16" d="M109.46,232.06h1.44l.07,1.49h.04c.41-.53.91-.95,1.5-1.25s1.25-.45,1.98-.45c1.09,0,1.96.31,2.6.92.64.61.97,1.64.97,3.07v7.03h-1.6v-7.05c0-.92-.21-1.59-.64-1.99-.42-.4-1.03-.61-1.81-.61-.66,0-1.25.18-1.76.53-.51.36-.91.81-1.2,1.36v7.76h-1.59v-10.81Z"/>
      <path class="cls-16" d="M124.64,232.06h6.23v1.26h-6.23v-1.26ZM126.72,232.82v-3.43h1.6v10.8c0,.57.11.98.32,1.22.21.25.55.37,1.01.37.2,0,.39-.02.58-.06s.38-.1.57-.16v1.34c-.17.08-.39.14-.67.2s-.58.09-.9.09c-.77,0-1.38-.24-1.83-.72-.45-.48-.68-1.24-.68-2.27v-7.37Z"/>
      <path class="cls-16" d="M132.93,227.08h1.59v6.42c.41-.51.91-.92,1.51-1.21s1.26-.44,1.99-.44c1.04,0,1.89.31,2.54.92.65.61.98,1.64.98,3.07v7.03h-1.6v-7.05c0-.92-.22-1.59-.65-1.99-.43-.4-1.03-.61-1.81-.61-.66,0-1.25.18-1.76.53s-.91.81-1.2,1.36v7.76h-1.59v-15.78Z"/>
      <path class="cls-16" d="M143.85,237.29c0-1.63.45-2.96,1.34-4s2.06-1.55,3.52-1.55,2.58.48,3.37,1.43c.79.95,1.18,2.26,1.18,3.93v.67h-8.46v-1.29h6.85v-.14c0-.99-.24-1.78-.72-2.37s-1.21-.89-2.17-.89c-1.08,0-1.9.4-2.45,1.21s-.83,1.81-.83,3v.33c0,1.2.29,2.2.86,3s1.48,1.21,2.7,1.21c.71,0,1.32-.15,1.83-.44s.93-.65,1.26-1.06l1.04.85c-.34.49-.86.95-1.57,1.36-.7.41-1.56.62-2.56.62-1.67,0-2.95-.52-3.85-1.55-.89-1.03-1.34-2.37-1.34-4v-.33Z"/>
      <path class="cls-16" d="M160.88,227.91h1.64v6.55h8.02v-6.55h1.64v14.96h-1.64v-7.03h-8.02v7.03h-1.64v-14.96Z"/>
      <path class="cls-16" d="M174.81,237.29c0-1.63.46-2.96,1.38-4,.92-1.03,2.16-1.55,3.7-1.55s2.77.52,3.69,1.55,1.38,2.37,1.38,4v.33c0,1.63-.46,2.96-1.38,4-.92,1.03-2.15,1.55-3.69,1.55s-2.78-.52-3.7-1.55c-.92-1.03-1.38-2.37-1.38-4v-.33ZM176.44,237.62c0,1.19.29,2.19.87,3s1.44,1.21,2.58,1.21,2-.4,2.58-1.21.87-1.81.87-3v-.33c0-1.19-.29-2.19-.87-3-.58-.81-1.44-1.21-2.58-1.21s-2,.4-2.58,1.21c-.58.81-.87,1.81-.87,3v.33Z"/>
      <path class="cls-16" d="M188.26,239.68v.05c0,.71.25,1.23.77,1.58.51.35,1.18.52,2.01.52s1.49-.17,1.97-.51c.48-.34.71-.78.71-1.33s-.19-.95-.58-1.22c-.38-.27-1.17-.54-2.37-.82-1.19-.27-2.12-.66-2.78-1.16-.66-.5-.99-1.18-.99-2.04s.36-1.59,1.09-2.16,1.69-.86,2.91-.86,2.2.3,2.94.89c.74.6,1.11,1.38,1.11,2.34v.05h-1.59v-.06c0-.58-.2-1.03-.61-1.38s-1.02-.51-1.84-.51-1.43.15-1.82.44c-.39.29-.59.67-.59,1.14s.21.84.62,1.11c.41.28,1.21.55,2.4.83,1.2.27,2.12.66,2.75,1.15.64.49.96,1.21.96,2.15s-.36,1.73-1.07,2.34c-.71.62-1.78.92-3.21.92s-2.5-.31-3.25-.94-1.12-1.46-1.12-2.5v-.05h1.59Z"/>
      <path class="cls-16" d="M196.12,232.06h6.23v1.26h-6.23v-1.26ZM198.21,232.82v-3.43h1.6v10.8c0,.57.11.98.32,1.22.21.25.55.37,1.01.37.2,0,.39-.02.58-.06s.38-.1.57-.16v1.34c-.17.08-.39.14-.67.2s-.58.09-.9.09c-.77,0-1.38-.24-1.83-.72-.45-.48-.68-1.24-.68-2.27v-7.37Z"/>
      <path class="cls-16" d="M98.94,269.23c-1.11-1.63-1.66-3.77-1.66-6.42v-.1c0-2.69.55-4.84,1.66-6.45,1.11-1.61,2.37-2.71,3.78-3.32v1.49c-.95.5-1.81,1.4-2.59,2.69-.78,1.29-1.18,3.13-1.18,5.52v.25c0,2.34.39,4.17,1.18,5.48.78,1.31,1.65,2.22,2.59,2.73v1.49c-1.41-.6-2.67-1.72-3.78-3.35Z"/>
      <path class="cls-16" d="M104.6,253.15h4.29c1.92,0,3.52.63,4.78,1.89,1.26,1.26,1.89,2.98,1.89,5.17v.84c0,2.18-.63,3.91-1.89,5.17s-2.85,1.89-4.78,1.89h-4.29v-14.96ZM108.89,266.72c1.53,0,2.74-.49,3.65-1.48.9-.99,1.36-2.38,1.36-4.19v-.84c0-1.8-.45-3.2-1.36-4.19-.9-.99-2.12-1.48-3.65-1.48h-2.65v12.18h2.65Z"/>
      <path class="cls-16" d="M118.28,257.3h1.44l.07,1.46h.04c.3-.47.69-.89,1.18-1.24.48-.35,1.06-.53,1.74-.53.16,0,.32.02.5.05.17.03.3.07.38.09v1.49c-.14-.03-.3-.05-.46-.07-.16-.02-.33-.03-.52-.03-.67,0-1.24.17-1.71.52-.47.35-.82.78-1.06,1.29v7.76h-1.59v-10.81Z"/>
      <path class="cls-16" d="M125.48,257.3h1.44l.07,1.46h.04c.3-.47.69-.89,1.18-1.24.48-.35,1.06-.53,1.74-.53.16,0,.32.02.5.05.17.03.3.07.38.09v1.49c-.14-.03-.3-.05-.46-.07-.16-.02-.33-.03-.52-.03-.67,0-1.24.17-1.71.52-.47.35-.82.78-1.06,1.29v7.76h-1.59v-10.81Z"/>
      <path class="cls-16" d="M132.77,253.22c.18-.2.44-.29.78-.29s.6.1.79.29c.18.19.27.44.27.72s-.09.53-.27.72-.44.29-.78.29-.6-.1-.79-.29c-.18-.2-.27-.44-.27-.72s.09-.53.27-.72ZM132.75,257.3h1.59v10.81h-1.59v-10.81Z"/>
      <path class="cls-16" d="M137.56,257.3l2.81,7.64c.1.27.18.52.25.75.07.23.12.42.16.59h.07c.03-.16.09-.36.15-.59.07-.23.15-.48.26-.75l2.8-7.64h1.56l-4.19,10.81h-1.28l-4.19-10.81h1.59Z"/>
      <path class="cls-16" d="M146.38,262.54c0-1.63.45-2.96,1.34-4s2.06-1.55,3.52-1.55,2.58.48,3.37,1.43c.79.95,1.18,2.26,1.18,3.93v.67h-8.46v-1.29h6.85v-.14c0-.99-.24-1.78-.72-2.37s-1.21-.89-2.17-.89c-1.08,0-1.9.4-2.45,1.21s-.83,1.81-.83,3v.33c0,1.2.29,2.2.86,3s1.48,1.21,2.7,1.21c.71,0,1.32-.15,1.83-.44s.93-.65,1.26-1.06l1.04.85c-.34.49-.86.95-1.57,1.36-.7.41-1.56.62-2.56.62-1.67,0-2.95-.52-3.85-1.55-.89-1.03-1.34-2.37-1.34-4v-.33Z"/>
      <path class="cls-16" d="M158.08,257.3h1.44l.07,1.46h.04c.3-.47.69-.89,1.18-1.24.48-.35,1.06-.53,1.74-.53.16,0,.32.02.5.05.17.03.3.07.38.09v1.49c-.14-.03-.3-.05-.46-.07-.16-.02-.33-.03-.52-.03-.67,0-1.24.17-1.71.52-.47.35-.82.78-1.06,1.29v7.76h-1.59v-10.81Z"/>
      <path class="cls-16" d="M166.14,264.92v.05c0,.71.25,1.23.77,1.58.51.35,1.18.52,2.01.52s1.49-.17,1.97-.51c.48-.34.71-.78.71-1.33s-.19-.95-.58-1.22c-.38-.27-1.17-.54-2.37-.82-1.19-.27-2.12-.66-2.78-1.16-.66-.5-.99-1.18-.99-2.04s.36-1.59,1.09-2.16,1.69-.86,2.91-.86,2.2.3,2.94.89c.74.6,1.11,1.38,1.11,2.34v.05h-1.59v-.06c0-.58-.2-1.03-.61-1.38s-1.02-.51-1.84-.51-1.43.15-1.82.44c-.39.29-.59.67-.59,1.14s.21.84.62,1.11c.41.28,1.21.55,2.4.83,1.2.27,2.12.66,2.75,1.15.64.49.96,1.21.96,2.15s-.36,1.73-1.07,2.34c-.71.62-1.78.92-3.21.92s-2.5-.31-3.25-.94-1.12-1.46-1.12-2.5v-.05h1.59Z"/>
      <path class="cls-16" d="M175.93,268.92c.15-.42.23-.91.23-1.47v-1.41h1.59v1.41c0,.68-.14,1.31-.42,1.87s-.65,1.06-1.11,1.47l-.96-.65c.29-.4.51-.81.66-1.23Z"/>
      <path class="cls-16" d="M190.6,253.05h1.59l5.71,15.06h-1.74l-4.27-11.72c-.1-.26-.18-.51-.26-.74-.08-.23-.15-.47-.21-.72h-.1c-.06.25-.13.49-.21.72s-.16.48-.26.73l-4.29,11.72h-1.65l5.69-15.06ZM187.71,262.7h7.33l.52,1.37h-8.38l.52-1.37Z"/>
      <path class="cls-16" d="M199.51,257.3h1.44l.07,1.46h.04c.3-.46.76-.85,1.36-1.18s1.31-.49,2.1-.49c1.39,0,2.49.51,3.31,1.54s1.22,2.33,1.22,3.9v.33c0,1.58-.41,2.88-1.22,3.9s-1.92,1.54-3.31,1.54c-.79,0-1.48-.14-2.04-.42-.57-.28-1.03-.65-1.38-1.11v5.6h-1.59v-15.08ZM202.25,266.4c.53.39,1.16.58,1.91.58,1.13,0,1.96-.39,2.48-1.17.52-.78.79-1.76.79-2.94v-.33c0-1.18-.26-2.16-.79-2.94s-1.35-1.17-2.48-1.17c-.75,0-1.38.19-1.91.58-.53.39-.91.83-1.14,1.33v4.73c.23.5.61.94,1.14,1.33Z"/>
      <path class="cls-16" d="M211.48,257.3h1.44l.07,1.46h.04c.3-.46.76-.85,1.36-1.18s1.31-.49,2.1-.49c1.39,0,2.49.51,3.31,1.54s1.22,2.33,1.22,3.9v.33c0,1.58-.41,2.88-1.22,3.9s-1.92,1.54-3.31,1.54c-.79,0-1.48-.14-2.04-.42-.57-.28-1.03-.65-1.38-1.11v5.6h-1.59v-15.08ZM214.21,266.4c.53.39,1.16.58,1.91.58,1.13,0,1.96-.39,2.48-1.17.52-.78.79-1.76.79-2.94v-.33c0-1.18-.26-2.16-.79-2.94s-1.35-1.17-2.48-1.17c-.75,0-1.38.19-1.91.58-.53.39-.91.83-1.14,1.33v4.73c.23.5.61.94,1.14,1.33Z"/>
      <path class="cls-16" d="M224.31,264.92v.05c0,.71.25,1.23.77,1.58.51.35,1.18.52,2.01.52s1.49-.17,1.97-.51c.48-.34.71-.78.71-1.33s-.19-.95-.58-1.22c-.38-.27-1.17-.54-2.37-.82-1.19-.27-2.12-.66-2.78-1.16-.66-.5-.99-1.18-.99-2.04s.36-1.59,1.09-2.16,1.69-.86,2.91-.86,2.2.3,2.94.89c.74.6,1.11,1.38,1.11,2.34v.05h-1.59v-.06c0-.58-.2-1.03-.61-1.38s-1.02-.51-1.84-.51-1.43.15-1.82.44c-.39.29-.59.67-.59,1.14s.21.84.62,1.11c.41.28,1.21.55,2.4.83,1.2.27,2.12.66,2.75,1.15.64.49.96,1.21.96,2.15s-.36,1.73-1.07,2.34c-.71.62-1.78.92-3.21.92s-2.5-.31-3.25-.94-1.12-1.46-1.12-2.5v-.05h1.59Z"/>
      <path class="cls-16" d="M234.11,268.92c.15-.42.23-.91.23-1.47v-1.41h1.59v1.41c0,.68-.14,1.31-.42,1.87s-.65,1.06-1.11,1.47l-.96-.65c.29-.4.51-.81.66-1.23Z"/>
      <path class="cls-16" d="M243.89,262.54c0-1.63.45-2.96,1.34-4s2.06-1.55,3.52-1.55,2.58.48,3.37,1.43c.79.95,1.18,2.26,1.18,3.93v.67h-8.46v-1.29h6.85v-.14c0-.99-.24-1.78-.72-2.37s-1.21-.89-2.17-.89c-1.08,0-1.9.4-2.45,1.21s-.83,1.81-.83,3v.33c0,1.2.29,2.2.86,3s1.48,1.21,2.7,1.21c.71,0,1.32-.15,1.83-.44s.93-.65,1.26-1.06l1.04.85c-.34.49-.86.95-1.57,1.36-.7.41-1.56.62-2.56.62-1.67,0-2.95-.52-3.85-1.55-.89-1.03-1.34-2.37-1.34-4v-.33Z"/>
      <path class="cls-16" d="M254.04,257.3h6.23v1.26h-6.23v-1.26ZM256.12,258.06v-3.43h1.6v10.8c0,.57.11.98.32,1.22.21.25.55.37,1.01.37.2,0,.39-.02.58-.06s.38-.1.57-.16v1.34c-.17.08-.39.14-.67.2s-.58.09-.9.09c-.77,0-1.38-.24-1.83-.72-.45-.48-.68-1.24-.68-2.27v-7.37Z"/>
      <path class="cls-16" d="M261.65,262.54c0-1.63.44-2.96,1.33-4s2.1-1.55,3.65-1.55c1.43,0,2.51.39,3.25,1.16.74.77,1.1,1.64,1.1,2.61v.05h-1.54v-.05c0-.66-.22-1.23-.67-1.71-.45-.48-1.16-.72-2.14-.72-1.14,0-1.99.4-2.53,1.21-.54.81-.82,1.81-.82,3v.33c0,1.2.27,2.2.82,3s1.39,1.21,2.53,1.21c.98,0,1.69-.24,2.14-.72.45-.48.67-1.05.67-1.71v-.05h1.54v.05c0,.97-.37,1.84-1.1,2.61-.74.77-1.82,1.16-3.25,1.16-1.55,0-2.76-.52-3.65-1.55-.88-1.03-1.33-2.37-1.33-4v-.33Z"/>
      <path class="cls-16" d="M273.59,266.33c.21-.23.51-.34.9-.34s.69.11.9.34.31.51.31.84-.1.6-.31.83-.51.34-.9.34-.69-.11-.9-.34-.31-.51-.31-.84.1-.6.31-.83Z"/>
      <path class="cls-16" d="M277.42,271.09c.95-.51,1.81-1.41,2.6-2.72s1.18-3.13,1.18-5.48v-.25c0-2.38-.39-4.22-1.18-5.51s-1.65-2.18-2.6-2.68v-1.51c1.41.6,2.67,1.71,3.78,3.32,1.11,1.61,1.66,3.76,1.66,6.45v.1c0,2.64-.56,4.78-1.66,6.42s-2.37,2.75-3.78,3.35v-1.5Z"/>
    </g>
  </g>
  <rect class="cls-2" x="467.8" y="676.55" width="98.32" height="111.56"/>
  <rect class="cls-2" x="474.42" y="668.88" width="20.76" height="10.49"/>
  <rect class="cls-2" x="506.53" y="668.88" width="20.76" height="10.49"/>
  <rect class="cls-2" x="537.83" y="668.88" width="20.76" height="10.49"/>
  <g>
    <path class="cls-16" d="M497.38,769.03c.24.25.62.49,1.12.72.51.23,1.07.34,1.69.34.73,0,1.32-.22,1.76-.66.44-.44.66-1.09.66-1.95v-.62c-.25.38-.61.69-1.08.91-.47.22-1.02.33-1.66.33-1.25,0-2.26-.46-3.02-1.36-.76-.91-1.15-2.1-1.15-3.56v-.3c0-1.47.38-2.65,1.14-3.56.76-.91,1.77-1.36,3.02-1.36.63,0,1.19.13,1.69.39.49.26.85.58,1.08.96h.05l.07-1.17h2.26v9.3c0,1.46-.44,2.58-1.33,3.36-.88.78-2.01,1.17-3.39,1.17-.83,0-1.61-.13-2.31-.39-.71-.26-1.29-.59-1.76-.99l1.15-1.56ZM498.74,765.41c.38.56.96.84,1.75.84.52,0,.96-.15,1.33-.45.36-.3.63-.63.79-1.01v-3.49c-.17-.42-.43-.77-.8-1.06-.37-.29-.82-.43-1.35-.43-.77,0-1.34.28-1.72.84-.38.56-.57,1.27-.57,2.14v.48c0,.87.19,1.58.57,2.14Z"/>
    <path class="cls-16" d="M506.99,762.88c0-1.5.44-2.72,1.31-3.64.88-.92,2.01-1.38,3.4-1.38s2.48.43,3.26,1.29c.78.86,1.17,2.05,1.17,3.56v.89h-7.54v-1.6h5.14v-.22c0-.59-.17-1.1-.51-1.51-.35-.41-.85-.62-1.5-.62-.77,0-1.34.29-1.73.86s-.58,1.33-.58,2.26v.49c0,.92.21,1.66.63,2.24.42.58,1.04.86,1.88.86.56,0,1.04-.13,1.44-.39.4-.26.73-.57.98-.92l1.66,1.15c-.31.54-.82,1.01-1.52,1.41s-1.55.59-2.52.59c-1.56,0-2.77-.46-3.65-1.39s-1.31-2.14-1.31-3.63v-.3Z"/>
    <path class="cls-16" d="M518.01,758.14h2.26l.07,1.16h.06c.3-.43.7-.76,1.19-.99.49-.24,1.02-.35,1.59-.35.67,0,1.26.14,1.75.41.49.28.86.69,1.09,1.26h.05c.35-.56.8-.98,1.35-1.26.55-.28,1.14-.41,1.78-.41,1,0,1.79.3,2.38.9.59.6.89,1.59.89,2.99v6.08h-2.41v-6.2c0-.65-.14-1.12-.41-1.42-.27-.3-.67-.45-1.2-.45-.45,0-.85.12-1.19.37s-.61.6-.81,1.03v6.67h-2.42v-6.18c0-.66-.14-1.14-.41-1.44-.27-.3-.68-.45-1.2-.45-.46,0-.85.12-1.19.37s-.6.59-.8,1.03v6.67h-2.41v-9.78Z"/>
    <path class="cls-16" d="M534.29,764.21h2.48v.16c0,.6.19,1.07.58,1.41.39.34.92.51,1.59.51s1.23-.23,1.62-.7.58-1.13.58-2-.2-1.51-.59-1.96c-.4-.45-.93-.67-1.61-.67-.49,0-.91.1-1.26.29-.35.2-.68.46-.97.79l-1.92-.9.7-6.74h7.45v2.03h-5.45s-.35,3.26-.35,3.26c.27-.18.59-.33.96-.46.38-.13.81-.2,1.3-.2,1.22,0,2.23.39,3.04,1.18.81.79,1.21,1.88,1.21,3.28s-.42,2.58-1.26,3.42c-.84.85-1.99,1.27-3.43,1.27s-2.67-.36-3.47-1.08c-.79-.72-1.19-1.64-1.19-2.74v-.17Z"/>
  </g>
  <rect class="cls-7" x="487.79" y="684.02" width="58.48" height="58.48" rx="24.25" ry="24.25"/>
  <rect class="cls-27" x="499.44" y="720.91" width="36.7" height="11.64" rx="4.82" ry="4.82"/>
  <line class="cls-28" x1="503.32" y1="726.9" x2="516.87" y2="726.9"/>
  <circle class="cls-28" cx="530.59" cy="727.06" r=".48"/>
  <use transform="translate(491.12 690.69) scale(.12)" xlink:href="#image"/>
  <path class="cls-26" d="M522.91,707.25c1.52,1.25,3.36,2.5,4.89,3.75.02.01.02.05,0,.06l-4.89,3.31"/>
  <path class="cls-24" d="M540.36,702.67v1.36h-20.71v-1.36c0-1.38.82-2.49,1.85-2.49h17.02c1.02,0,1.84,1.12,1.84,2.49Z"/>
  <path class="cls-25" d="M540.36,704.03v11.35c0,1.38-.82,2.5-1.84,2.5h-17.02c-1.02,0-1.85-1.12-1.85-2.5v-11.35h20.71Z"/>
  <line class="cls-20" x1="530.12" y1="713.59" x2="537.54" y2="713.59"/>
  <line class="cls-22" x1="519.64" y1="704.03" x2="519.6" y2="704.03"/>
  <rect class="cls-13" x="466.51" y="540.73" width="100.9" height="114.49"/>
  <rect class="cls-13" x="472.93" y="532.85" width="21.31" height="10.76"/>
  <rect class="cls-13" x="505.88" y="532.85" width="21.31" height="10.76"/>
  <rect class="cls-13" x="538" y="532.85" width="21.31" height="10.76"/>
  <rect class="cls-12" x="486.64" y="548.4" width="60.01" height="60.01" rx="24.06" ry="24.06"/>
  <line class="cls-18" x1="519.34" y1="568.93" x2="519.29" y2="568.93"/>
  <g>
    <path class="cls-16" d="M493.82,560.77c1.78,0,3.55-.02,5.33,0,.51,0,.78.3.81.82,0,.1,0,.2,0,.29,0,11.22,0,22.43,0,33.65v.49h-1.53v-.52c0-10.67,0-21.34,0-32.01,0-.99-.21-1.2-1.21-1.2-1.13,0-2.27,0-3.4,0v-1.51Z"/>
    <path class="cls-16" d="M536.78,589.89h-1.49v-3.01h-1.54v3h-1.55v-3.01h-1.52v3h-1.54v-3h-1.55v3.01h-1.52v-3.01h-1.52v3h-1.55v-3h-1.54v3.01h-1.52v-3h-1.53v3h-1.56c0-.21,0-.42,0-.64,0-.53,0-1.06,0-1.59-.01-.48-.28-.74-.75-.79-.1,0-.2,0-.29,0-1.85,0-3.69,0-5.54,0-.84,0-1.07.23-1.07,1.07,0,.64,0,1.28,0,1.96h-7.66v-6.1c.71,0,1.39,0,2.08,0,.69,0,.97-.28.97-.97,0-2.94,0-5.88,0-8.81,0-.68-.29-.96-.98-.96-.68,0-1.36,0-2.07,0v-6.12h35.26v22.99ZM533.73,578.38h1.51v-1.51h-1.48v-.77h1.49v-1.54h-1.49v-.78h1.49v-1.53h-1.52c0-.32,0-.6,0-.88,0-1.31-.11-1.42-1.4-1.42-.29,0-.58,0-.91,0v-1.51h-1.54v1.48h-.75v-1.49h-1.54v1.48h-.78v-1.47h-1.54v1.5c-.28,0-.52,0-.76,0-1.45,0-1.53.07-1.53,1.51,0,.26,0,.52,0,.82h-1.51v1.51h1.48v.78h-1.47v1.54h1.48v.76h-1.49v1.53h1.51c0,.4,0,.76,0,1.12,0,.96.21,1.17,1.15,1.17.37,0,.75,0,1.16,0v1.52h1.53v-1.49h.77v1.48h1.54v-1.48h.79v1.49h1.5v-1.52c.4,0,.76,0,1.12,0,.99,0,1.19-.2,1.19-1.17,0-.36,0-.72,0-1.15ZM518.34,574.58h-9.13v1.52c.19,0,.36,0,.52,0,2.46,0,4.92,0,7.38,0q1.38,0,1.27-1.4s-.02-.05-.04-.11ZM509.21,580.72v1.5h6.08v-1.5h-6.08ZM515.3,577.66h-6.09v1.47h6.09v-1.47ZM510.66,573.02c.84.03,1.53-.63,1.57-1.46.03-.87-.61-1.57-1.48-1.59-.83-.03-1.54.63-1.57,1.46-.03.86.63,1.57,1.48,1.6ZM513.79,571.47c0,.86.67,1.55,1.53,1.55.84,0,1.51-.67,1.52-1.51,0-.86-.67-1.55-1.53-1.54-.84,0-1.51.67-1.52,1.51ZM518.39,582.22c0-.45,0-.88,0-1.3,0-.07-.12-.2-.18-.21-.44-.02-.88,0-1.33,0v1.52h1.52ZM516.87,577.65v1.49h1.49v-1.49h-1.49Z"/>
    <path class="cls-16" d="M501.52,574.58h1.49v7.64h-1.49v-7.64Z"/>
    <path class="cls-16" d="M532.17,579.15h-7.6v-7.63h7.6v7.63ZM530.64,577.61v-4.56h-4.56v4.56h4.56Z"/>
    <path class="cls-16" d="M527.61,574.57h1.52c0,.45,0,.89,0,1.33,0,.07-.13.19-.2.19-.43.02-.85,0-1.31,0v-1.53Z"/>
  </g>
  <g>
    <path class="cls-16" d="M479.66,612.56h2.5v13.51h-2.5v-13.51Z"/>
    <path class="cls-16" d="M484.89,616.29h2.26l.06,1.15h.06c.28-.4.68-.73,1.18-.97.5-.25,1.05-.37,1.66-.37,1,0,1.81.28,2.43.85.62.57.93,1.55.93,2.95v6.18h-2.41v-6.24c0-.67-.15-1.14-.44-1.41s-.71-.41-1.25-.41c-.45,0-.85.12-1.22.37s-.65.59-.85,1.02v6.68h-2.41v-9.78Z"/>
    <path class="cls-16" d="M494.64,616.29h5.87v1.78h-5.87v-1.78ZM496.19,617.25v-.28s0-3.02,0-3.02h2.4v9.33c0,.44.08.75.25.92.17.17.41.26.73.26.15,0,.3-.02.45-.05.15-.03.3-.08.45-.13v1.78c-.15.07-.35.14-.62.2-.26.06-.55.09-.86.09-.85,0-1.53-.24-2.05-.73-.52-.49-.77-1.25-.77-2.29v-6.07Z"/>
    <path class="cls-16" d="M501.64,621.03c0-1.5.44-2.72,1.31-3.64.88-.92,2.01-1.38,3.4-1.38s2.48.43,3.26,1.29c.78.86,1.17,2.05,1.17,3.56v.89h-7.54v-1.6h5.14v-.22c0-.59-.17-1.1-.51-1.51-.35-.41-.85-.62-1.5-.62-.77,0-1.34.29-1.73.86s-.58,1.33-.58,2.26v.49c0,.92.21,1.66.63,2.24.42.58,1.04.86,1.88.86.56,0,1.04-.13,1.44-.39.4-.26.73-.57.98-.92l1.66,1.15c-.31.54-.82,1.01-1.52,1.41s-1.55.59-2.52.59c-1.56,0-2.77-.46-3.65-1.39s-1.31-2.14-1.31-3.63v-.3Z"/>
    <path class="cls-16" d="M512.7,611.84h2.42v14.22h-2.42v-14.22Z"/>
    <path class="cls-16" d="M527.48,622.39v-.46s0-5.88,0-5.88h-.11l-3.44,5.07h7.55v1.92h-10.11v-1.61l6.17-8.87h2.36v13.51h-2.42v-3.67Z"/>
    <path class="cls-16" d="M532.56,617.1c0-1.44.4-2.61,1.19-3.49.79-.89,1.92-1.33,3.4-1.33s2.59.44,3.39,1.33c.8.88,1.2,2.05,1.2,3.5v4.42c0,1.45-.4,2.61-1.2,3.5-.8.88-1.93,1.33-3.38,1.33s-2.6-.44-3.4-1.33c-.79-.88-1.19-2.05-1.19-3.5v-4.42ZM535.6,623.66c.32.5.83.75,1.54.75s1.23-.25,1.55-.75c.32-.5.48-1.15.48-1.94v-4.82c0-.79-.16-1.44-.48-1.93-.32-.5-.84-.75-1.55-.75s-1.22.25-1.54.75c-.32.5-.48,1.14-.48,1.93v4.82c0,.79.16,1.44.48,1.94Z"/>
    <path class="cls-16" d="M543.48,618.88c0-2.13.55-3.76,1.65-4.9,1.1-1.14,2.54-1.71,4.33-1.71,1.62,0,2.9.41,3.83,1.23.93.82,1.42,1.82,1.46,3.01v.12h-2.5v-.09c0-.59-.25-1.13-.73-1.6s-1.2-.71-2.14-.71c-1.01,0-1.82.38-2.43,1.14s-.92,1.86-.92,3.31v1.24c0,1.47.32,2.58.96,3.33.64.75,1.52,1.13,2.65,1.13.58,0,1.07-.06,1.48-.18.41-.12.81-.31,1.2-.58v-2.66h-2.87v-1.89h5.31v5.41c-.46.46-1.12.88-1.98,1.28s-1.91.59-3.14.59c-1.9,0-3.4-.57-4.5-1.71s-1.65-2.77-1.65-4.9v-.85Z"/>
    <path class="cls-16" d="M502.44,635.36h2.63l5.28,8.74c.11.19.21.37.3.54s.17.34.24.52h.07c0-.2-.01-.4-.01-.6s0-.4,0-.61v-8.6h2.22v13.51h-2.68l-5.24-8.69c-.11-.19-.21-.37-.3-.55-.09-.18-.17-.36-.24-.54h-.07c0,.2.01.41.02.63,0,.22,0,.43,0,.63v8.53h-2.23v-13.51Z"/>
    <path class="cls-16" d="M516.12,635.36h2.5v13.51h-2.5v-13.51Z"/>
    <path class="cls-16" d="M521.07,641.68c0-2.13.55-3.76,1.65-4.9s2.51-1.71,4.24-1.71,2.99.44,3.96,1.33c.97.89,1.45,2,1.45,3.34v.19h-2.5v-.2c0-.83-.24-1.48-.72-1.97s-1.22-.72-2.2-.72-1.78.35-2.4,1.05c-.62.7-.92,1.83-.92,3.38v1.26c0,1.43.3,2.53.91,3.29.61.76,1.42,1.14,2.43,1.14.93,0,1.64-.25,2.11-.75.47-.5.73-1.15.79-1.95v-.19h2.51v.19c-.09,1.33-.59,2.44-1.52,3.33-.92.89-2.22,1.34-3.89,1.34s-3.15-.57-4.25-1.72c-1.09-1.14-1.64-2.77-1.64-4.89v-.85Z"/>
  </g>
  <path class="cls-16" d="M721.43,359.07v445.86H159.57v-445.86h561.86M724,356.5H157v451h567v-451h0Z"/>
  <line class="cls-19" x1="716.5" y1="286.5" x2="716.5" y2="313.5"/>
  <polyline class="cls-19" points="427.5 312.5 429.5 312.5 716.5 312.5"/>
  <line class="cls-19" x1="428.5" y1="356.8" x2="428.5" y2="311.5"/>
  <g>
    <rect class="cls-4" x="567.31" y="71.19" width="249.91" height="216.96"/>
    <g>
      <path class="cls-16" d="M616.38,162.38c0-2.78.72-4.91,2.17-6.4,1.45-1.49,3.31-2.23,5.58-2.23s4.15.74,5.6,2.23c1.46,1.49,2.18,3.62,2.18,6.4v1.12c0,2.78-.73,4.91-2.18,6.4-1.45,1.49-3.32,2.23-5.6,2.23s-4.13-.74-5.58-2.23c-1.45-1.49-2.17-3.62-2.17-6.4v-1.12ZM620.91,168.07c.8.99,1.88,1.49,3.22,1.49s2.43-.5,3.24-1.49c.81-.99,1.22-2.44,1.22-4.36v-1.55c0-1.92-.41-3.37-1.22-4.36-.81-.99-1.89-1.49-3.24-1.49s-2.41.5-3.22,1.49c-.8.99-1.21,2.44-1.21,4.36v1.55c0,1.92.4,3.37,1.21,4.36Z"/>
      <path class="cls-16" d="M634.83,158.98h2.97l.08,1.48h.06c.28-.49.65-.92,1.13-1.29.48-.36,1.03-.55,1.65-.55.17,0,.34.02.52.06.18.04.3.08.38.11v2.76c-.15-.03-.3-.06-.47-.07-.17-.02-.35-.02-.54-.02-.61,0-1.15.17-1.61.52-.46.34-.8.78-1.01,1.3v8.47h-3.16v-12.78Z"/>
      <path class="cls-16" d="M642.72,165.18c0-1.99.57-3.58,1.71-4.77,1.14-1.19,2.67-1.79,4.58-1.79,1.8,0,3.18.46,4.12,1.38.95.92,1.44,2,1.48,3.22v.16s-3.05,0-3.05,0v-.12c0-.62-.21-1.15-.62-1.59-.42-.44-1.06-.66-1.93-.66-1.03,0-1.79.37-2.3,1.12-.51.75-.76,1.72-.76,2.92v.65c0,1.19.25,2.16.75,2.91s1.26,1.13,2.3,1.13c.93,0,1.59-.23,1.98-.69.39-.46.59-.98.59-1.58v-.11h3.07v.12c0,1.22-.48,2.3-1.45,3.24s-2.35,1.41-4.16,1.41c-1.92,0-3.44-.6-4.58-1.79-1.14-1.2-1.71-2.78-1.71-4.76v-.39Z"/>
      <path class="cls-16" d="M656.94,153.18h3.15v7.46c.4-.56.93-1.01,1.58-1.37.65-.36,1.42-.53,2.32-.53,1.2,0,2.18.38,2.95,1.13.77.76,1.16,1.99,1.16,3.7v8.19h-3.15v-8.06c0-.9-.2-1.54-.6-1.92-.4-.38-.95-.57-1.64-.57-.61,0-1.14.17-1.59.5-.44.34-.79.8-1.03,1.39v8.66h-3.15v-18.58Z"/>
      <path class="cls-16" d="M670.61,165.18c0-1.96.57-3.55,1.71-4.75,1.14-1.2,2.62-1.81,4.44-1.81s3.24.56,4.26,1.69c1.02,1.13,1.53,2.68,1.53,4.65v1.16h-9.86v-2.08h6.72v-.29c0-.78-.22-1.43-.67-1.98-.46-.54-1.11-.81-1.96-.81-1,0-1.76.38-2.27,1.13-.51.75-.76,1.74-.76,2.96v.64c0,1.2.27,2.17.82,2.92.55.75,1.36,1.13,2.46,1.13.73,0,1.36-.17,1.88-.52.53-.34.96-.75,1.28-1.21l2.17,1.5c-.4.71-1.07,1.32-1.99,1.84-.92.51-2.02.77-3.3.77-2.04,0-3.62-.6-4.76-1.81-1.14-1.21-1.71-2.79-1.71-4.75v-.39Z"/>
      <path class="cls-16" d="M687.32,167.83v.15c0,.65.22,1.12.67,1.43.45.31,1.05.46,1.81.46s1.36-.15,1.77-.44.62-.69.62-1.17-.19-.85-.58-1.08c-.39-.24-1.28-.51-2.68-.82-1.46-.31-2.55-.78-3.27-1.41-.73-.62-1.09-1.45-1.09-2.47,0-1.16.47-2.1,1.41-2.8s2.21-1.05,3.8-1.05,2.87.36,3.82,1.08,1.44,1.7,1.44,2.95v.11h-3.09v-.17c0-.53-.18-.94-.53-1.24-.36-.3-.91-.45-1.65-.45s-1.27.13-1.61.39c-.33.26-.5.59-.5,1.01s.2.74.61.98c.41.24,1.32.51,2.72.82,1.45.31,2.53.77,3.24,1.39.72.62,1.07,1.48,1.07,2.59,0,1.24-.46,2.23-1.39,2.97-.93.74-2.29,1.1-4.1,1.1s-3.18-.37-4.15-1.11c-.97-.74-1.46-1.77-1.46-3.08v-.11h3.12Z"/>
      <path class="cls-16" d="M696.22,158.98h7.67v2.33h-7.67v-2.33ZM698.24,160.24v-.36s.01-3.95.01-3.95h3.14v12.19c0,.57.11.97.33,1.2.22.23.54.34.96.34.19,0,.39-.02.59-.07s.39-.1.59-.18v2.33c-.19.1-.46.18-.81.26-.34.08-.72.12-1.12.12-1.11,0-2-.32-2.67-.96-.67-.64-1.01-1.64-1.01-2.99v-7.93Z"/>
      <path class="cls-16" d="M706.07,158.98h2.97l.08,1.48h.06c.28-.49.65-.92,1.13-1.29.48-.36,1.03-.55,1.65-.55.17,0,.34.02.52.06.18.04.3.08.38.11v2.76c-.15-.03-.3-.06-.47-.07-.17-.02-.35-.02-.54-.02-.61,0-1.15.17-1.61.52-.46.34-.8.78-1.01,1.3v8.47h-3.16v-12.78Z"/>
      <path class="cls-16" d="M715.39,164.84c1.08-.72,2.44-1.07,4.08-1.07h2.61v-.78c0-.63-.16-1.15-.49-1.55-.33-.4-.9-.6-1.73-.6s-1.41.17-1.75.5c-.34.33-.51.72-.51,1.18v.15h-3.12v-.15c0-1.1.51-2.02,1.52-2.78s2.34-1.13,3.99-1.13,2.94.36,3.86,1.08c.92.72,1.39,1.82,1.39,3.3v5.87c0,.53.04,1.02.13,1.49.09.46.21.87.36,1.21v.19h-3.08c-.11-.19-.2-.44-.28-.75-.08-.31-.13-.61-.16-.91-.27.49-.74.93-1.43,1.32-.69.39-1.56.58-2.61.58-1.24,0-2.28-.34-3.13-1.01s-1.27-1.67-1.27-2.99c0-1.39.54-2.44,1.62-3.16ZM717.47,169.22c.36.37.92.55,1.69.55s1.49-.26,2.06-.79.86-1.13.86-1.81v-1.42h-2.19c-.99,0-1.72.17-2.21.52-.49.35-.73.84-.73,1.47s.18,1.1.53,1.47Z"/>
      <path class="cls-16" d="M726.9,158.98h7.67v2.33h-7.67v-2.33ZM728.92,160.24v-.36s.01-3.95.01-3.95h3.14v12.19c0,.57.11.97.33,1.2.22.23.54.34.96.34.19,0,.39-.02.59-.07s.39-.1.59-.18v2.33c-.19.1-.46.18-.81.26-.34.08-.72.12-1.12.12-1.11,0-2-.32-2.67-.96-.67-.64-1.01-1.64-1.01-2.99v-7.93Z"/>
      <path class="cls-16" d="M737.01,154.1c.32-.33.79-.5,1.39-.5s1.07.17,1.39.5c.32.33.48.74.48,1.24s-.16.91-.49,1.24c-.33.34-.79.5-1.4.5s-1.06-.17-1.38-.5c-.32-.33-.49-.75-.49-1.24s.16-.9.49-1.24ZM736.81,158.98h3.16v12.78h-3.16v-12.78Z"/>
      <path class="cls-16" d="M742.62,165.18c0-1.99.59-3.58,1.76-4.77,1.18-1.19,2.72-1.79,4.62-1.79s3.46.6,4.64,1.79c1.18,1.19,1.76,2.78,1.76,4.77v.39c0,1.98-.59,3.57-1.76,4.76-1.18,1.2-2.72,1.79-4.64,1.79s-3.45-.6-4.62-1.79c-1.18-1.2-1.76-2.78-1.76-4.76v-.39ZM745.84,165.7c0,1.23.27,2.2.81,2.92.54.71,1.33,1.07,2.35,1.07s1.81-.36,2.35-1.07c.54-.72.81-1.69.81-2.92v-.65c0-1.24-.27-2.21-.82-2.92-.54-.71-1.33-1.07-2.34-1.07s-1.79.36-2.34,1.07c-.55.71-.82,1.69-.82,2.92v.65Z"/>
      <path class="cls-16" d="M757.99,158.98h2.96l.08,1.5h.07c.37-.53.89-.95,1.54-1.27s1.38-.48,2.17-.48c1.31,0,2.37.37,3.18,1.11.81.74,1.21,2.02,1.21,3.85v8.07h-3.15v-8.16c0-.87-.19-1.49-.58-1.85-.38-.36-.93-.54-1.63-.54-.58,0-1.11.16-1.59.48-.48.32-.85.77-1.11,1.33v8.73h-3.15v-12.78Z"/>
      <path class="cls-16" d="M617.05,183.9h11.44v2.52h-8.19v5.29h7.12v2.5h-7.12v7.35h-3.25v-17.65Z"/>
      <path class="cls-16" d="M630.5,188.77h2.97l.08,1.48h.06c.28-.49.65-.92,1.13-1.29.48-.36,1.03-.55,1.65-.55.17,0,.34.02.52.06.18.04.3.08.38.11v2.76c-.15-.03-.3-.06-.47-.07-.17-.02-.35-.02-.54-.02-.61,0-1.15.17-1.61.52-.46.34-.8.78-1.01,1.3v8.47h-3.16v-12.78Z"/>
      <path class="cls-16" d="M639.82,194.63c1.08-.72,2.44-1.07,4.08-1.07h2.61v-.78c0-.63-.16-1.15-.49-1.55-.33-.4-.9-.6-1.73-.6s-1.41.17-1.75.5c-.34.33-.51.72-.51,1.18v.15h-3.12v-.15c0-1.1.51-2.02,1.52-2.78s2.34-1.13,3.99-1.13,2.94.36,3.86,1.08c.92.72,1.39,1.82,1.39,3.3v5.87c0,.53.04,1.02.13,1.49.09.46.21.87.36,1.21v.19h-3.08c-.11-.19-.2-.44-.28-.75-.08-.31-.13-.61-.16-.91-.27.49-.74.93-1.43,1.32-.69.39-1.56.58-2.61.58-1.24,0-2.28-.34-3.13-1.01s-1.27-1.67-1.27-2.99c0-1.39.54-2.44,1.62-3.16ZM641.9,199.01c.36.37.92.55,1.69.55s1.49-.26,2.06-.79.86-1.13.86-1.81v-1.42h-2.19c-.99,0-1.72.17-2.21.52-.49.35-.73.84-.73,1.47s.18,1.1.53,1.47Z"/>
      <path class="cls-16" d="M652.98,188.77h2.96l.08,1.52h.07c.4-.56.91-.99,1.55-1.3s1.33-.46,2.07-.46c.88,0,1.64.18,2.29.54.65.36,1.12.91,1.43,1.64h.06c.46-.74,1.05-1.28,1.76-1.64.71-.36,1.49-.54,2.32-.54,1.3,0,2.34.39,3.11,1.17.77.78,1.16,2.08,1.16,3.91v7.94h-3.15v-8.1c0-.85-.18-1.47-.53-1.86-.36-.39-.88-.59-1.56-.59-.59,0-1.11.15-1.55.48-.45.33-.8.78-1.05,1.35v8.72h-3.16v-8.07c0-.86-.18-1.49-.54-1.89-.36-.39-.88-.59-1.57-.59-.6,0-1.12.16-1.55.48s-.78.77-1.04,1.35v8.72h-3.15v-12.78Z"/>
      <path class="cls-16" d="M674.32,194.97c0-1.96.57-3.55,1.71-4.75,1.14-1.2,2.62-1.81,4.44-1.81s3.24.56,4.26,1.69c1.02,1.13,1.53,2.68,1.53,4.65v1.16h-9.86v-2.08h6.72v-.29c0-.78-.22-1.43-.67-1.98-.46-.54-1.11-.81-1.96-.81-1,0-1.76.38-2.27,1.13-.51.75-.76,1.74-.76,2.96v.64c0,1.2.27,2.17.82,2.92.55.75,1.36,1.13,2.46,1.13.73,0,1.36-.17,1.88-.52.53-.34.96-.75,1.28-1.21l2.17,1.5c-.4.71-1.07,1.32-1.99,1.84-.92.51-2.02.77-3.3.77-2.04,0-3.62-.6-4.76-1.81-1.14-1.21-1.71-2.79-1.71-4.75v-.39Z"/>
      <path class="cls-16" d="M690.46,188.77l2.04,7.56c.08.32.15.61.2.85.05.24.11.53.16.85h.07c.05-.32.09-.61.14-.85.04-.24.12-.53.21-.85l2.33-7.56h2.95l2.41,7.58c.11.31.18.6.24.84.05.25.11.53.16.84h.07c.06-.31.11-.6.15-.84.04-.25.1-.53.18-.84l2.01-7.58h2.79l-3.87,12.78h-2.87l-2.41-7.52c-.1-.31-.19-.62-.27-.95-.08-.32-.15-.64-.22-.96h-.06c-.06.31-.13.63-.21.96-.08.32-.17.64-.26.95l-2.33,7.52h-2.9l-3.86-12.78h3.14Z"/>
      <path class="cls-16" d="M707.74,194.97c0-1.99.59-3.58,1.76-4.77,1.18-1.19,2.72-1.79,4.62-1.79s3.46.6,4.64,1.79c1.18,1.19,1.76,2.78,1.76,4.77v.39c0,1.98-.59,3.57-1.76,4.76-1.18,1.2-2.72,1.79-4.64,1.79s-3.45-.6-4.62-1.79c-1.18-1.2-1.76-2.78-1.76-4.76v-.39ZM710.97,195.49c0,1.23.27,2.2.81,2.92.54.71,1.33,1.07,2.35,1.07s1.81-.36,2.35-1.07c.54-.72.81-1.69.81-2.92v-.65c0-1.24-.27-2.21-.82-2.92-.54-.71-1.33-1.07-2.34-1.07s-1.79.36-2.34,1.07c-.55.71-.82,1.69-.82,2.92v.65Z"/>
      <path class="cls-16" d="M723.12,188.77h2.97l.08,1.48h.06c.28-.49.65-.92,1.13-1.29.48-.36,1.03-.55,1.65-.55.17,0,.34.02.52.06.18.04.3.08.38.11v2.76c-.15-.03-.3-.06-.47-.07-.17-.02-.35-.02-.54-.02-.61,0-1.15.17-1.61.52-.46.34-.8.78-1.01,1.3v8.47h-3.16v-12.78Z"/>
      <path class="cls-16" d="M731.95,182.97h3.15v10.8l4.63-4.99h3.49l-8.12,8.67v4.11h-3.15v-18.58ZM735.47,195.38l2-2.23,6.3,8.4h-3.71l-4.59-6.17Z"/>
    </g>
  </g>
  <g>
    <path class="cls-16" d="M515.81,451.4h2.54v.18c0,.72.24,1.26.7,1.62.47.36,1.13.54,1.97.54s1.49-.17,1.94-.52c.45-.35.68-.81.68-1.38s-.22-1.01-.65-1.32c-.43-.32-1.33-.66-2.69-1.02-1.44-.39-2.51-.9-3.21-1.51-.7-.62-1.05-1.47-1.06-2.56,0-1.15.44-2.08,1.32-2.79.88-.71,2.07-1.07,3.58-1.07s2.71.37,3.61,1.11,1.35,1.71,1.35,2.91v.2h-2.5v-.18c0-.62-.21-1.12-.62-1.51s-1.02-.57-1.83-.57-1.41.16-1.8.47c-.38.31-.58.73-.58,1.27s.2.9.61,1.17,1.29.6,2.65.97c1.42.39,2.5.91,3.24,1.54s1.1,1.55,1.1,2.75-.47,2.21-1.4,2.93-2.18,1.07-3.74,1.07-2.81-.35-3.78-1.06c-.97-.71-1.45-1.72-1.45-3.02v-.21Z"/>
    <path class="cls-16" d="M529.42,445.58l1.57,5.82c.06.25.11.47.15.65.04.19.08.4.13.65h.06c.04-.25.07-.47.11-.65.03-.19.09-.4.16-.65l1.79-5.82h2.27l1.86,5.83c.08.24.14.46.18.65.04.19.08.41.13.65h.06c.04-.24.08-.46.12-.65s.08-.41.14-.65l1.55-5.83h2.14l-2.97,9.83h-2.21l-1.86-5.78c-.07-.24-.14-.48-.21-.73-.06-.25-.12-.49-.17-.74h-.05c-.04.24-.1.49-.16.74-.07.25-.13.49-.2.73l-1.79,5.78h-2.23l-2.96-9.83h2.42Z"/>
    <path class="cls-16" d="M543.46,441.82c.25-.25.61-.38,1.07-.38s.82.13,1.07.38c.25.25.37.57.37.95s-.12.7-.38.96c-.25.26-.61.39-1.08.39s-.81-.13-1.06-.39c-.25-.26-.37-.58-.37-.96s.12-.7.37-.95ZM543.31,445.58h2.43v9.83h-2.43v-9.83Z"/>
    <path class="cls-16" d="M547.06,445.58h5.9v1.79h-5.9v-1.79ZM548.62,446.55v-.28s0-3.04,0-3.04h2.41v9.38c0,.44.08.75.25.92.17.17.41.26.74.26.15,0,.3-.02.45-.05s.3-.08.45-.14v1.79c-.15.07-.36.14-.62.2-.26.06-.55.09-.86.09-.85,0-1.54-.25-2.06-.74-.52-.49-.78-1.26-.78-2.3v-6.1Z"/>
    <path class="cls-16" d="M554.09,450.34c0-1.53.44-2.75,1.31-3.67.88-.92,2.05-1.38,3.52-1.38,1.39,0,2.44.35,3.17,1.06.73.71,1.11,1.54,1.14,2.48v.12s-2.35,0-2.35,0v-.09c0-.48-.16-.89-.48-1.23s-.82-.51-1.49-.51c-.79,0-1.38.29-1.77.86-.39.58-.58,1.32-.58,2.24v.5c0,.91.19,1.66.57,2.24.38.58.97.87,1.77.87.71,0,1.22-.18,1.52-.53.3-.35.45-.76.45-1.22v-.08h2.36v.09c0,.94-.37,1.77-1.11,2.49-.74.72-1.81,1.08-3.2,1.08-1.47,0-2.65-.46-3.52-1.38-.88-.92-1.31-2.14-1.31-3.66v-.3Z"/>
    <path class="cls-16" d="M565.02,441.11h2.42v5.73c.31-.43.72-.78,1.22-1.05.5-.27,1.1-.41,1.79-.41.92,0,1.68.29,2.27.87s.89,1.53.89,2.85v6.3h-2.42v-6.2c0-.69-.15-1.18-.46-1.47-.31-.29-.73-.44-1.26-.44-.47,0-.88.13-1.22.39s-.61.61-.79,1.07v6.66h-2.42v-14.29Z"/>
  </g>
  <g>
    <path class="cls-16" d="M231.5,749.65h2.5v5.6h5.93v-5.6h2.5v13.57h-2.5v-6.02h-5.93v6.02h-2.5v-13.57Z"/>
    <path class="cls-16" d="M244.63,758.16c0-1.53.45-2.75,1.36-3.67.9-.92,2.09-1.38,3.56-1.38s2.66.46,3.57,1.38c.9.92,1.36,2.14,1.36,3.67v.3c0,1.52-.45,2.74-1.36,3.66s-2.09,1.38-3.57,1.38-2.65-.46-3.56-1.38-1.36-2.14-1.36-3.66v-.3ZM247.11,758.56c0,.95.21,1.69.62,2.24.42.55,1.02.83,1.81.83s1.39-.27,1.81-.83c.42-.55.62-1.3.62-2.24v-.5c0-.95-.21-1.7-.63-2.25-.42-.55-1.02-.82-1.8-.82s-1.38.27-1.8.82c-.42.55-.63,1.3-.63,2.25v.5Z"/>
    <path class="cls-16" d="M258.22,760.2v.11c0,.5.17.86.52,1.1s.81.35,1.39.35,1.04-.11,1.36-.34c.32-.23.48-.53.48-.9s-.15-.65-.45-.83c-.3-.18-.99-.39-2.06-.63-1.12-.24-1.96-.6-2.52-1.08-.56-.48-.84-1.11-.84-1.9,0-.9.36-1.61,1.09-2.15.72-.54,1.7-.81,2.92-.81s2.21.28,2.94.83c.74.55,1.1,1.31,1.1,2.27v.08h-2.38v-.13c0-.4-.14-.72-.41-.96-.27-.23-.7-.35-1.27-.35s-.98.1-1.24.3-.39.46-.39.77.16.57.47.75c.31.18,1.01.39,2.09.63,1.11.24,1.94.59,2.49,1.07.55.48.82,1.14.82,1.99,0,.96-.36,1.72-1.07,2.28-.71.57-1.77.85-3.15.85s-2.44-.28-3.19-.85c-.75-.57-1.12-1.36-1.12-2.37v-.08h2.4Z"/>
    <path class="cls-16" d="M265.07,753.4h5.9v1.79h-5.9v-1.79ZM266.62,754.36v-.28s0-3.04,0-3.04h2.41v9.38c0,.44.08.75.25.92s.41.26.74.26c.15,0,.3-.02.45-.05s.3-.08.45-.14v1.79c-.15.08-.36.14-.62.2-.26.06-.55.09-.86.09-.85,0-1.54-.25-2.06-.74-.52-.49-.78-1.26-.78-2.3v-6.1Z"/>
    <path class="cls-16" d="M276.82,754.22c0-1.45.4-2.62,1.19-3.51.8-.89,1.93-1.34,3.41-1.34s2.6.44,3.4,1.33c.8.89,1.2,2.06,1.2,3.51v4.44c0,1.45-.4,2.63-1.21,3.51-.81.89-1.94,1.33-3.4,1.33s-2.62-.44-3.41-1.33-1.19-2.06-1.19-3.51v-4.44ZM279.88,760.81c.32.5.84.75,1.55.75s1.23-.25,1.56-.75c.32-.5.49-1.15.49-1.95v-4.85c0-.8-.16-1.44-.49-1.94-.32-.5-.84-.75-1.56-.75s-1.22.25-1.55.75c-.32.5-.48,1.15-.48,1.94v4.85c0,.8.16,1.45.48,1.95Z"/>
  </g>
  <g>
    <path class="cls-16" d="M583.31,749.65h2.5v5.6h5.93v-5.6h2.5v13.57h-2.5v-6.02h-5.93v6.02h-2.5v-13.57Z"/>
    <path class="cls-16" d="M596.44,758.16c0-1.53.45-2.75,1.36-3.67.9-.92,2.09-1.38,3.56-1.38s2.66.46,3.57,1.38c.9.92,1.36,2.14,1.36,3.67v.3c0,1.52-.45,2.74-1.36,3.66s-2.09,1.38-3.57,1.38-2.65-.46-3.56-1.38-1.36-2.14-1.36-3.66v-.3ZM598.92,758.56c0,.95.21,1.69.62,2.24.42.55,1.02.83,1.81.83s1.39-.27,1.81-.83c.42-.55.62-1.3.62-2.24v-.5c0-.95-.21-1.7-.63-2.25-.42-.55-1.02-.82-1.8-.82s-1.38.27-1.8.82c-.42.55-.63,1.3-.63,2.25v.5Z"/>
    <path class="cls-16" d="M610.03,760.2v.11c0,.5.17.86.52,1.1s.81.35,1.39.35,1.04-.11,1.36-.34c.32-.23.48-.53.48-.9s-.15-.65-.45-.83c-.3-.18-.99-.39-2.06-.63-1.12-.24-1.96-.6-2.52-1.08-.56-.48-.84-1.11-.84-1.9,0-.9.36-1.61,1.09-2.15.72-.54,1.7-.81,2.92-.81s2.21.28,2.94.83c.74.55,1.1,1.31,1.1,2.27v.08h-2.38v-.13c0-.4-.14-.72-.41-.96-.27-.23-.7-.35-1.27-.35s-.98.1-1.24.3-.39.46-.39.77.16.57.47.75c.31.18,1.01.39,2.09.63,1.11.24,1.94.59,2.49,1.07.55.48.82,1.14.82,1.99,0,.96-.36,1.72-1.07,2.28-.71.57-1.77.85-3.15.85s-2.44-.28-3.19-.85c-.75-.57-1.12-1.36-1.12-2.37v-.08h2.4Z"/>
    <path class="cls-16" d="M616.88,753.4h5.9v1.79h-5.9v-1.79ZM618.43,754.36v-.28s0-3.04,0-3.04h2.41v9.38c0,.44.08.75.25.92s.41.26.74.26c.15,0,.3-.02.45-.05s.3-.08.45-.14v1.79c-.15.08-.36.14-.62.2-.26.06-.55.09-.86.09-.85,0-1.54-.25-2.06-.74-.52-.49-.78-1.26-.78-2.3v-6.1Z"/>
    <path class="cls-16" d="M632.62,752.14l-3.27,1.3v-2.15l4.75-1.81h1.04v13.74h-2.52v-11.08Z"/>
  </g>
</svg>