<?xml version="1.0" encoding="UTF-8" standalone="no"?>
<svg
   id="Layer_1"
   viewBox="0 0 1151.322 283.17002"
   version="1.1"
   sodipodi:docname="acdsim.svg"
   width="1151.322"
   height="283.17001"
   inkscape:version="1.2.2 (b0a8486541, 2022-12-01)"
   xmlns:inkscape="http://www.inkscape.org/namespaces/inkscape"
   xmlns:sodipodi="http://sodipodi.sourceforge.net/DTD/sodipodi-0.dtd"
   xmlns="http://www.w3.org/2000/svg"
   xmlns:svg="http://www.w3.org/2000/svg">
  <sodipodi:namedview
     id="namedview67"
     pagecolor="#ffffff"
     bordercolor="#000000"
     borderopacity="0.25"
     inkscape:showpageshadow="2"
     inkscape:pageopacity="0.0"
     inkscape:pagecheckerboard="0"
     inkscape:deskcolor="#d1d1d1"
     showgrid="false"
     inkscape:zoom="0.78575144"
     inkscape:cx="485.5225"
     inkscape:cy="-13.999338"
     inkscape:window-width="1536"
     inkscape:window-height="891"
     inkscape:window-x="0"
     inkscape:window-y="0"
     inkscape:window-maximized="1"
     inkscape:current-layer="Layer_1" />
  <defs
     id="defs4">
    <style
       id="style2">.cls-1{fill:none;}.cls-2{fill:#0095a3;}.cls-3{fill:#007b84;}.cls-4{fill:#f6921e;}.cls-5,.cls-6{fill:#f36c30;}.cls-7,.cls-8{fill:#8eb230;}.cls-9{fill:#6c8b23;}.cls-8{stroke:#8eb230;}.cls-8,.cls-6{stroke-miterlimit:10;stroke-width:8px;}.cls-6{stroke:#f36c30;}</style>
  </defs>
  <path
     class="cls-8"
     d="m 11.372043,242.08 c -6.0800002,0 -8.6500003,-3.58 -6.7900002,-9.36 L 64.662043,51.75 c 2.36,-7.09 7.16,-10.66 14.96,-10.66 h 18.749998 c 7.799999,0 12.599999,3.58 14.959999,10.66 l 60.3,180.96 c 1.86,5.78 -0.72,9.36 -6.79,9.36 h -9.18 c -4.93,0 -8.01,-2.15 -9.45,-6.79 l -17.06,-52.91 c -0.5,-2.15 -1.86,-3.08 -3.8,-3.08 H 50.842043 c -1.94,0 -3.29,0.93 -3.8,3.08 l -17.06,52.91 c -1.43,4.64 -4.51,6.79 -9.45,6.79 h -9.18 l -0.145447,0.0136 z M 119.34204,157.17 c 2.65,0 3.8,-1.65 3.08,-4.09 L 98.092041,77.19 c -1.32,-4.32 -2.94,-8.92 -4.259998,-13.23 -0.5,-2.15 -1.65,-3.08 -3.8,-3.08 h -1.87 c -2.15,0 -3.29,0.93 -4.01,3.08 -1.32,4.32 -2.72,8.71 -4.05,13.23 l -24.33,75.89 c -0.72,2.44 0.43,4.09 3.08,4.09 h 60.479997 z"
     id="path6"
     sodipodi:nodetypes="cccssccssccssccscccscccsscccscs" />
  <path
     class="cls-8"
     d="m 191.46204,141.59 c 0,-76.66 20.77,-103.99 78.74,-103.99 21.12,0 33.58,1.24 47.35,3.94 4.95,1.16 7.29,4.45 6.5,9.58 l -0.5,4.06 c -0.77,5.06 -3.98,7.49 -9.16,6.98 -13.59,-1.31 -24.73,-1.72 -44.19,-1.72 -39.11,0 -51.83,19.95 -51.83,81.14 0,61.19 12.72,81.15 51.83,81.15 20.57,0 34.71,-0.29 48.27,-2.14 5.22,-0.54 8.46,1.7 9.23,6.98 l 0.5,3.85 c 0.74,4.78 -1.43,8.11 -6.37,9.29 -13.93,3.43 -28.12,4.87 -51.64,4.87 -57.95,0 -78.74,-27.37 -78.74,-103.99 z"
     id="path8" />
  <line
     class="cls-1"
     x1="399.64206"
     y1="148.62001"
     x2="399.54205"
     y2="148.57001"
     id="line10" />
  <polygon
     class="cls-5"
     points="474.79,71 471.43,116.46 471.4,116.88 515.61,140.59 523.55,33.16 479.34,9.45 "
     id="polygon12"
     transform="translate(-0.01795734,-9.45)" />
  <polygon
     class="cls-2"
     points="435.15,144.91 429.02,149.64 473.24,173.35 515.61,140.59 471.4,116.88 "
     id="polygon14"
     transform="translate(-0.01795734,-9.45)" />
  <rect
     class="cls-4"
     x="79.247177"
     y="444.3382"
     width="0"
     height="50.169998"
     transform="rotate(-61.79)"
     id="rect16" />
  <path
     class="cls-7"
     d="m 340.16204,259.46 48.64,-37.6 36.25,-28.03 v -0.09 c 0,0 3.4,-45.79 3.4,-45.79 l 0.56,-7.75 -42.5,32.87 3.87,-53.59 -42.5,32.96 -7.71,107.03 z m 47.28,-61.99 c -3,-1.61 -0.93,-11.3 4.61,-21.64 5.55,-10.35 12.48,-17.42 15.48,-15.82 l 8.15,4.37 c 3,1.61 0.94,11.29 -4.61,21.64 -5.55,10.34 -12.48,17.42 -15.47,15.81 l -8.15,-4.37 z m -38.14,-19.86 c -3,-1.61 -0.94,-11.3 4.61,-21.65 5.55,-10.34 12.48,-17.42 15.48,-15.81 l 8.14,4.37 c 3.01,1.61 0.94,11.3 -4.6,21.64 -5.55,10.35 -12.48,17.43 -15.48,15.81 l -8.14,-4.37 z m 3.99,57.43 -8.15,-4.37 c -3,-1.61 -0.93,-11.3 4.61,-21.64 5.55,-10.34 12.48,-17.42 15.47,-15.81 l 8.15,4.37 c 3,1.61 0.94,11.3 -4.6,21.64 -5.55,10.35 -12.48,17.42 -15.48,15.81 z"
     id="path18" />
  <path
     class="cls-1"
     d="m 387.43204,197.47 8.15,4.37 c 3,1.61 9.93,-5.47 15.47,-15.81 5.55,-10.35 7.61,-20.04 4.61,-21.64 l -8.15,-4.37 c 1.62,0.87 1.77,4.1 0.68,8.52 -0.92,3.75 -2.73,8.36 -5.29,13.13 -2.56,4.77 -5.39,8.81 -8.01,11.66 -3.07,3.34 -5.85,5.02 -7.47,4.15 z"
     id="path20" />
  <path
     class="cls-7"
     d="m 349.30204,177.61 c 1.62,0.87 4.39,-0.79 7.46,-4.13 2.62,-2.84 5.47,-6.92 8.03,-11.68 2.56,-4.76 4.38,-9.39 5.29,-13.15 1.09,-4.41 0.94,-7.63 -0.68,-8.5 -3,-1.61 -9.93,5.46 -15.48,15.81 -5.55,10.34 -7.61,20.04 -4.61,21.65 z"
     id="path22" />
  <path
     class="cls-7"
     d="m 345.14204,230.67 c 1.62,0.87 4.4,-0.8 7.47,-4.15 2.62,-2.86 5.46,-6.92 8.01,-11.67 2.55,-4.75 4.36,-9.37 5.29,-13.12 1.09,-4.42 0.94,-7.65 -0.68,-8.52 -3,-1.61 -9.93,5.47 -15.47,15.81 -5.55,10.34 -7.61,20.04 -4.61,21.64 z"
     id="path24" />
  <path
     class="cls-7"
     d="m 387.43204,197.47 c 1.62,0.87 4.4,-0.8 7.47,-4.15 2.62,-2.85 5.46,-6.91 8.01,-11.66 2.55,-4.75 4.37,-9.38 5.29,-13.13 1.09,-4.42 0.94,-7.65 -0.68,-8.52 -3,-1.61 -9.93,5.47 -15.48,15.82 -5.54,10.34 -7.61,20.03 -4.61,21.64 z"
     id="path26" />
  <path
     class="cls-1"
     d="m 345.14204,230.67 8.15,4.37 c 3,1.61 9.93,-5.46 15.48,-15.81 5.55,-10.34 7.61,-20.03 4.6,-21.64 l -8.15,-4.37 c 1.62,0.87 1.77,4.1 0.68,8.52 -0.92,3.75 -2.73,8.36 -5.29,13.12 -2.56,4.76 -5.39,8.81 -8.01,11.67 -3.07,3.34 -5.85,5.02 -7.47,4.15 z"
     id="path28" />
  <path
     class="cls-1"
     d="m 349.30204,177.61 8.14,4.37 c 3.01,1.61 9.93,-5.46 15.48,-15.81 5.55,-10.34 7.61,-20.03 4.6,-21.64 l -8.14,-4.37 c 1.62,0.87 1.77,4.09 0.68,8.5 -0.91,3.75 -2.73,8.38 -5.29,13.15 -2.56,4.76 -5.41,8.85 -8.03,11.68 -3.07,3.34 -5.83,5 -7.46,4.13 z"
     id="path30" />
  <path
     class="cls-4"
     d="m 432.65204,86.65 0.29,0.16 0.03,-0.41 -0.33,0.25 z"
     id="path32" />
  <path
     class="cls-2"
     d="m 386.50204,173.06 42.5,-32.87 v 0 c 0,0 3.94,-53.38 3.94,-53.38 l -0.29,-0.16 -42.29,32.82 -3.87,53.59 z m 13.14,-24.43 c 0,0 -0.06,-0.03 -0.09,-0.07 l -8.05,-4.32 c -3,-1.61 -0.94,-11.29 4.61,-21.64 5.55,-10.35 12.48,-17.42 15.48,-15.82 l 8.15,4.37 c 3,1.61 0.94,11.3 -4.61,21.65 -5.54,10.34 -12.48,17.42 -15.48,15.81 z"
     id="path34" />
  <path
     class="cls-5"
     d="m 432.95204,86.81 -3.94,53.38 6.13,-4.73 36.25,-28.03 0.03,-0.41 3.36,-45.47 4.55,-61.55 -85.11,66.04 -3.85,53.44 42.29,-32.82 0.33,-0.25 -0.03,0.41 z m -8.78,-29.25 c 3.01,1.61 0.94,11.3 -4.6,21.64 -5.55,10.35 -12.48,17.43 -15.48,15.81 l -8.14,-4.37 c -3,-1.61 -0.94,-11.3 4.61,-21.65 5.55,-10.35 12.48,-17.42 15.48,-15.81 l 8.14,4.37 z m 13.72,0.18 c -3,-1.61 -0.93,-11.31 4.61,-21.64 5.55,-10.35 12.48,-17.42 15.47,-15.81 l 8.15,4.37 c 3,1.61 0.95,11.29 -4.6,21.64 -5.55,10.35 -12.48,17.42 -15.48,15.81 z m 0.55,31.59 c 5.55,-10.34 12.48,-17.42 15.47,-15.81 l 8.15,4.37 c 3,1.61 0.94,11.29 -4.61,21.64 -5.55,10.35 -12.48,17.42 -15.48,15.82 l -8.15,-4.37 c -3,-1.61 -0.93,-11.3 4.61,-21.64 z"
     id="path36" />
  <path
     class="cls-5"
     d="m 433.83204,110.97 c 1.62,0.87 4.4,-0.8 7.47,-4.15 2.62,-2.84 5.46,-6.9 8.02,-11.66 2.55,-4.76 4.37,-9.38 5.29,-13.12 1.09,-4.43 0.94,-7.65 -0.68,-8.52 -3,-1.61 -9.93,5.47 -15.47,15.81 -5.54,10.34 -7.61,20.04 -4.61,21.64 z"
     id="path38" />
  <path
     class="cls-5"
     d="m 395.94204,90.65 c 1.62,0.87 4.39,-0.79 7.46,-4.13 2.62,-2.84 5.47,-6.91 8.03,-11.68 2.56,-4.76 4.38,-9.39 5.29,-13.15 1.09,-4.41 0.94,-7.63 -0.68,-8.5 -3,-1.61 -9.93,5.46 -15.48,15.81 -5.55,10.35 -7.61,20.04 -4.61,21.65 z"
     id="path40" />
  <path
     class="cls-5"
     d="m 437.89204,57.74 c 1.62,0.87 4.4,-0.8 7.47,-4.15 2.62,-2.86 5.46,-6.92 8.01,-11.67 2.55,-4.76 4.36,-9.37 5.29,-13.13 1.09,-4.42 0.94,-7.64 -0.68,-8.51 -3,-1.61 -9.92,5.46 -15.47,15.81 -5.54,10.34 -7.61,20.04 -4.61,21.64 z"
     id="path42" />
  <path
     class="cls-1"
     d="m 395.94204,90.65 8.14,4.37 c 3.01,1.61 9.93,-5.46 15.48,-15.81 5.55,-10.34 7.61,-20.03 4.6,-21.64 l -8.14,-4.37 c 1.62,0.87 1.77,4.09 0.68,8.5 -0.91,3.75 -2.73,8.38 -5.29,13.15 -2.56,4.77 -5.41,8.85 -8.03,11.68 -3.07,3.34 -5.83,5 -7.46,4.13 z"
     id="path44" />
  <path
     class="cls-1"
     d="m 433.83204,110.97 8.15,4.37 c 3,1.61 9.93,-5.47 15.48,-15.82 5.55,-10.34 7.61,-20.03 4.61,-21.64 l -8.15,-4.37 c 1.62,0.87 1.77,4.09 0.68,8.52 -0.92,3.74 -2.73,8.36 -5.29,13.12 -2.56,4.76 -5.4,8.83 -8.02,11.66 -3.07,3.35 -5.85,5.02 -7.47,4.15 z"
     id="path46" />
  <path
     class="cls-2"
     d="m 391.49204,144.25 c 1.62,0.87 4.39,-0.79 7.46,-4.14 2.63,-2.85 5.47,-6.91 8.02,-11.67 2.55,-4.75 4.36,-9.36 5.29,-13.13 1.09,-4.41 0.94,-7.65 -0.68,-8.52 -3,-1.61 -9.93,5.47 -15.48,15.82 -5.55,10.35 -7.61,20.03 -4.61,21.64 z"
     id="path48" />
  <path
     class="cls-1"
     d="m 399.63204,148.63 c 3,1.61 9.94,-5.48 15.48,-15.81 5.55,-10.35 7.61,-20.04 4.61,-21.65 l -8.15,-4.37 c 1.62,0.87 1.77,4.11 0.68,8.52 -0.93,3.76 -2.74,8.38 -5.29,13.13 -2.55,4.76 -5.39,8.82 -8.02,11.67 -3.07,3.34 -5.84,5.01 -7.46,4.14 l 8.05,4.32 c 0,0 0.06,0.05 0.09,0.07 z"
     id="path50" />
  <polygon
     class="cls-3"
     points="428.46,157.39 425.07,203.19 425.06,203.28 469.27,226.99 473.23,173.36 429.02,149.64 "
     id="polygon52"
     transform="translate(-0.01795734,-9.45)" />
  <rect
     class="cls-4"
     x="79.247177"
     y="444.3382"
     width="0"
     height="50.169998"
     transform="rotate(-61.79)"
     id="rect54" />
  <polygon
     class="cls-9"
     points="388.81,231.31 340.18,268.91 384.39,292.62 469.27,226.99 425.06,203.28 "
     id="polygon56"
     transform="translate(-0.01795734,-9.45)" />
  <path
     class="cls-6"
     d="m 565.02204,241.63 c -10.85,-0.5 -16.64,-6.71 -16.64,-17.78 V 56.55 c 0,-11.07 4.64,-17.28 13.64,-17.78 17.21,-1.03 36.27,-1.69 57.96,-1.69 57.72,0 78.43,25.47 78.43,103.12 0,77.65 -20.71,103.12 -78.43,103.12 -20.41,0 -38.31,-0.66 -54.96,-1.69 z m 106.48,-101.43 c 0,-60.75 -12.94,-80.91 -51.52,-80.91 -15.26,0 -28.01,0.37 -39.94,0.45 -3.95,0 -6.1,2.23 -6.1,6.1 v 148.3 c 0,4.17 1.72,6.1 4.88,6.31 12.22,0.08 25.82,0.45 41.16,0.45 38.58,0 51.52,-19.96 51.52,-80.7 z"
     id="path58" />
  <path
     class="cls-6"
     d="m 729.93204,240.14 c -5.44,-0.93 -7.8,-3.85 -7.38,-9 l 0.21,-3.34 c 0.43,-5.23 3.5,-7.93 9.07,-7.64 28.27,1.06 38.73,1.19 53.83,1.11 30.88,-0.16 40.64,-9.45 40.64,-31.56 0,-20.25 -8.15,-27.99 -26.13,-33.2 l -40.02,-12.16 c -29.5,-8.42 -40.46,-28.31 -40.46,-56.02 0,-40.33 20.44,-52.21 65.26,-52.05 16.42,0.08 34.96,1.03 52.47,4.06 4.86,0.93 7.3,4.06 6.87,9.21 l -0.21,3.13 c -0.43,5.07 -3.5,7.85 -8.65,7.64 -14.7,-0.74 -33.58,-1.19 -49.41,-1.19 -29,0 -40.56,4.79 -40.56,29.84 0,19.2 8.07,27.75 26.38,32.88 l 38.96,11.73 c 31.3,9.01 41.49,28.55 41.49,56.55 0,39.96 -20.36,53.98 -67.33,53.98 -12.04,0 -31.51,-0.5 -55.03,-3.98 z"
     id="path60" />
  <path
     class="cls-6"
     d="m 873.92204,54.36 c 0,-8.86 7.27,-16.2 16.33,-16.2 9.06,0 16.2,7.34 16.2,16.2 0,8.86 -7.34,16.33 -16.2,16.33 -8.86,0 -16.33,-7.27 -16.33,-16.33 z m 12.78,186.33 c -5.79,0 -8.86,-3.08 -8.86,-8.86 V 107.81 c 0,-5.86 3.08,-8.86 8.86,-8.86 h 6.9 c 5.86,0 8.86,3 8.86,8.86 v 124.02 c 0,5.86 -3,8.86 -8.86,8.86 z"
     id="path62" />
  <path
     class="cls-6"
     d="m 945.32204,240.7 c -5.79,0 -8.86,-3 -8.86,-8.86 V 107.82 c 0,-5.79 2.92,-8.86 8.7,-8.86 h 3.13 c 5.57,0 8.49,0.45 9.63,6.1 l 0.37,3.59 c 0.43,2.58 2.07,3.58 4.51,1.94 18.08,-11.63 40.65006,-15.33 53.15006,-15.33 15.49,0 26.27,2.99 34.22,15.17 1.35,2.15 2.87,2.36 5.44,0.58 18.39,-11.63 35.62,-15.76 53.46,-15.76 24.85,0 38.25,13.53 38.25,39.01 v 97.57 c 0,5.86 -3.08,8.86 -8.86,8.86 h -7.11 c -5.86,0 -8.86,-3 -8.86,-8.86 v -90.54 c -0.21,-17.46 -6.24,-24.9 -22.09,-24.9 -12.21,0 -24.38,2.13 -44.23,13.18 -1.72,1.14 -2.44,2.36 -2.36,4.51 0.24,3.73 0.39,7.25 0.18,11.22 v 86.52 c -0.21,5.86 -3.29,8.86 -9.07,8.86 h -6.27 c -5.86,0 -8.86,-3 -8.86,-8.86 v -90.54 c 0.21,-18.31 -7.09,-24.9 -22.09,-24.9 -9.59003,0 -23.70006,1.58 -43.76006,12.78 -1.72,0.93 -2.44,2.36 -2.65,4.51 v 98.15 c -0.21,5.86 -3.21,8.86 -9.07,8.86 h -6.9 z"
     id="path64" />
</svg>
