<?xml version="1.0" encoding="utf-8"?>
<!-- Generator: Adobe Illustrator 23.0.5, SVG Export Plug-In . SVG Version: 6.00 Build 0)  -->
<svg version="1.1" id="publicdomainvectors.org" xmlns="http://www.w3.org/2000/svg" xmlns:xlink="http://www.w3.org/1999/xlink"
	 x="0px" y="0px" viewBox="0 0 319.93 256.87" style="enable-background:new 0 0 319.93 256.87;" xml:space="preserve">
<style type="text/css">
	.st0{fill:#010101;}
</style>
<g>
	<path class="st0" d="M311.92,82.87c0.08-3.09-0.04-6.15-0.35-9.16l7.61-5.58c-0.46-2.82-1.06-5.6-1.8-8.32l-9.23-1.93
		c-0.98-2.91-2.15-5.74-3.48-8.49l5.24-7.84c-1.39-2.48-2.9-4.9-4.54-7.22l-9.34,1.35c-1.91-2.39-3.97-4.65-6.16-6.79l2.25-9.18
		c-2.14-1.85-4.39-3.59-6.73-5.21l-8.32,4.46c-2.6-1.59-5.31-3.04-8.12-4.3l-1.02-9.37c-2.63-1-5.34-1.86-8.11-2.59l-6.3,7.04
		c-1.94-0.39-3.89-0.72-5.89-0.96c-1.07-0.12-2.13-0.21-3.19-0.29l-4.18-8.48c-2.86-0.04-5.7,0.07-8.5,0.33l-3.51,8.77
		c-3.05,0.46-6.05,1.1-8.98,1.93l-6.82-6.53c-2.69,0.94-5.32,2.03-7.87,3.24l-0.3,9.44c-2.69,1.47-5.28,3.09-7.76,4.88l-8.62-3.8
		c-2.2,1.8-4.31,3.71-6.32,5.73l2.94,8.96c-2.02,2.29-3.9,4.71-5.62,7.24l-9.42-0.62c-1.45,2.43-2.78,4.94-3.98,7.53l5.83,7.41
		c-1.1,2.83-2.03,5.75-2.78,8.75l-9.05,2.64c-0.36,1.89-0.68,3.8-0.91,5.74c-0.11,0.91-0.17,1.81-0.25,2.72l8.01,4.96
		c-0.08,3.09,0.04,6.15,0.35,9.17l-7.61,5.58c0.46,2.82,1.06,5.6,1.8,8.32l9.23,1.93c0.98,2.91,2.15,5.74,3.49,8.49l-5.24,7.84
		c1.39,2.48,2.9,4.9,4.54,7.22l9.34-1.34c1.91,2.39,3.97,4.65,6.16,6.79l-2.25,9.19c2.14,1.85,4.39,3.59,6.73,5.21l8.32-4.46
		c2.6,1.59,5.31,3.04,8.12,4.3l1.02,9.37c2.63,1,5.34,1.86,8.11,2.59l6.3-7.04c1.94,0.39,3.89,0.72,5.89,0.96
		c1.06,0.13,2.13,0.21,3.19,0.29l4.18,8.48c2.86,0.04,5.7-0.07,8.5-0.33l3.51-8.77c3.05-0.46,6.05-1.1,8.98-1.94l6.82,6.53
		c2.69-0.94,5.31-2.03,7.87-3.24l0.3-9.44c2.69-1.47,5.28-3.09,7.76-4.88l8.62,3.8c2.2-1.8,4.31-3.71,6.32-5.73l-2.94-8.95
		c2.02-2.29,3.89-4.71,5.62-7.24l9.42,0.62c1.45-2.43,2.78-4.94,3.97-7.53l-5.83-7.41c1.11-2.83,2.03-5.75,2.78-8.75l9.05-2.64
		c0.36-1.89,0.68-3.8,0.91-5.74c0.11-0.91,0.17-1.81,0.25-2.72L311.92,82.87z M291.06,87.2c-3.09,26.33-25.39,46.19-51.86,46.19
		c-2.04,0-4.12-0.12-6.16-0.36c-13.87-1.63-26.28-8.56-34.93-19.52c-8.66-10.96-12.53-24.63-10.9-38.5
		c3.09-26.33,25.39-46.19,51.86-46.19h0c2.04,0,4.11,0.12,6.16,0.36c13.87,1.63,26.28,8.56,34.93,19.52
		C288.82,59.65,292.69,73.33,291.06,87.2 M244.98,31.33c-1.98-0.23-3.95-0.35-5.91-0.35c-25.06,0-46.71,18.77-49.7,44.27
		c-3.23,27.48,16.44,52.38,43.92,55.61c1.99,0.23,3.96,0.34,5.91,0.34c25.06,0,46.71-18.77,49.7-44.27
		C292.13,59.46,272.47,34.56,244.98,31.33 M258.6,83.39c-1.26,10.75-11,18.44-21.75,17.18c-10.75-1.26-18.44-11-17.18-21.75
		c1.26-10.75,11-18.44,21.75-17.18C252.17,62.89,259.87,72.64,258.6,83.39 M206.74,186.47c-0.23-2.48-0.61-4.92-1.14-7.3l5.57-5.18
		c-0.63-2.21-1.37-4.38-2.22-6.49l-7.56-0.68c-1.06-2.24-2.26-4.39-3.59-6.46l3.46-6.77c-1.35-1.86-2.78-3.64-4.31-5.34l-7.35,1.95
		c-1.75-1.73-3.61-3.35-5.57-4.85l0.94-7.56c-1.89-1.28-3.85-2.46-5.87-3.54l-6.24,4.35c-2.23-1.03-4.53-1.93-6.9-2.68l-1.7-7.4
		c-2.2-0.55-4.45-0.98-6.73-1.31l-4.38,6.23c-1.58-0.13-3.18-0.21-4.8-0.21c-0.86,0-1.72,0.03-2.58,0.06l-4.14-6.39
		c-2.3,0.23-4.55,0.59-6.77,1.06l-1.98,7.35c-2.4,0.65-4.74,1.45-7,2.39l-6.07-4.58c-2.06,1-4.06,2.12-5.99,3.33l0.65,7.58
		c-2.01,1.43-3.94,2.97-5.75,4.63l-7.26-2.23c-1.59,1.64-3.1,3.37-4.52,5.18l3.2,6.89c-1.4,2.02-2.68,4.13-3.82,6.33l-7.59,0.39
		c-0.93,2.08-1.76,4.21-2.47,6.4l5.36,5.38c-0.62,2.36-1.08,4.79-1.4,7.26l-7,2.96c-0.11,1.55-0.18,3.1-0.18,4.68
		c0,0.74,0.03,1.47,0.06,2.2l6.87,3.22c0.23,2.48,0.61,4.91,1.14,7.3l-5.57,5.18c0.63,2.21,1.37,4.38,2.22,6.49l7.57,0.68
		c1.06,2.24,2.26,4.39,3.59,6.46l-3.46,6.77c1.35,1.86,2.78,3.64,4.31,5.35l7.34-1.95c1.75,1.73,3.61,3.35,5.57,4.85l-0.94,7.56
		c1.89,1.28,3.85,2.46,5.87,3.54l6.24-4.35c2.23,1.03,4.53,1.93,6.9,2.67l1.7,7.4c2.2,0.55,4.45,0.98,6.73,1.31l4.38-6.23
		c1.59,0.13,3.18,0.21,4.8,0.21c0.87,0,1.72-0.03,2.58-0.06l4.14,6.39c2.29-0.23,4.55-0.59,6.77-1.06l1.98-7.35
		c2.4-0.66,4.74-1.45,7-2.39l6.07,4.58c2.06-1,4.06-2.12,5.99-3.33l-0.65-7.58c2.01-1.43,3.94-2.97,5.75-4.63l7.25,2.23
		c1.6-1.64,3.1-3.37,4.52-5.18l-3.2-6.89c1.4-2.02,2.68-4.13,3.82-6.32l7.59-0.39c0.93-2.08,1.76-4.21,2.47-6.4l-5.36-5.38
		c0.62-2.36,1.08-4.79,1.4-7.26l7-2.96c0.11-1.55,0.19-3.1,0.19-4.68c0-0.74-0.03-1.47-0.06-2.2L206.74,186.47z M148.34,234
		c-23.22,0-42.12-18.89-42.12-42.12c0-23.22,18.89-42.12,42.12-42.12c23.22,0,42.12,18.89,42.12,42.12
		C190.46,215.11,171.56,234,148.34,234 M148.34,151.52c-22.29,0-40.36,18.07-40.36,40.37c0,22.29,18.07,40.37,40.36,40.37
		c22.29,0,40.37-18.07,40.37-40.37C188.7,169.59,170.63,151.52,148.34,151.52 M148.34,207.67c-8.72,0-15.79-7.07-15.79-15.79
		c0-8.72,7.07-15.79,15.79-15.79c8.72,0,15.79,7.07,15.79,15.79C164.13,200.6,157.06,207.67,148.34,207.67 M96.99,104.47
		c-1.7-19.31-17.9-33.85-36.92-33.85c-1.09,0-2.19,0.05-3.3,0.14c-20.41,1.8-35.51,19.8-33.71,40.22
		c1.7,19.31,17.9,33.85,36.92,33.85c1.09,0,2.19-0.05,3.3-0.15C83.7,142.88,98.79,124.88,96.99,104.47 M61.3,122.18
		c-7.98,0.7-15.03-5.2-15.73-13.18c-0.7-7.98,5.2-15.03,13.19-15.73c7.98-0.7,15.03,5.2,15.73,13.19
		C75.19,114.43,69.28,121.47,61.3,122.18 M90.9,159.23c1.81-1.08,3.55-2.27,5.22-3.53l-1.21-6.89c1.73-1.47,3.37-3.04,4.89-4.71
		l6.82,1.45c1.33-1.63,2.57-3.34,3.72-5.11l-3.48-6.05c1.12-1.96,2.12-4,2.99-6.1l6.92-0.97c0.69-1.98,1.27-4,1.75-6.06l-5.34-4.49
		c0.38-2.21,0.6-4.47,0.7-6.76l6.17-3.27c-0.02-1.43-0.08-2.86-0.21-4.3c-0.06-0.67-0.15-1.34-0.23-2.01l-6.55-2.4
		c-0.41-2.25-0.96-4.45-1.63-6.59l4.68-5.19c-0.76-1.98-1.61-3.9-2.56-5.77l-6.98-0.01c-1.15-1.96-2.43-3.84-3.81-5.63l2.62-6.48
		c-1.38-1.59-2.84-3.11-4.38-4.55l-6.57,2.38c-1.74-1.45-3.58-2.78-5.49-3.99l0.25-7c-1.83-1.02-3.72-1.94-5.66-2.77l-5.36,4.49
		c-2.12-0.76-4.3-1.4-6.53-1.89l-2.15-6.64c-2.06-0.33-4.16-0.54-6.27-0.65l-3.51,6.05c-1.46,0.01-2.93,0.06-4.41,0.19
		c-0.79,0.07-1.57,0.16-2.36,0.27l-4.31-5.52c-2.08,0.4-4.12,0.91-6.11,1.52l-1.23,6.89c-2.14,0.79-4.22,1.71-6.22,2.75l-5.93-3.71
		c-1.81,1.09-3.55,2.27-5.22,3.53l1.2,6.89c-1.73,1.47-3.37,3.03-4.89,4.7l-6.82-1.46c-1.33,1.64-2.57,3.34-3.72,5.11l3.48,6.05
		c-1.12,1.96-2.12,4-2.99,6.1L3.27,88.1c-0.69,1.98-1.27,4-1.75,6.06l5.34,4.49c-0.38,2.21-0.6,4.47-0.7,6.76L0,108.69
		c0.03,1.42,0.08,2.86,0.21,4.3c0.06,0.67,0.15,1.34,0.23,2l6.55,2.4c0.41,2.25,0.96,4.45,1.63,6.59l-4.68,5.19
		c0.76,1.98,1.61,3.9,2.56,5.77l6.98,0.01c1.15,1.96,2.42,3.84,3.8,5.63l-2.62,6.48c1.38,1.59,2.84,3.11,4.38,4.55l6.57-2.38
		c1.74,1.44,3.58,2.78,5.49,3.99l-0.25,7c1.83,1.02,3.72,1.94,5.66,2.77l5.36-4.49c2.12,0.76,4.3,1.4,6.53,1.9l2.15,6.64
		c2.06,0.33,4.15,0.54,6.27,0.65l3.51-6.06c1.46-0.01,2.93-0.06,4.41-0.19c0.79-0.07,1.57-0.17,2.35-0.27l4.31,5.52
		c2.08-0.4,4.12-0.91,6.12-1.52l1.22-6.88c2.14-0.79,4.22-1.71,6.22-2.75L90.9,159.23z M63.42,146.29c-1.14,0.1-2.3,0.15-3.44,0.15
		c-20.19,0-36.75-15.18-38.52-35.32c-0.91-10.3,2.25-20.34,8.89-28.26c6.64-7.93,15.98-12.79,26.28-13.7
		c1.14-0.1,2.3-0.15,3.44-0.15c19.86,0,36.78,15.51,38.52,35.32c0.91,10.3-2.25,20.34-8.89,28.27
		C83.06,140.51,73.72,145.38,63.42,146.29"/>
</g>
</svg>
